<svg width="121" height="135" fill="none" xmlns="http://www.w3.org/2000/svg"><ellipse cx="60.506" cy="62" rx="59.657" ry="62" fill="#AC97C0"/><path d="M81.302 107.633H54.58c-.61.001-1.2-.219-1.667-.623a2.68 2.68 0 0 1-.887-1.581c-.943-5.553-2.113-9.562-3.053-10.46-1.585-1.517-5.307-1.113-8.297-.789-1.009.11-1.961.213-2.81.248-7.328.39-7.768-4.478-8.189-9.187a29.32 29.32 0 0 0-.83-5.423 6.615 6.615 0 0 0-1.162-2.35 6.403 6.403 0 0 0-1.97-1.685c-1.225-.83-2.613-1.773-2.492-4.156.059-1.153.942-2.158 2.06-3.431 1.722-1.962 4.08-4.65 4.09-8.9.006-1.1-.106-2.571-.213-3.994-.087-1.149-.169-2.234-.197-3.167-.245-8.057 3.275-15.374 9.916-20.6a.94.94 0 0 1 .712-.214.93.93 0 0 1 .645.377.989.989 0 0 1 .183.74.996.996 0 0 1-.389.65c-6.14 4.831-9.399 11.575-9.175 18.984.026.887.107 1.953.192 3.076.11 1.462.228 2.974.22 4.153-.012 5-2.762 8.13-4.582 10.202-.76.867-1.549 1.763-1.572 2.224-.062 1.218.428 1.6 1.641 2.422a8.309 8.309 0 0 1 2.451 2.157 8.574 8.574 0 0 1 1.459 2.96c.48 1.897.78 3.837.898 5.793.43 4.807.683 7.709 6.212 7.415.8-.033 1.723-.133 2.7-.24 3.55-.384 7.573-.82 9.79 1.301 1.645 1.574 2.885 7.152 3.63 11.554a.714.714 0 0 0 .238.422.68.68 0 0 0 .446.166h26.725a.683.683 0 0 0 .56-.287.706.706 0 0 0 .11-.625c-.9-3.186-2.455-9.28-2.766-14.302-.191-3.099.684-7.666 2.734-10.398 7.643-10.203 10.19-18.242 8.792-27.748-1.31-8.916-5.189-15.694-11.529-20.147a1 1 0 0 1-.186-1.308.95.95 0 0 1 .57-.401.926.926 0 0 1 .682.102c6.697 4.704 10.963 12.128 12.336 21.467 1.467 9.957-1.273 18.7-9.163 29.236-1.742 2.325-2.505 6.414-2.342 9.082.298 4.835 1.816 10.771 2.694 13.881a2.737 2.737 0 0 1-.418 2.345 2.614 2.614 0 0 1-.916.784c-.36.184-.757.28-1.159.279v-.004Z" fill="#000"/><path d="M35.564 81.402h-5.585a.935.935 0 0 1-.671-.286.99.99 0 0 1-.278-.69c0-.26.1-.508.278-.69a.936.936 0 0 1 .67-.287h5.586c.252 0 .493.103.67.286a.991.991 0 0 1 .279.69.99.99 0 0 1-.278.691.936.936 0 0 1-.671.286ZM34.865 62.473c.902 0 1.633-.752 1.633-1.68 0-.927-.731-1.679-1.633-1.679-.901 0-1.632.752-1.632 1.68 0 .927.73 1.68 1.632 1.68ZM59.938 35.55a10.577 10.577 0 0 1-4.426-.967 10.857 10.857 0 0 1-3.656-2.742c-2.734 1.243-6.454 1.18-8.839-.226a4.717 4.717 0 0 1-1.822-1.744 4.9 4.9 0 0 1-.69-2.46c-.034-3.483 2.575-4.997 4.452-5.45a7.045 7.045 0 0 1 2.192-4.279 6.68 6.68 0 0 1 4.369-1.786c.488-1.708 2.213-5.282 8.1-5.282 5.889 0 7.614 3.574 8.102 5.282a6.68 6.68 0 0 1 4.369 1.786 7.045 7.045 0 0 1 2.192 4.28c1.876.452 4.485 1.966 4.452 5.448a4.9 4.9 0 0 1-.69 2.46 4.717 4.717 0 0 1-1.823 1.745c-2.382 1.406-6.097 1.47-8.828.234a9.483 9.483 0 0 1-3.311 2.737 9.208 9.208 0 0 1-4.143.963Zm-7.812-5.919c.153 0 .304.038.44.11a.956.956 0 0 1 .339.307 8.79 8.79 0 0 0 3.108 2.631 8.528 8.528 0 0 0 3.925.917 7.4 7.4 0 0 0 3.638-.933 7.656 7.656 0 0 0 2.757-2.615.95.95 0 0 1 .57-.393.928.928 0 0 1 .68.105c2.158 1.273 5.683 1.346 7.695.156.462-.23.852-.59 1.127-1.036.275-.447.424-.964.43-1.492.03-3.224-3.363-3.605-3.508-3.62a.937.937 0 0 1-.585-.289.987.987 0 0 1-.268-.608c-.395-5.262-5.257-5.05-5.466-5.035a.933.933 0 0 1-.675-.24.988.988 0 0 1-.323-.655c-.017-.17-.487-4.375-6.393-4.375-5.907 0-6.378 4.207-6.395 4.386a.992.992 0 0 1-.326.649.938.938 0 0 1-.67.238c-.522-.026-5.08-.1-5.467 5.035a.988.988 0 0 1-.268.609.937.937 0 0 1-.585.288c-.359.04-3.538.479-3.508 3.62.006.528.155 1.045.43 1.492.275.446.665.805 1.128 1.037 2.012 1.185 5.535 1.112 7.695-.157a.923.923 0 0 1 .475-.132ZM43.634 40.094a.93.93 0 0 1-.475-.133.964.964 0 0 1-.347-.359 1 1 0 0 1 .003-.978l1.24-2.187a.952.952 0 0 1 .578-.437.926.926 0 0 1 .71.104.973.973 0 0 1 .436.586c.066.246.035.509-.085.732l-1.24 2.184a.962.962 0 0 1-.347.357.927.927 0 0 1-.473.13ZM74.3 40.094a.93.93 0 0 1-.475-.133.964.964 0 0 1-.347-.359 1 1 0 0 1 .004-.978l1.24-2.187A.952.952 0 0 1 75.3 36a.926.926 0 0 1 .71.104.974.974 0 0 1 .436.586c.066.246.035.509-.086.732l-1.24 2.184a.962.962 0 0 1-.346.357.927.927 0 0 1-.474.13ZM63.581 41.598a.93.93 0 0 1-.475-.132.964.964 0 0 1-.347-.359.998.998 0 0 1 .004-.978l1.239-2.188a.968.968 0 0 1 .578-.452.923.923 0 0 1 .72.102.959.959 0 0 1 .44.595 1.003 1.003 0 0 1-.099.74l-1.239 2.188a.965.965 0 0 1-.348.355.93.93 0 0 1-.473.13ZM47.832 46.87a.93.93 0 0 1-.474-.133.965.965 0 0 1-.346-.36 1 1 0 0 1 .004-.977l1.24-2.188a.968.968 0 0 1 .578-.452.922.922 0 0 1 .72.102.96.96 0 0 1 .439.595 1.005 1.005 0 0 1-.099.74l-1.239 2.188a.964.964 0 0 1-.348.356.93.93 0 0 1-.475.129ZM58.1 48.786a.93.93 0 0 1-.475-.132.964.964 0 0 1-.347-.36 1 1 0 0 1 .004-.978l1.24-2.187a.951.951 0 0 1 .578-.437.926.926 0 0 1 .71.105c.214.128.37.338.436.585.065.246.035.509-.086.732l-1.24 2.184a.961.961 0 0 1-.346.357.927.927 0 0 1-.474.13ZM54.246 41.598a.93.93 0 0 1-.474-.132.963.963 0 0 1-.347-.359 1 1 0 0 1 .003-.978l1.24-2.188a.94.94 0 0 1 .948-.475.932.932 0 0 1 .627.377.99.99 0 0 1 .184.723.996.996 0 0 1-.12.36l-1.24 2.188a.965.965 0 0 1-.347.355.93.93 0 0 1-.474.13ZM68.375 47.223a.928.928 0 0 1-.475-.131.963.963 0 0 1-.348-.36 1 1 0 0 1 .005-.978l1.239-2.188a.953.953 0 0 1 .578-.452.926.926 0 0 1 .72.102c.217.13.376.344.44.595.063.25.028.517-.099.74l-1.24 2.184a.963.963 0 0 1-.346.357.93.93 0 0 1-.474.131Z" fill="#000"/></svg>