<svg width="96" height="113" fill="none" xmlns="http://www.w3.org/2000/svg"><ellipse cx="48.371" cy="49.51" rx="47.629" ry="49.51" fill="#AC97C0"/><path d="M25.596 61.852H20.96a.773.773 0 0 1-.557-.24.836.836 0 0 1-.23-.58c0-.217.082-.425.23-.579a.773.773 0 0 1 .557-.24h4.637c.21 0 .41.087.558.24.147.154.23.362.23.58a.836.836 0 0 1-.23.579.773.773 0 0 1-.558.24ZM25.016 45.322c.749 0 1.356-.63 1.356-1.409 0-.778-.607-1.409-1.356-1.409-.748 0-1.355.63-1.355 1.409 0 .778.607 1.409 1.355 1.409Z" fill="#000"/><path d="M66.039 84.703H42.462a2.183 2.183 0 0 1-1.44-.543 2.344 2.344 0 0 1-.766-1.38c-.835-4.96-1.873-8.543-2.71-9.351-1.416-1.367-4.713-1.007-7.36-.716-.89.097-1.728.19-2.478.221-6.421.347-6.808-3.97-7.174-8.142a26.406 26.406 0 0 0-.734-4.843 5.956 5.956 0 0 0-1.032-2.11 5.7 5.7 0 0 0-1.751-1.514c-1.072-.733-2.282-1.564-2.177-3.659.051-1.01.825-1.9 1.804-3.026 1.526-1.755 3.614-4.159 3.623-7.966.004-.983-.094-2.294-.19-3.56a66.06 66.06 0 0 1-.173-2.825 22.427 22.427 0 0 1 1.568-8.843 21.721 21.721 0 0 1 4.886-7.42c5.55-5.652 13.738-8.624 22.47-8.156 15.113.807 25.004 9.676 27.138 24.333 1.29 8.86-1.126 16.64-8.078 26.015-1.544 2.082-2.222 5.742-2.076 8.129.263 4.314 1.604 9.61 2.378 12.384.097.347.115.712.052 1.067a2.37 2.37 0 0 1-.413.978c-.208.289-.479.523-.79.684-.31.16-.653.244-1 .243Zm-32.15-13.904c1.86 0 3.58.315 4.733 1.43 1.441 1.393 2.53 6.353 3.188 10.27.027.158.108.302.227.406.12.104.27.16.426.16h23.576a.64.64 0 0 0 .299-.073.69.69 0 0 0 .34-.804c-.793-2.837-2.165-8.265-2.438-12.736-.168-2.752.603-6.808 2.4-9.233 6.753-9.109 9.003-16.282 7.768-24.77C72.397 21.632 63.044 13.27 48.75 12.507c-8.298-.45-16.054 2.356-21.29 7.688a19.828 19.828 0 0 0-4.545 6.853 20.48 20.48 0 0 0-1.432 8.19c.023.794.094 1.743.17 2.753.096 1.299.197 2.644.193 3.691-.01 4.434-2.43 7.217-4.03 9.06-.677.778-1.378 1.584-1.4 2.013-.055 1.114.384 1.46 1.47 2.206a7.307 7.307 0 0 1 2.15 1.91 7.625 7.625 0 0 1 1.28 2.621 28.12 28.12 0 0 1 .79 5.153c.382 4.315.607 6.922 5.533 6.656.707-.03 1.522-.119 2.383-.214a36.311 36.311 0 0 1 3.866-.288Z" fill="#000"/><path d="M61.433 50.58c-2.864 0-5.622-1.179-8.464-2.4-3.131-1.342-6.367-2.73-10.101-2.73-7.471 0-13.066-1.834-16.182-5.307a10.166 10.166 0 0 1-2.12-3.589 10.463 10.463 0 0 1-.527-4.175c.717-10.703 8.037-17.038 20.613-17.841 4.496-.3 9 .464 13.17 2.238a29.773 29.773 0 0 1 10.902 7.999c3.644 4.42 6.78 16.492.768 22.165-2.863 2.7-5.503 3.64-8.059 3.64ZM44.745 16.175c-11.684.746-18.48 6.542-19.135 16.317a8.802 8.802 0 0 0 .444 3.513 8.552 8.552 0 0 0 1.785 3.019c2.81 3.131 8.006 4.787 15.029 4.787 4.045 0 7.582 1.515 10.702 2.853 5.327 2.283 9.535 4.087 14.86-.937 5.032-4.75 2.385-15.894-.907-19.887a28.148 28.148 0 0 0-10.318-7.56 27.157 27.157 0 0 0-12.46-2.105Z" fill="#000"/><path d="M60.645 46.378c-2.72 0-5.374-1.134-7.98-2.247-2.797-1.195-5.69-2.43-8.796-2.43-8.154 0-11.946-2.338-13.69-4.298a7.189 7.189 0 0 1-1.51-2.548 7.398 7.398 0 0 1-.373-2.967c.598-7.96 6.647-12.67 17.032-13.262 11.33-.642 18.03 5.607 19.813 7.54 2.25 2.437 4.484 7.973 4.224 12.33-.142 2.368-.956 4.194-2.419 5.427a9.477 9.477 0 0 1-6.301 2.455ZM45.368 19.446l.043.818c-9.497.541-15.018 4.718-15.547 11.753a5.74 5.74 0 0 0 .295 2.301c.253.737.654 1.41 1.176 1.974 1.532 1.72 4.949 3.772 12.534 3.772 3.418 0 6.457 1.298 9.393 2.556 4.532 1.935 8.447 3.608 12.685.034a5.659 5.659 0 0 0 1.36-1.924c.318-.734.48-1.53.479-2.335.232-3.87-1.81-8.953-3.788-11.095-3.426-3.717-10.114-7.522-18.587-7.038l-.043-.816Z" fill="#000"/><path d="M58.083 41.365c-2.277 0-4.685-.873-7.046-1.728-2.266-.82-4.406-1.596-6.34-1.596-5.281 0-8.823-1.096-10.528-3.257a5.447 5.447 0 0 1-1.008-2.179 5.563 5.563 0 0 1 .017-2.417c1.111-5.777 7.687-6.884 13.291-7.203 6.854-.393 11.667 2.596 15.097 5.242a8.744 8.744 0 0 1 2.24 2.956c.532 1.142.82 2.39.845 3.66a6.14 6.14 0 0 1-.433 2.682c-.343.847-.87 1.6-1.54 2.199a6.853 6.853 0 0 1-4.595 1.64ZM46.556 24.62c-7.48.427-11.13 2.24-11.83 5.889a3.871 3.871 0 0 0-.032 1.7c.115.56.354 1.087.697 1.537.956 1.211 3.347 2.657 9.308 2.657 2.201 0 4.569.858 6.86 1.687 3.797 1.376 7.385 2.675 10.129.362a4.34 4.34 0 0 0 1.096-1.618c.241-.62.34-1.29.29-1.957a7.413 7.413 0 0 0-.671-2.94 7.152 7.152 0 0 0-1.777-2.394c-3.215-2.482-7.722-5.287-14.071-4.923Z" fill="#000"/><path d="M57.03 36.995c-1.497 0-3.4-.525-5.597-1.126a39.16 39.16 0 0 0-6.349-1.376 91.004 91.004 0 0 0-1.56-.137c-3.105-.253-5.786-.47-5.783-3.48.015-.37.101-.734.253-1.07.152-.335.367-.636.633-.883 1.42-1.463 4.383-2.395 7.539-2.364 6.842.06 12.636 4.62 12.694 4.666.42.378.755.846.986 1.372.23.525.349 1.096.348 1.674.007.41-.08.818-.254 1.186a2.56 2.56 0 0 1-.75.935 3.481 3.481 0 0 1-2.16.603Zm-11.008-8.799c-3.073 0-5.366.944-6.285 1.89a1.277 1.277 0 0 0-.42.792c0 1.346.875 1.564 4.33 1.844.5.04 1.03.084 1.586.138 2.234.292 4.442.768 6.603 1.425 2.689.739 5.47 1.503 6.43.78a.912.912 0 0 0 .279-.36.95.95 0 0 0 .073-.457 2.488 2.488 0 0 0-.19-.938 2.41 2.41 0 0 0-.525-.786c-.053-.043-5.428-4.272-11.748-4.325l-.133-.003Z" fill="#000"/></svg>