<svg width="117" height="132" fill="none" xmlns="http://www.w3.org/2000/svg"><ellipse cx="58.468" cy="60.622" rx="58.214" ry="60.622" fill="#AC97C0"/><path d="M73.19 104.162a.916.916 0 0 1-.751-.406.987.987 0 0 1-.154-.713c.469-2.789 2.305-7.818 5.447-10.243 2.268-1.752 5.999-1.414 9.29-1.116.823.076 1.6.144 2.285.173 5.135.276 5.367-2.45 5.765-6.963.11-1.847.391-3.678.839-5.47a8.16 8.16 0 0 1 1.364-2.802 7.806 7.806 0 0 1 2.292-2.042c1.12-.77 1.572-1.126 1.515-2.256-.021-.422-.784-1.298-1.457-2.077-1.698-1.958-4.267-4.918-4.278-9.645-.004-1.112.102-2.539.205-3.918.08-1.061.154-2.063.179-2.903a21.616 21.616 0 0 0-1.507-8.631 20.898 20.898 0 0 0-4.782-7.222c-5.514-5.623-13.688-8.585-22.421-8.108l-.318.017c-1.191.03-2.378.158-3.55.382a.889.889 0 0 1-.678-.164.96.96 0 0 1-.372-.612.987.987 0 0 1 .147-.707.916.916 0 0 1 .581-.397 23.638 23.638 0 0 1 3.78-.408l.316-.017c9.25-.492 17.919 2.657 23.8 8.654 2.236 2.222 4 4.907 5.178 7.883a23.858 23.858 0 0 1 1.66 9.393c-.026.88-.102 1.904-.183 2.988-.1 1.341-.203 2.727-.2 3.763.01 3.996 2.201 6.526 3.806 8.372 1.046 1.206 1.872 2.158 1.927 3.258.114 2.267-1.188 3.16-2.337 3.95a5.958 5.958 0 0 0-1.827 1.581 6.234 6.234 0 0 0-1.078 2.205 27.872 27.872 0 0 0-.773 5.108c-.393 4.457-.793 9.062-7.675 8.695a49.541 49.541 0 0 1-2.36-.178c-2.82-.255-6.33-.573-8.04.747-2.69 2.078-4.327 6.646-4.732 9.038a.965.965 0 0 1-.313.567.894.894 0 0 1-.59.224Z" fill="#000"/><path d="M96.53 81.72c-.204 0-.4-.07-.56-.2a5.134 5.134 0 0 0-2.103-.843 5.056 5.056 0 0 0-2.249.15.882.882 0 0 1-.696-.091.93.93 0 0 1-.27-.245.971.971 0 0 1-.185-.705.984.984 0 0 1 .114-.353.945.945 0 0 1 .234-.281.903.903 0 0 1 .32-.167 6.816 6.816 0 0 1 3.087-.18 6.933 6.933 0 0 1 2.868 1.204c.15.122.262.29.317.48a.994.994 0 0 1-.01.584.953.953 0 0 1-.335.468.893.893 0 0 1-.533.178ZM91.583 63.216c.904 0 1.636-.763 1.636-1.705 0-.94-.732-1.704-1.636-1.704-.904 0-1.637.763-1.637 1.704 0 .942.733 1.705 1.637 1.705ZM25.56 63.713c.903 0 1.636-.763 1.636-1.704s-.733-1.705-1.637-1.705-1.636.764-1.636 1.705c0 .94.732 1.704 1.636 1.704Z" fill="#000"/><path d="M68.184 106.219h-24.9a2.384 2.384 0 0 1-1.575-.595 2.57 2.57 0 0 1-.837-1.512c-.866-5.152-1.98-9.014-2.836-9.846-1.467-1.42-4.928-1.04-7.708-.735-.94.103-1.827.2-2.622.234-6.858.368-7.273-4.239-7.666-8.696a27.863 27.863 0 0 0-.772-5.107 6.233 6.233 0 0 0-1.078-2.205 5.954 5.954 0 0 0-1.827-1.583c-1.149-.789-2.45-1.68-2.336-3.949.055-1.1.88-2.052 1.927-3.258 1.6-1.846 3.795-4.376 3.804-8.37 0-1.038-.1-2.424-.2-3.765-.08-1.084-.156-2.108-.183-2.988a23.86 23.86 0 0 1 1.66-9.394 23.075 23.075 0 0 1 5.179-7.883c5.876-5.998 14.55-9.15 23.796-8.654 16.007.855 26.48 10.269 28.743 25.824 1.367 9.402-1.19 17.655-8.548 27.597-1.62 2.187-2.33 6.034-2.176 8.543.277 4.557 1.69 10.154 2.509 13.085.106.38.125.78.056 1.169a2.601 2.601 0 0 1-.451 1.072 2.47 2.47 0 0 1-.865.749c-.34.176-.714.268-1.094.267Zm-33.962-14.89c1.98 0 3.818.339 5.057 1.538 1.54 1.49 2.695 6.759 3.394 10.916.025.148.1.282.21.378.11.096.25.149.395.148h24.904a.585.585 0 0 0 .277-.067.632.632 0 0 0 .316-.747c-.84-3.007-2.29-8.757-2.578-13.497-.18-2.93.64-7.247 2.553-9.83 7.115-9.615 9.488-17.188 8.188-26.145-2.112-14.576-11.966-23.398-27.023-24.203-8.74-.478-16.907 2.486-22.421 8.111a20.898 20.898 0 0 0-4.783 7.222 21.62 21.62 0 0 0-1.507 8.631c.025.84.1 1.839.18 2.903.102 1.38.208 2.806.204 3.92-.01 4.722-2.579 7.685-4.277 9.64-.673.776-1.436 1.655-1.457 2.077-.057 1.13.395 1.487 1.515 2.256a7.807 7.807 0 0 1 2.292 2.043 8.16 8.16 0 0 1 1.364 2.802c.448 1.79.729 3.622.839 5.47.398 4.514.643 7.243 5.754 6.962.746-.031 1.605-.125 2.515-.23a38.29 38.29 0 0 1 4.092-.297h-.003Z" fill="#000"/><path d="M20.922 81.686a5.085 5.085 0 0 1-.65-.035.91.91 0 0 1-.608-.364.984.984 0 0 1 .168-1.34.89.89 0 0 1 .678-.19 8.456 8.456 0 0 0 4.237-.916.887.887 0 0 1 1.014.163c.09.086.161.19.212.305a.988.988 0 0 1-.17 1.054.918.918 0 0 1-.296.216 10.852 10.852 0 0 1-4.585 1.107ZM45.316 14.772l-2.088-1.188-1.142-2.175a2.36 2.36 0 0 0-.847-.914 2.237 2.237 0 0 0-1.177-.336c-.414 0-.82.116-1.177.336a2.36 2.36 0 0 0-.847.915l-1.141 2.174-2.088 1.188a2.352 2.352 0 0 0-.878.883c-.21.37-.322.793-.322 1.225 0 .43.111.854.322 1.225.212.37.515.675.878.882l2.088 1.19 1.141 2.173c.199.378.492.694.848.914.356.22.762.336 1.176.336.414 0 .82-.116 1.177-.336a2.36 2.36 0 0 0 .848-.914l1.14-2.173 2.089-1.19a2.35 2.35 0 0 0 .877-.882 2.477 2.477 0 0 0 0-2.45 2.352 2.352 0 0 0-.877-.883Zm-.88 2.54L41.997 18.7a.479.479 0 0 0-.188.196l-1.333 2.538a.485.485 0 0 1-.174.187.459.459 0 0 1-.482 0 .485.485 0 0 1-.173-.187l-1.333-2.538a.488.488 0 0 0-.189-.196l-2.437-1.388a.484.484 0 0 1-.18-.18.509.509 0 0 1 .18-.685l2.437-1.388a.488.488 0 0 0 .189-.195l1.333-2.539c.04-.077.1-.142.173-.187a.459.459 0 0 1 .482 0c.073.045.133.11.174.187l1.333 2.539c.043.083.109.15.188.195l2.437 1.388a.482.482 0 0 1 .18.181.507.507 0 0 1-.18.684ZM29.757 23.902l-1.094-.622-.598-1.14a2.174 2.174 0 0 0-.78-.84 2.058 2.058 0 0 0-2.166 0 2.174 2.174 0 0 0-.78.84l-.598 1.14-1.093.622c-.335.19-.614.471-.808.812a2.28 2.28 0 0 0 0 2.256c.194.341.473.622.808.812l1.093.623.598 1.14c.184.346.454.636.781.837.328.201.702.308 1.082.308.38 0 .754-.107 1.082-.308.328-.201.597-.49.781-.838l.598-1.139 1.094-.623a2.17 2.17 0 0 0 .805-.814 2.286 2.286 0 0 0 0-2.252 2.17 2.17 0 0 0-.805-.814Zm-.88 2.205-1.49.848a.3.3 0 0 0-.116.12l-.815 1.553a.296.296 0 0 1-.106.114.28.28 0 0 1-.401-.114l-.816-1.553a.295.295 0 0 0-.114-.12l-1.492-.848a.314.314 0 0 1 0-.529l1.492-.85a.292.292 0 0 0 .114-.119l.816-1.553a.297.297 0 0 1 .106-.114.28.28 0 0 1 .401.114l.815 1.553c.027.05.067.092.115.12l1.491.85a.295.295 0 0 1 .11.11.31.31 0 0 1-.11.418ZM66.424 25.208a.892.892 0 0 1-.512-.163.948.948 0 0 1-.338-.433.992.992 0 0 1-.047-.556.967.967 0 0 1 .26-.488c1.555-1.57 1.211-1.967.293-3.033-.88-1.02-2.21-2.56-.66-5.135a.942.942 0 0 1 .245-.272.9.9 0 0 1 .684-.165c.12.021.233.066.335.132a.976.976 0 0 1 .42.968.982.982 0 0 1-.127.35c-.817 1.353-.36 1.881.469 2.842.973 1.127 2.444 2.831-.38 5.68a.895.895 0 0 1-.642.273ZM84.666 25.208a.891.891 0 0 1-.512-.163.949.949 0 0 1-.337-.433.992.992 0 0 1-.047-.556.966.966 0 0 1 .259-.489c1.556-1.569 1.212-1.966.293-3.031-.88-1.02-2.21-2.562-.66-5.136a.942.942 0 0 1 .246-.27.9.9 0 0 1 .684-.163.894.894 0 0 1 .334.133c.102.066.19.153.26.255a.976.976 0 0 1 .157.713.98.98 0 0 1-.128.348c-.816 1.354-.36 1.882.469 2.842.973 1.128 2.445 2.832-.38 5.681a.896.896 0 0 1-.638.27ZM75.594 26.197a.891.891 0 0 1-.512-.163.949.949 0 0 1-.338-.434.991.991 0 0 1-.047-.556.966.966 0 0 1 .26-.488c2.822-2.846 1.993-3.807.487-5.552-1.36-1.575-3.222-3.732-.985-7.443a.942.942 0 0 1 .246-.27.9.9 0 0 1 .684-.163.894.894 0 0 1 .334.133c.102.067.19.154.26.256a.974.974 0 0 1 .157.712.98.98 0 0 1-.128.349c-1.502 2.489-.538 3.605.794 5.149 1.484 1.72 3.521 4.075-.575 8.201-.17.173-.4.27-.637.269Z" fill="#000"/></svg>