<svg width="277" height="259" fill="none" xmlns="http://www.w3.org/2000/svg"><g filter="url(#a)"><path d="M51.944 27.26c-7.22 0-13.033 6.426-13.033 14.397v131.276c0 7.972 5.813 14.397 13.033 14.397h7.738c-2.877 15.194-9.078 29.837-15.069 44.409 15.408-12.707 27.03-26.548 37.062-44.409H234.4c7.221 0 13.033-6.425 13.033-14.397V41.657c0-7.971-5.812-14.396-13.033-14.396H51.944Z" fill="#96A6CE"/></g><path d="M50.027 10.524c-7.22 0-13.033 6.426-13.033 14.397v131.276c0 7.971 5.813 14.396 13.033 14.396h7.738c-2.877 15.195-9.078 29.838-15.069 44.41 15.408-12.707 27.03-26.548 37.062-44.41H232.484c7.22 0 13.033-6.425 13.033-14.396V24.921c0-7.971-5.813-14.397-13.033-14.397H50.026h0Z" fill="#EFDEDE" stroke="#382D72" stroke-linecap="round" stroke-linejoin="round"/><path d="m51.919 25.126 10.53-.156c.502.156.754.407.754.754 0 .867-.356 1.3-1.066 1.3-1.3 0-2.678.035-4.134.104-.087 1.49-.13 2.617-.13 3.38v1.43l.104 9.126c0 .537-.139.85-.416.936a2.5 2.5 0 0 1-.78.104c-.503 0-.78-.286-.832-.858-.104-1.335-.156-3.822-.156-7.462 0-3.657.052-5.859.156-6.604-.364.017-.902.026-1.612.026-.71 0-1.595-.009-2.652-.026-.278 0-.494-.087-.65-.26a.9.9 0 0 1-.234-.624c0-.26.104-.511.312-.754.225-.243.494-.381.806-.416Zm15.36 13.078.026 2.678c0 .312-.147.598-.442.858-.277.26-.555.39-.832.39-.399 0-.65-.312-.754-.936-.017-.139-.087-1.404-.208-3.796-.121-2.41-.355-4.299-.702-5.668-.156-.659-.234-1.049-.234-1.17 0-.572.347-.858 1.04-.858a.84.84 0 0 1 .702.338c.173.225.277.46.312.702.052.225.095.537.13.936s.06.65.078.754c.364-.867.91-1.517 1.638-1.95a4.591 4.591 0 0 1 2.392-.65c1.421 0 2.132.364 2.132 1.092 0 .364-.13.659-.39.884a1.277 1.277 0 0 1-.858.312c-1.473 0-2.513.468-3.12 1.404-.607.936-.91 2.496-.91 4.68Zm14.944-8.216c.225 0 .442.078.65.234.225.156.338.33.338.52 0 .503-.737 3.224-2.21 8.164-1.474 4.94-2.566 8.407-3.276 10.4-.156.468-.399.702-.728.702-.33 0-.59-.121-.78-.364-.19-.225-.286-.563-.286-1.014 0-.45.286-1.534.858-3.25.59-1.699.945-2.782 1.066-3.25-.434-.728-1.898-4.368-4.394-10.92a.922.922 0 0 1-.052-.338c0-.139.104-.32.312-.546.208-.225.494-.338.858-.338s.659.182.884.546c.243.624.641 1.716 1.196 3.276.554 1.543.98 2.66 1.274 3.354.312.693.606 1.413.884 2.158.243-.815.659-2.392 1.248-4.732.59-2.357.927-3.7 1.014-4.03.07-.381.45-.572 1.144-.572Zm4.416-4.42c.312 0 .607.147.884.442.277.295.416.607.416.936 0 .312-.156.633-.468.962-.295.33-.607.494-.936.494-.33 0-.633-.139-.91-.416-.26-.277-.39-.633-.39-1.066 0-.832.45-1.283 1.352-1.352h.052Zm1.092 13.624.026 1.82c0 .33-.13.607-.39.832a1.31 1.31 0 0 1-.832.312c-.433 0-.659-.217-.676-.65-.225-5.53-.338-8.589-.338-9.178 0-.59.026-1.309.078-2.158.035-.312.234-.468.598-.468.919 0 1.439.373 1.56 1.118.052.381.078.685.078.91l-.104 1.638v5.824Zm3.994 2.002-.286-10.556c0-.33.113-.598.338-.806.226-.208.451-.312.676-.312.555 0 .876.234.962.702.07.468.104.953.104 1.456.936-1.23 2.106-1.846 3.51-1.846 2.15 0 3.224 2.453 3.224 7.358v2.054c0 .901-.052 1.56-.156 1.976-.12.52-.494.78-1.118.78-.416 0-.624-.277-.624-.832l.026-1.456c0-2.01-.069-3.38-.208-4.108a16.997 16.997 0 0 0-.364-1.768c-.294-.936-.77-1.404-1.43-1.404-.866 0-1.473.312-1.82.936-.38.676-.606 1.473-.676 2.392a68.382 68.382 0 0 0-.182 5.122c0 .347-.13.624-.39.832-.26.208-.572.312-.936.312-.433 0-.65-.277-.65-.832Zm18.23-.26c-.624.728-1.412 1.092-2.366 1.092-.953 0-1.776-.295-2.47-.884-1.456-1.127-2.184-2.851-2.184-5.174 0-1.82.503-3.276 1.508-4.368 1.006-1.11 2.245-1.664 3.718-1.664 1.474 0 2.479.503 3.016 1.508.468.884.702 2.219.702 4.004l-.052 2.132c0 1.005.044 2.4.13 4.186.104 1.768.156 3.103.156 4.004 0 1.49-.372 2.583-1.118 3.276-.728.71-1.846 1.066-3.354 1.066-.901 0-1.82-.19-2.756-.572-.936-.381-1.404-.823-1.404-1.326 0-.364.096-.641.286-.832.208-.19.442-.286.702-.286.26 0 .841.19 1.742.572.919.381 1.578.572 1.976.572 1.248 0 1.872-1.023 1.872-3.068s-.034-3.458-.104-4.238Zm-.026-5.486c0-1.265-.19-2.15-.572-2.652-.364-.52-.944-.78-1.742-.78-.797 0-1.438.364-1.924 1.092-.485.728-.728 1.655-.728 2.782 0 1.11.226 1.993.676 2.652.468.659 1.179.988 2.132.988.954 0 1.569-.407 1.846-1.222.208-.659.312-1.612.312-2.86Zm10.785-5.59 1.3.026c.294 0 .459-.009.494-.026v-5.33c.017-.295.164-.546.442-.754.277-.208.537-.312.78-.312.242 0 .433.078.572.234.156.156.225.399.208.728-.018.33-.026 2.132-.026 5.408l3.042-.104c.52 0 .78.303.78.91 0 .45-.139.789-.416 1.014-.26.225-.546.347-.858.364-.295.017-.59.026-.884.026l-1.586-.026c0 .71.069 2.115.208 4.212.156 2.097.277 3.458.364 4.082.086.607.104 1.005.052 1.196a.565.565 0 0 1-.286.364c-.226.104-.529.156-.91.156-.382 0-.607-.208-.676-.624-.347-2.27-.581-5.39-.702-9.36-.156.017-.754.026-1.794.026s-1.56-.303-1.56-.91c0-.867.485-1.3 1.456-1.3Zm12.889.026c1.248 0 2.271.598 3.068 1.794.815 1.196 1.222 2.635 1.222 4.316 0 1.664-.416 3.085-1.248 4.264-.815 1.179-1.907 1.768-3.276 1.768-1.352 0-2.444-.598-3.276-1.794a6.97 6.97 0 0 1-1.248-4.03c0-1.89.381-3.397 1.144-4.524.815-1.196 2.019-1.794 3.614-1.794Zm-.312 2.132c-.728 0-1.326.381-1.794 1.144a4.55 4.55 0 0 0-.702 2.418c0 1.317.26 2.323.78 3.016.52.693 1.109 1.04 1.768 1.04 1.179 0 1.933-.511 2.262-1.534.139-.485.208-1.092.208-1.82 0-2.843-.841-4.264-2.522-4.264Zm14.971 1.56.208 6.136c0 .763-.035 1.205-.104 1.326-.035.312-.139.555-.312.728-.156.173-.468.26-.936.26-.226 0-.408-.139-.546-.416a2.574 2.574 0 0 1-.234-.988c-.122-3.05-.286-5.91-.494-8.58a106.038 106.038 0 0 1-.286-7.488c0-.364.121-.65.364-.858.242-.208.528-.312.858-.312.485 0 .771.416.858 1.248.104.832.164 1.872.182 3.12a89.87 89.87 0 0 0 .104 2.73c.866-.45 1.733-.676 2.6-.676 2.01 0 3.284.884 3.822 2.652.312 1.005.468 2.297.468 3.874 0 .52-.052 1.343-.156 2.47-.087 1.11-.139 1.829-.156 2.158a.967.967 0 0 1-.442.78c-.26.173-.546.26-.858.26-.486 0-.728-.26-.728-.78l.182-4.524c0-.381-.018-1.014-.052-1.898-.035-.884-.217-1.586-.546-2.106-.312-.52-.867-.78-1.664-.78-1.422 0-2.132.555-2.132 1.664Zm9.852-8.008c.312 0 .606.147.884.442.277.295.416.607.416.936 0 .312-.156.633-.468.962-.295.33-.607.494-.936.494-.33 0-.633-.139-.91-.416-.26-.277-.39-.633-.39-1.066 0-.832.45-1.283 1.352-1.352h.052Zm1.092 13.624.026 1.82c0 .33-.13.607-.39.832a1.31 1.31 0 0 1-.832.312c-.434 0-.659-.217-.676-.65-.226-5.53-.338-8.589-.338-9.178 0-.59.026-1.309.078-2.158.034-.312.234-.468.598-.468.918 0 1.438.373 1.56 1.118.052.381.078.685.078.91l-.104 1.638v5.824Zm9.22-9.36-.026-5.018c0-.936.295-1.404.884-1.404.607 0 .945.26 1.014.78.035.225.078 1.586.13 4.082.052 2.496.13 4.836.234 7.02.121 2.184.182 4.22.182 6.11 0 .52-.39.78-1.17.78-.52 0-.78-.364-.78-1.092-.745.59-1.629.884-2.652.884-1.3 0-2.357-.485-3.172-1.456-.797-.97-1.196-2.167-1.196-3.588 0-1.421.286-2.747.858-3.978.589-1.248 1.499-2.14 2.73-2.678.763-.33 1.499-.494 2.21-.494.26 0 .511.017.754.052Zm.13 3.562c-.121-.381-.269-.667-.442-.858-.173-.208-.364-.33-.572-.364a2.71 2.71 0 0 0-.702-.078c-.277 0-.615.104-1.014.312-.399.208-.737.546-1.014 1.014-.555.936-.832 1.924-.832 2.964 0 1.023.199 1.863.598 2.522.416.641.997.962 1.742.962.763 0 1.361-.373 1.794-1.118.433-.745.65-1.699.65-2.86 0-1.3-.069-2.132-.208-2.496Zm7.531-3.432c.919 0 1.794.269 2.626.806.832.537 1.248 1.205 1.248 2.002 0 .78-.338 1.543-1.014 2.288-.676.728-1.577 1.17-2.704 1.326-.485.07-1.213.104-2.184.104.191 1.473.563 2.444 1.118 2.912.173.19.407.286.702.286 1.075 0 1.976-.338 2.704-1.014.728-.693 1.248-1.04 1.56-1.04.139 0 .347.13.624.39s.416.503.416.728c0 .45-.546 1.1-1.638 1.95-.485.399-1.075.737-1.768 1.014-.676.26-1.309.39-1.898.39-1.508 0-2.617-.97-3.328-2.912-.451-1.196-.676-2.513-.676-3.952s.338-2.678 1.014-3.718c.676-1.04 1.742-1.56 3.198-1.56Zm.13 1.794c-.659 0-1.222.373-1.69 1.118-.173.26-.338.85-.494 1.768 2.427 0 3.64-.598 3.64-1.794 0-.728-.485-1.092-1.456-1.092ZM53.63 64v-7.572h-2.507V55.6h6.024v.828h-2.508V64H53.63Zm4.688 0v-8.64h1.008v3.708c.2-.368.484-.652.852-.852a2.398 2.398 0 0 1 1.2-.312c.688 0 1.24.216 1.656.648.416.424.624 1.08.624 1.968V64h-.996v-3.372c0-1.24-.5-1.86-1.5-1.86-.52 0-.956.188-1.308.564-.352.368-.528.896-.528 1.584V64h-1.008Zm9.543.144c-.568 0-1.072-.128-1.512-.384a2.856 2.856 0 0 1-1.044-1.092c-.248-.464-.372-1.012-.372-1.644 0-.624.124-1.168.372-1.632a2.667 2.667 0 0 1 1.032-1.092c.448-.264.964-.396 1.548-.396.576 0 1.072.132 1.488.396.424.256.748.596.972 1.02a2.885 2.885 0 0 1 .324 1.632v.3h-4.74c.024.456.128.836.312 1.14.192.296.428.52.708.672.288.152.592.228.912.228.416 0 .764-.096 1.044-.288.28-.192.484-.452.612-.78h.996a2.705 2.705 0 0 1-.924 1.38c-.448.36-1.024.54-1.728.54Zm0-5.388c-.48 0-.908.148-1.284.444-.368.288-.58.712-.636 1.272h3.744c-.024-.536-.208-.956-.552-1.26-.344-.304-.768-.456-1.272-.456ZM72.017 64v-5.952h.912l.084 1.14c.184-.392.464-.704.84-.936.376-.232.84-.348 1.392-.348v1.056h-.276c-.352 0-.676.064-.972.192-.296.12-.532.328-.708.624-.176.296-.264.704-.264 1.224v3h-1.008Zm6.813.144c-.568 0-1.072-.128-1.512-.384a2.856 2.856 0 0 1-1.044-1.092c-.248-.464-.372-1.012-.372-1.644 0-.624.124-1.168.372-1.632a2.667 2.667 0 0 1 1.032-1.092c.448-.264.964-.396 1.548-.396.576 0 1.072.132 1.488.396.424.256.748.596.972 1.02a2.885 2.885 0 0 1 .324 1.632v.3h-4.74c.024.456.128.836.312 1.14.192.296.428.52.708.672.288.152.592.228.912.228.416 0 .764-.096 1.044-.288.28-.192.484-.452.612-.78h.996a2.705 2.705 0 0 1-.924 1.38c-.448.36-1.024.54-1.728.54Zm0-5.388c-.48 0-.908.148-1.284.444-.368.288-.58.712-.636 1.272h3.744c-.024-.536-.208-.956-.552-1.26-.344-.304-.768-.456-1.272-.456Zm7.943-2.028a.707.707 0 0 1-.504-.192.707.707 0 0 1-.192-.504c0-.192.064-.352.192-.48a.707.707 0 0 1 .504-.192c.192 0 .356.064.492.192a.632.632 0 0 1 .204.48c0 .2-.068.368-.204.504a.692.692 0 0 1-.492.192ZM86.27 64v-5.952h1.008V64H86.27Zm5.043.144c-.712 0-1.303-.18-1.775-.54-.473-.36-.749-.848-.829-1.464h1.032c.065.312.229.584.493.816.271.224.635.336 1.091.336.425 0 .737-.088.936-.264.2-.184.3-.4.3-.648 0-.36-.132-.6-.395-.72-.257-.12-.62-.228-1.093-.324a6.189 6.189 0 0 1-.96-.276 2.221 2.221 0 0 1-.803-.504c-.216-.224-.325-.516-.325-.876 0-.52.193-.944.577-1.272.391-.336.92-.504 1.583-.504.632 0 1.148.16 1.548.48.409.312.645.76.709 1.344h-.996a1.008 1.008 0 0 0-.397-.708c-.215-.176-.507-.264-.876-.264-.36 0-.64.076-.84.228a.728.728 0 0 0-.288.6c0 .24.124.428.372.564.256.136.6.252 1.032.348.368.08.716.18 1.044.3.337.112.609.284.817.516.215.224.323.552.323.984.008.536-.195.98-.611 1.332-.408.344-.965.516-1.668.516Zm8.876 0c-.496 0-.908-.084-1.236-.252a1.713 1.713 0 0 1-.972-1.584c0-.608.232-1.076.696-1.404.464-.328 1.096-.492 1.896-.492h1.608v-.072c0-.52-.136-.912-.408-1.176-.272-.272-.636-.408-1.092-.408-.392 0-.732.1-1.02.3-.28.192-.456.476-.528.852H98.1c.04-.432.184-.796.432-1.092.256-.296.572-.52.948-.672.376-.16.776-.24 1.2-.24.832 0 1.456.224 1.872.672.424.44.636 1.028.636 1.764V64h-.9l-.06-1.068a2.39 2.39 0 0 1-.744.864c-.32.232-.752.348-1.296.348Zm.156-.852c.384 0 .712-.1.984-.3.28-.2.492-.46.636-.78a2.43 2.43 0 0 0 .216-1.008v-.012h-1.524c-.592 0-1.012.104-1.26.312-.24.2-.36.452-.36.756 0 .312.112.564.336.756.232.184.556.276.972.276Zm7.532.708v-5.952h.912l.072.864c.192-.32.448-.568.768-.744.32-.176.68-.264 1.08-.264.472 0 .876.096 1.212.288.344.192.608.484.792.876.208-.36.492-.644.852-.852a2.375 2.375 0 0 1 1.188-.312c.712 0 1.28.216 1.704.648.424.424.636 1.08.636 1.968V64h-.996v-3.372c0-.616-.124-1.08-.372-1.392-.248-.312-.604-.468-1.068-.468-.48 0-.88.188-1.2.564-.312.368-.468.896-.468 1.584V64h-1.008v-3.372c0-.616-.124-1.08-.372-1.392-.248-.312-.604-.468-1.068-.468-.472 0-.868.188-1.188.564-.312.368-.468.896-.468 1.584V64h-1.008Zm13.411.144c-.568 0-1.072-.128-1.512-.384a2.856 2.856 0 0 1-1.044-1.092c-.248-.464-.372-1.012-.372-1.644 0-.624.124-1.168.372-1.632a2.667 2.667 0 0 1 1.032-1.092c.448-.264.964-.396 1.548-.396.576 0 1.072.132 1.488.396.424.256.748.596.972 1.02a2.885 2.885 0 0 1 .324 1.632v.3h-4.74c.024.456.128.836.312 1.14.192.296.428.52.708.672.288.152.592.228.912.228.416 0 .764-.096 1.044-.288.28-.192.484-.452.612-.78h.996a2.705 2.705 0 0 1-.924 1.38c-.448.36-1.024.54-1.728.54Zm0-5.388c-.48 0-.908.148-1.284.444-.368.288-.58.712-.636 1.272h3.744c-.024-.536-.208-.956-.552-1.26-.344-.304-.768-.456-1.272-.456Zm6.856 5.388c-.592 0-1.112-.136-1.56-.408a2.835 2.835 0 0 1-1.032-1.116c-.24-.472-.36-1.008-.36-1.608 0-.6.124-1.132.372-1.596a2.75 2.75 0 0 1 1.032-1.104c.44-.272.96-.408 1.56-.408.488 0 .92.1 1.296.3.376.2.668.48.876.84V55.36h1.008V64h-.912l-.096-.984c-.192.288-.468.548-.828.78-.36.232-.812.348-1.356.348Zm.108-.876c.4 0 .752-.092 1.056-.276.312-.192.552-.456.72-.792.176-.336.264-.728.264-1.176 0-.448-.088-.84-.264-1.176a1.837 1.837 0 0 0-.72-.78 1.935 1.935 0 0 0-1.056-.288c-.392 0-.744.096-1.056.288a1.942 1.942 0 0 0-.72.78c-.168.336-.252.728-.252 1.176 0 .448.084.84.252 1.176.176.336.416.6.72.792a2.04 2.04 0 0 0 1.056.276Zm5.339-6.54a.707.707 0 0 1-.504-.192.707.707 0 0 1-.192-.504c0-.192.064-.352.192-.48a.707.707 0 0 1 .504-.192c.192 0 .356.064.492.192a.632.632 0 0 1 .204.48c0 .2-.068.368-.204.504a.692.692 0 0 1-.492.192ZM133.086 64v-5.952h1.008V64h-1.008Zm4.743.144c-.496 0-.908-.084-1.236-.252a1.713 1.713 0 0 1-.972-1.584c0-.608.232-1.076.696-1.404.464-.328 1.096-.492 1.896-.492h1.608v-.072c0-.52-.136-.912-.408-1.176-.272-.272-.636-.408-1.092-.408-.392 0-.732.1-1.02.3-.28.192-.456.476-.528.852h-1.032c.04-.432.184-.796.432-1.092.256-.296.572-.52.948-.672.376-.16.776-.24 1.2-.24.832 0 1.456.224 1.872.672.424.44.636 1.028.636 1.764V64h-.9l-.06-1.068a2.39 2.39 0 0 1-.744.864c-.32.232-.752.348-1.296.348Zm.156-.852c.384 0 .712-.1.984-.3.28-.2.492-.46.636-.78a2.43 2.43 0 0 0 .216-1.008v-.012h-1.524c-.592 0-1.012.104-1.26.312-.24.2-.36.452-.36.756 0 .312.112.564.336.756.232.184.556.276.972.276Zm4.356.708v-5.952h.912l.06 1.068c.192-.376.468-.672.828-.888.36-.216.768-.324 1.224-.324.704 0 1.264.216 1.68.648.424.424.636 1.08.636 1.968V64h-1.008v-3.372c0-1.24-.512-1.86-1.536-1.86-.512 0-.94.188-1.284.564-.336.368-.504.896-.504 1.584V64h-1.008Zm12.743.144c-.592 0-1.112-.136-1.56-.408a2.835 2.835 0 0 1-1.032-1.116c-.24-.472-.36-1.008-.36-1.608 0-.6.124-1.132.372-1.596a2.75 2.75 0 0 1 1.032-1.104c.44-.272.96-.408 1.56-.408.488 0 .92.1 1.296.3.376.2.668.48.876.84V55.36h1.008V64h-.912l-.096-.984c-.192.288-.468.548-.828.78-.36.232-.812.348-1.356.348Zm.108-.876c.4 0 .752-.092 1.056-.276.312-.192.552-.456.72-.792.176-.336.264-.728.264-1.176 0-.448-.088-.84-.264-1.176a1.837 1.837 0 0 0-.72-.78 1.935 1.935 0 0 0-1.056-.288c-.392 0-.744.096-1.056.288a1.942 1.942 0 0 0-.72.78c-.168.336-.252.728-.252 1.176 0 .448.084.84.252 1.176.176.336.416.6.72.792a2.04 2.04 0 0 0 1.056.276Zm7.403.876c-.568 0-1.072-.128-1.512-.384a2.856 2.856 0 0 1-1.044-1.092c-.248-.464-.372-1.012-.372-1.644 0-.624.124-1.168.372-1.632a2.667 2.667 0 0 1 1.032-1.092c.448-.264.964-.396 1.548-.396.576 0 1.072.132 1.488.396.424.256.748.596.972 1.02a2.885 2.885 0 0 1 .324 1.632v.3h-4.74c.024.456.128.836.312 1.14.192.296.428.52.708.672.288.152.592.228.912.228.416 0 .764-.096 1.044-.288.28-.192.484-.452.612-.78h.996a2.705 2.705 0 0 1-.924 1.38c-.448.36-1.024.54-1.728.54Zm0-5.388c-.48 0-.908.148-1.284.444-.368.288-.58.712-.636 1.272h3.744c-.024-.536-.208-.956-.552-1.26-.344-.304-.768-.456-1.272-.456ZM166.751 64v-8.64h1.008V64h-1.008Zm4.64.144c-.496 0-.908-.084-1.236-.252a1.713 1.713 0 0 1-.972-1.584c0-.608.232-1.076.696-1.404.464-.328 1.096-.492 1.896-.492h1.608v-.072c0-.52-.136-.912-.408-1.176-.272-.272-.636-.408-1.092-.408-.392 0-.732.1-1.02.3-.28.192-.456.476-.528.852h-1.032c.04-.432.184-.796.432-1.092.256-.296.572-.52.948-.672.376-.16.776-.24 1.2-.24.832 0 1.456.224 1.872.672.424.44.636 1.028.636 1.764V64h-.9l-.06-1.068a2.39 2.39 0 0 1-.744.864c-.32.232-.752.348-1.296.348Zm.156-.852c.384 0 .712-.1.984-.3.28-.2.492-.46.636-.78a2.43 2.43 0 0 0 .216-1.008v-.012h-1.524c-.592 0-1.012.104-1.26.312-.24.2-.36.452-.36.756 0 .312.112.564.336.756.232.184.556.276.972.276Zm4.829 3.348 1.476-3.216h-.348l-2.364-5.376h1.092l1.968 4.632 2.088-4.632h1.044l-3.9 8.592h-1.056Zm11.908-2.496c-.56 0-1.064-.128-1.512-.384a2.827 2.827 0 0 1-1.068-1.08c-.256-.472-.384-1.024-.384-1.656 0-.632.132-1.18.396-1.644.264-.472.62-.836 1.068-1.092a3.06 3.06 0 0 1 1.524-.384c.56 0 1.064.128 1.512.384.448.256.8.62 1.056 1.092.264.464.396 1.012.396 1.644 0 .632-.132 1.184-.396 1.656a2.802 2.802 0 0 1-1.08 1.08 2.993 2.993 0 0 1-1.512.384Zm0-.864c.344 0 .664-.084.96-.252a1.88 1.88 0 0 0 .72-.756c.184-.336.276-.752.276-1.248s-.092-.912-.276-1.248a1.803 1.803 0 0 0-.708-.756 1.89 1.89 0 0 0-.948-.252c-.344 0-.664.084-.96.252a1.88 1.88 0 0 0-.72.756c-.184.336-.276.752-.276 1.248s.092.912.276 1.248c.184.336.42.588.708.756.296.168.612.252.948.252Zm4.713.72v-5.1h-.9v-.852h.9v-1.032c0-.576.144-.996.432-1.26.288-.264.708-.396 1.26-.396h.6v.864h-.444c-.304 0-.52.064-.648.192-.128.12-.192.328-.192.624v1.008h1.464v.852h-1.464V64h-1.008Zm7.736 0v-7.272l-1.356.3v-.696l1.692-.732h.684V64h-1.02Zm3.621 0v-7.272l-1.356.3v-.696l1.692-.732h.684V64h-1.02ZM52.251 82.64l1.476-3.216h-.348l-2.364-5.376h1.092l1.968 4.632 2.088-4.632h1.044l-3.9 8.592H52.25Zm8.133-2.496c-.568 0-1.072-.128-1.512-.384a2.856 2.856 0 0 1-1.044-1.092c-.248-.464-.372-1.012-.372-1.644 0-.624.124-1.168.372-1.632A2.667 2.667 0 0 1 58.86 74.3c.448-.264.964-.396 1.548-.396.576 0 1.072.132 1.488.396.424.256.748.596.972 1.02a2.885 2.885 0 0 1 .324 1.632v.3h-4.74c.024.456.128.836.312 1.14.192.296.428.52.708.672.288.152.592.228.912.228.416 0 .764-.096 1.044-.288.28-.192.484-.452.612-.78h.996a2.705 2.705 0 0 1-.924 1.38c-.448.36-1.024.54-1.728.54Zm0-5.388c-.48 0-.908.148-1.284.444-.368.288-.58.712-.636 1.272h3.744c-.024-.536-.208-.956-.552-1.26-.344-.304-.768-.456-1.272-.456Zm6.136 5.388c-.496 0-.908-.084-1.236-.252a1.713 1.713 0 0 1-.972-1.584c0-.608.232-1.076.696-1.404.464-.328 1.096-.492 1.896-.492h1.608v-.072c0-.52-.136-.912-.408-1.176-.272-.272-.636-.408-1.092-.408-.392 0-.732.1-1.02.3-.28.192-.456.476-.528.852h-1.032c.04-.432.184-.796.432-1.092.256-.296.572-.52.948-.672.376-.16.776-.24 1.2-.24.832 0 1.456.224 1.872.672.424.44.636 1.028.636 1.764V80h-.9l-.06-1.068a2.39 2.39 0 0 1-.744.864c-.32.232-.752.348-1.296.348Zm.156-.852c.384 0 .712-.1.984-.3.28-.2.492-.46.636-.78a2.43 2.43 0 0 0 .216-1.008v-.012h-1.524c-.592 0-1.012.104-1.26.312-.24.2-.36.452-.36.756 0 .312.112.564.336.756.232.184.556.276.972.276Zm4.356.708v-5.952h.913l.084 1.14c.184-.392.464-.704.84-.936.376-.232.84-.348 1.391-.348v1.056h-.276c-.352 0-.675.064-.971.192-.297.12-.532.328-.709.624-.175.296-.264.704-.264 1.224v3h-1.008Zm6.64.144c-.712 0-1.304-.18-1.776-.54-.472-.36-.748-.848-.828-1.464H76.1c.064.312.228.584.492.816.272.224.636.336 1.092.336.424 0 .736-.088.936-.264.2-.184.3-.4.3-.648 0-.36-.132-.6-.396-.72-.256-.12-.62-.228-1.092-.324a6.189 6.189 0 0 1-.96-.276 2.221 2.221 0 0 1-.804-.504c-.216-.224-.324-.516-.324-.876 0-.52.192-.944.576-1.272.392-.336.92-.504 1.584-.504.632 0 1.148.16 1.548.48.408.312.644.76.708 1.344h-.996a1.008 1.008 0 0 0-.396-.708c-.216-.176-.508-.264-.876-.264-.36 0-.64.076-.84.228a.728.728 0 0 0-.288.6c0 .24.124.428.372.564.256.136.6.252 1.032.348.368.08.716.18 1.044.3.336.112.608.284.816.516.216.224.324.552.324.984.008.536-.196.98-.612 1.332-.408.344-.964.516-1.668.516Zm10.076 0c-.488 0-.924-.1-1.308-.3-.376-.2-.664-.48-.864-.84L85.48 80h-.912v-8.64h1.008v3.672c.192-.288.464-.548.816-.78.36-.232.816-.348 1.368-.348.592 0 1.108.136 1.548.408.44.272.78.644 1.02 1.116.248.472.372 1.008.372 1.608 0 .6-.124 1.136-.372 1.608-.24.464-.584.832-1.032 1.104-.44.264-.956.396-1.548.396Zm-.108-.876c.4 0 .752-.092 1.056-.276.304-.192.544-.456.72-.792.176-.336.264-.728.264-1.176 0-.448-.088-.84-.264-1.176a1.942 1.942 0 0 0-.72-.78 1.935 1.935 0 0 0-1.056-.288c-.4 0-.752.096-1.056.288a1.942 1.942 0 0 0-.72.78c-.176.336-.264.728-.264 1.176 0 .448.088.84.264 1.176.176.336.416.6.72.792.304.184.656.276 1.056.276Zm7.139.876c-.568 0-1.072-.128-1.512-.384a2.856 2.856 0 0 1-1.044-1.092c-.248-.464-.372-1.012-.372-1.644 0-.624.124-1.168.372-1.632a2.667 2.667 0 0 1 1.032-1.092c.448-.264.964-.396 1.548-.396.576 0 1.072.132 1.488.396.424.256.748.596.972 1.02a2.885 2.885 0 0 1 .324 1.632v.3h-4.74c.024.456.128.836.312 1.14.192.296.428.52.708.672.288.152.592.228.912.228.416 0 .764-.096 1.044-.288.28-.192.484-.452.612-.78h.996a2.705 2.705 0 0 1-.924 1.38c-.448.36-1.024.54-1.728.54Zm0-5.388c-.48 0-.908.148-1.284.444-.368.288-.58.712-.636 1.272h3.744c-.024-.536-.208-.956-.552-1.26-.344-.304-.768-.456-1.272-.456ZM101.088 80c-.544 0-.972-.132-1.284-.396-.312-.264-.468-.74-.468-1.428V74.9h-1.032v-.852h1.032l.132-1.428h.876v1.428h1.752v.852h-1.752v3.276c0 .376.076.632.228.768.152.128.42.192.804.192H102V80h-.912Zm3.488 0-1.74-5.952h1.008l1.26 4.668 1.392-4.668h1.14l1.404 4.668 1.248-4.668h1.02L109.568 80h-1.032l-1.464-4.908L105.608 80h-1.032Zm10.3.144c-.568 0-1.072-.128-1.512-.384a2.856 2.856 0 0 1-1.044-1.092c-.248-.464-.372-1.012-.372-1.644 0-.624.124-1.168.372-1.632a2.667 2.667 0 0 1 1.032-1.092c.448-.264.964-.396 1.548-.396.576 0 1.072.132 1.488.396.424.256.748.596.972 1.02a2.885 2.885 0 0 1 .324 1.632v.3h-4.74c.024.456.128.836.312 1.14.192.296.428.52.708.672.288.152.592.228.912.228.416 0 .764-.096 1.044-.288.28-.192.484-.452.612-.78h.996a2.705 2.705 0 0 1-.924 1.38c-.448.36-1.024.54-1.728.54Zm0-5.388c-.48 0-.908.148-1.284.444-.368.288-.58.712-.636 1.272h3.744c-.024-.536-.208-.956-.552-1.26-.344-.304-.768-.456-1.272-.456Zm6.832 5.388c-.568 0-1.072-.128-1.512-.384a2.856 2.856 0 0 1-1.044-1.092c-.248-.464-.372-1.012-.372-1.644 0-.624.124-1.168.372-1.632a2.667 2.667 0 0 1 1.032-1.092c.448-.264.964-.396 1.548-.396.576 0 1.072.132 1.488.396.424.256.748.596.972 1.02a2.885 2.885 0 0 1 .324 1.632v.3h-4.74c.024.456.128.836.312 1.14.192.296.428.52.708.672.288.152.592.228.912.228.416 0 .764-.096 1.044-.288.28-.192.484-.452.612-.78h.996a2.705 2.705 0 0 1-.924 1.38c-.448.36-1.024.54-1.728.54Zm0-5.388c-.48 0-.908.148-1.284.444-.368.288-.58.712-.636 1.272h3.744c-.024-.536-.208-.956-.552-1.26-.344-.304-.768-.456-1.272-.456ZM125.864 80v-5.952h.912l.06 1.068c.192-.376.468-.672.828-.888.36-.216.768-.324 1.224-.324.704 0 1.264.216 1.68.648.424.424.636 1.08.636 1.968V80h-1.008v-3.372c0-1.24-.512-1.86-1.536-1.86-.512 0-.94.188-1.284.564-.336.368-.504.896-.504 1.584V80h-1.008Zm12.395 0c-.544 0-.972-.132-1.284-.396-.312-.264-.468-.74-.468-1.428V74.9h-1.032v-.852h1.032l.132-1.428h.876v1.428h1.752v.852h-1.752v3.276c0 .376.076.632.228.768.152.128.42.192.804.192h.624V80h-.912Zm2.289 0v-8.64h1.008v3.708c.2-.368.484-.652.852-.852a2.398 2.398 0 0 1 1.2-.312c.688 0 1.24.216 1.656.648.416.424.624 1.08.624 1.968V80h-.996v-3.372c0-1.24-.5-1.86-1.5-1.86-.52 0-.956.188-1.308.564-.352.368-.528.896-.528 1.584V80h-1.008Zm9.543.144c-.568 0-1.072-.128-1.512-.384a2.856 2.856 0 0 1-1.044-1.092c-.248-.464-.372-1.012-.372-1.644 0-.624.124-1.168.372-1.632a2.667 2.667 0 0 1 1.032-1.092c.448-.264.964-.396 1.548-.396.576 0 1.072.132 1.488.396.424.256.748.596.972 1.02a2.885 2.885 0 0 1 .324 1.632v.3h-4.74c.024.456.128.836.312 1.14.192.296.428.52.708.672.288.152.592.228.912.228.416 0 .764-.096 1.044-.288.28-.192.484-.452.612-.78h.996a2.705 2.705 0 0 1-.924 1.38c-.448.36-1.024.54-1.728.54Zm0-5.388c-.48 0-.908.148-1.284.444-.368.288-.58.712-.636 1.272h3.744c-.024-.536-.208-.956-.552-1.26-.344-.304-.768-.456-1.272-.456Zm10.044 5.388c-.56 0-1.064-.128-1.512-.384a2.827 2.827 0 0 1-1.068-1.08c-.256-.472-.384-1.024-.384-1.656 0-.632.132-1.18.396-1.644.264-.472.62-.836 1.068-1.092a3.06 3.06 0 0 1 1.524-.384c.56 0 1.064.128 1.512.384.448.256.8.62 1.056 1.092.264.464.396 1.012.396 1.644 0 .632-.132 1.184-.396 1.656a2.802 2.802 0 0 1-1.08 1.08 2.993 2.993 0 0 1-1.512.384Zm0-.864c.344 0 .664-.084.96-.252a1.88 1.88 0 0 0 .72-.756c.184-.336.276-.752.276-1.248s-.092-.912-.276-1.248a1.803 1.803 0 0 0-.708-.756 1.89 1.89 0 0 0-.948-.252c-.344 0-.664.084-.96.252a1.88 1.88 0 0 0-.72.756c-.184.336-.276.752-.276 1.248s.092.912.276 1.248c.184.336.42.588.708.756.296.168.612.252.948.252Zm4.39.72v-5.952h.912l.06 1.068c.192-.376.468-.672.828-.888.36-.216.768-.324 1.224-.324.704 0 1.264.216 1.68.648.424.424.636 1.08.636 1.968V80h-1.008v-3.372c0-1.24-.512-1.86-1.536-1.86-.512 0-.94.188-1.284.564-.336.368-.504.896-.504 1.584V80h-1.008Zm9.147.144c-.712 0-1.304-.18-1.776-.54-.472-.36-.748-.848-.828-1.464h1.032c.064.312.228.584.492.816.272.224.636.336 1.092.336.424 0 .736-.088.936-.264.2-.184.3-.4.3-.648 0-.36-.132-.6-.396-.72-.256-.12-.62-.228-1.092-.324a6.189 6.189 0 0 1-.96-.276 2.221 2.221 0 0 1-.804-.504c-.216-.224-.324-.516-.324-.876 0-.52.192-.944.576-1.272.392-.336.92-.504 1.584-.504.632 0 1.148.16 1.548.48.408.312.644.76.708 1.344h-.996a1.008 1.008 0 0 0-.396-.708c-.216-.176-.508-.264-.876-.264-.36 0-.64.076-.84.228a.728.728 0 0 0-.288.6c0 .24.124.428.372.564.256.136.6.252 1.032.348.368.08.716.18 1.044.3.336.112.608.284.816.516.216.224.324.552.324.984.008.536-.196.98-.612 1.332-.408.344-.964.516-1.668.516Zm6.396 0c-.568 0-1.072-.128-1.512-.384a2.856 2.856 0 0 1-1.044-1.092c-.248-.464-.372-1.012-.372-1.644 0-.624.124-1.168.372-1.632a2.667 2.667 0 0 1 1.032-1.092c.448-.264.964-.396 1.548-.396.576 0 1.072.132 1.488.396.424.256.748.596.972 1.02a2.885 2.885 0 0 1 .324 1.632v.3h-4.74c.024.456.128.836.312 1.14.192.296.428.52.708.672.288.152.592.228.912.228.416 0 .764-.096 1.044-.288.28-.192.484-.452.612-.78h.996a2.705 2.705 0 0 1-.924 1.38c-.448.36-1.024.54-1.728.54Zm0-5.388c-.48 0-.908.148-1.284.444-.368.288-.58.712-.636 1.272h3.744c-.024-.536-.208-.956-.552-1.26-.344-.304-.768-.456-1.272-.456ZM186.377 80c-.544 0-.972-.132-1.284-.396-.312-.264-.468-.74-.468-1.428V74.9h-1.032v-.852h1.032l.132-1.428h.876v1.428h1.752v.852h-1.752v3.276c0 .376.076.632.228.768.152.128.42.192.804.192h.624V80h-.912Zm8.176.144c-.56 0-1.064-.128-1.512-.384a2.827 2.827 0 0 1-1.068-1.08c-.256-.472-.384-1.024-.384-1.656 0-.632.132-1.18.396-1.644.264-.472.62-.836 1.068-1.092a3.06 3.06 0 0 1 1.524-.384c.56 0 1.064.128 1.512.384.448.256.8.62 1.056 1.092.264.464.396 1.012.396 1.644 0 .632-.132 1.184-.396 1.656a2.802 2.802 0 0 1-1.08 1.08 2.993 2.993 0 0 1-1.512.384Zm0-.864c.344 0 .664-.084.96-.252a1.88 1.88 0 0 0 .72-.756c.184-.336.276-.752.276-1.248s-.092-.912-.276-1.248a1.803 1.803 0 0 0-.708-.756 1.89 1.89 0 0 0-.948-.252c-.344 0-.664.084-.96.252a1.88 1.88 0 0 0-.72.756c-.184.336-.276.752-.276 1.248s.092.912.276 1.248c.184.336.42.588.708.756.296.168.612.252.948.252Zm4.714.72v-5.1h-.9v-.852h.9v-1.032c0-.576.144-.996.432-1.26.288-.264.708-.396 1.26-.396h.6v.864h-.444c-.304 0-.52.064-.648.192-.128.12-.192.328-.192.624v1.008h1.464v.852h-1.464V80h-1.008ZM51.603 96v-5.952h.912l.072.864c.192-.32.448-.568.768-.744.32-.176.68-.264 1.08-.264.472 0 .876.096 1.212.288.344.192.608.484.792.876.208-.36.492-.644.852-.852a2.375 2.375 0 0 1 1.188-.312c.712 0 1.28.216 1.704.648.424.424.636 1.08.636 1.968V96h-.996v-3.372c0-.616-.124-1.08-.372-1.392-.248-.312-.604-.468-1.068-.468-.48 0-.88.188-1.2.564-.312.368-.468.896-.468 1.584V96h-1.008v-3.372c0-.616-.124-1.08-.372-1.392-.248-.312-.604-.468-1.068-.468-.472 0-.868.188-1.188.564-.312.368-.468.896-.468 1.584V96h-1.008Zm13.41.144c-.568 0-1.072-.128-1.512-.384a2.856 2.856 0 0 1-1.044-1.092c-.248-.464-.372-1.012-.372-1.644 0-.624.124-1.168.372-1.632A2.667 2.667 0 0 1 63.49 90.3c.448-.264.964-.396 1.548-.396.576 0 1.072.132 1.488.396.424.256.748.596.972 1.02a2.885 2.885 0 0 1 .324 1.632v.3h-4.74c.024.456.128.836.312 1.14.192.296.428.52.708.672.288.152.592.228.912.228.416 0 .764-.096 1.044-.288.28-.192.484-.452.612-.78h.996a2.705 2.705 0 0 1-.924 1.38c-.448.36-1.024.54-1.728.54Zm0-5.388c-.48 0-.908.148-1.284.444-.368.288-.58.712-.636 1.272h3.744c-.024-.536-.208-.956-.552-1.26-.344-.304-.768-.456-1.272-.456ZM69.17 96v-5.952h.912l.06 1.068c.192-.376.468-.672.828-.888.36-.216.768-.324 1.224-.324.704 0 1.264.216 1.68.648.424.424.636 1.08.636 1.968V96h-1.008v-3.372c0-1.24-.512-1.86-1.536-1.86-.512 0-.94.188-1.284.564-.336.368-.504.896-.504 1.584V96H69.17Zm9.22 0c-.545 0-.973-.132-1.285-.396-.312-.264-.468-.74-.468-1.428V90.9h-1.032v-.852h1.032l.132-1.428h.876v1.428h1.752v.852h-1.752v3.276c0 .376.076.632.228.768.152.128.42.192.804.192h.624V96h-.912Zm4.268.144c-.496 0-.908-.084-1.236-.252a1.713 1.713 0 0 1-.972-1.584c0-.608.232-1.076.696-1.404.464-.328 1.096-.492 1.896-.492h1.608v-.072c0-.52-.136-.912-.408-1.176-.272-.272-.636-.408-1.092-.408-.392 0-.732.1-1.02.3-.28.192-.456.476-.528.852h-1.032c.04-.432.184-.796.432-1.092.256-.296.572-.52.948-.672.376-.16.776-.24 1.2-.24.832 0 1.456.224 1.872.672.424.44.636 1.028.636 1.764V96h-.9l-.06-1.068a2.39 2.39 0 0 1-.744.864c-.32.232-.752.348-1.296.348Zm.156-.852c.384 0 .712-.1.984-.3.28-.2.492-.46.636-.78a2.43 2.43 0 0 0 .216-1.008v-.012h-1.524c-.592 0-1.012.104-1.26.312-.24.2-.36.452-.36.756 0 .312.112.564.336.756.232.184.556.276.972.276Zm4.356.708v-8.64h1.008V96H87.17Zm5.836 0v-8.64h1.008v3.708c.2-.368.484-.652.852-.852a2.398 2.398 0 0 1 1.2-.312c.688 0 1.24.216 1.656.648.416.424.624 1.08.624 1.968V96h-.996v-3.372c0-1.24-.5-1.86-1.5-1.86-.52 0-.956.188-1.308.564-.352.368-.528.896-.528 1.584V96h-1.008Zm9.543.144c-.568 0-1.072-.128-1.512-.384a2.853 2.853 0 0 1-1.044-1.092c-.248-.464-.372-1.012-.372-1.644 0-.624.124-1.168.372-1.632a2.665 2.665 0 0 1 1.032-1.092c.448-.264.964-.396 1.548-.396.576 0 1.072.132 1.488.396.424.256.748.596.972 1.02a2.885 2.885 0 0 1 .324 1.632v.3h-4.74c.024.456.128.836.312 1.14.192.296.428.52.708.672.288.152.592.228.912.228.416 0 .764-.096 1.044-.288.28-.192.484-.452.612-.78h.996a2.705 2.705 0 0 1-.924 1.38c-.448.36-1.024.54-1.728.54Zm0-5.388c-.48 0-.908.148-1.284.444-.368.288-.58.712-.636 1.272h3.744c-.024-.536-.208-.956-.552-1.26-.344-.304-.768-.456-1.272-.456Zm6.136 5.388c-.496 0-.908-.084-1.236-.252a1.713 1.713 0 0 1-.972-1.584c0-.608.232-1.076.696-1.404.464-.328 1.096-.492 1.896-.492h1.608v-.072c0-.52-.136-.912-.408-1.176-.272-.272-.636-.408-1.092-.408-.392 0-.732.1-1.02.3-.28.192-.456.476-.528.852h-1.032c.04-.432.184-.796.432-1.092.256-.296.572-.52.948-.672.376-.16.776-.24 1.2-.24.832 0 1.456.224 1.872.672.424.44.636 1.028.636 1.764V96h-.9l-.06-1.068a2.39 2.39 0 0 1-.744.864c-.32.232-.752.348-1.296.348Zm.156-.852c.384 0 .712-.1.984-.3.28-.2.492-.46.636-.78a2.43 2.43 0 0 0 .216-1.008v-.012h-1.524c-.592 0-1.012.104-1.26.312-.24.2-.36.452-.36.756 0 .312.112.564.336.756.232.184.556.276.972.276Zm4.357.708v-8.64h1.008V96h-1.008Zm5.012 0c-.544 0-.972-.132-1.284-.396-.312-.264-.468-.74-.468-1.428V90.9h-1.032v-.852h1.032l.132-1.428h.876v1.428h1.752v.852h-1.752v3.276c0 .376.076.632.228.768.152.128.42.192.804.192h.624V96h-.912Zm2.288 0v-8.64h1.008v3.708c.2-.368.484-.652.852-.852a2.398 2.398 0 0 1 1.2-.312c.688 0 1.24.216 1.656.648.416.424.624 1.08.624 1.968V96h-.996v-3.372c0-1.24-.5-1.86-1.5-1.86-.52 0-.956.188-1.308.564-.352.368-.528.896-.528 1.584V96h-1.008Zm12.323.144c-.712 0-1.304-.18-1.776-.54-.472-.36-.748-.848-.828-1.464h1.032c.064.312.228.584.492.816.272.224.636.336 1.092.336.424 0 .736-.088.936-.264.2-.184.3-.4.3-.648 0-.36-.132-.6-.396-.72-.256-.12-.62-.228-1.092-.324a6.189 6.189 0 0 1-.96-.276 2.221 2.221 0 0 1-.804-.504c-.216-.224-.324-.516-.324-.876 0-.52.192-.944.576-1.272.392-.336.92-.504 1.584-.504.632 0 1.148.16 1.548.48.408.312.644.76.708 1.344h-.996a1.008 1.008 0 0 0-.396-.708c-.216-.176-.508-.264-.876-.264-.36 0-.64.076-.84.228a.728.728 0 0 0-.288.6c0 .24.124.428.372.564.256.136.6.252 1.032.348.368.08.716.18 1.044.3.336.112.608.284.816.516.216.224.324.552.324.984.008.536-.196.98-.612 1.332-.408.344-.964.516-1.668.516Zm4.11 2.496 1.476-3.216h-.348l-2.364-5.376h1.092l1.968 4.632 2.088-4.632h1.044l-3.9 8.592h-1.056Zm6.02-2.64v-5.952h.912l.072.864c.192-.32.448-.568.768-.744.32-.176.68-.264 1.08-.264.472 0 .876.096 1.212.288.344.192.608.484.792.876.208-.36.492-.644.852-.852a2.375 2.375 0 0 1 1.188-.312c.712 0 1.28.216 1.704.648.424.424.636 1.08.636 1.968V96h-.996v-3.372c0-.616-.124-1.08-.372-1.392-.248-.312-.604-.468-1.068-.468-.48 0-.88.188-1.2.564-.312.368-.468.896-.468 1.584V96h-1.008v-3.372c0-.616-.124-1.08-.372-1.392-.248-.312-.604-.468-1.068-.468-.472 0-.868.188-1.188.564-.312.368-.468.896-.468 1.584V96h-1.008Zm10.735 2.64v-8.592h.912l.096.984c.192-.288.464-.548.816-.78.36-.232.816-.348 1.368-.348.592 0 1.108.136 1.548.408.44.272.78.644 1.02 1.116.248.472.372 1.008.372 1.608 0 .6-.124 1.136-.372 1.608-.24.464-.584.832-1.032 1.104-.44.264-.956.396-1.548.396-.488 0-.924-.1-1.308-.3-.376-.2-.664-.48-.864-.84v3.636h-1.008Zm3.072-3.372c.4 0 .752-.092 1.056-.276.304-.192.544-.456.72-.792.176-.336.264-.728.264-1.176 0-.448-.088-.84-.264-1.176a1.942 1.942 0 0 0-.72-.78 1.935 1.935 0 0 0-1.056-.288c-.4 0-.752.096-1.056.288a1.942 1.942 0 0 0-.72.78c-.176.336-.264.728-.264 1.176 0 .448.088.84.264 1.176.176.336.416.6.72.792.304.184.656.276 1.056.276Zm6.581.732c-.544 0-.972-.132-1.284-.396-.312-.264-.468-.74-.468-1.428V90.9h-1.032v-.852h1.032l.132-1.428h.876v1.428h1.752v.852h-1.752v3.276c0 .376.076.632.228.768.152.128.42.192.804.192h.624V96h-.912Zm4.836.144c-.56 0-1.064-.128-1.512-.384a2.827 2.827 0 0 1-1.068-1.08c-.256-.472-.384-1.024-.384-1.656 0-.632.132-1.18.396-1.644.264-.472.62-.836 1.068-1.092a3.06 3.06 0 0 1 1.524-.384c.56 0 1.064.128 1.512.384.448.256.8.62 1.056 1.092.264.464.396 1.012.396 1.644 0 .632-.132 1.184-.396 1.656a2.802 2.802 0 0 1-1.08 1.08 2.993 2.993 0 0 1-1.512.384Zm0-.864c.344 0 .664-.084.96-.252a1.88 1.88 0 0 0 .72-.756c.184-.336.276-.752.276-1.248s-.092-.912-.276-1.248a1.803 1.803 0 0 0-.708-.756 1.89 1.89 0 0 0-.948-.252c-.344 0-.664.084-.96.252a1.88 1.88 0 0 0-.72.756c-.184.336-.276.752-.276 1.248s.092.912.276 1.248c.184.336.42.588.708.756.296.168.612.252.948.252Zm4.39.72v-5.952h.912l.072.864c.192-.32.448-.568.768-.744.32-.176.68-.264 1.08-.264.472 0 .876.096 1.212.288.344.192.608.484.792.876.208-.36.492-.644.852-.852a2.375 2.375 0 0 1 1.188-.312c.712 0 1.28.216 1.704.648.424.424.636 1.08.636 1.968V96h-.996v-3.372c0-.616-.124-1.08-.372-1.392-.248-.312-.604-.468-1.068-.468-.48 0-.88.188-1.2.564-.312.368-.468.896-.468 1.584V96h-1.008v-3.372c0-.616-.124-1.08-.372-1.392-.248-.312-.604-.468-1.068-.468-.472 0-.868.188-1.188.564-.312.368-.468.896-.468 1.584V96h-1.008Zm13.014.144c-.712 0-1.304-.18-1.776-.54-.472-.36-.748-.848-.828-1.464h1.032c.064.312.228.584.492.816.272.224.636.336 1.092.336.424 0 .736-.088.936-.264.2-.184.3-.4.3-.648 0-.36-.132-.6-.396-.72-.256-.12-.62-.228-1.092-.324a6.189 6.189 0 0 1-.96-.276 2.221 2.221 0 0 1-.804-.504c-.216-.224-.324-.516-.324-.876 0-.52.192-.944.576-1.272.392-.336.92-.504 1.584-.504.632 0 1.148.16 1.548.48.408.312.644.76.708 1.344h-.996a1.008 1.008 0 0 0-.396-.708c-.216-.176-.508-.264-.876-.264-.36 0-.64.076-.84.228a.728.728 0 0 0-.288.6c0 .24.124.428.372.564.256.136.6.252 1.032.348.368.08.716.18 1.044.3.336.112.608.284.816.516.216.224.324.552.324.984.008.536-.196.98-.612 1.332-.408.344-.964.516-1.668.516Zm8.876 0c-.496 0-.908-.084-1.236-.252a1.713 1.713 0 0 1-.972-1.584c0-.608.232-1.076.696-1.404.464-.328 1.096-.492 1.896-.492h1.608v-.072c0-.52-.136-.912-.408-1.176-.272-.272-.636-.408-1.092-.408-.392 0-.732.1-1.02.3-.28.192-.456.476-.528.852h-1.032c.04-.432.184-.796.432-1.092.256-.296.572-.52.948-.672.376-.16.776-.24 1.2-.24.832 0 1.456.224 1.872.672.424.44.636 1.028.636 1.764V96h-.9l-.06-1.068a2.39 2.39 0 0 1-.744.864c-.32.232-.752.348-1.296.348Zm.156-.852c.384 0 .712-.1.984-.3.28-.2.492-.46.636-.78a2.43 2.43 0 0 0 .216-1.008v-.012h-1.524c-.592 0-1.012.104-1.26.312-.24.2-.36.452-.36.756 0 .312.112.564.336.756.232.184.556.276.972.276Zm4.356.708v-5.952h.912l.06 1.068c.192-.376.468-.672.828-.888.36-.216.768-.324 1.224-.324.704 0 1.264.216 1.68.648.424.424.636 1.08.636 1.968V96h-1.008v-3.372c0-1.24-.512-1.86-1.536-1.86-.512 0-.94.188-1.284.564-.336.368-.504.896-.504 1.584V96h-1.008Zm9.567.144c-.592 0-1.112-.136-1.56-.408a2.835 2.835 0 0 1-1.032-1.116c-.24-.472-.36-1.008-.36-1.608 0-.6.124-1.132.372-1.596a2.75 2.75 0 0 1 1.032-1.104c.44-.272.96-.408 1.56-.408.488 0 .92.1 1.296.3.376.2.668.48.876.84V87.36h1.008V96h-.912l-.096-.984c-.192.288-.468.548-.828.78-.36.232-.812.348-1.356.348Zm.108-.876c.4 0 .752-.092 1.056-.276.312-.192.552-.456.72-.792.176-.336.264-.728.264-1.176 0-.448-.088-.84-.264-1.176a1.837 1.837 0 0 0-.72-.78 1.935 1.935 0 0 0-1.056-.288c-.392 0-.744.096-1.056.288a1.942 1.942 0 0 0-.72.78c-.168.336-.252.728-.252 1.176 0 .448.084.84.252 1.176.176.336.416.6.72.792a2.04 2.04 0 0 0 1.056.276ZM51.603 112v-5.952h.912l.084 1.14c.184-.392.464-.704.84-.936.376-.232.84-.348 1.392-.348v1.056h-.276c-.352 0-.676.064-.972.192-.296.12-.532.328-.708.624-.176.296-.264.704-.264 1.224v3h-1.008Zm6.813.144c-.569 0-1.072-.128-1.512-.384a2.856 2.856 0 0 1-1.045-1.092c-.248-.464-.372-1.012-.372-1.644 0-.624.124-1.168.372-1.632a2.667 2.667 0 0 1 1.032-1.092c.449-.264.965-.396 1.549-.396.576 0 1.072.132 1.488.396.424.256.748.596.972 1.02a2.885 2.885 0 0 1 .324 1.632v.3h-4.74c.023.456.127.836.311 1.14.192.296.428.52.709.672.288.152.592.228.912.228.416 0 .764-.096 1.044-.288.28-.192.483-.452.611-.78h.997a2.705 2.705 0 0 1-.924 1.38c-.448.36-1.024.54-1.728.54Zm0-5.388c-.48 0-.908.148-1.284.444-.368.288-.58.712-.636 1.272h3.743c-.023-.536-.207-.956-.551-1.26-.345-.304-.769-.456-1.273-.456Zm6.892 5.388c-.569 0-1.08-.128-1.537-.384a2.916 2.916 0 0 1-1.068-1.092c-.256-.472-.384-1.02-.384-1.644 0-.624.128-1.168.384-1.632.264-.472.62-.836 1.069-1.092a3.01 3.01 0 0 1 1.536-.396c.703 0 1.295.184 1.775.552.489.368.796.86.924 1.476h-1.032a1.301 1.301 0 0 0-.587-.852 1.922 1.922 0 0 0-1.093-.312 1.89 1.89 0 0 0-.948.252 1.88 1.88 0 0 0-.72.756c-.184.336-.276.752-.276 1.248s.093.912.276 1.248c.184.336.425.592.72.768.297.168.613.252.949.252.415 0 .78-.1 1.091-.3.313-.208.508-.5.588-.876h1.032c-.12.6-.424 1.088-.912 1.464-.487.376-1.084.564-1.787.564Zm6.783 0c-.568 0-1.072-.128-1.512-.384a2.856 2.856 0 0 1-1.044-1.092c-.248-.464-.372-1.012-.372-1.644 0-.624.124-1.168.372-1.632a2.667 2.667 0 0 1 1.032-1.092c.448-.264.964-.396 1.548-.396.576 0 1.072.132 1.488.396.424.256.748.596.972 1.02a2.885 2.885 0 0 1 .324 1.632v.3h-4.74c.024.456.128.836.312 1.14.192.296.428.52.708.672.288.152.592.228.912.228.416 0 .764-.096 1.044-.288.28-.192.484-.452.612-.78h.996a2.705 2.705 0 0 1-.924 1.38c-.448.36-1.024.54-1.728.54Zm0-5.388c-.48 0-.908.148-1.284.444-.368.288-.58.712-.636 1.272h3.744c-.024-.536-.208-.956-.552-1.26-.344-.304-.768-.456-1.272-.456Zm4.768-2.028a.707.707 0 0 1-.504-.192.707.707 0 0 1-.192-.504c0-.192.064-.352.192-.48a.707.707 0 0 1 .504-.192c.192 0 .356.064.492.192a.632.632 0 0 1 .204.48c0 .2-.068.368-.204.504a.692.692 0 0 1-.492.192ZM76.355 112v-5.952h1.008V112h-1.008Zm4.48 0-2.257-5.952h1.056l1.788 4.98 1.8-4.98h1.032L81.998 112h-1.164Zm5.153-7.272a.707.707 0 0 1-.504-.192.707.707 0 0 1-.192-.504c0-.192.064-.352.192-.48a.707.707 0 0 1 .504-.192c.192 0 .356.064.492.192a.632.632 0 0 1 .204.48c0 .2-.068.368-.204.504a.692.692 0 0 1-.492.192ZM85.484 112v-5.952h1.008V112h-1.008Zm2.763 0v-5.952h.912l.06 1.068c.192-.376.468-.672.828-.888.36-.216.768-.324 1.224-.324.704 0 1.264.216 1.68.648.424.424.636 1.08.636 1.968V112H92.58v-3.372c0-1.24-.512-1.86-1.536-1.86-.512 0-.94.188-1.284.564-.336.368-.504.896-.504 1.584V112h-1.008Zm9.22-1.872a3.07 3.07 0 0 1-.924-.132l-.6.564c.088.064.195.12.323.168.136.04.328.08.576.12.249.032.597.068 1.044.108.8.056 1.373.24 1.717.552.344.312.515.72.515 1.224 0 .344-.096.672-.287.984-.184.312-.472.568-.865.768-.383.2-.88.3-1.487.3a4.356 4.356 0 0 1-1.428-.216c-.416-.136-.74-.348-.972-.636-.232-.28-.348-.636-.348-1.068 0-.224.06-.468.18-.732.12-.256.343-.5.671-.732a3.022 3.022 0 0 1-.456-.228 2.898 2.898 0 0 1-.336-.288v-.276l1.02-1.008c-.472-.4-.707-.928-.707-1.584 0-.392.092-.748.276-1.068.183-.32.451-.572.803-.756.352-.192.78-.288 1.284-.288.345 0 .657.048.937.144h2.195v.756l-1.115.048c.231.336.347.724.347 1.164 0 .392-.096.748-.287 1.068-.184.32-.453.576-.805.768-.344.184-.767.276-1.272.276Zm0-.828c.424 0 .76-.108 1.008-.324.256-.224.384-.544.384-.96 0-.408-.128-.72-.384-.936-.248-.224-.584-.336-1.008-.336-.433 0-.776.112-1.032.336-.249.216-.373.528-.373.936 0 .416.124.736.373.96.255.216.6.324 1.031.324Zm-1.752 3.468c0 .4.167.696.504.888.336.2.756.3 1.26.3.496 0 .892-.108 1.188-.324a1.01 1.01 0 0 0 .456-.864.888.888 0 0 0-.313-.672c-.207-.184-.591-.292-1.151-.324-.44-.032-.82-.072-1.14-.12-.329.176-.544.364-.648.564-.105.208-.156.392-.156.552Zm11.932-.624c-.568 0-1.08-.128-1.536-.384a2.916 2.916 0 0 1-1.068-1.092c-.256-.472-.384-1.02-.384-1.644 0-.624.128-1.168.384-1.632.264-.472.62-.836 1.068-1.092a3.01 3.01 0 0 1 1.536-.396c.704 0 1.296.184 1.776.552.488.368.796.86.924 1.476h-1.032a1.301 1.301 0 0 0-.588-.852 1.922 1.922 0 0 0-1.092-.312 1.89 1.89 0 0 0-.948.252 1.88 1.88 0 0 0-.72.756c-.184.336-.276.752-.276 1.248s.092.912.276 1.248c.184.336.424.592.72.768.296.168.612.252.948.252.416 0 .78-.1 1.092-.3.312-.208.508-.5.588-.876h1.032c-.12.6-.424 1.088-.912 1.464-.488.376-1.084.564-1.788.564Zm6.088 0c-.496 0-.908-.084-1.236-.252a1.713 1.713 0 0 1-.972-1.584c0-.608.232-1.076.696-1.404.464-.328 1.096-.492 1.896-.492h1.608v-.072c0-.52-.136-.912-.408-1.176-.272-.272-.636-.408-1.092-.408-.392 0-.732.1-1.02.3-.28.192-.456.476-.528.852h-1.032c.04-.432.184-.796.432-1.092.256-.296.572-.52.948-.672.376-.16.776-.24 1.2-.24.832 0 1.456.224 1.872.672.424.44.636 1.028.636 1.764V112h-.9l-.06-1.068a2.39 2.39 0 0 1-.744.864c-.32.232-.752.348-1.296.348Zm.156-.852c.384 0 .712-.1.984-.3.28-.2.492-.46.636-.78a2.43 2.43 0 0 0 .216-1.008v-.012h-1.524c-.592 0-1.012.104-1.26.312-.24.2-.36.452-.36.756 0 .312.112.564.336.756.232.184.556.276.972.276Zm4.356.708v-5.952h.912l.084 1.14c.184-.392.464-.704.84-.936.376-.232.84-.348 1.392-.348v1.056h-.276c-.352 0-.676.064-.972.192-.296.12-.532.328-.708.624-.176.296-.264.704-.264 1.224v3h-1.008Zm6.813.144c-.568 0-1.072-.128-1.512-.384a2.856 2.856 0 0 1-1.044-1.092c-.248-.464-.372-1.012-.372-1.644 0-.624.124-1.168.372-1.632a2.667 2.667 0 0 1 1.032-1.092c.448-.264.964-.396 1.548-.396.576 0 1.072.132 1.488.396.424.256.748.596.972 1.02a2.885 2.885 0 0 1 .324 1.632v.3h-4.74c.024.456.128.836.312 1.14.192.296.428.52.708.672.288.152.592.228.912.228.416 0 .764-.096 1.044-.288.28-.192.484-.452.612-.78h.996a2.705 2.705 0 0 1-.924 1.38c-.448.36-1.024.54-1.728.54Zm0-5.388c-.48 0-.908.148-1.284.444-.368.288-.58.712-.636 1.272h3.744c-.024-.536-.208-.956-.552-1.26-.344-.304-.768-.456-1.272-.456Zm4.504 5.304a.707.707 0 0 1-.504-.192.692.692 0 0 1-.192-.492c0-.192.064-.352.192-.48a.685.685 0 0 1 .504-.204c.192 0 .352.068.48.204a.632.632 0 0 1 .204.48.67.67 0 0 1-.204.492.651.651 0 0 1-.48.192Zm9.048.084c-.824 0-1.548-.18-2.172-.54a3.894 3.894 0 0 1-1.452-1.536c-.344-.656-.516-1.412-.516-2.268 0-.856.172-1.608.516-2.256a3.894 3.894 0 0 1 1.452-1.536c.624-.368 1.348-.552 2.172-.552.832 0 1.556.184 2.172.552.624.368 1.108.88 1.452 1.536.344.648.516 1.4.516 2.256 0 .856-.172 1.612-.516 2.268a3.786 3.786 0 0 1-1.452 1.536c-.616.36-1.34.54-2.172.54Zm0-.888c.616 0 1.156-.136 1.62-.408.472-.28.836-.676 1.092-1.188.264-.52.396-1.14.396-1.86 0-.72-.132-1.336-.396-1.848a2.73 2.73 0 0 0-1.092-1.176c-.464-.28-1.004-.42-1.62-.42-.616 0-1.16.14-1.632.42a2.828 2.828 0 0 0-1.092 1.176c-.256.512-.384 1.128-.384 1.848 0 .72.128 1.34.384 1.86.264.512.628.908 1.092 1.188.472.272 1.016.408 1.632.408Zm5.858.744v-5.1h-.9v-.852h.9v-1.032c0-.576.144-.996.432-1.26.288-.264.708-.396 1.26-.396h.6v.864h-.444c-.304 0-.52.064-.648.192-.128.12-.192.328-.192.624v1.008h1.464v.852h-1.464v5.1h-1.008Zm6.024 0c-.544 0-.972-.132-1.284-.396-.312-.264-.468-.74-.468-1.428V106.9h-1.032v-.852h1.032l.132-1.428h.876v1.428h1.752v.852h-1.752v3.276c0 .376.076.632.228.768.152.128.42.192.804.192h.624V112h-.912Zm4.8.144c-.568 0-1.072-.128-1.512-.384a2.856 2.856 0 0 1-1.044-1.092c-.248-.464-.372-1.012-.372-1.644 0-.624.124-1.168.372-1.632a2.667 2.667 0 0 1 1.032-1.092c.448-.264.964-.396 1.548-.396.576 0 1.072.132 1.488.396.424.256.748.596.972 1.02a2.885 2.885 0 0 1 .324 1.632v.3h-4.74c.024.456.128.836.312 1.14.192.296.428.52.708.672.288.152.592.228.912.228.416 0 .764-.096 1.044-.288.28-.192.484-.452.612-.78h.996a2.705 2.705 0 0 1-.924 1.38c-.448.36-1.024.54-1.728.54Zm0-5.388c-.48 0-.908.148-1.284.444-.368.288-.58.712-.636 1.272h3.744c-.024-.536-.208-.956-.552-1.26-.344-.304-.768-.456-1.272-.456ZM159.45 112v-5.952h.912l.06 1.068c.192-.376.468-.672.828-.888.36-.216.768-.324 1.224-.324.704 0 1.264.216 1.68.648.424.424.636 1.08.636 1.968V112h-1.008v-3.372c0-1.24-.512-1.86-1.536-1.86-.512 0-.94.188-1.284.564-.336.368-.504.896-.504 1.584V112h-1.008Zm10.043 2.64v-8.592h.912l.096.984c.192-.288.464-.548.816-.78.36-.232.816-.348 1.368-.348.592 0 1.108.136 1.548.408.44.272.78.644 1.02 1.116.248.472.372 1.008.372 1.608 0 .6-.124 1.136-.372 1.608-.24.464-.584.832-1.032 1.104-.44.264-.956.396-1.548.396-.488 0-.924-.1-1.308-.3-.376-.2-.664-.48-.864-.84v3.636h-1.008Zm3.072-3.372c.4 0 .752-.092 1.056-.276.304-.192.544-.456.72-.792.176-.336.264-.728.264-1.176 0-.448-.088-.84-.264-1.176a1.942 1.942 0 0 0-.72-.78 1.935 1.935 0 0 0-1.056-.288c-.4 0-.752.096-1.056.288a1.942 1.942 0 0 0-.72.78c-.176.336-.264.728-.264 1.176 0 .448.088.84.264 1.176.176.336.416.6.72.792.304.184.656.276 1.056.276Zm7.14.876c-.568 0-1.072-.128-1.512-.384a2.856 2.856 0 0 1-1.044-1.092c-.248-.464-.372-1.012-.372-1.644 0-.624.124-1.168.372-1.632a2.667 2.667 0 0 1 1.032-1.092c.448-.264.964-.396 1.548-.396.576 0 1.072.132 1.488.396.424.256.748.596.972 1.02a2.885 2.885 0 0 1 .324 1.632v.3h-4.74c.024.456.128.836.312 1.14.192.296.428.52.708.672.288.152.592.228.912.228.416 0 .764-.096 1.044-.288.28-.192.484-.452.612-.78h.996a2.705 2.705 0 0 1-.924 1.38c-.448.36-1.024.54-1.728.54Zm0-5.388c-.48 0-.908.148-1.284.444-.368.288-.58.712-.636 1.272h3.744c-.024-.536-.208-.956-.552-1.26-.344-.304-.768-.456-1.272-.456Zm6.868 5.388c-.56 0-1.064-.128-1.512-.384a2.827 2.827 0 0 1-1.068-1.08c-.256-.472-.384-1.024-.384-1.656 0-.632.132-1.18.396-1.644.264-.472.62-.836 1.068-1.092a3.06 3.06 0 0 1 1.524-.384c.56 0 1.064.128 1.512.384.448.256.8.62 1.056 1.092.264.464.396 1.012.396 1.644 0 .632-.132 1.184-.396 1.656a2.802 2.802 0 0 1-1.08 1.08 2.993 2.993 0 0 1-1.512.384Zm0-.864c.344 0 .664-.084.96-.252a1.88 1.88 0 0 0 .72-.756c.184-.336.276-.752.276-1.248s-.092-.912-.276-1.248a1.803 1.803 0 0 0-.708-.756 1.89 1.89 0 0 0-.948-.252c-.344 0-.664.084-.96.252a1.88 1.88 0 0 0-.72.756c-.184.336-.276.752-.276 1.248s.092.912.276 1.248c.184.336.42.588.708.756.296.168.612.252.948.252Zm4.389 3.36v-8.592h.912l.096.984c.192-.288.464-.548.816-.78.36-.232.816-.348 1.368-.348.592 0 1.108.136 1.548.408.44.272.78.644 1.02 1.116.248.472.372 1.008.372 1.608 0 .6-.124 1.136-.372 1.608-.24.464-.584.832-1.032 1.104-.44.264-.956.396-1.548.396-.488 0-.924-.1-1.308-.3-.376-.2-.664-.48-.864-.84v3.636h-1.008Zm3.072-3.372c.4 0 .752-.092 1.056-.276.304-.192.544-.456.72-.792.176-.336.264-.728.264-1.176 0-.448-.088-.84-.264-1.176a1.942 1.942 0 0 0-.72-.78 1.935 1.935 0 0 0-1.056-.288c-.4 0-.752.096-1.056.288a1.942 1.942 0 0 0-.72.78c-.176.336-.264.728-.264 1.176 0 .448.088.84.264 1.176.176.336.416.6.72.792.304.184.656.276 1.056.276Zm4.463.732v-8.64h1.008V112h-1.008Zm5.336.144c-.568 0-1.072-.128-1.512-.384a2.856 2.856 0 0 1-1.044-1.092c-.248-.464-.372-1.012-.372-1.644 0-.624.124-1.168.372-1.632a2.667 2.667 0 0 1 1.032-1.092c.448-.264.964-.396 1.548-.396.576 0 1.072.132 1.488.396.424.256.748.596.972 1.02a2.885 2.885 0 0 1 .324 1.632v.3h-4.74c.024.456.128.836.312 1.14.192.296.428.52.708.672.288.152.592.228.912.228.416 0 .764-.096 1.044-.288.28-.192.484-.452.612-.78h.996a2.705 2.705 0 0 1-.924 1.38c-.448.36-1.024.54-1.728.54Zm0-5.388c-.48 0-.908.148-1.284.444-.368.288-.58.712-.636 1.272h3.744c-.024-.536-.208-.956-.552-1.26-.344-.304-.768-.456-1.272-.456Zm9.684 5.244c-.544 0-.972-.132-1.284-.396-.312-.264-.468-.74-.468-1.428V106.9h-1.032v-.852h1.032l.132-1.428h.876v1.428h1.752v.852h-1.752v3.276c0 .376.076.632.228.768.152.128.42.192.804.192h.624V112h-.912Zm2.289 0v-5.952h.912l.084 1.14c.184-.392.464-.704.84-.936.376-.232.84-.348 1.392-.348v1.056h-.276c-.352 0-.676.064-.972.192-.296.12-.532.328-.708.624-.176.296-.264.704-.264 1.224v3h-1.008Zm5.007 2.64 1.476-3.216h-.348l-2.364-5.376h1.092l1.968 4.632 2.088-4.632h1.044l-3.9 8.592h-1.056ZM53.955 128c-.544 0-.972-.132-1.284-.396-.312-.264-.468-.74-.468-1.428V122.9H51.17v-.852h1.032l.132-1.428h.876v1.428h1.752v.852H53.21v3.276c0 .376.076.632.228.768.152.128.42.192.804.192h.624V128h-.912Zm4.836.144c-.56 0-1.064-.128-1.512-.384a2.827 2.827 0 0 1-1.068-1.08c-.256-.472-.384-1.024-.384-1.656 0-.632.132-1.18.396-1.644.264-.472.62-.836 1.068-1.092a3.06 3.06 0 0 1 1.524-.384c.56 0 1.064.128 1.512.384.448.256.8.62 1.056 1.092.264.464.396 1.012.396 1.644 0 .632-.132 1.184-.396 1.656a2.802 2.802 0 0 1-1.08 1.08 2.993 2.993 0 0 1-1.512.384Zm0-.864c.344 0 .664-.084.96-.252a1.88 1.88 0 0 0 .72-.756c.184-.336.276-.752.276-1.248s-.092-.912-.276-1.248a1.803 1.803 0 0 0-.708-.756 1.89 1.89 0 0 0-.948-.252c-.344 0-.664.084-.96.252a1.88 1.88 0 0 0-.72.756c-.184.336-.276.752-.276 1.248s.092.912.276 1.248c.184.336.42.588.708.756.296.168.612.252.948.252Zm7.566.72v-8.64h1.008v3.708c.2-.368.484-.652.852-.852a2.398 2.398 0 0 1 1.2-.312c.688 0 1.24.216 1.656.648.416.424.624 1.08.624 1.968V128H70.7v-3.372c0-1.24-.5-1.86-1.5-1.86-.52 0-.956.188-1.308.564-.352.368-.528.896-.528 1.584V128h-1.008Zm7.479-7.272a.707.707 0 0 1-.504-.192.707.707 0 0 1-.192-.504c0-.192.064-.352.192-.48a.707.707 0 0 1 .504-.192c.192 0 .356.064.492.192a.632.632 0 0 1 .204.48c0 .2-.068.368-.204.504a.692.692 0 0 1-.492.192ZM73.332 128v-5.952h1.008V128h-1.008Zm5.463.144c-.592 0-1.112-.136-1.56-.408a2.835 2.835 0 0 1-1.032-1.116c-.24-.472-.36-1.008-.36-1.608 0-.6.124-1.132.372-1.596a2.75 2.75 0 0 1 1.032-1.104c.44-.272.96-.408 1.56-.408.488 0 .92.1 1.296.3.376.2.668.48.876.84v-3.684h1.008V128h-.912l-.096-.984c-.192.288-.468.548-.828.78-.36.232-.812.348-1.356.348Zm.108-.876c.4 0 .752-.092 1.056-.276.312-.192.552-.456.72-.792.176-.336.264-.728.264-1.176 0-.448-.088-.84-.264-1.176a1.837 1.837 0 0 0-.72-.78 1.935 1.935 0 0 0-1.056-.288c-.392 0-.744.096-1.056.288a1.942 1.942 0 0 0-.72.78c-.168.336-.252.728-.252 1.176 0 .448.084.84.252 1.176.176.336.416.6.72.792a2.04 2.04 0 0 0 1.056.276Zm7.403.876c-.568 0-1.072-.128-1.512-.384a2.856 2.856 0 0 1-1.044-1.092c-.248-.464-.372-1.012-.372-1.644 0-.624.124-1.168.372-1.632a2.667 2.667 0 0 1 1.032-1.092c.448-.264.964-.396 1.548-.396.576 0 1.072.132 1.488.396.424.256.748.596.972 1.02a2.885 2.885 0 0 1 .324 1.632v.3h-4.74c.024.456.128.836.312 1.14.192.296.428.52.708.672.288.152.592.228.912.228.416 0 .764-.096 1.044-.288.28-.192.484-.452.612-.78h.996a2.705 2.705 0 0 1-.924 1.38c-.448.36-1.024.54-1.728.54Zm0-5.388c-.48 0-.908.148-1.284.444-.368.288-.58.712-.636 1.272h3.744c-.024-.536-.208-.956-.552-1.26-.344-.304-.768-.456-1.272-.456ZM95.99 128c-.544 0-.972-.132-1.284-.396-.312-.264-.468-.74-.468-1.428V122.9h-1.032v-.852h1.032l.132-1.428h.876v1.428h1.752v.852h-1.752v3.276c0 .376.076.632.228.768.152.128.42.192.804.192h.624V128h-.912Zm2.289 0v-8.64h1.008v3.708c.2-.368.484-.652.852-.852a2.398 2.398 0 0 1 1.2-.312c.688 0 1.24.216 1.656.648.416.424.624 1.08.624 1.968V128h-.996v-3.372c0-1.24-.5-1.86-1.5-1.86-.52 0-.956.188-1.308.564-.352.368-.528.896-.528 1.584V128h-1.008Zm9.543.144c-.568 0-1.072-.128-1.512-.384a2.856 2.856 0 0 1-1.044-1.092c-.248-.464-.372-1.012-.372-1.644 0-.624.124-1.168.372-1.632a2.667 2.667 0 0 1 1.032-1.092c.448-.264.964-.396 1.548-.396.576 0 1.072.132 1.488.396.424.256.748.596.972 1.02a2.885 2.885 0 0 1 .324 1.632v.3h-4.74c.024.456.128.836.312 1.14.192.296.428.52.708.672.288.152.592.228.912.228.416 0 .764-.096 1.044-.288.28-.192.484-.452.612-.78h.996a2.705 2.705 0 0 1-.924 1.38c-.448.36-1.024.54-1.728.54Zm0-5.388c-.48 0-.908.148-1.284.444-.368.288-.58.712-.636 1.272h3.744c-.024-.536-.208-.956-.552-1.26-.344-.304-.768-.456-1.272-.456Zm4.768-2.028a.707.707 0 0 1-.504-.192.707.707 0 0 1-.192-.504c0-.192.064-.352.192-.48a.707.707 0 0 1 .504-.192c.192 0 .356.064.492.192a.632.632 0 0 1 .204.48c0 .2-.068.368-.204.504a.692.692 0 0 1-.492.192Zm-.504 7.272v-5.952h1.008V128h-1.008Zm2.763 0v-5.952h.912l.084 1.14c.184-.392.464-.704.84-.936.376-.232.84-.348 1.392-.348v1.056h-.276c-.352 0-.676.064-.972.192-.296.12-.532.328-.708.624-.176.296-.264.704-.264 1.224v3h-1.008Zm7.535 0v-5.952h.912l.072.864c.192-.32.448-.568.768-.744.32-.176.68-.264 1.08-.264.472 0 .876.096 1.212.288.344.192.608.484.792.876.208-.36.492-.644.852-.852a2.375 2.375 0 0 1 1.188-.312c.712 0 1.28.216 1.704.648.424.424.636 1.08.636 1.968V128h-.996v-3.372c0-.616-.124-1.08-.372-1.392-.248-.312-.604-.468-1.068-.468-.48 0-.88.188-1.2.564-.312.368-.468.896-.468 1.584V128h-1.008v-3.372c0-.616-.124-1.08-.372-1.392-.248-.312-.604-.468-1.068-.468-.472 0-.868.188-1.188.564-.312.368-.468.896-.468 1.584V128h-1.008Zm13.41.144c-.568 0-1.072-.128-1.512-.384a2.856 2.856 0 0 1-1.044-1.092c-.248-.464-.372-1.012-.372-1.644 0-.624.124-1.168.372-1.632a2.667 2.667 0 0 1 1.032-1.092c.448-.264.964-.396 1.548-.396.576 0 1.072.132 1.488.396.424.256.748.596.972 1.02a2.885 2.885 0 0 1 .324 1.632v.3h-4.74c.024.456.128.836.312 1.14.192.296.428.52.708.672.288.152.592.228.912.228.416 0 .764-.096 1.044-.288.28-.192.484-.452.612-.78h.996a2.705 2.705 0 0 1-.924 1.38c-.448.36-1.024.54-1.728.54Zm0-5.388c-.48 0-.908.148-1.284.444-.368.288-.58.712-.636 1.272h3.744c-.024-.536-.208-.956-.552-1.26-.344-.304-.768-.456-1.272-.456ZM139.95 128v-5.952h.912l.06 1.068c.192-.376.468-.672.828-.888.36-.216.768-.324 1.224-.324.704 0 1.264.216 1.68.648.424.424.636 1.08.636 1.968V128h-1.008v-3.372c0-1.24-.512-1.86-1.536-1.86-.512 0-.94.188-1.284.564-.336.368-.504.896-.504 1.584V128h-1.008Zm9.22 0c-.544 0-.972-.132-1.284-.396-.312-.264-.468-.74-.468-1.428V122.9h-1.032v-.852h1.032l.132-1.428h.876v1.428h1.752v.852h-1.752v3.276c0 .376.076.632.228.768.152.128.42.192.804.192h.624V128h-.912Zm4.268.144c-.496 0-.908-.084-1.236-.252a1.713 1.713 0 0 1-.972-1.584c0-.608.232-1.076.696-1.404.464-.328 1.096-.492 1.896-.492h1.608v-.072c0-.52-.136-.912-.408-1.176-.272-.272-.636-.408-1.092-.408-.392 0-.732.1-1.02.3-.28.192-.456.476-.528.852h-1.032c.04-.432.184-.796.432-1.092.256-.296.572-.52.948-.672.376-.16.776-.24 1.2-.24.832 0 1.456.224 1.872.672.424.44.636 1.028.636 1.764V128h-.9l-.06-1.068a2.39 2.39 0 0 1-.744.864c-.32.232-.752.348-1.296.348Zm.156-.852c.384 0 .712-.1.984-.3.28-.2.492-.46.636-.78a2.43 2.43 0 0 0 .216-1.008v-.012h-1.524c-.592 0-1.012.104-1.26.312-.24.2-.36.452-.36.756 0 .312.112.564.336.756.232.184.556.276.972.276Zm4.356.708v-8.64h1.008V128h-1.008Zm6.448-7.272a.707.707 0 0 1-.504-.192.707.707 0 0 1-.192-.504c0-.192.064-.352.192-.48a.707.707 0 0 1 .504-.192c.192 0 .356.064.492.192a.632.632 0 0 1 .204.48c0 .2-.068.368-.204.504a.692.692 0 0 1-.492.192Zm-.504 7.272v-5.952h1.008V128h-1.008Zm2.763 0v-8.64h1.008V128h-1.008Zm2.661 0v-8.64h1.008V128h-1.008Zm2.66 0v-5.952h.912l.06 1.068c.192-.376.468-.672.828-.888.36-.216.768-.324 1.224-.324.704 0 1.264.216 1.68.648.424.424.636 1.08.636 1.968V128h-1.008v-3.372c0-1.24-.512-1.86-1.536-1.86-.512 0-.94.188-1.284.564-.336.368-.504.896-.504 1.584V128h-1.008Zm9.543.144c-.568 0-1.072-.128-1.512-.384a2.856 2.856 0 0 1-1.044-1.092c-.248-.464-.372-1.012-.372-1.644 0-.624.124-1.168.372-1.632a2.667 2.667 0 0 1 1.032-1.092c.448-.264.964-.396 1.548-.396.576 0 1.072.132 1.488.396.424.256.748.596.972 1.02a2.885 2.885 0 0 1 .324 1.632v.3h-4.74c.024.456.128.836.312 1.14.192.296.428.52.708.672.288.152.592.228.912.228.416 0 .764-.096 1.044-.288.28-.192.484-.452.612-.78h.996a2.705 2.705 0 0 1-.924 1.38c-.448.36-1.024.54-1.728.54Zm0-5.388c-.48 0-.908.148-1.284.444-.368.288-.58.712-.636 1.272h3.744c-.024-.536-.208-.956-.552-1.26-.344-.304-.768-.456-1.272-.456Zm6.436 5.388c-.712 0-1.304-.18-1.776-.54-.472-.36-.748-.848-.828-1.464h1.032c.064.312.228.584.492.816.272.224.636.336 1.092.336.424 0 .736-.088.936-.264.2-.184.3-.4.3-.648 0-.36-.132-.6-.396-.72-.256-.12-.62-.228-1.092-.324a6.189 6.189 0 0 1-.96-.276 2.221 2.221 0 0 1-.804-.504c-.216-.224-.324-.516-.324-.876 0-.52.192-.944.576-1.272.392-.336.92-.504 1.584-.504.632 0 1.148.16 1.548.48.408.312.644.76.708 1.344h-.996a1.008 1.008 0 0 0-.396-.708c-.216-.176-.508-.264-.876-.264-.36 0-.64.076-.84.228a.728.728 0 0 0-.288.6c0 .24.124.428.372.564.256.136.6.252 1.032.348.368.08.716.18 1.044.3.336.112.608.284.816.516.216.224.324.552.324.984.008.536-.196.98-.612 1.332-.408.344-.964.516-1.668.516Zm6 0c-.712 0-1.304-.18-1.776-.54-.472-.36-.748-.848-.828-1.464h1.032c.064.312.228.584.492.816.272.224.636.336 1.092.336.424 0 .736-.088.936-.264.2-.184.3-.4.3-.648 0-.36-.132-.6-.396-.72-.256-.12-.62-.228-1.092-.324a6.189 6.189 0 0 1-.96-.276 2.221 2.221 0 0 1-.804-.504c-.216-.224-.324-.516-.324-.876 0-.52.192-.944.576-1.272.392-.336.92-.504 1.584-.504.632 0 1.148.16 1.548.48.408.312.644.76.708 1.344h-.996a1.008 1.008 0 0 0-.396-.708c-.216-.176-.508-.264-.876-.264-.36 0-.64.076-.84.228a.728.728 0 0 0-.288.6c0 .24.124.428.372.564.256.136.6.252 1.032.348.368.08.716.18 1.044.3.336.112.608.284.816.516.216.224.324.552.324.984.008.536-.196.98-.612 1.332-.408.344-.964.516-1.668.516Zm9.596 0c-.592 0-1.112-.136-1.56-.408a2.835 2.835 0 0 1-1.032-1.116c-.24-.472-.36-1.008-.36-1.608 0-.6.124-1.132.372-1.596a2.75 2.75 0 0 1 1.032-1.104c.44-.272.96-.408 1.56-.408.488 0 .92.1 1.296.3.376.2.668.48.876.84v-3.684h1.008V128h-.912l-.096-.984c-.192.288-.468.548-.828.78-.36.232-.812.348-1.356.348Zm.108-.876c.4 0 .752-.092 1.056-.276.312-.192.552-.456.72-.792.176-.336.264-.728.264-1.176 0-.448-.088-.84-.264-1.176a1.837 1.837 0 0 0-.72-.78 1.935 1.935 0 0 0-1.056-.288c-.392 0-.744.096-1.056.288a1.942 1.942 0 0 0-.72.78c-.168.336-.252.728-.252 1.176 0 .448.084.84.252 1.176.176.336.416.6.72.792a2.04 2.04 0 0 0 1.056.276Zm6.899.876c-.704 0-1.264-.212-1.68-.636-.416-.432-.624-1.092-.624-1.98v-3.48h1.008v3.372c0 1.24.508 1.86 1.524 1.86.52 0 .948-.184 1.284-.552.344-.376.516-.908.516-1.596v-3.084h1.008V128h-.912l-.072-1.068c-.184.376-.46.672-.828.888-.36.216-.768.324-1.224.324Zm7.371 0c-.568 0-1.072-.128-1.512-.384a2.856 2.856 0 0 1-1.044-1.092c-.248-.464-.372-1.012-.372-1.644 0-.624.124-1.168.372-1.632a2.667 2.667 0 0 1 1.032-1.092c.448-.264.964-.396 1.548-.396.576 0 1.072.132 1.488.396.424.256.748.596.972 1.02a2.885 2.885 0 0 1 .324 1.632v.3h-4.74c.024.456.128.836.312 1.14.192.296.428.52.708.672.288.152.592.228.912.228.416 0 .764-.096 1.044-.288.28-.192.484-.452.612-.78h.996a2.705 2.705 0 0 1-.924 1.38c-.448.36-1.024.54-1.728.54Zm0-5.388c-.48 0-.908.148-1.284.444-.368.288-.58.712-.636 1.272h3.744c-.024-.536-.208-.956-.552-1.26-.344-.304-.768-.456-1.272-.456ZM53.955 144c-.544 0-.972-.132-1.284-.396-.312-.264-.468-.74-.468-1.428V138.9H51.17v-.852h1.032l.132-1.428h.876v1.428h1.752v.852H53.21v3.276c0 .376.076.632.228.768.152.128.42.192.804.192h.624V144h-.912Zm4.836.144c-.56 0-1.064-.128-1.512-.384a2.827 2.827 0 0 1-1.068-1.08c-.256-.472-.384-1.024-.384-1.656 0-.632.132-1.18.396-1.644.264-.472.62-.836 1.068-1.092a3.06 3.06 0 0 1 1.524-.384c.56 0 1.064.128 1.512.384.448.256.8.62 1.056 1.092.264.464.396 1.012.396 1.644 0 .632-.132 1.184-.396 1.656a2.802 2.802 0 0 1-1.08 1.08 2.993 2.993 0 0 1-1.512.384Zm0-.864c.344 0 .664-.084.96-.252a1.88 1.88 0 0 0 .72-.756c.184-.336.276-.752.276-1.248s-.092-.912-.276-1.248a1.803 1.803 0 0 0-.708-.756 1.89 1.89 0 0 0-.948-.252c-.344 0-.664.084-.96.252a1.88 1.88 0 0 0-.72.756c-.184.336-.276.752-.276 1.248s.092.912.276 1.248c.184.336.42.588.708.756.296.168.612.252.948.252Zm9.918.72c-.544 0-.972-.132-1.284-.396-.312-.264-.468-.74-.468-1.428V138.9h-1.032v-.852h1.032l.132-1.428h.876v1.428h1.752v.852h-1.752v3.276c0 .376.076.632.228.768.152.128.42.192.804.192h.624V144h-.912Zm2.288 0v-8.64h1.008v3.708c.2-.368.484-.652.852-.852a2.398 2.398 0 0 1 1.2-.312c.688 0 1.24.216 1.656.648.416.424.624 1.08.624 1.968V144h-.996v-3.372c0-1.24-.5-1.86-1.5-1.86-.52 0-.956.188-1.308.564-.352.368-.528.896-.528 1.584V144h-1.008Zm9.543.144c-.568 0-1.072-.128-1.512-.384a2.856 2.856 0 0 1-1.044-1.092c-.247-.464-.371-1.012-.371-1.644 0-.624.124-1.168.371-1.632a2.667 2.667 0 0 1 1.032-1.092c.448-.264.965-.396 1.548-.396.577 0 1.073.132 1.489.396.424.256.748.596.972 1.02a2.885 2.885 0 0 1 .323 1.632v.3h-4.74c.024.456.129.836.313 1.14.191.296.427.52.707.672.288.152.593.228.912.228.416 0 .764-.096 1.044-.288.28-.192.484-.452.612-.78h.996a2.705 2.705 0 0 1-.923 1.38c-.449.36-1.025.54-1.729.54Zm0-5.388c-.48 0-.908.148-1.284.444-.368.288-.58.712-.635 1.272h3.744c-.024-.536-.209-.956-.552-1.26-.344-.304-.769-.456-1.273-.456ZM88.197 144v-5.1h-.9v-.852h.9v-1.032c0-.576.144-.996.432-1.26.288-.264.708-.396 1.26-.396h.6v.864h-.444c-.304 0-.52.064-.648.192-.128.12-.192.328-.192.624v1.008h1.464v.852h-1.464v5.1h-1.008Zm6.114.144c-.568 0-1.072-.128-1.512-.384a2.856 2.856 0 0 1-1.044-1.092c-.248-.464-.372-1.012-.372-1.644 0-.624.124-1.168.372-1.632a2.667 2.667 0 0 1 1.032-1.092c.448-.264.964-.396 1.548-.396.576 0 1.072.132 1.488.396.424.256.748.596.972 1.02a2.885 2.885 0 0 1 .324 1.632v.3h-4.74c.024.456.128.836.312 1.14.192.296.428.52.708.672.288.152.592.228.912.228.416 0 .764-.096 1.044-.288.28-.192.484-.452.612-.78h.996a2.705 2.705 0 0 1-.924 1.38c-.448.36-1.024.54-1.728.54Zm0-5.388c-.48 0-.908.148-1.284.444-.368.288-.58.712-.636 1.272h3.744c-.024-.536-.208-.956-.552-1.26-.344-.304-.768-.456-1.272-.456Zm6.136 5.388c-.496 0-.908-.084-1.236-.252a1.713 1.713 0 0 1-.972-1.584c0-.608.232-1.076.696-1.404.464-.328 1.096-.492 1.896-.492h1.608v-.072c0-.52-.136-.912-.408-1.176-.272-.272-.636-.408-1.092-.408-.392 0-.732.1-1.02.3-.28.192-.456.476-.528.852h-1.032c.04-.432.184-.796.432-1.092.256-.296.572-.52.948-.672.376-.16.776-.24 1.2-.24.832 0 1.456.224 1.872.672.424.44.636 1.028.636 1.764V144h-.9l-.06-1.068a2.39 2.39 0 0 1-.744.864c-.32.232-.752.348-1.296.348Zm.156-.852c.384 0 .712-.1.984-.3.28-.2.492-.46.636-.78a2.43 2.43 0 0 0 .216-1.008v-.012h-1.524c-.592 0-1.012.104-1.26.312-.24.2-.36.452-.36.756 0 .312.112.564.336.756.232.184.556.276.972.276Zm4.356.708v-5.952h.912l.084 1.14c.184-.392.464-.704.84-.936.376-.232.84-.348 1.392-.348v1.056h-.276c-.352 0-.676.064-.972.192-.296.12-.532.328-.708.624-.176.296-.264.704-.264 1.224v3h-1.008Zm10.247.144c-.56 0-1.064-.128-1.512-.384a2.827 2.827 0 0 1-1.068-1.08c-.256-.472-.384-1.024-.384-1.656 0-.632.132-1.18.396-1.644.264-.472.62-.836 1.068-1.092a3.06 3.06 0 0 1 1.524-.384c.56 0 1.064.128 1.512.384.448.256.8.62 1.056 1.092.264.464.396 1.012.396 1.644 0 .632-.132 1.184-.396 1.656a2.802 2.802 0 0 1-1.08 1.08 2.993 2.993 0 0 1-1.512.384Zm0-.864c.344 0 .664-.084.96-.252a1.88 1.88 0 0 0 .72-.756c.184-.336.276-.752.276-1.248s-.092-.912-.276-1.248a1.803 1.803 0 0 0-.708-.756 1.89 1.89 0 0 0-.948-.252c-.344 0-.664.084-.96.252a1.88 1.88 0 0 0-.72.756c-.184.336-.276.752-.276 1.248s.092.912.276 1.248c.184.336.42.588.708.756.296.168.612.252.948.252Zm4.714.72v-5.1h-.9v-.852h.9v-1.032c0-.576.144-.996.432-1.26.288-.264.708-.396 1.26-.396h.6v.864h-.444c-.304 0-.52.064-.648.192-.128.12-.192.328-.192.624v1.008h1.464v.852h-1.464v5.1h-1.008Zm10.028.144c-.488 0-.924-.1-1.308-.3-.376-.2-.664-.48-.864-.84l-.096.996h-.912v-8.64h1.008v3.672c.192-.288.464-.548.816-.78.36-.232.816-.348 1.368-.348.592 0 1.108.136 1.548.408.44.272.78.644 1.02 1.116.248.472.372 1.008.372 1.608 0 .6-.124 1.136-.372 1.608-.24.464-.584.832-1.032 1.104-.44.264-.956.396-1.548.396Zm-.108-.876c.4 0 .752-.092 1.056-.276.304-.192.544-.456.72-.792.176-.336.264-.728.264-1.176 0-.448-.088-.84-.264-1.176a1.942 1.942 0 0 0-.72-.78 1.935 1.935 0 0 0-1.056-.288c-.4 0-.752.096-1.056.288a1.942 1.942 0 0 0-.72.78c-.176.336-.264.728-.264 1.176 0 .448.088.84.264 1.176.176.336.416.6.72.792.304.184.656.276 1.056.276Zm7.139.876c-.568 0-1.072-.128-1.512-.384a2.856 2.856 0 0 1-1.044-1.092c-.248-.464-.372-1.012-.372-1.644 0-.624.124-1.168.372-1.632a2.667 2.667 0 0 1 1.032-1.092c.448-.264.964-.396 1.548-.396.576 0 1.072.132 1.488.396.424.256.748.596.972 1.02a2.885 2.885 0 0 1 .324 1.632v.3h-4.74c.024.456.128.836.312 1.14.192.296.428.52.708.672.288.152.592.228.912.228.416 0 .764-.096 1.044-.288.28-.192.484-.452.612-.78h.996a2.705 2.705 0 0 1-.924 1.38c-.448.36-1.024.54-1.728.54Zm0-5.388c-.48 0-.908.148-1.284.444-.368.288-.58.712-.636 1.272h3.744c-.024-.536-.208-.956-.552-1.26-.344-.304-.768-.456-1.272-.456Zm4.768-2.028a.707.707 0 0 1-.504-.192.707.707 0 0 1-.192-.504c0-.192.064-.352.192-.48a.707.707 0 0 1 .504-.192c.192 0 .356.064.492.192a.632.632 0 0 1 .204.48c0 .2-.068.368-.204.504a.692.692 0 0 1-.492.192Zm-.504 7.272v-5.952h1.008V144h-1.008Zm2.763 0v-5.952h.912l.06 1.068c.192-.376.468-.672.828-.888.36-.216.768-.324 1.224-.324.704 0 1.264.216 1.68.648.424.424.636 1.08.636 1.968V144h-1.008v-3.372c0-1.24-.512-1.86-1.536-1.86-.512 0-.94.188-1.284.564-.336.368-.504.896-.504 1.584V144h-1.008Zm9.219-1.872a3.07 3.07 0 0 1-.924-.132l-.6.564c.088.064.196.12.324.168.136.04.328.08.576.12.248.032.596.068 1.044.108.8.056 1.372.24 1.716.552.344.312.516.72.516 1.224 0 .344-.096.672-.288.984-.184.312-.472.568-.864.768-.384.2-.88.3-1.488.3a4.356 4.356 0 0 1-1.428-.216c-.416-.136-.74-.348-.972-.636-.232-.28-.348-.636-.348-1.068 0-.224.06-.468.18-.732.12-.256.344-.5.672-.732a3.022 3.022 0 0 1-.456-.228 2.898 2.898 0 0 1-.336-.288v-.276l1.02-1.008c-.472-.4-.708-.928-.708-1.584 0-.392.092-.748.276-1.068.184-.32.452-.572.804-.756.352-.192.78-.288 1.284-.288.344 0 .656.048.936.144h2.196v.756l-1.116.048c.232.336.348.724.348 1.164 0 .392-.096.748-.288 1.068-.184.32-.452.576-.804.768-.344.184-.768.276-1.272.276Zm0-.828c.424 0 .76-.108 1.008-.324.256-.224.384-.544.384-.96 0-.408-.128-.72-.384-.936-.248-.224-.584-.336-1.008-.336-.432 0-.776.112-1.032.336-.248.216-.372.528-.372.936 0 .416.124.736.372.96.256.216.6.324 1.032.324Zm-1.752 3.468c0 .4.168.696.504.888.336.2.756.3 1.26.3.496 0 .892-.108 1.188-.324a1.01 1.01 0 0 0 .456-.864.888.888 0 0 0-.312-.672c-.208-.184-.592-.292-1.152-.324-.44-.032-.82-.072-1.14-.12-.328.176-.544.364-.648.564-.104.208-.156.392-.156.552Zm9.857-8.04a.692.692 0 0 1-.492-.192.685.685 0 0 1-.204-.504c0-.192.068-.352.204-.48a.692.692 0 0 1 .492-.192c.192 0 .352.064.48.192a.632.632 0 0 1 .204.48c0 .2-.068.368-.204.504a.651.651 0 0 1-.48.192Zm-1.824 9.912v-.864h.468c.296 0 .508-.064.636-.192.136-.12.204-.328.204-.624v-6.912h1.008v6.936c0 .576-.144.996-.432 1.26-.288.264-.708.396-1.26.396h-.624Zm6.242-2.496c-.704 0-1.264-.212-1.68-.636-.416-.432-.624-1.092-.624-1.98v-3.48h1.008v3.372c0 1.24.508 1.86 1.524 1.86.52 0 .948-.184 1.284-.552.344-.376.516-.908.516-1.596v-3.084h1.008V144h-.912l-.072-1.068c-.184.376-.46.672-.828.888-.36.216-.768.324-1.224.324Zm7.396 0c-.592 0-1.112-.136-1.56-.408a2.835 2.835 0 0 1-1.032-1.116c-.24-.472-.36-1.008-.36-1.608 0-.6.124-1.132.372-1.596a2.75 2.75 0 0 1 1.032-1.104c.44-.272.96-.408 1.56-.408.488 0 .92.1 1.296.3.376.2.668.48.876.84v-3.684h1.008V144h-.912l-.096-.984c-.192.288-.468.548-.828.78-.36.232-.812.348-1.356.348Zm.108-.876c.4 0 .752-.092 1.056-.276.312-.192.552-.456.72-.792.176-.336.264-.728.264-1.176 0-.448-.088-.84-.264-1.176a1.837 1.837 0 0 0-.72-.78 1.935 1.935 0 0 0-1.056-.288c-.392 0-.744.096-1.056.288a1.942 1.942 0 0 0-.72.78c-.168.336-.252.728-.252 1.176 0 .448.084.84.252 1.176.176.336.416.6.72.792a2.04 2.04 0 0 0 1.056.276Zm7.079-1.14a3.07 3.07 0 0 1-.924-.132l-.6.564c.088.064.196.12.324.168.136.04.328.08.576.12.248.032.596.068 1.044.108.8.056 1.372.24 1.716.552.344.312.516.72.516 1.224 0 .344-.096.672-.288.984-.184.312-.472.568-.864.768-.384.2-.88.3-1.488.3a4.356 4.356 0 0 1-1.428-.216c-.416-.136-.74-.348-.972-.636-.232-.28-.348-.636-.348-1.068 0-.224.06-.468.18-.732.12-.256.344-.5.672-.732a3.022 3.022 0 0 1-.456-.228 2.898 2.898 0 0 1-.336-.288v-.276l1.02-1.008c-.472-.4-.708-.928-.708-1.584 0-.392.092-.748.276-1.068.184-.32.452-.572.804-.756.352-.192.78-.288 1.284-.288.344 0 .656.048.936.144h2.196v.756l-1.116.048c.232.336.348.724.348 1.164 0 .392-.096.748-.288 1.068-.184.32-.452.576-.804.768-.344.184-.768.276-1.272.276Zm0-.828c.424 0 .76-.108 1.008-.324.256-.224.384-.544.384-.96 0-.408-.128-.72-.384-.936-.248-.224-.584-.336-1.008-.336-.432 0-.776.112-1.032.336-.248.216-.372.528-.372.936 0 .416.124.736.372.96.256.216.6.324 1.032.324Zm-1.752 3.468c0 .4.168.696.504.888.336.2.756.3 1.26.3.496 0 .892-.108 1.188-.324a1.01 1.01 0 0 0 .456-.864.888.888 0 0 0-.312-.672c-.208-.184-.592-.292-1.152-.324-.44-.032-.82-.072-1.14-.12-.328.176-.544.364-.648.564-.104.208-.156.392-.156.552Zm8.462-.624c-.568 0-1.072-.128-1.512-.384a2.856 2.856 0 0 1-1.044-1.092c-.248-.464-.372-1.012-.372-1.644 0-.624.124-1.168.372-1.632a2.667 2.667 0 0 1 1.032-1.092c.448-.264.964-.396 1.548-.396.576 0 1.072.132 1.488.396.424.256.748.596.972 1.02a2.885 2.885 0 0 1 .324 1.632v.3h-4.74c.024.456.128.836.312 1.14.192.296.428.52.708.672.288.152.592.228.912.228.416 0 .764-.096 1.044-.288.28-.192.484-.452.612-.78h.996a2.705 2.705 0 0 1-.924 1.38c-.448.36-1.024.54-1.728.54Zm0-5.388c-.48 0-.908.148-1.284.444-.368.288-.58.712-.636 1.272h3.744c-.024-.536-.208-.956-.552-1.26-.344-.304-.768-.456-1.272-.456Zm6.857 5.388c-.592 0-1.112-.136-1.56-.408a2.835 2.835 0 0 1-1.032-1.116c-.24-.472-.36-1.008-.36-1.608 0-.6.124-1.132.372-1.596a2.75 2.75 0 0 1 1.032-1.104c.44-.272.96-.408 1.56-.408.488 0 .92.1 1.296.3.376.2.668.48.876.84v-3.684h1.008V144h-.912l-.096-.984c-.192.288-.468.548-.828.78-.36.232-.812.348-1.356.348Zm.108-.876c.4 0 .752-.092 1.056-.276.312-.192.552-.456.72-.792.176-.336.264-.728.264-1.176 0-.448-.088-.84-.264-1.176a1.837 1.837 0 0 0-.72-.78 1.935 1.935 0 0 0-1.056-.288c-.392 0-.744.096-1.056.288a1.942 1.942 0 0 0-.72.78c-.168.336-.252.728-.252 1.176 0 .448.084.84.252 1.176.176.336.416.6.72.792a2.04 2.04 0 0 0 1.056.276Zm5.075.792a.707.707 0 0 1-.504-.192.692.692 0 0 1-.192-.492c0-.192.064-.352.192-.48a.685.685 0 0 1 .504-.204c.192 0 .352.068.48.204a.632.632 0 0 1 .204.48.67.67 0 0 1-.204.492.651.651 0 0 1-.48.192ZM54.659 156.94v-.852h4.752v.852h-4.752Zm9.508 3.06v-8.4h2.58c1.48 0 2.568.376 3.264 1.128.704.752 1.056 1.784 1.056 3.096 0 1.288-.352 2.308-1.056 3.06-.696.744-1.784 1.116-3.264 1.116h-2.58Zm1.008-.84h1.548c.816 0 1.464-.132 1.944-.396a2.318 2.318 0 0 0 1.044-1.152c.208-.504.312-1.1.312-1.788 0-.704-.104-1.308-.312-1.812a2.31 2.31 0 0 0-1.044-1.164c-.48-.272-1.128-.408-1.944-.408h-1.548v6.72Zm7.9-6.432a.707.707 0 0 1-.505-.192.707.707 0 0 1-.192-.504c0-.192.064-.352.192-.48a.707.707 0 0 1 .504-.192c.192 0 .356.064.492.192a.632.632 0 0 1 .204.48c0 .2-.068.368-.204.504a.692.692 0 0 1-.492.192ZM72.57 160v-5.952h1.008V160H72.57Zm2.763 0v-5.952h.912l.072.864c.192-.32.448-.568.768-.744.32-.176.68-.264 1.08-.264.472 0 .876.096 1.212.288.344.192.608.484.792.876.208-.36.492-.644.852-.852a2.375 2.375 0 0 1 1.188-.312c.712 0 1.28.216 1.704.648.424.424.636 1.08.636 1.968V160h-.996v-3.372c0-.616-.124-1.08-.372-1.392-.248-.312-.604-.468-1.068-.468-.48 0-.88.188-1.2.564-.312.368-.468.896-.468 1.584V160h-1.008v-3.372c0-.616-.124-1.08-.372-1.392-.248-.312-.604-.468-1.068-.468-.472 0-.868.188-1.188.564-.312.368-.468.896-.468 1.584V160h-1.008Zm11.347-7.272a.707.707 0 0 1-.504-.192.707.707 0 0 1-.192-.504c0-.192.064-.352.192-.48a.707.707 0 0 1 .504-.192c.192 0 .356.064.492.192a.632.632 0 0 1 .204.48c0 .2-.068.368-.204.504a.692.692 0 0 1-.492.192ZM86.176 160v-5.952h1.008V160h-1.008Zm5.115 0c-.544 0-.972-.132-1.284-.396-.312-.264-.468-.74-.468-1.428V154.9h-1.032v-.852h1.032l.132-1.428h.876v1.428h1.752v.852h-1.752v3.276c0 .376.076.632.228.768.152.128.42.192.804.192h.624V160h-.912Zm2.288 0v-5.952h.912l.084 1.14c.184-.392.464-.704.84-.936.376-.232.84-.348 1.392-.348v1.056h-.276c-.352 0-.676.064-.972.192-.296.12-.532.328-.708.624-.176.296-.264.704-.264 1.224v3H93.58Zm4.972-7.272a.707.707 0 0 1-.504-.192.707.707 0 0 1-.192-.504c0-.192.064-.352.192-.48a.707.707 0 0 1 .504-.192c.192 0 .356.064.492.192a.632.632 0 0 1 .204.48c0 .2-.068.368-.204.504a.692.692 0 0 1-.492.192ZM98.047 160v-5.952h1.008V160h-1.008Zm5.475.144c-.56 0-1.064-.128-1.512-.384a2.827 2.827 0 0 1-1.068-1.08c-.256-.472-.384-1.024-.384-1.656 0-.632.132-1.18.396-1.644.264-.472.62-.836 1.068-1.092a3.06 3.06 0 0 1 1.524-.384c.56 0 1.064.128 1.512.384.448.256.8.62 1.056 1.092.264.464.396 1.012.396 1.644 0 .632-.132 1.184-.396 1.656a2.802 2.802 0 0 1-1.08 1.08 2.993 2.993 0 0 1-1.512.384Zm0-.864c.344 0 .664-.084.96-.252a1.88 1.88 0 0 0 .72-.756c.184-.336.276-.752.276-1.248s-.092-.912-.276-1.248a1.803 1.803 0 0 0-.708-.756 1.89 1.89 0 0 0-.948-.252c-.344 0-.664.084-.96.252a1.88 1.88 0 0 0-.72.756c-.184.336-.276.752-.276 1.248s.092.912.276 1.248c.184.336.42.588.708.756.296.168.612.252.948.252Zm6.669.864c-.712 0-1.304-.18-1.776-.54-.472-.36-.748-.848-.828-1.464h1.032c.064.312.228.584.492.816.272.224.636.336 1.092.336.424 0 .736-.088.936-.264.2-.184.3-.4.3-.648 0-.36-.132-.6-.396-.72-.256-.12-.62-.228-1.092-.324a6.189 6.189 0 0 1-.96-.276 2.221 2.221 0 0 1-.804-.504c-.216-.224-.324-.516-.324-.876 0-.52.192-.944.576-1.272.392-.336.92-.504 1.584-.504.632 0 1.148.16 1.548.48.408.312.644.76.708 1.344h-.996a1.008 1.008 0 0 0-.396-.708c-.216-.176-.508-.264-.876-.264-.36 0-.64.076-.84.228a.728.728 0 0 0-.288.6c0 .24.124.428.372.564.256.136.6.252 1.032.348.368.08.716.18 1.044.3.336.112.608.284.816.516.216.224.324.552.324.984.008.536-.196.98-.612 1.332-.408.344-.964.516-1.668.516Zm8.924-.144v-7.572h-2.508v-.828h6.024v.828h-2.508V160h-1.008Zm6.135.144c-.712 0-1.304-.18-1.776-.54-.472-.36-.748-.848-.828-1.464h1.032c.064.312.228.584.492.816.272.224.636.336 1.092.336.424 0 .736-.088.936-.264.2-.184.3-.4.3-.648 0-.36-.132-.6-.396-.72-.256-.12-.62-.228-1.092-.324a6.189 6.189 0 0 1-.96-.276 2.221 2.221 0 0 1-.804-.504c-.216-.224-.324-.516-.324-.876 0-.52.192-.944.576-1.272.392-.336.92-.504 1.584-.504.632 0 1.148.16 1.548.48.408.312.644.76.708 1.344h-.996a1.008 1.008 0 0 0-.396-.708c-.216-.176-.508-.264-.876-.264-.36 0-.64.076-.84.228a.728.728 0 0 0-.288.6c0 .24.124.428.372.564.256.136.6.252 1.032.348.368.08.716.18 1.044.3.336.112.608.284.816.516.216.224.324.552.324.984.008.536-.196.98-.612 1.332-.408.344-.964.516-1.668.516Zm5.7 0c-.496 0-.908-.084-1.236-.252a1.713 1.713 0 0 1-.972-1.584c0-.608.232-1.076.696-1.404.464-.328 1.096-.492 1.896-.492h1.608v-.072c0-.52-.136-.912-.408-1.176-.272-.272-.636-.408-1.092-.408-.392 0-.732.1-1.02.3-.28.192-.456.476-.528.852h-1.032c.04-.432.184-.796.432-1.092.256-.296.572-.52.948-.672.376-.16.776-.24 1.2-.24.832 0 1.456.224 1.872.672.424.44.636 1.028.636 1.764V160h-.9l-.06-1.068a2.39 2.39 0 0 1-.744.864c-.32.232-.752.348-1.296.348Zm.156-.852c.384 0 .712-.1.984-.3.28-.2.492-.46.636-.78a2.43 2.43 0 0 0 .216-1.008v-.012h-1.524c-.592 0-1.012.104-1.26.312-.24.2-.36.452-.36.756 0 .312.112.564.336.756.232.184.556.276.972.276Zm6.544.708c-.544 0-.972-.132-1.284-.396-.312-.264-.468-.74-.468-1.428V154.9h-1.032v-.852h1.032l.132-1.428h.876v1.428h1.752v.852h-1.752v3.276c0 .376.076.632.228.768.152.128.42.192.804.192h.624V160h-.912Zm2.901-7.272a.707.707 0 0 1-.504-.192.707.707 0 0 1-.192-.504c0-.192.064-.352.192-.48a.707.707 0 0 1 .504-.192c.192 0 .356.064.492.192a.632.632 0 0 1 .204.48c0 .2-.068.368-.204.504a.692.692 0 0 1-.492.192Zm-.504 7.272v-5.952h1.008V160h-1.008Zm2.763 0v-5.952h.912l.084 1.14c.184-.392.464-.704.84-.936.376-.232.84-.348 1.392-.348v1.056h-.276c-.352 0-.676.064-.972.192-.296.12-.532.328-.708.624-.176.296-.264.704-.264 1.224v3h-1.008Zm4.971-7.272a.707.707 0 0 1-.504-.192.707.707 0 0 1-.192-.504c0-.192.064-.352.192-.48a.707.707 0 0 1 .504-.192c.192 0 .356.064.492.192a.632.632 0 0 1 .204.48c0 .2-.068.368-.204.504a.692.692 0 0 1-.492.192Zm-.504 7.272v-5.952h1.008V160h-1.008Zm5.043.144c-.712 0-1.304-.18-1.776-.54-.472-.36-.748-.848-.828-1.464h1.032c.064.312.228.584.492.816.272.224.636.336 1.092.336.424 0 .736-.088.936-.264.2-.184.3-.4.3-.648 0-.36-.132-.6-.396-.72-.256-.12-.62-.228-1.092-.324a6.189 6.189 0 0 1-.96-.276 2.221 2.221 0 0 1-.804-.504c-.216-.224-.324-.516-.324-.876 0-.52.192-.944.576-1.272.392-.336.92-.504 1.584-.504.632 0 1.148.16 1.548.48.408.312.644.76.708 1.344h-.996a1.008 1.008 0 0 0-.396-.708c-.216-.176-.508-.264-.876-.264-.36 0-.64.076-.84.228a.728.728 0 0 0-.288.6c0 .24.124.428.372.564.256.136.6.252 1.032.348.368.08.716.18 1.044.3.336.112.608.284.816.516.216.224.324.552.324.984.008.536-.196.98-.612 1.332-.408.344-.964.516-1.668.516Zm2.916 1.284.696-2.652h1.044l-1.044 2.652h-.696Zm6.173-1.428v-8.4h1.176l3.024 5.856 3-5.856h1.188v8.4h-1.008v-6.6l-2.808 5.4h-.756l-2.808-5.388V160h-1.008Zm10.448.06a.707.707 0 0 1-.504-.192.692.692 0 0 1-.192-.492c0-.192.064-.352.192-.48a.685.685 0 0 1 .504-.204c.192 0 .352.068.48.204a.632.632 0 0 1 .204.48.67.67 0 0 1-.204.492.651.651 0 0 1-.48.192Zm2.056-.06v-8.4h2.58c1.48 0 2.568.376 3.264 1.128.704.752 1.056 1.784 1.056 3.096 0 1.288-.352 2.308-1.056 3.06-.696.744-1.784 1.116-3.264 1.116h-2.58Zm1.008-.84h1.548c.816 0 1.464-.132 1.944-.396a2.318 2.318 0 0 0 1.044-1.152c.208-.504.312-1.1.312-1.788 0-.704-.104-1.308-.312-1.812a2.31 2.31 0 0 0-1.044-1.164c-.48-.272-1.128-.408-1.944-.408h-1.548v6.72Zm7.272.9a.707.707 0 0 1-.504-.192.692.692 0 0 1-.192-.492c0-.192.064-.352.192-.48a.685.685 0 0 1 .504-.204c.192 0 .352.068.48.204a.632.632 0 0 1 .204.48.67.67 0 0 1-.204.492.651.651 0 0 1-.48.192Z" fill="#382D72"/><defs><filter id="a" x="27.716" y="16.066" width="230.913" height="226.869" filterUnits="userSpaceOnUse" color-interpolation-filters="sRGB"><feFlood flood-opacity="0" result="BackgroundImageFix"/><feBlend in="SourceGraphic" in2="BackgroundImageFix" result="shape"/><feGaussianBlur stdDeviation="5.597" result="effect1_foregroundBlur_463_2375"/></filter></defs></svg>