<svg width="244" height="197" fill="none" xmlns="http://www.w3.org/2000/svg"><g filter="url(#a)"><path d="M215.228 23.42c6.892 0 12.44 4.812 12.44 10.783v98.33c0 5.971-5.548 10.784-12.44 10.784h-7.386c2.746 11.381 8.665 22.349 14.384 33.264-14.708-9.518-25.801-19.885-35.377-33.264H41.064c-6.892 0-12.44-4.813-12.44-10.784v-98.33c0-5.97 5.548-10.784 12.44-10.784h174.164Z" fill="#96A6CE"/></g><path d="M217.058 10.883c6.892 0 12.44 4.813 12.44 10.783v98.331c0 5.971-5.548 10.783-12.44 10.783h-7.387c2.746 11.381 8.665 22.35 14.384 33.265-14.707-9.519-25.8-19.886-35.377-33.265H42.894c-6.892 0-12.44-4.812-12.44-10.783v-98.33c0-5.971 5.548-10.784 12.44-10.784h174.164Z" fill="#EFDEDE" stroke="#382D72" stroke-linecap="round" stroke-linejoin="round"/><path d="m55.495 17.152 2.886-.052c1.283 0 1.924.338 1.924 1.014 0 .243-.035.416-.104.52-.07.087-.121.156-.156.208-.035.052-.104.095-.208.13a2.818 2.818 0 0 1-.806.156c-.19.035-.511.06-.962.078-.45.017-1.11.026-1.976.026-.85 0-1.898-.035-3.146-.104v4.784h5.304c.19 0 .364.087.52.26.173.173.26.364.26.572 0 .797-.338 1.196-1.014 1.196h-5.07l.104 6.812c0 .884-.303 1.326-.91 1.326-.59 0-.936-.399-1.04-1.196-.052-.26-.087-2.461-.104-6.604 0-4.16-.017-6.552-.052-7.176-.641.07-.962-.295-.962-1.092 0-.208.087-.433.26-.676.173-.26.32-.399.442-.416.139-.017.303-.026.494-.026.208 0 .702.035 1.482.104 1.075.104 2.02.156 2.834.156Zm9.022 4.81c.919 0 1.794.269 2.626.806.832.537 1.248 1.205 1.248 2.002 0 .78-.338 1.543-1.014 2.288-.676.728-1.577 1.17-2.704 1.326-.485.07-1.213.104-2.184.104.19 1.473.563 2.444 1.118 2.912.173.19.407.286.702.286 1.075 0 1.976-.338 2.704-1.014.728-.693 1.248-1.04 1.56-1.04.139 0 .347.13.624.39s.416.503.416.728c0 .45-.546 1.1-1.638 1.95-.485.399-1.075.737-1.768 1.014-.676.26-1.309.39-1.898.39-1.508 0-2.617-.97-3.328-2.912-.45-1.196-.676-2.513-.676-3.952s.338-2.678 1.014-3.718c.676-1.04 1.742-1.56 3.198-1.56Zm.13 1.794c-.659 0-1.222.373-1.69 1.118-.173.26-.338.85-.494 1.768 2.427 0 3.64-.598 3.64-1.794 0-.728-.485-1.092-1.456-1.092Zm10.23-1.794c.918 0 1.793.269 2.625.806.832.537 1.248 1.205 1.248 2.002 0 .78-.338 1.543-1.014 2.288-.676.728-1.577 1.17-2.704 1.326-.485.07-1.213.104-2.184.104.191 1.473.564 2.444 1.118 2.912.174.19.408.286.702.286 1.075 0 1.976-.338 2.704-1.014.728-.693 1.248-1.04 1.56-1.04.139 0 .347.13.624.39.278.26.416.503.416.728 0 .45-.546 1.1-1.638 1.95-.485.399-1.074.737-1.768 1.014-.676.26-1.308.39-1.898.39-1.508 0-2.617-.97-3.328-2.912-.45-1.196-.676-2.513-.676-3.952s.338-2.678 1.014-3.718c.676-1.04 1.742-1.56 3.198-1.56Zm.13 1.794c-.66 0-1.223.373-1.69 1.118-.174.26-.339.85-.495 1.768 2.427 0 3.64-.598 3.64-1.794 0-.728-.485-1.092-1.456-1.092Zm6.407-6.578c.052-.659.156-1.083.312-1.274.173-.208.442-.312.806-.312.745 0 1.118.303 1.118.91 0 .468-.044 1.69-.13 3.666-.07 1.976-.104 3.744-.104 5.304s.06 2.817.182 3.77c.208 1.664.502 2.496.884 2.496.381 0 .667-.269.858-.806.086-.208.225-.39.416-.546.19-.173.433-.26.728-.26.606 0 .91.511.91 1.534 0 .555-.304 1.11-.91 1.664-.59.537-1.179.806-1.768.806-.59 0-1.066-.095-1.43-.286a2.418 2.418 0 0 1-.858-.91c-.208-.399-.382-.78-.52-1.144a6.73 6.73 0 0 1-.26-1.378c-.104-.867-.182-2.253-.234-4.16a304.836 304.836 0 0 1-.052-5.486c0-1.75.017-2.947.052-3.588Zm8.7.39c.312 0 .607.147.884.442.277.295.416.607.416.936 0 .312-.156.633-.468.962-.295.33-.607.494-.936.494-.33 0-.633-.139-.91-.416-.26-.277-.39-.633-.39-1.066 0-.832.45-1.283 1.352-1.352h.052Zm1.092 13.624.026 1.82c0 .33-.13.607-.39.832a1.31 1.31 0 0 1-.832.312c-.433 0-.659-.217-.676-.65-.225-5.53-.338-8.589-.338-9.178 0-.59.026-1.309.078-2.158.035-.312.234-.468.598-.468.919 0 1.439.373 1.56 1.118.052.381.078.685.078.91l-.104 1.638v5.824Zm3.994 2.002-.286-10.556c0-.33.113-.598.338-.806.226-.208.451-.312.676-.312.555 0 .876.234.962.702.07.468.104.953.104 1.456.936-1.23 2.106-1.846 3.51-1.846 2.15 0 3.224 2.453 3.224 7.358v2.054c0 .901-.052 1.56-.156 1.976-.121.52-.494.78-1.118.78-.416 0-.624-.277-.624-.832l.026-1.456c0-2.01-.069-3.38-.208-4.108a16.737 16.737 0 0 0-.364-1.768c-.294-.936-.771-1.404-1.43-1.404-.866 0-1.473.312-1.82.936-.381.676-.606 1.473-.676 2.392a68.329 68.329 0 0 0-.182 5.122c0 .347-.13.624-.39.832-.26.208-.572.312-.936.312-.433 0-.65-.277-.65-.832Zm18.23-.26c-.624.728-1.412 1.092-2.366 1.092-.953 0-1.776-.295-2.47-.884-1.456-1.127-2.184-2.851-2.184-5.174 0-1.82.503-3.276 1.508-4.368 1.006-1.11 2.245-1.664 3.718-1.664 1.474 0 2.479.503 3.016 1.508.468.884.702 2.219.702 4.004l-.052 2.132c0 1.005.044 2.4.13 4.186.104 1.768.156 3.103.156 4.004 0 1.49-.372 2.583-1.118 3.276-.728.71-1.846 1.066-3.354 1.066-.901 0-1.82-.19-2.756-.572-.936-.381-1.404-.823-1.404-1.326 0-.364.096-.641.286-.832.208-.19.442-.286.702-.286.26 0 .841.19 1.742.572.919.381 1.578.572 1.976.572 1.248 0 1.872-1.023 1.872-3.068s-.034-3.458-.104-4.238Zm-.026-5.486c0-1.265-.19-2.15-.572-2.652-.364-.52-.944-.78-1.742-.78-.797 0-1.438.364-1.924 1.092-.485.728-.728 1.655-.728 2.782 0 1.11.226 1.993.676 2.652.468.659 1.179.988 2.132.988.954 0 1.569-.407 1.846-1.222.208-.659.312-1.612.312-2.86Zm14.737-5.564c1.248 0 2.27.598 3.068 1.794.814 1.196 1.222 2.635 1.222 4.316 0 1.664-.416 3.085-1.248 4.264-.815 1.179-1.907 1.768-3.276 1.768-1.352 0-2.444-.598-3.276-1.794a6.97 6.97 0 0 1-1.248-4.03c0-1.89.381-3.397 1.144-4.524.814-1.196 2.019-1.794 3.614-1.794Zm-.312 2.132c-.728 0-1.326.381-1.794 1.144a4.55 4.55 0 0 0-.702 2.418c0 1.317.26 2.323.78 3.016.52.693 1.109 1.04 1.768 1.04 1.178 0 1.932-.511 2.262-1.534.138-.485.208-1.092.208-1.82 0-2.843-.841-4.264-2.522-4.264Zm6.144-1.144c.069-.295.217-.537.442-.728.225-.208.451-.312.676-.312.243 0 .425.043.546.13.139.087.217.165.234.234.035.07.069.19.104.364a48.211 48.211 0 0 0-.156 3.666c0 1.075.13 2.314.39 3.718.26 1.387.546 2.08.858 2.08.468 0 1.057-.26 1.768-.78.728-.52 1.248-1.066 1.56-1.638-.208-2.496-.312-4.637-.312-6.422 0-.364.113-.676.338-.936.243-.26.529-.39.858-.39.537 0 .806.364.806 1.092 0 1.23.087 3.06.26 5.486.191 2.427.381 3.97.572 4.628.035.139.052.303.052.494 0 .173-.121.338-.364.494-.225.173-.529.26-.91.26-.364 0-.607-.208-.728-.624a17.761 17.761 0 0 0-.26-1.56c-1.213 1.265-2.435 1.898-3.666 1.898-.572 0-1.083-.217-1.534-.65-.451-.433-.806-1.023-1.066-1.768-.451-1.439-.676-2.79-.676-4.056 0-1.265.069-2.825.208-4.68Zm11.112-1.014 1.3.026c.295 0 .459-.009.494-.026v-5.33c.017-.295.165-.546.442-.754.277-.208.537-.312.78-.312s.433.078.572.234c.156.156.225.399.208.728-.017.33-.026 2.132-.026 5.408l3.042-.104c.52 0 .78.303.78.91 0 .45-.139.789-.416 1.014-.26.225-.546.347-.858.364a15.08 15.08 0 0 1-.884.026l-1.586-.026c0 .71.069 2.115.208 4.212.156 2.097.277 3.458.364 4.082.087.607.104 1.005.052 1.196a.562.562 0 0 1-.286.364c-.225.104-.529.156-.91.156s-.607-.208-.676-.624c-.347-2.27-.581-5.39-.702-9.36-.156.017-.754.026-1.794.026s-1.56-.303-1.56-.91c0-.867.485-1.3 1.456-1.3Zm7.924 6.058c0-1.161.303-2.219.91-3.172.624-.953 1.412-1.664 2.366-2.132.953-.485 1.88-.728 2.782-.728.901 0 1.62.113 2.158.338.554.208.832.494.832.858 0 .347-.104.702-.312 1.066-.191.347-.451.52-.78.52-.122 0-.46-.095-1.014-.286-.538-.208-.884-.312-1.04-.312-1.006 0-1.864.373-2.574 1.118-.711.728-1.066 1.699-1.066 2.912 0 1.213.19 2.123.572 2.73.398.59 1.074.884 2.028.884.381 0 1.031-.217 1.95-.65.936-.45 1.516-.676 1.742-.676a.74.74 0 0 1 .546.208.708.708 0 0 1 .208.52c0 .416-.269.858-.806 1.326-.52.45-1.17.832-1.95 1.144-.78.295-1.482.442-2.106.442-1.387 0-2.479-.546-3.276-1.638-.78-1.092-1.17-2.583-1.17-4.472Zm17.698-6.058c.762 0 1.144.65 1.144 1.95v.442l-.052 1.82a53.704 53.704 0 0 0-.026 1.69l.39 5.876c0 .433-.442.65-1.326.65h-.39c-.191 0-.33-.078-.416-.234-.07-.156-.078-.347-.026-.572.069-.225.052-.477-.052-.754-.798.85-1.855 1.274-3.172 1.274-2.444 0-3.666-1.89-3.666-5.668 0-2.097.39-3.683 1.17-4.758.797-1.075 1.932-1.612 3.406-1.612.693 0 1.386.121 2.08.364.225-.312.537-.468.936-.468Zm-2.704 2.366c-.988 0-1.725.286-2.21.858-.486.572-.728 1.62-.728 3.146 0 2.565.693 3.848 2.08 3.848.364 0 .762-.165 1.196-.494.45-.33.762-.702.936-1.118.329-.936.494-1.959.494-3.068 0-1.11-.139-1.915-.416-2.418-.26-.503-.711-.754-1.352-.754Zm6.073.936c0-1.023.364-1.837 1.092-2.444a3.825 3.825 0 0 1 2.522-.91 7.55 7.55 0 0 1 2.782.52c.884.347 1.326.806 1.326 1.378a.837.837 0 0 1-.338.702c-.225.173-.424.26-.598.26h-.39c-.086-.017-.433-.182-1.04-.494-.589-.312-1.135-.468-1.638-.468-.502 0-.936.13-1.3.39-.346.243-.52.607-.52 1.092 0 .485.2.867.598 1.144.416.277 1.136.52 2.158.728 1.023.19 1.803.468 2.34.832.555.364.832 1.04.832 2.028 0 1.439-.381 2.461-1.144 3.068-.745.59-1.655.884-2.73.884-1.074 0-1.993-.147-2.756-.442-.745-.295-1.118-.737-1.118-1.326 0-.676.338-1.014 1.014-1.014.174 0 .555.121 1.144.364.59.243 1.17.364 1.742.364.59 0 1.032-.182 1.326-.546.312-.381.468-.815.468-1.3 0-.485-.199-.832-.598-1.04-.398-.225-1.005-.407-1.82-.546-.814-.139-1.412-.286-1.794-.442-1.04-.416-1.56-1.343-1.56-2.782Zm10.212-3.302 1.3.026c.295 0 .459-.009.494-.026v-5.33c.017-.295.165-.546.442-.754.277-.208.537-.312.78-.312s.433.078.572.234c.156.156.225.399.208.728-.017.33-.026 2.132-.026 5.408l3.042-.104c.52 0 .78.303.78.91 0 .45-.139.789-.416 1.014-.26.225-.546.347-.858.364a15.08 15.08 0 0 1-.884.026l-1.586-.026c0 .71.069 2.115.208 4.212.156 2.097.277 3.458.364 4.082.087.607.104 1.005.052 1.196a.562.562 0 0 1-.286.364c-.225.104-.529.156-.91.156s-.607-.208-.676-.624c-.347-2.27-.581-5.39-.702-9.36-.156.017-.754.026-1.794.026s-1.56-.303-1.56-.91c0-.867.485-1.3 1.456-1.3ZM53.779 55.144c-.576 0-1.076-.104-1.5-.312a2.666 2.666 0 0 1-1.02-.852 2.799 2.799 0 0 1-.456-1.248h.984c.096.464.32.84.672 1.128.352.28.796.42 1.332.42.4 0 .744-.092 1.032-.276.288-.192.508-.448.66-.768.16-.32.24-.676.24-1.068 0-.624-.176-1.128-.528-1.512-.352-.384-.808-.576-1.368-.576-.464 0-.86.104-1.188.312-.328.208-.568.48-.72.816h-.96l.72-4.608h4.404v.876h-3.624l-.492 2.556c.192-.232.456-.424.792-.576a2.882 2.882 0 0 1 1.176-.228c.552 0 1.032.128 1.44.384.416.256.74.604.972 1.044.232.44.348.94.348 1.5 0 .536-.116 1.032-.348 1.488a2.62 2.62 0 0 1-.996 1.092c-.432.272-.956.408-1.572.408Zm7.108 0c-.536 0-1.02-.096-1.452-.288-.432-.2-.78-.496-1.044-.888-.256-.392-.392-.88-.408-1.464h1.02c.008.48.176.896.504 1.248.328.344.788.516 1.38.516.592 0 1.036-.164 1.332-.492.304-.328.456-.724.456-1.188 0-.392-.096-.712-.288-.96a1.624 1.624 0 0 0-.756-.552 2.853 2.853 0 0 0-1.032-.18h-.624v-.852h.624c.544 0 .968-.124 1.272-.372.312-.248.468-.596.468-1.044 0-.376-.124-.684-.372-.924-.24-.248-.6-.372-1.08-.372-.464 0-.836.14-1.116.42-.28.272-.436.616-.468 1.032h-1.02c.024-.456.144-.86.36-1.212.224-.352.528-.624.912-.816.384-.2.828-.3 1.332-.3.544 0 .996.096 1.356.288.368.192.644.448.828.768.192.32.288.672.288 1.056 0 .424-.116.812-.348 1.164-.232.344-.58.576-1.044.696.496.104.908.34 1.236.708.328.368.492.852.492 1.452 0 .464-.108.892-.324 1.284-.208.384-.52.692-.936.924-.416.232-.932.348-1.548.348Zm5.751-4.644c-.36 0-.688-.08-.984-.24a1.843 1.843 0 0 1-.684-.696c-.168-.304-.252-.664-.252-1.08 0-.416.084-.772.252-1.068.176-.304.408-.536.696-.696.296-.168.624-.252.984-.252s.684.084.972.252c.288.16.516.392.684.696.168.296.252.652.252 1.068 0 .416-.088.776-.264 1.08a1.843 1.843 0 0 1-.684.696c-.288.16-.612.24-.972.24Zm-.744 4.5 4.884-8.4h1.008L66.902 55h-1.008Zm.744-5.28c.28 0 .524-.104.732-.312.216-.208.324-.516.324-.924 0-.416-.104-.728-.312-.936a.985.985 0 0 0-.732-.324c-.28 0-.532.108-.756.324-.216.208-.324.52-.324.936 0 .408.108.716.324.924.216.208.464.312.744.312Zm4.488 5.424c-.36 0-.688-.08-.984-.24a1.843 1.843 0 0 1-.684-.696c-.168-.304-.252-.664-.252-1.08 0-.416.084-.772.252-1.068.176-.304.408-.536.696-.696.288-.168.612-.252.972-.252s.684.084.972.252c.288.16.516.392.684.696.168.296.252.652.252 1.068 0 .416-.084.776-.252 1.08a1.843 1.843 0 0 1-.684.696c-.288.16-.612.24-.972.24Zm-.012-.78c.288 0 .536-.104.744-.312.216-.208.324-.516.324-.924 0-.416-.104-.728-.312-.936a1.016 1.016 0 0 0-.744-.312c-.28 0-.528.104-.744.312-.216.208-.324.52-.324.936 0 .408.104.716.312.924.216.208.464.312.744.312Zm9.121.78c-.56 0-1.064-.128-1.512-.384a2.827 2.827 0 0 1-1.068-1.08c-.256-.472-.384-1.024-.384-1.656 0-.632.132-1.18.396-1.644.264-.472.62-.836 1.068-1.092a3.06 3.06 0 0 1 1.524-.384c.56 0 1.064.128 1.512.384.448.256.8.62 1.056 1.092.264.464.396 1.012.396 1.644 0 .632-.132 1.184-.396 1.656a2.802 2.802 0 0 1-1.08 1.08 2.993 2.993 0 0 1-1.512.384Zm0-.864c.344 0 .664-.084.96-.252a1.88 1.88 0 0 0 .72-.756c.184-.336.276-.752.276-1.248s-.092-.912-.276-1.248a1.803 1.803 0 0 0-.708-.756 1.89 1.89 0 0 0-.948-.252c-.344 0-.664.084-.96.252a1.88 1.88 0 0 0-.72.756c-.184.336-.276.752-.276 1.248s.092.912.276 1.248c.184.336.42.588.708.756.296.168.612.252.948.252Zm4.714.72v-5.1h-.9v-.852h.9v-1.032c0-.576.144-.996.432-1.26.288-.264.708-.396 1.26-.396h.6v.864h-.444c-.304 0-.52.064-.648.192-.128.12-.192.328-.192.624v1.008h1.464v.852h-1.464V55h-1.008Zm6.847 2.64v-8.592h.912l.097.984c.191-.288.463-.548.816-.78.36-.232.816-.348 1.368-.348.591 0 1.108.136 1.547.408.44.272.78.644 1.02 1.116.249.472.373 1.008.373 1.608 0 .6-.124 1.136-.373 1.608-.24.464-.584.832-1.031 1.104-.44.264-.957.396-1.549.396-.487 0-.924-.1-1.308-.3-.376-.2-.664-.48-.864-.84v3.636h-1.008Zm3.072-3.372c.4 0 .753-.092 1.056-.276.304-.192.544-.456.72-.792.176-.336.264-.728.264-1.176 0-.448-.088-.84-.264-1.176a1.942 1.942 0 0 0-.72-.78 1.935 1.935 0 0 0-1.056-.288c-.4 0-.751.096-1.055.288a1.942 1.942 0 0 0-.72.78c-.177.336-.264.728-.264 1.176 0 .448.088.84.264 1.176.175.336.415.6.72.792.303.184.656.276 1.055.276Zm7.14.876c-.568 0-1.072-.128-1.512-.384a2.857 2.857 0 0 1-1.044-1.092c-.248-.464-.372-1.012-.372-1.644 0-.624.124-1.168.372-1.632a2.668 2.668 0 0 1 1.032-1.092c.448-.264.964-.396 1.548-.396.576 0 1.072.132 1.488.396.424.256.748.596.972 1.02a2.885 2.885 0 0 1 .324 1.632v.3h-4.74c.024.456.128.836.312 1.14.192.296.428.52.708.672.288.152.592.228.912.228.416 0 .764-.096 1.044-.288.28-.192.484-.452.612-.78h.996a2.705 2.705 0 0 1-.924 1.38c-.448.36-1.024.54-1.728.54Zm0-5.388c-.48 0-.908.148-1.284.444-.368.288-.58.712-.636 1.272h3.744c-.024-.536-.208-.956-.552-1.26-.344-.304-.768-.456-1.272-.456Zm6.868 5.388c-.56 0-1.064-.128-1.512-.384a2.827 2.827 0 0 1-1.068-1.08c-.256-.472-.384-1.024-.384-1.656 0-.632.132-1.18.396-1.644.264-.472.62-.836 1.068-1.092a3.06 3.06 0 0 1 1.524-.384c.56 0 1.064.128 1.512.384.448.256.8.62 1.056 1.092.264.464.396 1.012.396 1.644 0 .632-.132 1.184-.396 1.656a2.802 2.802 0 0 1-1.08 1.08 2.993 2.993 0 0 1-1.512.384Zm0-.864c.344 0 .664-.084.96-.252a1.88 1.88 0 0 0 .72-.756c.184-.336.276-.752.276-1.248s-.092-.912-.276-1.248a1.803 1.803 0 0 0-.708-.756 1.89 1.89 0 0 0-.948-.252c-.344 0-.664.084-.96.252a1.88 1.88 0 0 0-.72.756c-.184.336-.276.752-.276 1.248s.092.912.276 1.248c.184.336.42.588.708.756.296.168.612.252.948.252Zm4.389 3.36v-8.592h.912l.096.984c.192-.288.464-.548.816-.78.36-.232.816-.348 1.368-.348.592 0 1.108.136 1.548.408.44.272.78.644 1.02 1.116.248.472.372 1.008.372 1.608 0 .6-.124 1.136-.372 1.608-.24.464-.584.832-1.032 1.104-.44.264-.956.396-1.548.396-.488 0-.924-.1-1.308-.3-.376-.2-.664-.48-.864-.84v3.636h-1.008Zm3.072-3.372c.4 0 .752-.092 1.056-.276.304-.192.544-.456.72-.792.176-.336.264-.728.264-1.176 0-.448-.088-.84-.264-1.176a1.942 1.942 0 0 0-.72-.78 1.935 1.935 0 0 0-1.056-.288c-.4 0-.752.096-1.056.288a1.942 1.942 0 0 0-.72.78c-.176.336-.264.728-.264 1.176 0 .448.088.84.264 1.176.176.336.416.6.72.792.304.184.656.276 1.056.276ZM120.8 55v-8.64h1.008V55H120.8Zm5.337.144c-.568 0-1.072-.128-1.512-.384a2.856 2.856 0 0 1-1.044-1.092c-.248-.464-.372-1.012-.372-1.644 0-.624.124-1.168.372-1.632a2.667 2.667 0 0 1 1.032-1.092c.448-.264.964-.396 1.548-.396.576 0 1.072.132 1.488.396.424.256.748.596.972 1.02a2.885 2.885 0 0 1 .324 1.632v.3h-4.74c.024.456.128.836.312 1.14.192.296.428.52.708.672.288.152.592.228.912.228.416 0 .764-.096 1.044-.288.28-.192.484-.452.612-.78h.996a2.705 2.705 0 0 1-.924 1.38c-.448.36-1.024.54-1.728.54Zm0-5.388c-.48 0-.908.148-1.284.444-.368.288-.58.712-.636 1.272h3.744c-.024-.536-.208-.956-.552-1.26-.344-.304-.768-.456-1.272-.456Zm10.031 5.388c-.592 0-1.112-.136-1.56-.408a2.835 2.835 0 0 1-1.032-1.116c-.24-.472-.36-1.008-.36-1.608 0-.6.124-1.132.372-1.596a2.75 2.75 0 0 1 1.032-1.104c.44-.272.96-.408 1.56-.408.488 0 .92.1 1.296.3.376.2.668.48.876.84V46.36h1.008V55h-.912l-.096-.984c-.192.288-.468.548-.828.78-.36.232-.812.348-1.356.348Zm.108-.876c.4 0 .752-.092 1.056-.276.312-.192.552-.456.72-.792.176-.336.264-.728.264-1.176 0-.448-.088-.84-.264-1.176a1.837 1.837 0 0 0-.72-.78 1.935 1.935 0 0 0-1.056-.288c-.392 0-.744.096-1.056.288a1.942 1.942 0 0 0-.72.78c-.168.336-.252.728-.252 1.176 0 .448.084.84.252 1.176.176.336.416.6.72.792a2.04 2.04 0 0 0 1.056.276Zm5.34-6.54a.707.707 0 0 1-.504-.192.707.707 0 0 1-.192-.504c0-.192.064-.352.192-.48a.707.707 0 0 1 .504-.192c.192 0 .356.064.492.192a.632.632 0 0 1 .204.48c0 .2-.068.368-.204.504a.692.692 0 0 1-.492.192ZM141.112 55v-5.952h1.008V55h-1.008Zm5.043.144c-.712 0-1.304-.18-1.776-.54-.472-.36-.748-.848-.828-1.464h1.032c.064.312.228.584.492.816.272.224.636.336 1.092.336.424 0 .736-.088.936-.264.2-.184.3-.4.3-.648 0-.36-.132-.6-.396-.72-.256-.12-.62-.228-1.092-.324a6.189 6.189 0 0 1-.96-.276 2.221 2.221 0 0 1-.804-.504c-.216-.224-.324-.516-.324-.876 0-.52.192-.944.576-1.272.392-.336.92-.504 1.584-.504.632 0 1.148.16 1.548.48.408.312.644.76.708 1.344h-.996a1.008 1.008 0 0 0-.396-.708c-.216-.176-.508-.264-.876-.264-.36 0-.64.076-.84.228a.728.728 0 0 0-.288.6c0 .24.124.428.372.564.256.136.6.252 1.032.348.368.08.716.18 1.044.3.336.112.608.284.816.516.216.224.324.552.324.984.008.536-.196.98-.612 1.332-.408.344-.964.516-1.668.516Zm5.7 0c-.496 0-.908-.084-1.236-.252a1.713 1.713 0 0 1-.972-1.584c0-.608.232-1.076.696-1.404.464-.328 1.096-.492 1.896-.492h1.608v-.072c0-.52-.136-.912-.408-1.176-.272-.272-.636-.408-1.092-.408-.392 0-.732.1-1.02.3-.28.192-.456.476-.528.852h-1.032c.04-.432.184-.796.432-1.092.256-.296.572-.52.948-.672.376-.16.776-.24 1.2-.24.832 0 1.456.224 1.872.672.424.44.636 1.028.636 1.764V55h-.9l-.06-1.068a2.39 2.39 0 0 1-.744.864c-.32.232-.752.348-1.296.348Zm.156-.852c.384 0 .712-.1.984-.3.28-.2.492-.46.636-.78a2.43 2.43 0 0 0 .216-1.008v-.012h-1.524c-.592 0-1.012.104-1.26.312-.24.2-.36.452-.36.756 0 .312.112.564.336.756.232.184.556.276.972.276Zm6.708-1.164a3.07 3.07 0 0 1-.924-.132l-.6.564c.088.064.196.12.324.168.136.04.328.08.576.12.248.032.596.068 1.044.108.8.056 1.372.24 1.716.552.344.312.516.72.516 1.224 0 .344-.096.672-.288.984-.184.312-.472.568-.864.768-.384.2-.88.3-1.488.3a4.356 4.356 0 0 1-1.428-.216c-.416-.136-.74-.348-.972-.636-.232-.28-.348-.636-.348-1.068 0-.224.06-.468.18-.732.12-.256.344-.5.672-.732a3.022 3.022 0 0 1-.456-.228 2.898 2.898 0 0 1-.336-.288v-.276l1.02-1.008c-.472-.4-.708-.928-.708-1.584 0-.392.092-.748.276-1.068.184-.32.452-.572.804-.756.352-.192.78-.288 1.284-.288.344 0 .656.048.936.144h2.196v.756l-1.116.048c.232.336.348.724.348 1.164 0 .392-.096.748-.288 1.068-.184.32-.452.576-.804.768-.344.184-.768.276-1.272.276Zm0-.828c.424 0 .76-.108 1.008-.324.256-.224.384-.544.384-.96 0-.408-.128-.72-.384-.936-.248-.224-.584-.336-1.008-.336-.432 0-.776.112-1.032.336-.248.216-.372.528-.372.936 0 .416.124.736.372.96.256.216.6.324 1.032.324Zm-1.752 3.468c0 .4.168.696.504.888.336.2.756.3 1.26.3.496 0 .892-.108 1.188-.324a1.01 1.01 0 0 0 .456-.864.888.888 0 0 0-.312-.672c-.208-.184-.592-.292-1.152-.324-.44-.032-.82-.072-1.14-.12-.328.176-.544.364-.648.564-.104.208-.156.392-.156.552Zm6.021-.768v-5.952h.912l.084 1.14c.184-.392.464-.704.84-.936.376-.232.84-.348 1.392-.348v1.056h-.276c-.352 0-.676.064-.972.192-.296.12-.532.328-.708.624-.176.296-.264.704-.264 1.224v3h-1.008Zm6.813.144c-.568 0-1.072-.128-1.512-.384a2.856 2.856 0 0 1-1.044-1.092c-.248-.464-.372-1.012-.372-1.644 0-.624.124-1.168.372-1.632a2.667 2.667 0 0 1 1.032-1.092c.448-.264.964-.396 1.548-.396.576 0 1.072.132 1.488.396.424.256.748.596.972 1.02a2.885 2.885 0 0 1 .324 1.632v.3h-4.74c.024.456.128.836.312 1.14.192.296.428.52.708.672.288.152.592.228.912.228.416 0 .764-.096 1.044-.288.28-.192.484-.452.612-.78h.996a2.705 2.705 0 0 1-.924 1.38c-.448.36-1.024.54-1.728.54Zm0-5.388c-.48 0-.908.148-1.284.444-.368.288-.58.712-.636 1.272h3.744c-.024-.536-.208-.956-.552-1.26-.344-.304-.768-.456-1.272-.456Zm6.832 5.388c-.568 0-1.072-.128-1.512-.384a2.856 2.856 0 0 1-1.044-1.092c-.248-.464-.372-1.012-.372-1.644 0-.624.124-1.168.372-1.632a2.667 2.667 0 0 1 1.032-1.092c.448-.264.964-.396 1.548-.396.576 0 1.072.132 1.488.396.424.256.748.596.972 1.02a2.885 2.885 0 0 1 .324 1.632v.3h-4.74c.024.456.128.836.312 1.14.192.296.428.52.708.672.288.152.592.228.912.228.416 0 .764-.096 1.044-.288.28-.192.484-.452.612-.78h.996a2.705 2.705 0 0 1-.924 1.38c-.448.36-1.024.54-1.728.54Zm0-5.388c-.48 0-.908.148-1.284.444-.368.288-.58.712-.636 1.272h3.744c-.024-.536-.208-.956-.552-1.26-.344-.304-.768-.456-1.272-.456ZM186.316 55c-.544 0-.972-.132-1.284-.396-.312-.264-.468-.74-.468-1.428V49.9h-1.032v-.852h1.032l.132-1.428h.876v1.428h1.752v.852h-1.752v3.276c0 .376.076.632.228.768.152.128.42.192.804.192h.624V55h-.912Zm2.289 0v-8.64h1.008v3.708c.2-.368.484-.652.852-.852a2.398 2.398 0 0 1 1.2-.312c.688 0 1.24.216 1.656.648.416.424.624 1.08.624 1.968V55h-.996v-3.372c0-1.24-.5-1.86-1.5-1.86-.52 0-.956.188-1.308.564-.352.368-.528.896-.528 1.584V55h-1.008Zm8.847.144c-.496 0-.908-.084-1.236-.252a1.713 1.713 0 0 1-.972-1.584c0-.608.232-1.076.696-1.404.464-.328 1.096-.492 1.896-.492h1.608v-.072c0-.52-.136-.912-.408-1.176-.272-.272-.636-.408-1.092-.408-.392 0-.732.1-1.02.3-.28.192-.456.476-.528.852h-1.032c.04-.432.184-.796.432-1.092.256-.296.572-.52.948-.672.376-.16.776-.24 1.2-.24.832 0 1.456.224 1.872.672.424.44.636 1.028.636 1.764V55h-.9l-.06-1.068a2.39 2.39 0 0 1-.744.864c-.32.232-.752.348-1.296.348Zm.156-.852c.384 0 .712-.1.984-.3.28-.2.492-.46.636-.78a2.43 2.43 0 0 0 .216-1.008v-.012h-1.524c-.592 0-1.012.104-1.26.312-.24.2-.36.452-.36.756 0 .312.112.564.336.756.232.184.556.276.972.276Zm6.544.708c-.544 0-.972-.132-1.284-.396-.312-.264-.468-.74-.468-1.428V49.9h-1.032v-.852h1.032l.132-1.428h.876v1.428h1.752v.852h-1.752v3.276c0 .376.076.632.228.768.152.128.42.192.804.192h.624V55h-.912ZM50.862 73.64v-8.592h.913l.096.984c.192-.288.464-.548.816-.78.36-.232.816-.348 1.368-.348.592 0 1.108.136 1.548.408.44.272.78.644 1.02 1.116.248.472.372 1.008.372 1.608 0 .6-.124 1.136-.372 1.608-.24.464-.584.832-1.032 1.104-.44.264-.956.396-1.548.396-.488 0-.924-.1-1.308-.3-.376-.2-.664-.48-.864-.84v3.636h-1.008Zm3.073-3.372c.4 0 .752-.092 1.056-.276.304-.192.544-.456.72-.792.176-.336.264-.728.264-1.176 0-.448-.088-.84-.264-1.176a1.942 1.942 0 0 0-.72-.78 1.935 1.935 0 0 0-1.056-.288c-.4 0-.752.096-1.056.288a1.942 1.942 0 0 0-.72.78c-.176.336-.264.728-.264 1.176 0 .448.088.84.264 1.176.176.336.416.6.72.792.304.184.656.276 1.056.276Zm7.14.876c-.569 0-1.073-.128-1.513-.384a2.856 2.856 0 0 1-1.044-1.092c-.248-.464-.372-1.012-.372-1.644 0-.624.124-1.168.372-1.632A2.667 2.667 0 0 1 59.55 65.3c.448-.264.964-.396 1.548-.396.576 0 1.072.132 1.488.396.424.256.748.596.972 1.02a2.885 2.885 0 0 1 .324 1.632v.3h-4.74c.024.456.128.836.312 1.14.192.296.428.52.708.672.288.152.592.228.912.228.416 0 .764-.096 1.044-.288.28-.192.484-.452.612-.78h.996a2.705 2.705 0 0 1-.924 1.38c-.448.36-1.024.54-1.728.54Zm0-5.388c-.48 0-.909.148-1.285.444-.368.288-.58.712-.636 1.272h3.744c-.024-.536-.208-.956-.552-1.26-.344-.304-.768-.456-1.272-.456Zm6.867 5.388c-.56 0-1.064-.128-1.512-.384a2.827 2.827 0 0 1-1.068-1.08c-.256-.472-.384-1.024-.384-1.656 0-.632.132-1.18.396-1.644.264-.472.62-.836 1.068-1.092a3.06 3.06 0 0 1 1.524-.384c.56 0 1.064.128 1.512.384.448.256.8.62 1.056 1.092.264.464.396 1.012.396 1.644 0 .632-.132 1.184-.396 1.656a2.802 2.802 0 0 1-1.08 1.08 2.993 2.993 0 0 1-1.512.384Zm0-.864c.344 0 .664-.084.96-.252a1.88 1.88 0 0 0 .72-.756c.184-.336.276-.752.276-1.248s-.092-.912-.276-1.248a1.803 1.803 0 0 0-.708-.756 1.89 1.89 0 0 0-.948-.252c-.344 0-.664.084-.96.252a1.88 1.88 0 0 0-.72.756c-.184.336-.276.752-.276 1.248s.092.912.276 1.248c.184.336.42.588.708.756.296.168.612.252.948.252Zm4.39 3.36v-8.592h.912l.096.984c.192-.288.464-.548.816-.78.36-.232.816-.348 1.368-.348.592 0 1.108.136 1.548.408.44.272.78.644 1.02 1.116.248.472.372 1.008.372 1.608 0 .6-.124 1.136-.372 1.608-.24.464-.584.832-1.032 1.104-.44.264-.956.396-1.548.396-.488 0-.924-.1-1.308-.3-.376-.2-.664-.48-.864-.84v3.636h-1.008Zm3.072-3.372c.4 0 .752-.092 1.056-.276.304-.192.544-.456.72-.792.176-.336.264-.728.264-1.176 0-.448-.088-.84-.264-1.176a1.942 1.942 0 0 0-.72-.78 1.935 1.935 0 0 0-1.056-.288c-.4 0-.752.096-1.056.288a1.942 1.942 0 0 0-.72.78c-.176.336-.264.728-.264 1.176 0 .448.088.84.264 1.176.176.336.416.6.72.792.304.184.656.276 1.056.276Zm4.463.732v-8.64h1.008V71h-1.008Zm5.336.144c-.568 0-1.072-.128-1.512-.384a2.856 2.856 0 0 1-1.044-1.092c-.248-.464-.372-1.012-.372-1.644 0-.624.124-1.168.372-1.632a2.667 2.667 0 0 1 1.032-1.092c.448-.264.964-.396 1.548-.396.576 0 1.072.132 1.488.396.424.256.748.596.972 1.02a2.885 2.885 0 0 1 .324 1.632v.3h-4.74c.024.456.128.836.312 1.14.192.296.428.52.708.672.288.152.592.228.912.228.416 0 .764-.096 1.044-.288.28-.192.484-.452.612-.78h.996a2.705 2.705 0 0 1-.924 1.38c-.448.36-1.024.54-1.728.54Zm0-5.388c-.48 0-.908.148-1.284.444-.368.288-.58.712-.636 1.272h3.744c-.024-.536-.208-.956-.552-1.26-.344-.304-.768-.456-1.272-.456Zm9.312 5.388c-.496 0-.908-.084-1.236-.252a1.713 1.713 0 0 1-.972-1.584c0-.608.232-1.076.696-1.404.464-.328 1.096-.492 1.896-.492h1.608v-.072c0-.52-.136-.912-.408-1.176-.272-.272-.636-.408-1.092-.408-.392 0-.732.1-1.02.3-.28.192-.456.476-.528.852h-1.032c.04-.432.184-.796.432-1.092.256-.296.572-.52.948-.672.376-.16.776-.24 1.2-.24.832 0 1.456.224 1.872.672.424.44.636 1.028.636 1.764V71h-.9l-.06-1.068a2.39 2.39 0 0 1-.744.864c-.32.232-.752.348-1.296.348Zm.156-.852c.384 0 .712-.1.984-.3.28-.2.492-.46.636-.78a2.43 2.43 0 0 0 .216-1.008v-.012h-1.524c-.592 0-1.012.104-1.26.312-.24.2-.36.452-.36.756 0 .312.112.564.336.756.232.184.556.276.972.276Zm4.356.708v-5.952h.912l.084 1.14c.184-.392.464-.704.84-.936.376-.232.84-.348 1.392-.348v1.056h-.276c-.352 0-.676.064-.972.192-.296.12-.532.328-.708.624-.176.296-.264.704-.264 1.224v3h-1.008Zm6.813.144c-.568 0-1.072-.128-1.512-.384a2.856 2.856 0 0 1-1.044-1.092c-.248-.464-.372-1.012-.372-1.644 0-.624.124-1.168.372-1.632a2.667 2.667 0 0 1 1.032-1.092c.448-.264.964-.396 1.548-.396.576 0 1.072.132 1.488.396.424.256.748.596.972 1.02a2.885 2.885 0 0 1 .324 1.632v.3h-4.74c.024.456.128.836.312 1.14.192.296.428.52.708.672.288.152.592.228.912.228.416 0 .764-.096 1.044-.288.28-.192.484-.452.612-.78h.996a2.705 2.705 0 0 1-.924 1.38c-.448.36-1.024.54-1.728.54Zm0-5.388c-.48 0-.908.148-1.284.444-.368.288-.58.712-.636 1.272h3.744c-.024-.536-.208-.956-.552-1.26-.344-.304-.768-.456-1.272-.456Zm10.068 5.388c-.568 0-1.08-.128-1.536-.384a2.916 2.916 0 0 1-1.068-1.092c-.256-.472-.384-1.02-.384-1.644 0-.624.128-1.168.384-1.632.264-.472.62-.836 1.068-1.092a3.01 3.01 0 0 1 1.536-.396c.704 0 1.296.184 1.776.552.488.368.796.86.924 1.476h-1.032a1.301 1.301 0 0 0-.588-.852 1.922 1.922 0 0 0-1.092-.312 1.89 1.89 0 0 0-.948.252 1.88 1.88 0 0 0-.72.756c-.184.336-.276.752-.276 1.248s.092.912.276 1.248c.184.336.424.592.72.768.296.168.612.252.948.252.416 0 .78-.1 1.092-.3.312-.208.508-.5.588-.876h1.032c-.12.6-.424 1.088-.912 1.464-.488.376-1.084.564-1.788.564Zm6.087 0c-.496 0-.908-.084-1.236-.252a1.713 1.713 0 0 1-.972-1.584c0-.608.232-1.076.696-1.404.464-.328 1.096-.492 1.896-.492h1.608v-.072c0-.52-.136-.912-.408-1.176-.272-.272-.636-.408-1.092-.408-.392 0-.732.1-1.02.3-.28.192-.456.476-.528.852h-1.032c.04-.432.184-.796.432-1.092.256-.296.572-.52.948-.672.376-.16.776-.24 1.2-.24.832 0 1.456.224 1.872.672.424.44.636 1.028.636 1.764V71h-.9l-.06-1.068a2.39 2.39 0 0 1-.744.864c-.32.232-.752.348-1.296.348Zm.156-.852c.384 0 .712-.1.984-.3.28-.2.492-.46.636-.78a2.43 2.43 0 0 0 .216-1.008v-.012h-1.524c-.592 0-1.012.104-1.26.312-.24.2-.36.452-.36.756 0 .312.112.564.336.756.232.184.556.276.972.276Zm4.356.708v-5.952h.912l.084 1.14c.184-.392.464-.704.84-.936.376-.232.84-.348 1.392-.348v1.056h-.276c-.352 0-.676.064-.972.192-.296.12-.532.328-.708.624-.176.296-.264.704-.264 1.224v3h-1.008Zm4.972-7.272a.707.707 0 0 1-.504-.192.707.707 0 0 1-.192-.504c0-.192.064-.352.192-.48a.707.707 0 0 1 .504-.192c.192 0 .356.064.492.192a.632.632 0 0 1 .204.48c0 .2-.068.368-.204.504a.692.692 0 0 1-.492.192ZM130.975 71v-5.952h1.008V71h-1.008Zm2.763 0v-5.952h.912l.06 1.068c.192-.376.468-.672.828-.888.36-.216.768-.324 1.224-.324.704 0 1.264.216 1.68.648.424.424.636 1.08.636 1.968V71h-1.008v-3.372c0-1.24-.512-1.86-1.536-1.86-.512 0-.94.188-1.284.564-.336.368-.504.896-.504 1.584V71h-1.008Zm9.219-1.872a3.07 3.07 0 0 1-.924-.132l-.6.564c.088.064.196.12.324.168.136.04.328.08.576.12.248.032.596.068 1.044.108.8.056 1.372.24 1.716.552.344.312.516.72.516 1.224 0 .344-.096.672-.288.984-.184.312-.472.568-.864.768-.384.2-.88.3-1.488.3a4.356 4.356 0 0 1-1.428-.216c-.416-.136-.74-.348-.972-.636-.232-.28-.348-.636-.348-1.068 0-.224.06-.468.18-.732.12-.256.344-.5.672-.732a3.022 3.022 0 0 1-.456-.228 2.898 2.898 0 0 1-.336-.288v-.276l1.02-1.008c-.472-.4-.708-.928-.708-1.584 0-.392.092-.748.276-1.068.184-.32.452-.572.804-.756.352-.192.78-.288 1.284-.288.344 0 .656.048.936.144h2.196v.756l-1.116.048c.232.336.348.724.348 1.164 0 .392-.096.748-.288 1.068-.184.32-.452.576-.804.768-.344.184-.768.276-1.272.276Zm0-.828c.424 0 .76-.108 1.008-.324.256-.224.384-.544.384-.96 0-.408-.128-.72-.384-.936-.248-.224-.584-.336-1.008-.336-.432 0-.776.112-1.032.336-.248.216-.372.528-.372.936 0 .416.124.736.372.96.256.216.6.324 1.032.324Zm-1.752 3.468c0 .4.168.696.504.888.336.2.756.3 1.26.3.496 0 .892-.108 1.188-.324a1.01 1.01 0 0 0 .456-.864.888.888 0 0 0-.312-.672c-.208-.184-.592-.292-1.152-.324-.44-.032-.82-.072-1.14-.12-.328.176-.544.364-.648.564-.104.208-.156.392-.156.552Zm11.177-.624c-.496 0-.908-.084-1.236-.252a1.713 1.713 0 0 1-.972-1.584c0-.608.232-1.076.696-1.404.464-.328 1.096-.492 1.896-.492h1.608v-.072c0-.52-.136-.912-.408-1.176-.272-.272-.636-.408-1.092-.408-.392 0-.732.1-1.02.3-.28.192-.456.476-.528.852h-1.032c.04-.432.184-.796.432-1.092.256-.296.572-.52.948-.672.376-.16.776-.24 1.2-.24.832 0 1.456.224 1.872.672.424.44.636 1.028.636 1.764V71h-.9l-.06-1.068a2.39 2.39 0 0 1-.744.864c-.32.232-.752.348-1.296.348Zm.156-.852c.384 0 .712-.1.984-.3.28-.2.492-.46.636-.78a2.43 2.43 0 0 0 .216-1.008v-.012h-1.524c-.592 0-1.012.104-1.26.312-.24.2-.36.452-.36.756 0 .312.112.564.336.756.232.184.556.276.972.276Zm4.356.708v-5.952h.912l.06 1.068c.192-.376.468-.672.828-.888.36-.216.768-.324 1.224-.324.704 0 1.264.216 1.68.648.424.424.636 1.08.636 1.968V71h-1.008v-3.372c0-1.24-.512-1.86-1.536-1.86-.512 0-.94.188-1.284.564-.336.368-.504.896-.504 1.584V71h-1.008Zm9.567.144c-.592 0-1.112-.136-1.56-.408a2.835 2.835 0 0 1-1.032-1.116c-.24-.472-.36-1.008-.36-1.608 0-.6.124-1.132.372-1.596a2.75 2.75 0 0 1 1.032-1.104c.44-.272.96-.408 1.56-.408.488 0 .92.1 1.296.3.376.2.668.48.876.84V62.36h1.008V71h-.912l-.096-.984c-.192.288-.468.548-.828.78-.36.232-.812.348-1.356.348Zm.108-.876c.4 0 .752-.092 1.056-.276.312-.192.552-.456.72-.792.176-.336.264-.728.264-1.176 0-.448-.088-.84-.264-1.176a1.837 1.837 0 0 0-.72-.78 1.935 1.935 0 0 0-1.056-.288c-.392 0-.744.096-1.056.288a1.942 1.942 0 0 0-.72.78c-.168.336-.252.728-.252 1.176 0 .448.084.84.252 1.176.176.336.416.6.72.792a2.04 2.04 0 0 0 1.056.276ZM53.143 87.144c-.712 0-1.304-.18-1.776-.54-.472-.36-.748-.848-.828-1.464h1.032c.064.312.228.584.492.816.272.224.636.336 1.092.336.424 0 .736-.088.936-.264.2-.184.3-.4.3-.648 0-.36-.132-.6-.396-.72-.256-.12-.62-.228-1.092-.324a6.189 6.189 0 0 1-.96-.276 2.221 2.221 0 0 1-.804-.504c-.216-.224-.324-.516-.324-.876 0-.52.192-.944.576-1.272.392-.336.92-.504 1.584-.504.632 0 1.148.16 1.548.48.408.312.644.76.708 1.344h-.996a1.008 1.008 0 0 0-.396-.708c-.216-.176-.508-.264-.876-.264-.36 0-.64.076-.84.228a.728.728 0 0 0-.288.6c0 .24.124.428.372.564.256.136.6.252 1.032.348.368.08.716.18 1.044.3.336.112.608.284.816.516.216.224.324.552.324.984.008.536-.196.98-.612 1.332-.408.344-.964.516-1.668.516Zm4.11 2.496 1.476-3.216h-.348l-2.364-5.376h1.092l1.968 4.632 2.088-4.632h1.044l-3.9 8.592h-1.056Zm6.02-2.64v-5.952h.912l.072.864c.192-.32.448-.568.768-.744.32-.176.68-.264 1.08-.264.472 0 .876.096 1.212.288.344.192.608.484.792.876.208-.36.492-.644.852-.852a2.375 2.375 0 0 1 1.188-.312c.712 0 1.28.216 1.704.648.424.424.636 1.08.636 1.968V87h-.996v-3.372c0-.616-.124-1.08-.372-1.392-.248-.312-.604-.468-1.068-.468-.48 0-.88.188-1.2.564-.312.368-.468.896-.468 1.584V87h-1.008v-3.372c0-.616-.124-1.08-.372-1.392-.248-.312-.604-.468-1.068-.468-.472 0-.868.188-1.188.564-.312.368-.468.896-.468 1.584V87h-1.008Zm10.734 2.64v-8.592h.912l.096.984c.192-.288.464-.548.816-.78.36-.232.816-.348 1.368-.348.592 0 1.108.136 1.548.408.44.272.78.644 1.02 1.116.248.472.372 1.008.372 1.608 0 .6-.124 1.136-.372 1.608-.24.464-.584.832-1.032 1.104-.44.264-.956.396-1.548.396-.488 0-.924-.1-1.308-.3-.376-.2-.664-.48-.864-.84v3.636h-1.008Zm3.072-3.372c.4 0 .752-.092 1.056-.276.304-.192.544-.456.72-.792.176-.336.264-.728.264-1.176 0-.448-.088-.84-.264-1.176a1.942 1.942 0 0 0-.72-.78 1.935 1.935 0 0 0-1.056-.288c-.4 0-.752.096-1.056.288a1.942 1.942 0 0 0-.72.78c-.176.336-.264.728-.264 1.176 0 .448.088.84.264 1.176.176.336.416.6.72.792.304.184.656.276 1.056.276Zm6.444.876c-.496 0-.908-.084-1.236-.252a1.713 1.713 0 0 1-.972-1.584c0-.608.232-1.076.696-1.404.464-.328 1.096-.492 1.896-.492h1.608v-.072c0-.52-.136-.912-.408-1.176-.272-.272-.636-.408-1.092-.408-.392 0-.732.1-1.02.3-.28.192-.456.476-.528.852h-1.032c.04-.432.184-.796.432-1.092.256-.296.572-.52.948-.672.376-.16.776-.24 1.2-.24.832 0 1.456.224 1.872.672.424.44.636 1.028.636 1.764V87h-.9l-.06-1.068a2.39 2.39 0 0 1-.744.864c-.32.232-.752.348-1.296.348Zm.156-.852c.384 0 .712-.1.984-.3.28-.2.492-.46.636-.78a2.43 2.43 0 0 0 .216-1.008v-.012H83.99c-.592 0-1.012.104-1.26.312-.24.2-.36.452-.36.756 0 .312.112.564.336.756.232.184.556.276.972.276Zm6.544.708c-.544 0-.972-.132-1.284-.396-.312-.264-.468-.74-.468-1.428V81.9h-1.032v-.852h1.032l.132-1.428h.876v1.428h1.752v.852h-1.752v3.276c0 .376.076.632.228.768.152.128.42.192.804.192h.624V87h-.912Zm2.288 0v-8.64h1.008v3.708c.2-.368.484-.652.852-.852a2.398 2.398 0 0 1 1.2-.312c.688 0 1.24.216 1.656.648.416.424.624 1.08.624 1.968V87h-.996v-3.372c0-1.24-.5-1.86-1.5-1.86-.52 0-.956.188-1.308.564-.352.368-.528.896-.528 1.584V87h-1.008Zm9.544.144c-.568 0-1.072-.128-1.512-.384a2.857 2.857 0 0 1-1.044-1.092c-.248-.464-.373-1.012-.373-1.644 0-.624.124-1.168.373-1.632a2.668 2.668 0 0 1 1.032-1.092c.448-.264.964-.396 1.548-.396.576 0 1.072.132 1.488.396.424.256.748.596.972 1.02a2.885 2.885 0 0 1 .324 1.632v.3h-4.74c.024.456.128.836.312 1.14.192.296.428.52.708.672.288.152.592.228.912.228.416 0 .764-.096 1.044-.288.28-.192.484-.452.612-.78h.996a2.705 2.705 0 0 1-.924 1.38c-.448.36-1.024.54-1.728.54Zm0-5.388c-.48 0-.908.148-1.284.444-.368.288-.58.712-.636 1.272h3.744c-.024-.536-.208-.956-.552-1.26-.344-.304-.768-.456-1.272-.456ZM108.363 87c-.544 0-.972-.132-1.284-.396-.312-.264-.468-.74-.468-1.428V81.9h-1.032v-.852h1.032l.132-1.428h.876v1.428h1.752v.852h-1.752v3.276c0 .376.076.632.228.768.152.128.42.192.804.192h.624V87h-.912Zm2.901-7.272a.707.707 0 0 1-.504-.192.707.707 0 0 1-.192-.504c0-.192.064-.352.192-.48a.707.707 0 0 1 .504-.192c.192 0 .356.064.492.192a.632.632 0 0 1 .204.48c0 .2-.068.368-.204.504a.692.692 0 0 1-.492.192ZM110.76 87v-5.952h1.008V87h-1.008Zm5.499.144c-.568 0-1.08-.128-1.536-.384a2.916 2.916 0 0 1-1.068-1.092c-.256-.472-.384-1.02-.384-1.644 0-.624.128-1.168.384-1.632.264-.472.62-.836 1.068-1.092a3.01 3.01 0 0 1 1.536-.396c.704 0 1.296.184 1.776.552.488.368.796.86.924 1.476h-1.032a1.301 1.301 0 0 0-.588-.852 1.922 1.922 0 0 0-1.092-.312 1.89 1.89 0 0 0-.948.252 1.88 1.88 0 0 0-.72.756c-.184.336-.276.752-.276 1.248s.092.912.276 1.248c.184.336.424.592.72.768.296.168.612.252.948.252.416 0 .78-.1 1.092-.3.312-.208.508-.5.588-.876h1.032c-.12.6-.424 1.088-.912 1.464-.488.376-1.084.564-1.788.564Zm9.636-.144c-.544 0-.972-.132-1.284-.396-.312-.264-.468-.74-.468-1.428V81.9h-1.032v-.852h1.032l.132-1.428h.876v1.428h1.752v.852h-1.752v3.276c0 .376.076.632.228.768.152.128.42.192.804.192h.624V87h-.912Zm4.836.144c-.56 0-1.064-.128-1.512-.384a2.827 2.827 0 0 1-1.068-1.08c-.256-.472-.384-1.024-.384-1.656 0-.632.132-1.18.396-1.644.264-.472.62-.836 1.068-1.092a3.06 3.06 0 0 1 1.524-.384c.56 0 1.064.128 1.512.384.448.256.8.62 1.056 1.092.264.464.396 1.012.396 1.644 0 .632-.132 1.184-.396 1.656a2.802 2.802 0 0 1-1.08 1.08 2.993 2.993 0 0 1-1.512.384Zm0-.864c.344 0 .664-.084.96-.252a1.88 1.88 0 0 0 .72-.756c.184-.336.276-.752.276-1.248s-.092-.912-.276-1.248a1.803 1.803 0 0 0-.708-.756 1.89 1.89 0 0 0-.948-.252c-.344 0-.664.084-.96.252a1.88 1.88 0 0 0-.72.756c-.184.336-.276.752-.276 1.248s.092.912.276 1.248c.184.336.42.588.708.756.296.168.612.252.948.252Zm7.566 3.36v-8.592h.912l.096.984c.192-.288.464-.548.816-.78.36-.232.816-.348 1.368-.348.592 0 1.108.136 1.548.408.44.272.78.644 1.02 1.116.248.472.372 1.008.372 1.608 0 .6-.124 1.136-.372 1.608-.24.464-.584.832-1.032 1.104-.44.264-.956.396-1.548.396-.488 0-.924-.1-1.308-.3-.376-.2-.664-.48-.864-.84v3.636h-1.008Zm3.072-3.372c.4 0 .752-.092 1.056-.276.304-.192.544-.456.72-.792.176-.336.264-.728.264-1.176 0-.448-.088-.84-.264-1.176a1.942 1.942 0 0 0-.72-.78 1.935 1.935 0 0 0-1.056-.288c-.4 0-.752.096-1.056.288a1.942 1.942 0 0 0-.72.78c-.176.336-.264.728-.264 1.176 0 .448.088.84.264 1.176.176.336.416.6.72.792.304.184.656.276 1.056.276Zm7.139.876c-.568 0-1.072-.128-1.512-.384a2.856 2.856 0 0 1-1.044-1.092c-.248-.464-.372-1.012-.372-1.644 0-.624.124-1.168.372-1.632a2.667 2.667 0 0 1 1.032-1.092c.448-.264.964-.396 1.548-.396.576 0 1.072.132 1.488.396.424.256.748.596.972 1.02a2.885 2.885 0 0 1 .324 1.632v.3h-4.74c.024.456.128.836.312 1.14.192.296.428.52.708.672.288.152.592.228.912.228.416 0 .764-.096 1.044-.288.28-.192.484-.452.612-.78h.996a2.705 2.705 0 0 1-.924 1.38c-.448.36-1.024.54-1.728.54Zm0-5.388c-.48 0-.908.148-1.284.444-.368.288-.58.712-.636 1.272h3.744c-.024-.536-.208-.956-.552-1.26-.344-.304-.768-.456-1.272-.456Zm6.868 5.388c-.56 0-1.064-.128-1.512-.384a2.827 2.827 0 0 1-1.068-1.08c-.256-.472-.384-1.024-.384-1.656 0-.632.132-1.18.396-1.644.264-.472.62-.836 1.068-1.092a3.06 3.06 0 0 1 1.524-.384c.56 0 1.064.128 1.512.384.448.256.8.62 1.056 1.092.264.464.396 1.012.396 1.644 0 .632-.132 1.184-.396 1.656a2.802 2.802 0 0 1-1.08 1.08 2.993 2.993 0 0 1-1.512.384Zm0-.864c.344 0 .664-.084.96-.252a1.88 1.88 0 0 0 .72-.756c.184-.336.276-.752.276-1.248s-.092-.912-.276-1.248a1.803 1.803 0 0 0-.708-.756 1.89 1.89 0 0 0-.948-.252c-.344 0-.664.084-.96.252a1.88 1.88 0 0 0-.72.756c-.184.336-.276.752-.276 1.248s.092.912.276 1.248c.184.336.42.588.708.756.296.168.612.252.948.252Zm4.389 3.36v-8.592h.912l.096.984c.192-.288.464-.548.816-.78.36-.232.816-.348 1.368-.348.592 0 1.108.136 1.548.408.44.272.78.644 1.02 1.116.248.472.372 1.008.372 1.608 0 .6-.124 1.136-.372 1.608-.24.464-.584.832-1.032 1.104-.44.264-.956.396-1.548.396-.488 0-.924-.1-1.308-.3-.376-.2-.664-.48-.864-.84v3.636h-1.008Zm3.072-3.372c.4 0 .752-.092 1.056-.276.304-.192.544-.456.72-.792.176-.336.264-.728.264-1.176 0-.448-.088-.84-.264-1.176a1.942 1.942 0 0 0-.72-.78 1.935 1.935 0 0 0-1.056-.288c-.4 0-.752.096-1.056.288a1.942 1.942 0 0 0-.72.78c-.176.336-.264.728-.264 1.176 0 .448.088.84.264 1.176.176.336.416.6.72.792.304.184.656.276 1.056.276ZM167.3 87v-8.64h1.008V87H167.3Zm5.337.144c-.568 0-1.072-.128-1.512-.384a2.856 2.856 0 0 1-1.044-1.092c-.248-.464-.372-1.012-.372-1.644 0-.624.124-1.168.372-1.632a2.667 2.667 0 0 1 1.032-1.092c.448-.264.964-.396 1.548-.396.576 0 1.072.132 1.488.396.424.256.748.596.972 1.02a2.885 2.885 0 0 1 .324 1.632v.3h-4.74c.024.456.128.836.312 1.14.192.296.428.52.708.672.288.152.592.228.912.228.416 0 .764-.096 1.044-.288.28-.192.484-.452.612-.78h.996a2.705 2.705 0 0 1-.924 1.38c-.448.36-1.024.54-1.728.54Zm0-5.388c-.48 0-.908.148-1.284.444-.368.288-.58.712-.636 1.272h3.744c-.024-.536-.208-.956-.552-1.26-.344-.304-.768-.456-1.272-.456ZM181.168 87l-1.74-5.952h1.008l1.26 4.668 1.392-4.668h1.14l1.404 4.668 1.248-4.668h1.02L186.16 87h-1.032l-1.464-4.908L182.2 87h-1.032Zm8.459-7.272a.707.707 0 0 1-.504-.192.707.707 0 0 1-.192-.504c0-.192.064-.352.192-.48a.707.707 0 0 1 .504-.192c.192 0 .356.064.492.192a.632.632 0 0 1 .204.48c0 .2-.068.368-.204.504a.692.692 0 0 1-.492.192ZM189.123 87v-5.952h1.008V87h-1.008Zm5.115 0c-.544 0-.972-.132-1.284-.396-.312-.264-.468-.74-.468-1.428V81.9h-1.032v-.852h1.032l.132-1.428h.876v1.428h1.752v.852h-1.752v3.276c0 .376.076.632.228.768.152.128.42.192.804.192h.624V87h-.912Zm2.289 0v-8.64h1.008v3.708c.2-.368.484-.652.852-.852a2.398 2.398 0 0 1 1.2-.312c.688 0 1.24.216 1.656.648.416.424.624 1.08.624 1.968V87h-.996v-3.372c0-1.24-.5-1.86-1.5-1.86-.52 0-.956.188-1.308.564-.352.368-.528.896-.528 1.584V87h-1.008ZM50.863 103v-5.952h.912l.072.864c.192-.32.448-.568.768-.744.32-.176.68-.264 1.08-.264.472 0 .876.096 1.212.288.344.192.608.484.792.876.208-.36.492-.644.852-.852a2.375 2.375 0 0 1 1.188-.312c.712 0 1.28.216 1.704.648.424.424.636 1.08.636 1.968V103h-.996v-3.372c0-.616-.124-1.08-.372-1.392-.248-.312-.604-.468-1.068-.468-.48 0-.88.188-1.2.564-.312.368-.468.896-.468 1.584V103h-1.008v-3.372c0-.616-.124-1.08-.372-1.392-.248-.312-.604-.468-1.068-.468-.472 0-.868.188-1.188.564-.312.368-.468.896-.468 1.584V103h-1.008Zm13.41.144c-.568 0-1.072-.128-1.512-.384a2.856 2.856 0 0 1-1.044-1.092c-.248-.464-.372-1.012-.372-1.644 0-.624.124-1.168.372-1.632A2.667 2.667 0 0 1 62.75 97.3c.448-.264.964-.396 1.548-.396.576 0 1.072.132 1.488.396.424.256.748.596.972 1.02a2.885 2.885 0 0 1 .324 1.632v.3h-4.74c.024.456.128.836.312 1.14.192.296.428.52.708.672.288.152.592.228.912.228.416 0 .764-.096 1.044-.288.28-.192.484-.452.612-.78h.996a2.705 2.705 0 0 1-.924 1.38c-.448.36-1.024.54-1.728.54Zm0-5.388c-.48 0-.908.148-1.284.444-.368.288-.58.712-.636 1.272h3.744c-.024-.536-.208-.956-.552-1.26-.344-.304-.768-.456-1.272-.456ZM68.43 103v-5.952h.912l.06 1.068c.192-.376.468-.672.828-.888.36-.216.768-.324 1.224-.324.704 0 1.264.216 1.68.648.424.424.636 1.08.636 1.968V103h-1.008v-3.372c0-1.24-.512-1.86-1.536-1.86-.512 0-.94.188-1.284.564-.336.368-.504.896-.504 1.584V103H68.43Zm9.22 0c-.544 0-.972-.132-1.284-.396-.313-.264-.468-.74-.468-1.428V97.9h-1.032v-.852h1.032l.131-1.428h.876v1.428h1.752v.852h-1.752v3.276c0 .376.077.632.228.768.152.128.42.192.804.192h.624V103h-.912Zm4.268.144c-.496 0-.908-.084-1.236-.252a1.713 1.713 0 0 1-.972-1.584c0-.608.232-1.076.696-1.404.464-.328 1.096-.492 1.896-.492h1.608v-.072c0-.52-.136-.912-.408-1.176-.272-.272-.636-.408-1.092-.408-.392 0-.732.1-1.02.3-.28.192-.456.476-.528.852H79.83c.04-.432.184-.796.432-1.092.256-.296.572-.52.948-.672.376-.16.776-.24 1.2-.24.832 0 1.456.224 1.872.672.424.44.636 1.028.636 1.764V103h-.9l-.06-1.068a2.39 2.39 0 0 1-.744.864c-.32.232-.752.348-1.296.348Zm.156-.852c.384 0 .712-.1.984-.3.28-.2.492-.46.636-.78a2.43 2.43 0 0 0 .216-1.008v-.012h-1.524c-.592 0-1.012.104-1.26.312-.24.2-.36.452-.36.756 0 .312.112.564.336.756.232.184.556.276.972.276Zm4.356.708v-8.64h1.008V103H86.43Zm6.448-7.272a.707.707 0 0 1-.504-.192.707.707 0 0 1-.192-.504c0-.192.064-.352.192-.48a.707.707 0 0 1 .504-.192c.192 0 .356.064.492.192a.632.632 0 0 1 .204.48c0 .2-.068.368-.204.504a.692.692 0 0 1-.492.192ZM92.373 103v-5.952h1.008V103h-1.008Zm2.763 0v-8.64h1.008V103h-1.008Zm2.66 0v-8.64h1.008V103h-1.008Zm2.661 0v-5.952h.912l.06 1.068c.192-.376.468-.672.828-.888.36-.216.768-.324 1.224-.324.704 0 1.264.216 1.68.648.424.424.636 1.08.636 1.968V103h-1.008v-3.372c0-1.24-.512-1.86-1.536-1.86-.512 0-.94.188-1.284.564-.336.368-.504.896-.504 1.584V103h-1.008Zm9.543.144c-.568 0-1.072-.128-1.512-.384a2.856 2.856 0 0 1-1.044-1.092c-.248-.464-.372-1.012-.372-1.644 0-.624.124-1.168.372-1.632a2.667 2.667 0 0 1 1.032-1.092c.448-.264.964-.396 1.548-.396.576 0 1.072.132 1.488.396.424.256.748.596.972 1.02a2.885 2.885 0 0 1 .324 1.632v.3h-4.74c.024.456.128.836.312 1.14.192.296.428.52.708.672.288.152.592.228.912.228.416 0 .764-.096 1.044-.288.28-.192.484-.452.612-.78h.996a2.705 2.705 0 0 1-.924 1.38c-.448.36-1.024.54-1.728.54Zm0-5.388c-.48 0-.908.148-1.284.444-.368.288-.58.712-.636 1.272h3.744c-.024-.536-.208-.956-.552-1.26-.344-.304-.768-.456-1.272-.456Zm6.436 5.388c-.712 0-1.304-.18-1.776-.54-.472-.36-.748-.848-.828-1.464h1.032c.064.312.228.584.492.816.272.224.636.336 1.092.336.424 0 .736-.088.936-.264.2-.184.3-.4.3-.648 0-.36-.132-.6-.396-.72-.256-.12-.62-.228-1.092-.324a6.189 6.189 0 0 1-.96-.276 2.221 2.221 0 0 1-.804-.504c-.216-.224-.324-.516-.324-.876 0-.52.192-.944.576-1.272.392-.336.92-.504 1.584-.504.632 0 1.148.16 1.548.48.408.312.644.76.708 1.344h-.996a1.008 1.008 0 0 0-.396-.708c-.216-.176-.508-.264-.876-.264-.36 0-.64.076-.84.228a.728.728 0 0 0-.288.6c0 .24.124.428.372.564.256.136.6.252 1.032.348.368.08.716.18 1.044.3.336.112.608.284.816.516.216.224.324.552.324.984.008.536-.196.98-.612 1.332-.408.344-.964.516-1.668.516Zm6 0c-.712 0-1.304-.18-1.776-.54-.472-.36-.748-.848-.828-1.464h1.032c.064.312.228.584.492.816.272.224.636.336 1.092.336.424 0 .736-.088.936-.264.2-.184.3-.4.3-.648 0-.36-.132-.6-.396-.72-.256-.12-.62-.228-1.092-.324a6.189 6.189 0 0 1-.96-.276 2.221 2.221 0 0 1-.804-.504c-.216-.224-.324-.516-.324-.876 0-.52.192-.944.576-1.272.392-.336.92-.504 1.584-.504.632 0 1.148.16 1.548.48.408.312.644.76.708 1.344h-.996a1.008 1.008 0 0 0-.396-.708c-.216-.176-.508-.264-.876-.264-.36 0-.64.076-.84.228a.728.728 0 0 0-.288.6c0 .24.124.428.372.564.256.136.6.252 1.032.348.368.08.716.18 1.044.3.336.112.608.284.816.516.216.224.324.552.324.984.008.536-.196.98-.612 1.332-.408.344-.964.516-1.668.516ZM50.743 115.94v-.852h4.752v.852h-4.752ZM60.25 119v-8.4h1.176l3.024 5.856 3-5.856h1.188v8.4h-1.008v-6.6l-2.808 5.4h-.756l-2.808-5.388V119h-1.008Zm12.776.144c-.568 0-1.072-.128-1.512-.384a2.856 2.856 0 0 1-1.044-1.092c-.248-.464-.372-1.012-.372-1.644 0-.624.124-1.168.372-1.632a2.667 2.667 0 0 1 1.032-1.092c.448-.264.964-.396 1.548-.396.576 0 1.072.132 1.488.396.424.256.748.596.972 1.02a2.885 2.885 0 0 1 .324 1.632v.3h-4.74c.024.456.128.836.312 1.14.192.296.428.52.708.672.288.152.592.228.912.228.416 0 .764-.096 1.044-.288.28-.192.484-.452.612-.78h.996a2.705 2.705 0 0 1-.924 1.38c-.448.36-1.024.54-1.728.54Zm0-5.388c-.48 0-.908.148-1.284.444-.368.288-.58.712-.636 1.272h3.744c-.024-.536-.208-.956-.552-1.26-.344-.304-.768-.456-1.272-.456ZM77.183 119v-5.952h.912l.06 1.068c.192-.376.468-.672.828-.888.36-.216.768-.324 1.224-.324.704 0 1.264.216 1.68.648.424.424.636 1.08.636 1.968V119h-1.008v-3.372c0-1.24-.512-1.86-1.536-1.86-.512 0-.94.188-1.284.564-.336.368-.504.896-.504 1.584V119h-1.008Zm9.22 0c-.545 0-.973-.132-1.285-.396-.312-.264-.468-.74-.468-1.428V113.9h-1.032v-.852h1.032l.132-1.428h.876v1.428h1.752v.852h-1.752v3.276c0 .376.076.632.228.768.152.128.42.192.804.192h.624V119h-.912Zm4.268.144c-.496 0-.908-.084-1.236-.252a1.713 1.713 0 0 1-.972-1.584c0-.608.232-1.076.696-1.404.464-.328 1.096-.492 1.896-.492h1.608v-.072c0-.52-.136-.912-.408-1.176-.272-.272-.636-.408-1.092-.408-.392 0-.732.1-1.02.3-.28.192-.456.476-.528.852h-1.032c.04-.432.184-.796.432-1.092.256-.296.572-.52.948-.672.376-.16.776-.24 1.2-.24.832 0 1.456.224 1.872.672.424.44.636 1.028.636 1.764V119h-.9l-.06-1.068a2.39 2.39 0 0 1-.744.864c-.32.232-.752.348-1.296.348Zm.156-.852c.384 0 .712-.1.984-.3.28-.2.492-.46.636-.78a2.43 2.43 0 0 0 .216-1.008v-.012h-1.524c-.592 0-1.012.104-1.26.312-.24.2-.36.452-.36.756 0 .312.112.564.336.756.232.184.556.276.972.276Zm4.356.708v-8.64h1.008V119h-1.008Zm2.72 0v-8.4h1.008v3.708h4.356V110.6h1.008v8.4h-1.008v-3.864h-4.356V119h-1.008Zm10.761.144c-.568 0-1.072-.128-1.512-.384a2.856 2.856 0 0 1-1.044-1.092c-.248-.464-.372-1.012-.372-1.644 0-.624.124-1.168.372-1.632a2.667 2.667 0 0 1 1.032-1.092c.448-.264.964-.396 1.548-.396.576 0 1.072.132 1.488.396.424.256.748.596.972 1.02a2.885 2.885 0 0 1 .324 1.632v.3h-4.74c.024.456.128.836.312 1.14.192.296.428.52.708.672.288.152.592.228.912.228.416 0 .764-.096 1.044-.288.28-.192.484-.452.612-.78h.996a2.705 2.705 0 0 1-.924 1.38c-.448.36-1.024.54-1.728.54Zm0-5.388c-.48 0-.908.148-1.284.444-.368.288-.58.712-.636 1.272h3.744c-.024-.536-.208-.956-.552-1.26-.344-.304-.768-.456-1.272-.456ZM112.82 119v-8.64h1.008V119h-1.008Zm2.66 2.64v-8.592h.912l.096.984c.192-.288.464-.548.816-.78.36-.232.816-.348 1.368-.348.592 0 1.108.136 1.548.408.44.272.78.644 1.02 1.116.248.472.372 1.008.372 1.608 0 .6-.124 1.136-.372 1.608-.24.464-.584.832-1.032 1.104-.44.264-.956.396-1.548.396-.488 0-.924-.1-1.308-.3-.376-.2-.664-.48-.864-.84v3.636h-1.008Zm3.072-3.372c.4 0 .752-.092 1.056-.276.304-.192.544-.456.72-.792.176-.336.264-.728.264-1.176 0-.448-.088-.84-.264-1.176a1.942 1.942 0 0 0-.72-.78 1.935 1.935 0 0 0-1.056-.288c-.4 0-.752.096-1.056.288a1.942 1.942 0 0 0-.72.78c-.176.336-.264.728-.264 1.176 0 .448.088.84.264 1.176.176.336.416.6.72.792.304.184.656.276 1.056.276Zm4.811.792a.707.707 0 0 1-.504-.192.692.692 0 0 1-.192-.492c0-.192.064-.352.192-.48a.685.685 0 0 1 .504-.204c.192 0 .352.068.48.204a.632.632 0 0 1 .204.48.67.67 0 0 1-.204.492.651.651 0 0 1-.48.192Zm1.996-.06v-5.952h.912l.06 1.068c.192-.376.468-.672.828-.888.36-.216.768-.324 1.224-.324.704 0 1.264.216 1.68.648.424.424.636 1.08.636 1.968V119h-1.008v-3.372c0-1.24-.512-1.86-1.536-1.86-.512 0-.94.188-1.284.564-.336.368-.504.896-.504 1.584V119h-1.008Zm9.543.144c-.568 0-1.072-.128-1.512-.384a2.856 2.856 0 0 1-1.044-1.092c-.248-.464-.372-1.012-.372-1.644 0-.624.124-1.168.372-1.632a2.667 2.667 0 0 1 1.032-1.092c.448-.264.964-.396 1.548-.396.576 0 1.072.132 1.488.396.424.256.748.596.972 1.02a2.885 2.885 0 0 1 .324 1.632v.3h-4.74c.024.456.128.836.312 1.14.192.296.428.52.708.672.288.152.592.228.912.228.416 0 .764-.096 1.044-.288.28-.192.484-.452.612-.78h.996a2.705 2.705 0 0 1-.924 1.38c-.448.36-1.024.54-1.728.54Zm0-5.388c-.48 0-.908.148-1.284.444-.368.288-.58.712-.636 1.272h3.744c-.024-.536-.208-.956-.552-1.26-.344-.304-.768-.456-1.272-.456Zm6.309 5.244c-.544 0-.972-.132-1.284-.396-.312-.264-.468-.74-.468-1.428V113.9h-1.032v-.852h1.032l.132-1.428h.876v1.428h1.752v.852h-1.752v3.276c0 .376.076.632.228.768.152.128.42.192.804.192h.624V119h-.912Z" fill="#382D72"/><defs><filter id="a" x="17.429" y="12.224" width="221.435" height="175.552" filterUnits="userSpaceOnUse" color-interpolation-filters="sRGB"><feFlood flood-opacity="0" result="BackgroundImageFix"/><feBlend in="SourceGraphic" in2="BackgroundImageFix" result="shape"/><feGaussianBlur stdDeviation="5.597" result="effect1_foregroundBlur_463_2357"/></filter></defs></svg>