<svg width="270" height="259" fill="none" xmlns="http://www.w3.org/2000/svg"><g filter="url(#a)"><path d="M45.095 27.26c-7.22 0-13.032 6.426-13.032 14.397v131.276c0 7.972 5.812 14.397 13.032 14.397h7.738c-2.877 15.194-9.077 29.837-15.069 44.409 15.408-12.707 27.03-26.548 37.062-44.409h152.727c7.22 0 13.032-6.425 13.032-14.397V41.657c0-7.971-5.812-14.396-13.032-14.396H45.095Z" fill="#96A6CE"/></g><path d="M43.178 10.524c-7.22 0-13.032 6.426-13.032 14.397v131.276c0 7.971 5.812 14.397 13.032 14.397h7.738c-2.877 15.194-9.077 29.837-15.069 44.409 15.408-12.707 27.03-26.548 37.062-44.409H225.635c7.22 0 13.033-6.426 13.033-14.397V24.921c0-7.971-5.813-14.397-13.033-14.397H43.178h0Z" fill="#EFDEDE" stroke="#382D72" stroke-linecap="round" stroke-linejoin="round"/><path d="M51.714 31.168c-.26-.19-.39-.399-.39-.624 0-.243.096-.442.286-.598-.329-2.479-.494-5.321-.494-8.528 0-.97.044-2.86.13-5.668.087-.26.26-.485.52-.676.278-.19.538-.286.78-.286.243 0 .39.009.442.026 2.479.693 4.637 2.037 6.474 4.03 1.838 1.976 2.8 4.35 2.886 7.124 0 3.05-1.265 4.966-3.796 5.746-.728.225-1.499.338-2.314.338-.797 0-1.499-.06-2.106-.182.07.139.104.32.104.546 0 .243-.147.468-.442.676-.277.225-.615.338-1.014.338-.381 0-.624-.234-.728-.702l-.338-1.56Zm1.56-9.958c0 3.033.174 5.91.52 8.632.416.121 1.118.182 2.106.182.988 0 1.933-.165 2.834-.494.919-.33 1.404-.815 1.456-1.456.052-.485.078-.858.078-1.118 0-2.253-.606-4.247-1.82-5.98-1.196-1.733-2.877-3.05-5.044-3.952-.086 2.045-.13 3.44-.13 4.186Zm14.836-1.326c1.248 0 2.27.598 3.068 1.794.815 1.196 1.222 2.635 1.222 4.316 0 1.664-.416 3.085-1.248 4.264-.814 1.179-1.906 1.768-3.276 1.768-1.352 0-2.444-.598-3.276-1.794a6.97 6.97 0 0 1-1.248-4.03c0-1.89.382-3.397 1.144-4.524.815-1.196 2.02-1.794 3.614-1.794Zm-.312 2.132c-.728 0-1.326.381-1.794 1.144a4.55 4.55 0 0 0-.702 2.418c0 1.317.26 2.323.78 3.016.52.693 1.11 1.04 1.768 1.04 1.179 0 1.933-.511 2.262-1.534.139-.485.208-1.092.208-1.82 0-2.843-.84-4.264-2.522-4.264Zm8.355 9.958c-.59 0-1.162-1.144-1.717-3.432-.537-2.305-.806-4.888-.806-7.748 0-.295.122-.52.365-.676.26-.173.493-.26.701-.26.209 0 .373.07.495.208a.623.623 0 0 1 .207.494c0 2.704.46 5.304 1.379 7.8.138-.208.355-.624.65-1.248.294-.641.572-1.11.831-1.404.26-.295.573-.442.937-.442.364 0 .745.269 1.144.806a9.156 9.156 0 0 1 1.014 1.742c.294.607.459.927.494.962.468-1.456.702-2.808.702-4.056l-.157-3.952c-.017-.26.105-.477.365-.65.26-.19.51-.286.753-.286.503 0 .754.98.754 2.938v1.43c0 2.323-.355 4.394-1.066 6.214-.38 1.04-.857 1.56-1.43 1.56-.329 0-.632-.208-.91-.624-.277-.433-.589-1.04-.936-1.82-.346-.78-.615-1.317-.805-1.612l-.78 1.534c-.295.607-.52 1.049-.677 1.326-.156.26-.372.529-.65.806-.277.26-.563.39-.858.39Zm10.865-.78-.286-10.556c0-.33.112-.598.338-.806.225-.208.45-.312.676-.312.554 0 .875.234.962.702.069.468.104.953.104 1.456.936-1.23 2.106-1.846 3.51-1.846 2.149 0 3.224 2.453 3.224 7.358v2.054c0 .901-.052 1.56-.156 1.976-.122.52-.494.78-1.118.78-.416 0-.624-.277-.624-.832l.026-1.456c0-2.01-.07-3.38-.208-4.108a16.97 16.97 0 0 0-.364-1.768c-.295-.936-.772-1.404-1.43-1.404-.867 0-1.474.312-1.82.936-.382.676-.607 1.473-.676 2.392a68.382 68.382 0 0 0-.182 5.122c0 .347-.13.624-.39.832-.26.208-.572.312-.936.312-.434 0-.65-.277-.65-.832Zm17.41-11.336 1.3.026c.294 0 .459-.009.494-.026v-5.33c.017-.295.164-.546.442-.754.277-.208.537-.312.78-.312.242 0 .433.078.572.234.156.156.225.399.208.728-.018.33-.026 2.132-.026 5.408l3.042-.104c.52 0 .78.303.78.91 0 .45-.139.789-.416 1.014-.26.225-.546.347-.858.364-.295.017-.59.026-.884.026l-1.586-.026c0 .71.069 2.115.208 4.212.156 2.097.277 3.458.364 4.082.086.607.104 1.005.052 1.196a.565.565 0 0 1-.286.364c-.226.104-.529.156-.91.156-.382 0-.607-.208-.676-.624-.347-2.27-.581-5.39-.702-9.36-.156.017-.754.026-1.794.026s-1.56-.303-1.56-.91c0-.867.485-1.3 1.456-1.3Zm11.069 3.718.208 6.136c0 .763-.034 1.205-.104 1.326-.034.312-.138.555-.312.728-.156.173-.468.26-.936.26-.225 0-.407-.139-.546-.416a2.611 2.611 0 0 1-.234-.988c-.121-3.05-.286-5.91-.494-8.58-.19-2.687-.286-5.183-.286-7.488 0-.364.122-.65.364-.858.243-.208.529-.312.858-.312.486 0 .772.416.858 1.248.104.832.165 1.872.182 3.12a97.13 97.13 0 0 0 .104 2.73c.867-.45 1.734-.676 2.6-.676 2.011 0 3.285.884 3.822 2.652.312 1.005.468 2.297.468 3.874 0 .52-.052 1.343-.156 2.47-.086 1.11-.138 1.829-.156 2.158a.962.962 0 0 1-.442.78c-.26.173-.546.26-.858.26-.485 0-.728-.26-.728-.78l.182-4.524c0-.381-.017-1.014-.052-1.898-.034-.884-.216-1.586-.546-2.106-.312-.52-.866-.78-1.664-.78-1.421 0-2.132.555-2.132 1.664Zm11.88-3.614c.919 0 1.794.269 2.626.806.832.537 1.248 1.205 1.248 2.002 0 .78-.338 1.543-1.014 2.288-.676.728-1.577 1.17-2.704 1.326-.485.07-1.213.104-2.184.104.191 1.473.563 2.444 1.118 2.912.173.19.407.286.702.286 1.075 0 1.976-.338 2.704-1.014.728-.693 1.248-1.04 1.56-1.04.139 0 .347.13.624.39s.416.503.416.728c0 .45-.546 1.1-1.638 1.95-.485.399-1.075.737-1.768 1.014-.676.26-1.309.39-1.898.39-1.508 0-2.617-.97-3.328-2.912-.451-1.196-.676-2.513-.676-3.952s.338-2.678 1.014-3.718c.676-1.04 1.742-1.56 3.198-1.56Zm.13 1.794c-.659 0-1.222.373-1.69 1.118-.173.26-.338.85-.494 1.768 2.427 0 3.64-.598 3.64-1.794 0-.728-.485-1.092-1.456-1.092Zm12.4-6.578c.052-.659.156-1.083.312-1.274.173-.208.442-.312.806-.312.745 0 1.118.303 1.118.91 0 .468-.044 1.69-.13 3.666-.07 1.976-.104 3.744-.104 5.304s.06 2.817.182 3.77c.208 1.664.502 2.496.884 2.496.381 0 .667-.269.858-.806.086-.208.225-.39.416-.546.19-.173.433-.26.728-.26.606 0 .91.511.91 1.534 0 .555-.304 1.11-.91 1.664-.59.537-1.179.806-1.768.806-.59 0-1.066-.095-1.43-.286a2.413 2.413 0 0 1-.858-.91c-.208-.399-.382-.78-.52-1.144a6.69 6.69 0 0 1-.26-1.378c-.104-.867-.182-2.253-.234-4.16a302.08 302.08 0 0 1-.052-5.486c0-1.75.017-2.947.052-3.588Zm8.7.39c.312 0 .607.147.884.442.277.295.416.607.416.936 0 .312-.156.633-.468.962-.295.33-.607.494-.936.494-.329 0-.633-.139-.91-.416-.26-.277-.39-.633-.39-1.066 0-.832.451-1.283 1.352-1.352h.052Zm1.092 13.624.026 1.82c0 .33-.13.607-.39.832-.26.208-.537.312-.832.312-.433 0-.659-.217-.676-.65-.225-5.53-.338-8.589-.338-9.178 0-.59.026-1.309.078-2.158.035-.312.234-.468.598-.468.919 0 1.439.373 1.56 1.118.052.381.078.685.078.91l-.104 1.638v5.824Zm3.994 2.002-.286-10.556c0-.33.113-.598.338-.806.226-.208.451-.312.676-.312.555 0 .876.234.962.702.07.468.104.953.104 1.456.936-1.23 2.106-1.846 3.51-1.846 2.15 0 3.224 2.453 3.224 7.358v2.054c0 .901-.052 1.56-.156 1.976-.121.52-.494.78-1.118.78-.416 0-.624-.277-.624-.832l.026-1.456c0-2.01-.069-3.38-.208-4.108a16.737 16.737 0 0 0-.364-1.768c-.294-.936-.771-1.404-1.43-1.404-.866 0-1.473.312-1.82.936-.381.676-.606 1.473-.676 2.392a68.542 68.542 0 0 0-.182 5.122c0 .347-.13.624-.39.832-.26.208-.572.312-.936.312-.433 0-.65-.277-.65-.832Zm14.512-11.232c.919 0 1.794.269 2.626.806.832.537 1.248 1.205 1.248 2.002 0 .78-.338 1.543-1.014 2.288-.676.728-1.577 1.17-2.704 1.326-.485.07-1.213.104-2.184.104.191 1.473.564 2.444 1.118 2.912.174.19.408.286.702.286 1.075 0 1.976-.338 2.704-1.014.728-.693 1.248-1.04 1.56-1.04.139 0 .347.13.624.39.278.26.416.503.416.728 0 .45-.546 1.1-1.638 1.95-.485.399-1.074.737-1.768 1.014-.676.26-1.308.39-1.898.39-1.508 0-2.617-.97-3.328-2.912-.45-1.196-.676-2.513-.676-3.952s.338-2.678 1.014-3.718c.676-1.04 1.742-1.56 3.198-1.56Zm.13 1.794c-.658 0-1.222.373-1.69 1.118-.173.26-.338.85-.494 1.768 2.427 0 3.64-.598 3.64-1.794 0-.728-.485-1.092-1.456-1.092ZM51.068 50v-8.4h1.008v3.708h4.356V41.6h1.008V50h-1.008v-3.864h-4.356V50h-1.008Zm10.065.144c-.496 0-.908-.084-1.236-.252a1.713 1.713 0 0 1-.972-1.584c0-.608.232-1.076.696-1.404.464-.328 1.096-.492 1.896-.492h1.608v-.072c0-.52-.136-.912-.408-1.176-.272-.272-.636-.408-1.092-.408-.392 0-.732.1-1.02.3-.28.192-.456.476-.528.852h-1.032c.04-.432.184-.796.432-1.092.256-.296.572-.52.948-.672.376-.16.776-.24 1.2-.24.832 0 1.456.224 1.872.672.424.44.636 1.028.636 1.764V50h-.9l-.06-1.068a2.39 2.39 0 0 1-.744.864c-.32.232-.752.348-1.296.348Zm.156-.852c.384 0 .712-.1.984-.3.28-.2.492-.46.636-.78a2.43 2.43 0 0 0 .216-1.008v-.012H61.6c-.592 0-1.012.104-1.26.312-.24.2-.36.452-.36.756 0 .312.112.564.336.756.232.184.556.276.972.276Zm4.356.708v-8.64h1.008V50h-1.008Zm2.984 0v-5.1h-.9v-.852h.9v-1.032c0-.576.144-.996.432-1.26.288-.264.708-.396 1.26-.396h.6v.864h-.444c-.304 0-.52.064-.648.192-.128.12-.192.328-.192.624v1.008h1.464v.852h-1.464V50H68.63Zm9.56.144c-.56 0-1.064-.128-1.512-.384a2.827 2.827 0 0 1-1.068-1.08c-.256-.472-.384-1.024-.384-1.656 0-.632.132-1.18.396-1.644.264-.472.62-.836 1.068-1.092a3.06 3.06 0 0 1 1.524-.384c.56 0 1.064.128 1.512.384.448.256.8.62 1.056 1.092.264.464.396 1.012.396 1.644 0 .632-.132 1.184-.396 1.656a2.802 2.802 0 0 1-1.08 1.08 2.993 2.993 0 0 1-1.512.384Zm0-.864c.344 0 .664-.084.96-.252a1.88 1.88 0 0 0 .72-.756c.184-.336.276-.752.276-1.248s-.092-.912-.276-1.248a1.803 1.803 0 0 0-.708-.756 1.89 1.89 0 0 0-.948-.252c-.344 0-.664.084-.96.252a1.88 1.88 0 0 0-.72.756c-.184.336-.276.752-.276 1.248s.092.912.276 1.248c.184.336.42.588.708.756.296.168.612.252.948.252Zm4.714.72v-5.1h-.9v-.852h.9v-1.032c0-.576.144-.996.432-1.26.288-.264.708-.396 1.26-.396h.6v.864h-.444c-.304 0-.52.064-.648.192-.128.12-.192.328-.192.624v1.008h1.464v.852H83.91V50h-1.008Zm8.828.144c-.496 0-.908-.084-1.236-.252a1.713 1.713 0 0 1-.973-1.584c0-.608.232-1.076.697-1.404.464-.328 1.096-.492 1.896-.492h1.608v-.072c0-.52-.136-.912-.409-1.176-.271-.272-.635-.408-1.091-.408-.392 0-.733.1-1.02.3-.28.192-.457.476-.529.852h-1.032c.04-.432.184-.796.433-1.092.255-.296.572-.52.947-.672.376-.16.776-.24 1.2-.24.833 0 1.457.224 1.873.672.424.44.636 1.028.636 1.764V50h-.9l-.06-1.068a2.39 2.39 0 0 1-.745.864c-.32.232-.751.348-1.295.348Zm.156-.852c.383 0 .712-.1.984-.3.28-.2.492-.46.636-.78a2.43 2.43 0 0 0 .215-1.008v-.012H92.2c-.593 0-1.013.104-1.26.312-.24.2-.36.452-.36.756 0 .312.112.564.336.756.231.184.555.276.971.276Zm4.356.708v-8.64h1.008V50h-1.008Zm2.66 0v-8.64h1.008V50h-1.008Zm5.836 0v-8.64h1.008V50h-1.008Zm3.272-7.272a.707.707 0 0 1-.504-.192.707.707 0 0 1-.192-.504c0-.192.064-.352.192-.48a.707.707 0 0 1 .504-.192c.192 0 .356.064.492.192a.632.632 0 0 1 .204.48c0 .2-.068.368-.204.504a.692.692 0 0 1-.492.192ZM107.507 50v-5.952h1.008V50h-1.008Zm3.087 0v-5.1h-.9v-.852h.9v-1.032c0-.576.144-.996.432-1.26.288-.264.708-.396 1.26-.396h.6v.864h-.444c-.304 0-.52.064-.648.192-.128.12-.192.328-.192.624v1.008h1.464v.852h-1.464V50h-1.008Zm6.114.144c-.568 0-1.072-.128-1.512-.384a2.856 2.856 0 0 1-1.044-1.092c-.248-.464-.372-1.012-.372-1.644 0-.624.124-1.168.372-1.632a2.667 2.667 0 0 1 1.032-1.092c.448-.264.964-.396 1.548-.396.576 0 1.072.132 1.488.396.424.256.748.596.972 1.02a2.885 2.885 0 0 1 .324 1.632v.3h-4.74c.024.456.128.836.312 1.14.192.296.428.52.708.672.288.152.592.228.912.228.416 0 .764-.096 1.044-.288.28-.192.484-.452.612-.78h.996a2.705 2.705 0 0 1-.924 1.38c-.448.36-1.024.54-1.728.54Zm0-5.388c-.48 0-.908.148-1.284.444-.368.288-.58.712-.636 1.272h3.744c-.024-.536-.208-.956-.552-1.26-.344-.304-.768-.456-1.272-.456ZM123.017 50c-.544 0-.972-.132-1.284-.396-.312-.264-.468-.74-.468-1.428V44.9h-1.032v-.852h1.032l.132-1.428h.876v1.428h1.752v.852h-1.752v3.276c0 .376.076.632.228.768.152.128.42.192.804.192h.624V50h-.912Zm2.9-7.272a.707.707 0 0 1-.504-.192.707.707 0 0 1-.192-.504c0-.192.064-.352.192-.48a.707.707 0 0 1 .504-.192c.192 0 .356.064.492.192a.632.632 0 0 1 .204.48c0 .2-.068.368-.204.504a.692.692 0 0 1-.492.192ZM125.413 50v-5.952h1.008V50h-1.008Zm2.763 0v-5.952h.912l.072.864c.192-.32.448-.568.768-.744.32-.176.68-.264 1.08-.264.472 0 .876.096 1.212.288.344.192.608.484.792.876.208-.36.492-.644.852-.852a2.375 2.375 0 0 1 1.188-.312c.712 0 1.28.216 1.704.648.424.424.636 1.08.636 1.968V50h-.996v-3.372c0-.616-.124-1.08-.372-1.392-.248-.312-.604-.468-1.068-.468-.48 0-.88.188-1.2.564-.312.368-.468.896-.468 1.584V50h-1.008v-3.372c0-.616-.124-1.08-.372-1.392-.248-.312-.604-.468-1.068-.468-.472 0-.868.188-1.188.564-.312.368-.468.896-.468 1.584V50h-1.008Zm13.411.144c-.568 0-1.072-.128-1.512-.384a2.856 2.856 0 0 1-1.044-1.092c-.248-.464-.372-1.012-.372-1.644 0-.624.124-1.168.372-1.632a2.667 2.667 0 0 1 1.032-1.092c.448-.264.964-.396 1.548-.396.576 0 1.072.132 1.488.396.424.256.748.596.972 1.02a2.885 2.885 0 0 1 .324 1.632v.3h-4.74c.024.456.128.836.312 1.14.192.296.428.52.708.672.288.152.592.228.912.228.416 0 .764-.096 1.044-.288.28-.192.484-.452.612-.78h.996a2.705 2.705 0 0 1-.924 1.38c-.448.36-1.024.54-1.728.54Zm0-5.388c-.48 0-.908.148-1.284.444-.368.288-.58.712-.636 1.272h3.744c-.024-.536-.208-.956-.552-1.26-.344-.304-.768-.456-1.272-.456ZM148.918 50v-5.952h.912l.072.864c.192-.32.448-.568.768-.744.32-.176.68-.264 1.08-.264.472 0 .876.096 1.212.288.344.192.608.484.792.876.208-.36.492-.644.852-.852a2.375 2.375 0 0 1 1.188-.312c.712 0 1.28.216 1.704.648.424.424.636 1.08.636 1.968V50h-.996v-3.372c0-.616-.124-1.08-.372-1.392-.248-.312-.604-.468-1.068-.468-.48 0-.88.188-1.2.564-.312.368-.468.896-.468 1.584V50h-1.008v-3.372c0-.616-.124-1.08-.372-1.392-.248-.312-.604-.468-1.068-.468-.472 0-.868.188-1.188.564-.312.368-.468.896-.468 1.584V50h-1.008Zm13.411.144c-.568 0-1.072-.128-1.512-.384a2.856 2.856 0 0 1-1.044-1.092c-.248-.464-.372-1.012-.372-1.644 0-.624.124-1.168.372-1.632a2.667 2.667 0 0 1 1.032-1.092c.448-.264.964-.396 1.548-.396.576 0 1.072.132 1.488.396.424.256.748.596.972 1.02a2.885 2.885 0 0 1 .324 1.632v.3h-4.74c.024.456.128.836.312 1.14.192.296.428.52.708.672.288.152.592.228.912.228.416 0 .764-.096 1.044-.288.28-.192.484-.452.612-.78h.996a2.705 2.705 0 0 1-.924 1.38c-.448.36-1.024.54-1.728.54Zm0-5.388c-.48 0-.908.148-1.284.444-.368.288-.58.712-.636 1.272h3.744c-.024-.536-.208-.956-.552-1.26-.344-.304-.768-.456-1.272-.456ZM166.485 50v-5.952h.912l.06 1.068c.192-.376.468-.672.828-.888.36-.216.768-.324 1.224-.324.704 0 1.264.216 1.68.648.424.424.636 1.08.636 1.968V50h-1.008v-3.372c0-1.24-.512-1.86-1.536-1.86-.512 0-.94.188-1.284.564-.336.368-.504.896-.504 1.584V50h-1.008Zm9.219 0c-.544 0-.972-.132-1.284-.396-.312-.264-.468-.74-.468-1.428V44.9h-1.032v-.852h1.032l.132-1.428h.876v1.428h1.752v.852h-1.752v3.276c0 .376.076.632.228.768.152.128.42.192.804.192h.624V50h-.912Zm4.269.144c-.496 0-.908-.084-1.236-.252a1.713 1.713 0 0 1-.972-1.584c0-.608.232-1.076.696-1.404.464-.328 1.096-.492 1.896-.492h1.608v-.072c0-.52-.136-.912-.408-1.176-.272-.272-.636-.408-1.092-.408-.392 0-.732.1-1.02.3-.28.192-.456.476-.528.852h-1.032c.04-.432.184-.796.432-1.092.256-.296.572-.52.948-.672.376-.16.776-.24 1.2-.24.832 0 1.456.224 1.872.672.424.44.636 1.028.636 1.764V50h-.9l-.06-1.068a2.39 2.39 0 0 1-.744.864c-.32.232-.752.348-1.296.348Zm.156-.852c.384 0 .712-.1.984-.3.28-.2.492-.46.636-.78a2.43 2.43 0 0 0 .216-1.008v-.012h-1.524c-.592 0-1.012.104-1.26.312-.24.2-.36.452-.36.756 0 .312.112.564.336.756.232.184.556.276.972.276Zm4.356.708v-8.64h1.008V50h-1.008Zm5.836 0v-8.64h1.008v3.708c.2-.368.484-.652.852-.852a2.398 2.398 0 0 1 1.2-.312c.688 0 1.24.216 1.656.648.416.424.624 1.08.624 1.968V50h-.996v-3.372c0-1.24-.5-1.86-1.5-1.86-.52 0-.956.188-1.308.564-.352.368-.528.896-.528 1.584V50h-1.008Zm9.543.144c-.568 0-1.072-.128-1.512-.384a2.856 2.856 0 0 1-1.044-1.092c-.248-.464-.372-1.012-.372-1.644 0-.624.124-1.168.372-1.632a2.667 2.667 0 0 1 1.032-1.092c.448-.264.964-.396 1.548-.396.576 0 1.072.132 1.488.396.424.256.748.596.972 1.02a2.885 2.885 0 0 1 .324 1.632v.3h-4.74c.024.456.128.836.312 1.14.192.296.428.52.708.672.288.152.592.228.912.228.416 0 .764-.096 1.044-.288.28-.192.484-.452.612-.78h.996a2.705 2.705 0 0 1-.924 1.38c-.448.36-1.024.54-1.728.54Zm0-5.388c-.48 0-.908.148-1.284.444-.368.288-.58.712-.636 1.272h3.744c-.024-.536-.208-.956-.552-1.26-.344-.304-.768-.456-1.272-.456ZM206 50.144c-.496 0-.908-.084-1.236-.252a1.713 1.713 0 0 1-.972-1.584c0-.608.232-1.076.696-1.404.464-.328 1.096-.492 1.896-.492h1.608v-.072c0-.52-.136-.912-.408-1.176-.272-.272-.636-.408-1.092-.408-.392 0-.732.1-1.02.3-.28.192-.456.476-.528.852h-1.032c.04-.432.184-.796.432-1.092.256-.296.572-.52.948-.672.376-.16.776-.24 1.2-.24.832 0 1.456.224 1.872.672.424.44.636 1.028.636 1.764V50h-.9l-.06-1.068a2.39 2.39 0 0 1-.744.864c-.32.232-.752.348-1.296.348Zm.156-.852c.384 0 .712-.1.984-.3.28-.2.492-.46.636-.78a2.43 2.43 0 0 0 .216-1.008v-.012h-1.524c-.592 0-1.012.104-1.26.312-.24.2-.36.452-.36.756 0 .312.112.564.336.756.232.184.556.276.972.276Zm4.356.708v-8.64h1.008V50h-1.008Zm5.012 0c-.544 0-.972-.132-1.284-.396-.312-.264-.468-.74-.468-1.428V44.9h-1.032v-.852h1.032l.132-1.428h.876v1.428h1.752v.852h-1.752v3.276c0 .376.076.632.228.768.152.128.42.192.804.192h.624V50h-.912Zm2.289 0v-8.64h1.008v3.708c.2-.368.484-.652.852-.852a2.398 2.398 0 0 1 1.2-.312c.688 0 1.24.216 1.656.648.416.424.624 1.08.624 1.968V50h-.996v-3.372c0-1.24-.5-1.86-1.5-1.86-.52 0-.956.188-1.308.564-.352.368-.528.896-.528 1.584V50h-1.008ZM53.744 66.144c-.568 0-1.08-.128-1.536-.384a2.916 2.916 0 0 1-1.068-1.092c-.256-.472-.384-1.02-.384-1.644 0-.624.128-1.168.384-1.632.264-.472.62-.836 1.068-1.092a3.01 3.01 0 0 1 1.536-.396c.704 0 1.296.184 1.776.552.488.368.796.86.924 1.476h-1.032a1.301 1.301 0 0 0-.588-.852 1.922 1.922 0 0 0-1.092-.312 1.89 1.89 0 0 0-.948.252 1.88 1.88 0 0 0-.72.756c-.184.336-.276.752-.276 1.248s.092.912.276 1.248c.184.336.424.592.72.768.296.168.612.252.948.252.416 0 .78-.1 1.092-.3.312-.208.508-.5.588-.876h1.032c-.12.6-.424 1.088-.912 1.464-.488.376-1.084.564-1.788.564Zm6.82 0c-.56 0-1.064-.128-1.512-.384a2.827 2.827 0 0 1-1.068-1.08c-.256-.472-.384-1.024-.384-1.656 0-.632.132-1.18.396-1.644.264-.472.62-.836 1.068-1.092a3.06 3.06 0 0 1 1.524-.384c.56 0 1.064.128 1.512.384.448.256.8.62 1.056 1.092.264.464.396 1.012.396 1.644 0 .632-.132 1.184-.396 1.656a2.802 2.802 0 0 1-1.08 1.08 2.993 2.993 0 0 1-1.512.384Zm0-.864c.344 0 .664-.084.96-.252a1.88 1.88 0 0 0 .72-.756c.184-.336.276-.752.276-1.248s-.092-.912-.276-1.248a1.803 1.803 0 0 0-.708-.756 1.89 1.89 0 0 0-.948-.252c-.344 0-.664.084-.96.252a1.88 1.88 0 0 0-.72.756c-.184.336-.276.752-.276 1.248s.092.912.276 1.248c.184.336.42.588.708.756.296.168.612.252.948.252Zm4.39.72v-5.952h.912l.06 1.068c.192-.376.468-.672.828-.888.36-.216.768-.324 1.224-.324.704 0 1.264.216 1.68.648.424.424.636 1.08.636 1.968V66h-1.008v-3.372c0-1.24-.512-1.86-1.536-1.86-.512 0-.94.188-1.284.564-.336.368-.504.896-.504 1.584V66h-1.008Zm9.567.144c-.592 0-1.112-.136-1.56-.408a2.835 2.835 0 0 1-1.032-1.116c-.24-.472-.36-1.008-.36-1.608 0-.6.124-1.132.372-1.596a2.75 2.75 0 0 1 1.032-1.104c.44-.272.96-.408 1.56-.408.488 0 .92.1 1.296.3.376.2.668.48.876.84V57.36h1.008V66H76.8l-.096-.984c-.192.288-.468.548-.828.78-.36.232-.812.348-1.356.348Zm.108-.876c.4 0 .752-.092 1.056-.276.312-.192.552-.456.72-.792.176-.336.264-.728.264-1.176 0-.448-.088-.84-.264-1.176a1.837 1.837 0 0 0-.72-.78 1.935 1.935 0 0 0-1.056-.288c-.392 0-.744.096-1.056.288a1.942 1.942 0 0 0-.72.78c-.168.336-.252.728-.252 1.176 0 .448.084.84.252 1.176.176.336.416.6.72.792a2.04 2.04 0 0 0 1.056.276Zm5.339-6.54a.707.707 0 0 1-.504-.192.707.707 0 0 1-.192-.504c0-.192.064-.352.192-.48a.707.707 0 0 1 .504-.192c.192 0 .356.064.492.192a.632.632 0 0 1 .204.48c0 .2-.068.368-.204.504a.692.692 0 0 1-.492.192ZM79.464 66v-5.952h1.008V66h-1.008Zm5.115 0c-.544 0-.972-.132-1.284-.396-.312-.264-.468-.74-.468-1.428V60.9h-1.032v-.852h1.032l.132-1.428h.876v1.428h1.752v.852h-1.752v3.276c0 .376.076.632.228.768.152.128.42.192.804.192h.624V66h-.912Zm2.9-7.272a.707.707 0 0 1-.503-.192.707.707 0 0 1-.192-.504c0-.192.064-.352.192-.48a.707.707 0 0 1 .504-.192c.192 0 .356.064.492.192a.632.632 0 0 1 .204.48c0 .2-.068.368-.204.504a.692.692 0 0 1-.492.192ZM86.977 66v-5.952h1.008V66h-1.008Zm5.475.144c-.56 0-1.064-.128-1.512-.384a2.827 2.827 0 0 1-1.068-1.08c-.256-.472-.384-1.024-.384-1.656 0-.632.132-1.18.396-1.644.264-.472.62-.836 1.068-1.092a3.06 3.06 0 0 1 1.524-.384c.56 0 1.064.128 1.512.384.448.256.8.62 1.056 1.092.264.464.396 1.012.396 1.644 0 .632-.132 1.184-.396 1.656a2.802 2.802 0 0 1-1.08 1.08 2.993 2.993 0 0 1-1.512.384Zm0-.864c.344 0 .664-.084.96-.252a1.88 1.88 0 0 0 .72-.756c.184-.336.276-.752.276-1.248s-.092-.912-.276-1.248a1.803 1.803 0 0 0-.708-.756 1.89 1.89 0 0 0-.948-.252c-.344 0-.664.084-.96.252a1.88 1.88 0 0 0-.72.756c-.184.336-.276.752-.276 1.248s.092.912.276 1.248c.184.336.42.588.708.756.296.168.612.252.948.252Zm4.39.72v-5.952h.911l.06 1.068c.192-.376.468-.672.828-.888.36-.216.768-.324 1.224-.324.704 0 1.264.216 1.68.648.424.424.636 1.08.636 1.968V66h-1.008v-3.372c0-1.24-.512-1.86-1.536-1.86-.512 0-.94.188-1.284.564-.336.368-.504.896-.504 1.584V66H96.84Zm9.147.144c-.712 0-1.304-.18-1.776-.54-.472-.36-.748-.848-.828-1.464h1.032c.064.312.228.584.492.816.272.224.636.336 1.092.336.424 0 .736-.088.936-.264.2-.184.3-.4.3-.648 0-.36-.132-.6-.396-.72-.256-.12-.62-.228-1.092-.324a6.189 6.189 0 0 1-.96-.276 2.221 2.221 0 0 1-.804-.504c-.216-.224-.324-.516-.324-.876 0-.52.192-.944.576-1.272.392-.336.92-.504 1.584-.504.632 0 1.148.16 1.548.48.408.312.644.76.708 1.344h-.996a1.008 1.008 0 0 0-.396-.708c-.216-.176-.508-.264-.876-.264-.36 0-.64.076-.84.228a.728.728 0 0 0-.288.6c0 .24.124.428.372.564.256.136.6.252 1.032.348.368.08.716.18 1.044.3.336.112.608.284.816.516.216.224.324.552.324.984.008.536-.196.98-.612 1.332-.408.344-.964.516-1.668.516Zm10.075 0c-.488 0-.924-.1-1.308-.3-.376-.2-.664-.48-.864-.84l-.096.996h-.912v-8.64h1.008v3.672c.192-.288.464-.548.816-.78.36-.232.816-.348 1.368-.348.592 0 1.108.136 1.548.408.44.272.78.644 1.02 1.116.248.472.372 1.008.372 1.608 0 .6-.124 1.136-.372 1.608-.24.464-.584.832-1.032 1.104-.44.264-.956.396-1.548.396Zm-.108-.876c.4 0 .752-.092 1.056-.276.304-.192.544-.456.72-.792.176-.336.264-.728.264-1.176 0-.448-.088-.84-.264-1.176a1.942 1.942 0 0 0-.72-.78 1.935 1.935 0 0 0-1.056-.288c-.4 0-.752.096-1.056.288a1.942 1.942 0 0 0-.72.78c-.176.336-.264.728-.264 1.176 0 .448.088.84.264 1.176.176.336.416.6.72.792.304.184.656.276 1.056.276Zm7.139.876c-.568 0-1.072-.128-1.512-.384a2.856 2.856 0 0 1-1.044-1.092c-.248-.464-.372-1.012-.372-1.644 0-.624.124-1.168.372-1.632a2.667 2.667 0 0 1 1.032-1.092c.448-.264.964-.396 1.548-.396.576 0 1.072.132 1.488.396.424.256.748.596.972 1.02a2.885 2.885 0 0 1 .324 1.632v.3h-4.74c.024.456.128.836.312 1.14.192.296.428.52.708.672.288.152.592.228.912.228.416 0 .764-.096 1.044-.288.28-.192.484-.452.612-.78h.996a2.705 2.705 0 0 1-.924 1.38c-.448.36-1.024.54-1.728.54Zm0-5.388c-.48 0-.908.148-1.284.444-.368.288-.58.712-.636 1.272h3.744c-.024-.536-.208-.956-.552-1.26-.344-.304-.768-.456-1.272-.456Zm6.473 3.372a3.07 3.07 0 0 1-.924-.132l-.6.564c.088.064.196.12.324.168.136.04.328.08.576.12.248.032.596.068 1.044.108.8.056 1.372.24 1.716.552.344.312.516.72.516 1.224 0 .344-.096.672-.288.984-.184.312-.472.568-.864.768-.384.2-.88.3-1.488.3a4.356 4.356 0 0 1-1.428-.216c-.416-.136-.74-.348-.972-.636-.232-.28-.348-.636-.348-1.068 0-.224.06-.468.18-.732.12-.256.344-.5.672-.732a3.022 3.022 0 0 1-.456-.228 2.898 2.898 0 0 1-.336-.288v-.276l1.02-1.008c-.472-.4-.708-.928-.708-1.584 0-.392.092-.748.276-1.068.184-.32.452-.572.804-.756.352-.192.78-.288 1.284-.288.344 0 .656.048.936.144h2.196v.756l-1.116.048c.232.336.348.724.348 1.164 0 .392-.096.748-.288 1.068-.184.32-.452.576-.804.768-.344.184-.768.276-1.272.276Zm0-.828c.424 0 .76-.108 1.008-.324.256-.224.384-.544.384-.96 0-.408-.128-.72-.384-.936-.248-.224-.584-.336-1.008-.336-.432 0-.776.112-1.032.336-.248.216-.372.528-.372.936 0 .416.124.736.372.96.256.216.6.324 1.032.324Zm-1.752 3.468c0 .4.168.696.504.888.336.2.756.3 1.26.3.496 0 .892-.108 1.188-.324a1.01 1.01 0 0 0 .456-.864.888.888 0 0 0-.312-.672c-.208-.184-.592-.292-1.152-.324-.44-.032-.82-.072-1.14-.12-.328.176-.544.364-.648.564-.104.208-.156.392-.156.552Zm6.633-8.04a.707.707 0 0 1-.504-.192.707.707 0 0 1-.192-.504c0-.192.064-.352.192-.48a.707.707 0 0 1 .504-.192c.192 0 .356.064.492.192a.632.632 0 0 1 .204.48c0 .2-.068.368-.204.504a.692.692 0 0 1-.492.192ZM133.944 66v-5.952h1.008V66h-1.008Zm2.764 0v-5.952h.912l.06 1.068c.192-.376.468-.672.828-.888.36-.216.768-.324 1.224-.324.704 0 1.264.216 1.68.648.424.424.636 1.08.636 1.968V66h-1.008v-3.372c0-1.24-.512-1.86-1.536-1.86-.512 0-.94.188-1.284.564-.336.368-.504.896-.504 1.584V66h-1.008Zm13.222.144c-.488 0-.924-.1-1.308-.3-.376-.2-.664-.48-.864-.84l-.096.996h-.912v-8.64h1.008v3.672c.192-.288.464-.548.816-.78.36-.232.816-.348 1.368-.348.592 0 1.108.136 1.548.408.44.272.78.644 1.02 1.116.248.472.372 1.008.372 1.608 0 .6-.124 1.136-.372 1.608-.24.464-.584.832-1.032 1.104-.44.264-.956.396-1.548.396Zm-.108-.876c.4 0 .752-.092 1.056-.276.304-.192.544-.456.72-.792.176-.336.264-.728.264-1.176 0-.448-.088-.84-.264-1.176a1.942 1.942 0 0 0-.72-.78 1.935 1.935 0 0 0-1.056-.288c-.4 0-.752.096-1.056.288a1.942 1.942 0 0 0-.72.78c-.176.336-.264.728-.264 1.176 0 .448.088.84.264 1.176.176.336.416.6.72.792.304.184.656.276 1.056.276Zm4.631 3.372 1.476-3.216h-.348l-2.364-5.376h1.092l1.968 4.632 2.088-4.632h1.044l-3.9 8.592h-1.056Zm11.176-2.496c-.496 0-.908-.084-1.236-.252a1.713 1.713 0 0 1-.972-1.584c0-.608.232-1.076.696-1.404.464-.328 1.096-.492 1.896-.492h1.608v-.072c0-.52-.136-.912-.408-1.176-.272-.272-.636-.408-1.092-.408-.392 0-.732.1-1.02.3-.28.192-.456.476-.528.852h-1.032c.04-.432.184-.796.432-1.092.256-.296.572-.52.948-.672.376-.16.776-.24 1.2-.24.832 0 1.456.224 1.872.672.424.44.636 1.028.636 1.764V66h-.9l-.06-1.068a2.39 2.39 0 0 1-.744.864c-.32.232-.752.348-1.296.348Zm.156-.852c.384 0 .712-.1.984-.3.28-.2.492-.46.636-.78a2.43 2.43 0 0 0 .216-1.008v-.012h-1.524c-.592 0-1.012.104-1.26.312-.24.2-.36.452-.36.756 0 .312.112.564.336.756.232.184.556.276.972.276Zm6.708-1.164a3.07 3.07 0 0 1-.924-.132l-.6.564c.088.064.196.12.324.168.136.04.328.08.576.12.248.032.596.068 1.044.108.8.056 1.372.24 1.716.552.344.312.516.72.516 1.224 0 .344-.096.672-.288.984-.184.312-.472.568-.864.768-.384.2-.88.3-1.488.3a4.356 4.356 0 0 1-1.428-.216c-.416-.136-.74-.348-.972-.636-.232-.28-.348-.636-.348-1.068 0-.224.06-.468.18-.732.12-.256.344-.5.672-.732a3.022 3.022 0 0 1-.456-.228 2.898 2.898 0 0 1-.336-.288v-.276l1.02-1.008c-.472-.4-.708-.928-.708-1.584 0-.392.092-.748.276-1.068.184-.32.452-.572.804-.756.352-.192.78-.288 1.284-.288.344 0 .656.048.936.144h2.196v.756l-1.116.048c.232.336.348.724.348 1.164 0 .392-.096.748-.288 1.068-.184.32-.452.576-.804.768-.344.184-.768.276-1.272.276Zm0-.828c.424 0 .76-.108 1.008-.324.256-.224.384-.544.384-.96 0-.408-.128-.72-.384-.936-.248-.224-.584-.336-1.008-.336-.432 0-.776.112-1.032.336-.248.216-.372.528-.372.936 0 .416.124.736.372.96.256.216.6.324 1.032.324Zm-1.752 3.468c0 .4.168.696.504.888.336.2.756.3 1.26.3.496 0 .892-.108 1.188-.324a1.01 1.01 0 0 0 .456-.864.888.888 0 0 0-.312-.672c-.208-.184-.592-.292-1.152-.324-.44-.032-.82-.072-1.14-.12-.328.176-.544.364-.648.564-.104.208-.156.392-.156.552Zm8.463-.624c-.568 0-1.072-.128-1.512-.384a2.856 2.856 0 0 1-1.044-1.092c-.248-.464-.372-1.012-.372-1.644 0-.624.124-1.168.372-1.632a2.667 2.667 0 0 1 1.032-1.092c.448-.264.964-.396 1.548-.396.576 0 1.072.132 1.488.396.424.256.748.596.972 1.02a2.885 2.885 0 0 1 .324 1.632v.3h-4.74c.024.456.128.836.312 1.14.192.296.428.52.708.672.288.152.592.228.912.228.416 0 .764-.096 1.044-.288.28-.192.484-.452.612-.78h.996a2.705 2.705 0 0 1-.924 1.38c-.448.36-1.024.54-1.728.54Zm0-5.388c-.48 0-.908.148-1.284.444-.368.288-.58.712-.636 1.272h3.744c-.024-.536-.208-.956-.552-1.26-.344-.304-.768-.456-1.272-.456Zm8.22 5.244v-7.272l-1.356.3v-.696l1.692-.732h.684V66h-1.02Zm6.597 0v-1.8h-4.26v-.78l4.08-5.82h1.176v5.712h1.248v.888h-1.248V66h-.996Zm-3.144-2.688h3.192v-4.596l-3.192 4.596Zm11.701 2.832c-.496 0-.908-.084-1.236-.252a1.713 1.713 0 0 1-.972-1.584c0-.608.232-1.076.696-1.404.464-.328 1.096-.492 1.896-.492h1.608v-.072c0-.52-.136-.912-.408-1.176-.272-.272-.636-.408-1.092-.408-.392 0-.732.1-1.02.3-.28.192-.456.476-.528.852h-1.032c.04-.432.184-.796.432-1.092.256-.296.572-.52.948-.672.376-.16.776-.24 1.2-.24.832 0 1.456.224 1.872.672.424.44.636 1.028.636 1.764V66h-.9l-.06-1.068a2.39 2.39 0 0 1-.744.864c-.32.232-.752.348-1.296.348Zm.156-.852c.384 0 .712-.1.984-.3.28-.2.492-.46.636-.78a2.43 2.43 0 0 0 .216-1.008v-.012h-1.524c-.592 0-1.012.104-1.26.312-.24.2-.36.452-.36.756 0 .312.112.564.336.756.232.184.556.276.972.276Zm4.356.708v-5.952h.912l.06 1.068c.192-.376.468-.672.828-.888.36-.216.768-.324 1.224-.324.704 0 1.264.216 1.68.648.424.424.636 1.08.636 1.968V66h-1.008v-3.372c0-1.24-.512-1.86-1.536-1.86-.512 0-.94.188-1.284.564-.336.368-.504.896-.504 1.584V66h-1.008Zm9.568.144c-.592 0-1.112-.136-1.56-.408a2.835 2.835 0 0 1-1.032-1.116c-.24-.472-.36-1.008-.36-1.608 0-.6.124-1.132.372-1.596a2.75 2.75 0 0 1 1.032-1.104c.44-.272.96-.408 1.56-.408.488 0 .92.1 1.296.3.376.2.668.48.876.84V57.36h1.008V66h-.912l-.096-.984c-.192.288-.468.548-.828.78-.36.232-.812.348-1.356.348Zm.108-.876c.4 0 .752-.092 1.056-.276.312-.192.552-.456.72-.792.176-.336.264-.728.264-1.176 0-.448-.088-.84-.264-1.176a1.837 1.837 0 0 0-.72-.78 1.935 1.935 0 0 0-1.056-.288c-.392 0-.744.096-1.056.288a1.942 1.942 0 0 0-.72.78c-.168.336-.252.728-.252 1.176 0 .448.084.84.252 1.176.176.336.416.6.72.792a2.04 2.04 0 0 0 1.056.276ZM51.764 82l3.336-7.536h-4.608V73.6h5.64v.756L52.832 82h-1.068Zm8.207.144c-.576 0-1.076-.104-1.5-.312a2.666 2.666 0 0 1-1.02-.852 2.799 2.799 0 0 1-.456-1.248h.984c.096.464.32.84.672 1.128.352.28.796.42 1.332.42.4 0 .744-.092 1.032-.276.288-.192.508-.448.66-.768.16-.32.24-.676.24-1.068 0-.624-.176-1.128-.528-1.512-.352-.384-.808-.576-1.368-.576-.464 0-.86.104-1.188.312-.328.208-.568.48-.72.816h-.96l.72-4.608h4.404v.876h-3.624l-.492 2.556c.192-.232.456-.424.792-.576a2.882 2.882 0 0 1 1.176-.228c.552 0 1.032.128 1.44.384.416.256.74.604.972 1.044.232.44.348.94.348 1.5 0 .536-.116 1.032-.348 1.488a2.62 2.62 0 0 1-.996 1.092c-.432.272-.956.408-1.572.408Zm6.004-4.644c-.36 0-.688-.08-.984-.24a1.843 1.843 0 0 1-.684-.696c-.168-.304-.252-.664-.252-1.08 0-.416.084-.772.252-1.068.176-.304.408-.536.696-.696.296-.168.624-.252.984-.252s.684.084.972.252c.288.16.516.392.684.696.168.296.252.652.252 1.068 0 .416-.088.776-.264 1.08a1.843 1.843 0 0 1-.684.696c-.288.16-.612.24-.972.24ZM65.23 82l4.884-8.4h1.008L66.239 82H65.23Zm.744-5.28c.28 0 .524-.104.732-.312.216-.208.324-.516.324-.924 0-.416-.104-.728-.312-.936a.985.985 0 0 0-.732-.324c-.28 0-.532.108-.756.324-.216.208-.324.52-.324.936 0 .408.108.716.324.924.216.208.464.312.744.312Zm4.488 5.424c-.36 0-.688-.08-.984-.24a1.843 1.843 0 0 1-.684-.696c-.168-.304-.252-.664-.252-1.08 0-.416.084-.772.252-1.068.176-.304.408-.536.696-.696.288-.168.612-.252.972-.252s.684.084.972.252c.288.16.516.392.684.696.168.296.252.652.252 1.068 0 .416-.084.776-.252 1.08a1.843 1.843 0 0 1-.684.696c-.288.16-.612.24-.972.24Zm-.012-.78c.288 0 .536-.104.744-.312.216-.208.324-.516.324-.924 0-.416-.104-.728-.312-.936a1.016 1.016 0 0 0-.744-.312c-.28 0-.528.104-.744.312-.216.208-.324.52-.324.936 0 .408.104.716.312.924.216.208.464.312.744.312Zm9.589.78c-.488 0-.924-.1-1.308-.3-.376-.2-.664-.48-.864-.84l-.096.996h-.912v-8.64h1.008v3.672c.192-.288.464-.548.816-.78.36-.232.816-.348 1.368-.348.592 0 1.108.136 1.548.408.44.272.78.644 1.02 1.116.248.472.372 1.008.372 1.608 0 .6-.124 1.136-.372 1.608-.24.464-.584.832-1.032 1.104-.44.264-.956.396-1.548.396Zm-.108-.876c.4 0 .752-.092 1.056-.276.304-.192.544-.456.72-.792.176-.336.264-.728.264-1.176 0-.448-.088-.84-.264-1.176a1.942 1.942 0 0 0-.72-.78 1.935 1.935 0 0 0-1.056-.288c-.4 0-.752.096-1.056.288a1.942 1.942 0 0 0-.72.78c-.176.336-.264.728-.264 1.176 0 .448.088.84.264 1.176.176.336.416.6.72.792.304.184.656.276 1.056.276Zm4.63 3.372 1.477-3.216h-.349l-2.364-5.376h1.093l1.968 4.632 2.088-4.632h1.044l-3.9 8.592h-1.056Zm11.176-2.496c-.496 0-.908-.084-1.236-.252a1.713 1.713 0 0 1-.972-1.584c0-.608.232-1.076.696-1.404.464-.328 1.096-.492 1.896-.492h1.608v-.072c0-.52-.136-.912-.408-1.176-.272-.272-.636-.408-1.092-.408-.392 0-.732.1-1.02.3-.28.192-.456.476-.528.852H93.65c.04-.432.184-.796.432-1.092.256-.296.572-.52.948-.672.376-.16.776-.24 1.2-.24.832 0 1.456.224 1.872.672.424.44.636 1.028.636 1.764V82h-.9l-.06-1.068a2.39 2.39 0 0 1-.744.864c-.32.232-.752.348-1.296.348Zm.156-.852c.384 0 .712-.1.984-.3.28-.2.492-.46.636-.78a2.43 2.43 0 0 0 .216-1.008v-.012h-1.524c-.592 0-1.012.104-1.26.312-.24.2-.36.452-.36.756 0 .312.112.564.336.756.232.184.556.276.972.276Zm6.708-1.164a3.07 3.07 0 0 1-.924-.132l-.6.564c.088.064.196.12.324.168.136.04.328.08.576.12.248.032.596.068 1.044.108.8.056 1.372.24 1.716.552.344.312.516.72.516 1.224 0 .344-.096.672-.288.984-.184.312-.472.568-.864.768-.384.2-.88.3-1.488.3a4.356 4.356 0 0 1-1.428-.216c-.416-.136-.74-.348-.972-.636-.231-.28-.347-.636-.347-1.068 0-.224.06-.468.179-.732.12-.256.344-.5.672-.732a3.022 3.022 0 0 1-.456-.228 2.852 2.852 0 0 1-.335-.288v-.276l1.019-1.008c-.472-.4-.708-.928-.708-1.584 0-.392.092-.748.276-1.068.184-.32.452-.572.804-.756.352-.192.78-.288 1.284-.288.344 0 .656.048.936.144h2.196v.756l-1.116.048c.232.336.348.724.348 1.164 0 .392-.096.748-.288 1.068-.184.32-.452.576-.804.768-.344.184-.768.276-1.272.276Zm0-.828c.424 0 .76-.108 1.008-.324.256-.224.384-.544.384-.96 0-.408-.128-.72-.384-.936-.248-.224-.584-.336-1.008-.336-.432 0-.776.112-1.032.336-.248.216-.372.528-.372.936 0 .416.124.736.372.96.256.216.6.324 1.032.324Zm-1.752 3.468c0 .4.168.696.504.888.336.2.756.3 1.26.3.496 0 .892-.108 1.188-.324a1.01 1.01 0 0 0 .456-.864.888.888 0 0 0-.312-.672c-.208-.184-.592-.292-1.152-.324-.44-.032-.82-.072-1.14-.12-.328.176-.544.364-.648.564-.104.208-.156.392-.156.552Zm8.463-.624c-.568 0-1.072-.128-1.512-.384a2.856 2.856 0 0 1-1.044-1.092c-.248-.464-.372-1.012-.372-1.644 0-.624.124-1.168.372-1.632a2.667 2.667 0 0 1 1.032-1.092c.448-.264.964-.396 1.548-.396.576 0 1.072.132 1.488.396.424.256.748.596.972 1.02a2.885 2.885 0 0 1 .324 1.632v.3h-4.74c.024.456.128.836.312 1.14.192.296.428.52.708.672.288.152.592.228.912.228.416 0 .764-.096 1.044-.288.28-.192.484-.452.612-.78h.996a2.705 2.705 0 0 1-.924 1.38c-.448.36-1.024.54-1.728.54Zm0-5.388c-.48 0-.908.148-1.284.444-.368.288-.58.712-.636 1.272h3.744c-.024-.536-.208-.956-.552-1.26-.344-.304-.768-.456-1.272-.456Zm7.26 5.244v-.708c.568-.448 1.104-.9 1.608-1.356.512-.464.964-.92 1.356-1.368.4-.448.712-.888.936-1.32.232-.432.348-.848.348-1.248 0-.296-.052-.572-.156-.828a1.254 1.254 0 0 0-.48-.612c-.224-.16-.528-.24-.912-.24-.368 0-.676.084-.924.252a1.53 1.53 0 0 0-.564.648c-.12.272-.18.564-.18.876h-.972c0-.552.116-1.024.348-1.416.232-.4.548-.704.948-.912.4-.208.852-.312 1.356-.312.744 0 1.352.212 1.824.636.48.416.72 1.04.72 1.872 0 .496-.124.988-.372 1.476-.248.48-.564.948-.948 1.404-.384.448-.796.868-1.236 1.26a36.54 36.54 0 0 1-1.212 1.056h4.056V82h-5.544Zm10.604 0v-1.8h-4.26v-.78l4.08-5.82h1.176v5.712h1.248v.888h-1.248V82h-.996Zm-3.144-2.688h3.192v-4.596l-3.192 4.596Zm5.742 4.116.696-2.652h1.044l-1.044 2.652h-.696Zm9.292-1.284c-.488 0-.924-.1-1.308-.3-.376-.2-.664-.48-.864-.84l-.096.996h-.912v-8.64h1.008v3.672c.192-.288.464-.548.816-.78.36-.232.816-.348 1.368-.348.592 0 1.108.136 1.548.408.44.272.78.644 1.02 1.116.248.472.372 1.008.372 1.608 0 .6-.124 1.136-.372 1.608-.24.464-.584.832-1.032 1.104-.44.264-.956.396-1.548.396Zm-.108-.876c.4 0 .752-.092 1.056-.276.304-.192.544-.456.72-.792.176-.336.264-.728.264-1.176 0-.448-.088-.84-.264-1.176a1.942 1.942 0 0 0-.72-.78 1.935 1.935 0 0 0-1.056-.288c-.4 0-.752.096-1.056.288a1.942 1.942 0 0 0-.72.78c-.176.336-.264.728-.264 1.176 0 .448.088.84.264 1.176.176.336.416.6.72.792.304.184.656.276 1.056.276Zm6.635.876c-.704 0-1.264-.212-1.68-.636-.416-.432-.624-1.092-.624-1.98v-3.48h1.008v3.372c0 1.24.508 1.86 1.524 1.86.52 0 .948-.184 1.284-.552.344-.376.516-.908.516-1.596v-3.084h1.008V82h-.912l-.072-1.068c-.184.376-.46.672-.828.888-.36.216-.768.324-1.224.324Zm7.048-.144c-.544 0-.972-.132-1.284-.396-.312-.264-.468-.74-.468-1.428V76.9h-1.032v-.852h1.032l.132-1.428h.876v1.428h1.752v.852h-1.752v3.276c0 .376.076.632.228.768.152.128.42.192.804.192h.624V82h-.912Zm8.14.144c-.568 0-1.072-.128-1.512-.384a2.856 2.856 0 0 1-1.044-1.092c-.248-.464-.372-1.012-.372-1.644 0-.624.124-1.168.372-1.632a2.667 2.667 0 0 1 1.032-1.092c.448-.264.964-.396 1.548-.396.576 0 1.072.132 1.488.396.424.256.748.596.972 1.02a2.885 2.885 0 0 1 .324 1.632v.3h-4.74c.024.456.128.836.312 1.14.192.296.428.52.708.672.288.152.592.228.912.228.416 0 .764-.096 1.044-.288.28-.192.484-.452.612-.78h.996a2.705 2.705 0 0 1-.924 1.38c-.448.36-1.024.54-1.728.54Zm0-5.388c-.48 0-.908.148-1.284.444-.368.288-.58.712-.636 1.272h3.744c-.024-.536-.208-.956-.552-1.26-.344-.304-.768-.456-1.272-.456Zm6.136 5.388c-.496 0-.908-.084-1.236-.252a1.713 1.713 0 0 1-.972-1.584c0-.608.232-1.076.696-1.404.464-.328 1.096-.492 1.896-.492h1.608v-.072c0-.52-.136-.912-.408-1.176-.272-.272-.636-.408-1.092-.408-.392 0-.732.1-1.02.3-.28.192-.456.476-.528.852h-1.032c.04-.432.184-.796.432-1.092.256-.296.572-.52.948-.672.376-.16.776-.24 1.2-.24.832 0 1.456.224 1.872.672.424.44.636 1.028.636 1.764V82h-.9l-.06-1.068a2.39 2.39 0 0 1-.744.864c-.32.232-.752.348-1.296.348Zm.156-.852c.384 0 .712-.1.984-.3.28-.2.492-.46.636-.78a2.43 2.43 0 0 0 .216-1.008v-.012h-1.524c-.592 0-1.012.104-1.26.312-.24.2-.36.452-.36.756 0 .312.112.564.336.756.232.184.556.276.972.276Zm4.356.708v-5.952h.912l.084 1.14c.184-.392.464-.704.84-.936.376-.232.84-.348 1.392-.348v1.056h-.276c-.352 0-.676.064-.972.192-.296.12-.532.328-.708.624-.176.296-.264.704-.264 1.224v3h-1.008Zm4.36 0v-8.64h1.008V82h-1.008Zm3.308 2.64 1.476-3.216h-.348l-2.364-5.376h1.092l1.968 4.632 2.088-4.632h1.044l-3.9 8.592h-1.056ZM51.62 90.728a.707.707 0 0 1-.504-.192.707.707 0 0 1-.192-.504c0-.192.064-.352.192-.48a.707.707 0 0 1 .504-.192c.192 0 .356.064.492.192a.632.632 0 0 1 .204.48c0 .2-.068.368-.204.504a.692.692 0 0 1-.492.192ZM51.116 98v-5.952h1.008V98h-1.008Zm2.763 0v-5.952h.912l.06 1.068c.192-.376.468-.672.828-.888.36-.216.768-.324 1.224-.324.704 0 1.264.216 1.68.648.424.424.636 1.08.636 1.968V98h-1.008v-3.372c0-1.24-.512-1.86-1.536-1.86-.512 0-.94.188-1.284.564-.336.368-.504.896-.504 1.584V98H53.88Zm9.22 0c-.544 0-.972-.132-1.284-.396-.312-.264-.468-.74-.468-1.428V92.9h-1.032v-.852h1.032l.132-1.428h.876v1.428h1.752v.852h-1.752v3.276c0 .376.076.632.228.768.152.128.42.192.804.192h.624V98h-.912Zm4.8.144c-.568 0-1.072-.128-1.512-.384a2.856 2.856 0 0 1-1.044-1.092c-.248-.464-.372-1.012-.372-1.644 0-.624.124-1.168.372-1.632a2.667 2.667 0 0 1 1.032-1.092c.448-.264.964-.396 1.548-.396.576 0 1.072.132 1.488.396.424.256.748.596.972 1.02a2.885 2.885 0 0 1 .324 1.632v.3h-4.74c.024.456.128.836.312 1.14.192.296.428.52.708.672.288.152.592.228.912.228.416 0 .764-.096 1.044-.288.28-.192.484-.452.612-.78h.996a2.705 2.705 0 0 1-.924 1.38c-.448.36-1.024.54-1.728.54Zm0-5.388c-.48 0-.908.148-1.284.444-.368.288-.58.712-.636 1.272h3.744c-.024-.536-.208-.956-.552-1.26-.344-.304-.768-.456-1.272-.456ZM72.055 98v-5.952h.912l.084 1.14c.184-.392.464-.704.84-.936.376-.232.84-.348 1.392-.348v1.056h-.276c-.352 0-.676.064-.972.192-.296.12-.532.328-.708.624-.176.296-.264.704-.264 1.224v3h-1.008Zm6.075 0-2.255-5.952h1.055l1.788 4.98 1.8-4.98h1.032L79.296 98H78.13Zm6.914.144c-.568 0-1.072-.128-1.512-.384a2.856 2.856 0 0 1-1.044-1.092c-.248-.464-.372-1.012-.372-1.644 0-.624.124-1.168.372-1.632A2.667 2.667 0 0 1 83.52 92.3c.448-.264.964-.396 1.548-.396.576 0 1.072.132 1.488.396.424.256.748.596.972 1.02a2.885 2.885 0 0 1 .324 1.632v.3h-4.74c.024.456.128.836.312 1.14.192.296.428.52.708.672.288.152.592.228.912.228.416 0 .764-.096 1.044-.288.28-.192.484-.452.612-.78h.996a2.705 2.705 0 0 1-.924 1.38c-.448.36-1.024.54-1.728.54Zm0-5.388c-.48 0-.908.148-1.284.444-.368.288-.58.712-.636 1.272h3.744c-.024-.536-.208-.956-.552-1.26-.344-.304-.768-.456-1.272-.456ZM89.2 98v-5.952h.912l.06 1.068c.192-.376.468-.672.828-.888.36-.216.768-.324 1.224-.324.704 0 1.264.216 1.68.648.424.424.636 1.08.636 1.968V98h-1.008v-3.372c0-1.24-.512-1.86-1.536-1.86-.512 0-.94.188-1.284.564-.336.368-.504.896-.504 1.584V98H89.2Zm9.219 0c-.544 0-.972-.132-1.284-.396-.312-.264-.468-.74-.468-1.428V92.9h-1.032v-.852h1.032l.132-1.428h.876v1.428h1.752v.852h-1.752v3.276c0 .376.076.632.228.768.152.128.42.192.804.192h.624V98h-.912Zm2.901-7.272a.707.707 0 0 1-.504-.192.707.707 0 0 1-.192-.504c0-.192.064-.352.192-.48a.707.707 0 0 1 .504-.192c.192 0 .356.064.492.192a.632.632 0 0 1 .204.48c0 .2-.068.368-.204.504a.692.692 0 0 1-.492.192ZM100.816 98v-5.952h1.008V98h-1.008Zm5.475.144c-.56 0-1.064-.128-1.512-.384a2.827 2.827 0 0 1-1.068-1.08c-.256-.472-.384-1.024-.384-1.656 0-.632.132-1.18.396-1.644.264-.472.62-.836 1.068-1.092a3.06 3.06 0 0 1 1.524-.384c.56 0 1.064.128 1.512.384.448.256.8.62 1.056 1.092.264.464.396 1.012.396 1.644 0 .632-.132 1.184-.396 1.656a2.802 2.802 0 0 1-1.08 1.08 2.993 2.993 0 0 1-1.512.384Zm0-.864c.344 0 .664-.084.96-.252a1.88 1.88 0 0 0 .72-.756c.184-.336.276-.752.276-1.248s-.092-.912-.276-1.248a1.803 1.803 0 0 0-.708-.756 1.89 1.89 0 0 0-.948-.252c-.344 0-.664.084-.96.252a1.88 1.88 0 0 0-.72.756c-.184.336-.276.752-.276 1.248s.092.912.276 1.248c.184.336.42.588.708.756.296.168.612.252.948.252Zm4.389.72v-5.952h.912l.06 1.068c.192-.376.468-.672.828-.888.36-.216.768-.324 1.224-.324.704 0 1.264.216 1.68.648.424.424.636 1.08.636 1.968V98h-1.008v-3.372c0-1.24-.512-1.86-1.536-1.86-.512 0-.94.188-1.284.564-.336.368-.504.896-.504 1.584V98h-1.008Zm10.043 2.64v-8.592h.912l.096.984c.192-.288.464-.548.816-.78.36-.232.816-.348 1.368-.348.592 0 1.108.136 1.548.408.44.272.78.644 1.02 1.116.248.472.372 1.008.372 1.608 0 .6-.124 1.136-.372 1.608-.24.464-.584.832-1.032 1.104-.44.264-.956.396-1.548.396-.488 0-.924-.1-1.308-.3-.376-.2-.664-.48-.864-.84v3.636h-1.008Zm3.072-3.372c.4 0 .752-.092 1.056-.276.304-.192.544-.456.72-.792.176-.336.264-.728.264-1.176 0-.448-.088-.84-.264-1.176a1.942 1.942 0 0 0-.72-.78 1.935 1.935 0 0 0-1.056-.288c-.4 0-.752.096-1.056.288a1.942 1.942 0 0 0-.72.78c-.176.336-.264.728-.264 1.176 0 .448.088.84.264 1.176.176.336.416.6.72.792.304.184.656.276 1.056.276Zm4.463.732v-5.952h.912l.084 1.14c.184-.392.464-.704.84-.936.376-.232.84-.348 1.392-.348v1.056h-.276c-.352 0-.676.064-.972.192-.296.12-.532.328-.708.624-.176.296-.264.704-.264 1.224v3h-1.008Zm6.849.144c-.56 0-1.064-.128-1.512-.384a2.827 2.827 0 0 1-1.068-1.08c-.256-.472-.384-1.024-.384-1.656 0-.632.132-1.18.396-1.644.264-.472.62-.836 1.068-1.092a3.06 3.06 0 0 1 1.524-.384c.56 0 1.064.128 1.512.384.448.256.8.62 1.056 1.092.264.464.396 1.012.396 1.644 0 .632-.132 1.184-.396 1.656a2.802 2.802 0 0 1-1.08 1.08 2.993 2.993 0 0 1-1.512.384Zm0-.864c.344 0 .664-.084.96-.252a1.88 1.88 0 0 0 .72-.756c.184-.336.276-.752.276-1.248s-.092-.912-.276-1.248a1.803 1.803 0 0 0-.708-.756 1.89 1.89 0 0 0-.948-.252c-.344 0-.664.084-.96.252a1.88 1.88 0 0 0-.72.756c-.184.336-.276.752-.276 1.248s.092.912.276 1.248c.184.336.42.588.708.756.296.168.612.252.948.252Zm6.484-1.152a3.07 3.07 0 0 1-.924-.132l-.6.564c.088.064.196.12.324.168.136.04.328.08.576.12.248.032.596.068 1.044.108.8.056 1.372.24 1.716.552.344.312.516.72.516 1.224 0 .344-.096.672-.288.984-.184.312-.472.568-.864.768-.384.2-.88.3-1.488.3a4.356 4.356 0 0 1-1.428-.216c-.416-.136-.74-.348-.972-.636-.232-.28-.348-.636-.348-1.068 0-.224.06-.468.18-.732.12-.256.344-.5.672-.732a3.022 3.022 0 0 1-.456-.228 2.898 2.898 0 0 1-.336-.288v-.276l1.02-1.008c-.472-.4-.708-.928-.708-1.584 0-.392.092-.748.276-1.068.184-.32.452-.572.804-.756.352-.192.78-.288 1.284-.288.344 0 .656.048.936.144h2.196v.756l-1.116.048c.232.336.348.724.348 1.164 0 .392-.096.748-.288 1.068-.184.32-.452.576-.804.768-.344.184-.768.276-1.272.276Zm0-.828c.424 0 .76-.108 1.008-.324.256-.224.384-.544.384-.96 0-.408-.128-.72-.384-.936-.248-.224-.584-.336-1.008-.336-.432 0-.776.112-1.032.336-.248.216-.372.528-.372.936 0 .416.124.736.372.96.256.216.6.324 1.032.324Zm-1.752 3.468c0 .4.168.696.504.888.336.2.756.3 1.26.3.496 0 .892-.108 1.188-.324a1.01 1.01 0 0 0 .456-.864.888.888 0 0 0-.312-.672c-.208-.184-.592-.292-1.152-.324-.44-.032-.82-.072-1.14-.12-.328.176-.544.364-.648.564-.104.208-.156.392-.156.552ZM145.86 98v-5.952h.912l.084 1.14c.184-.392.464-.704.84-.936.376-.232.84-.348 1.392-.348v1.056h-.276c-.352 0-.676.064-.972.192-.296.12-.532.328-.708.624-.176.296-.264.704-.264 1.224v3h-1.008Zm6.339.144c-.496 0-.908-.084-1.236-.252a1.713 1.713 0 0 1-.972-1.584c0-.608.232-1.076.696-1.404.464-.328 1.096-.492 1.896-.492h1.608v-.072c0-.52-.136-.912-.408-1.176-.272-.272-.636-.408-1.092-.408-.392 0-.732.1-1.02.3-.28.192-.456.476-.528.852h-1.032c.04-.432.184-.796.432-1.092.256-.296.572-.52.948-.672.376-.16.776-.24 1.2-.24.832 0 1.456.224 1.872.672.424.44.636 1.028.636 1.764V98h-.9l-.06-1.068a2.39 2.39 0 0 1-.744.864c-.32.232-.752.348-1.296.348Zm.156-.852c.384 0 .712-.1.984-.3.28-.2.492-.46.636-.78a2.43 2.43 0 0 0 .216-1.008v-.012h-1.524c-.592 0-1.012.104-1.26.312-.24.2-.36.452-.36.756 0 .312.112.564.336.756.232.184.556.276.972.276Zm4.356.708v-5.952h.912l.072.864c.192-.32.448-.568.768-.744.32-.176.68-.264 1.08-.264.472 0 .876.096 1.212.288.344.192.608.484.792.876.208-.36.492-.644.852-.852a2.375 2.375 0 0 1 1.188-.312c.712 0 1.28.216 1.704.648.424.424.636 1.08.636 1.968V98h-.996v-3.372c0-.616-.124-1.08-.372-1.392-.248-.312-.604-.468-1.068-.468-.48 0-.88.188-1.2.564-.312.368-.468.896-.468 1.584V98h-1.008v-3.372c0-.616-.124-1.08-.372-1.392-.248-.312-.604-.468-1.068-.468-.472 0-.868.188-1.188.564-.312.368-.468.896-.468 1.584V98h-1.008Zm13.015.144c-.712 0-1.304-.18-1.776-.54-.472-.36-.748-.848-.828-1.464h1.032c.064.312.228.584.492.816.272.224.636.336 1.092.336.424 0 .736-.088.936-.264.2-.184.3-.4.3-.648 0-.36-.132-.6-.396-.72-.256-.12-.62-.228-1.092-.324a6.189 6.189 0 0 1-.96-.276 2.221 2.221 0 0 1-.804-.504c-.216-.224-.324-.516-.324-.876 0-.52.192-.944.576-1.272.392-.336.92-.504 1.584-.504.632 0 1.148.16 1.548.48.408.312.644.76.708 1.344h-.996a1.008 1.008 0 0 0-.396-.708c-.216-.176-.508-.264-.876-.264-.36 0-.64.076-.84.228a.728.728 0 0 0-.288.6c0 .24.124.428.372.564.256.136.6.252 1.032.348.368.08.716.18 1.044.3.336.112.608.284.816.516.216.224.324.552.324.984.008.536-.196.98-.612 1.332-.408.344-.964.516-1.668.516Zm9.632 0c-.568 0-1.08-.128-1.536-.384a2.916 2.916 0 0 1-1.068-1.092c-.256-.472-.384-1.02-.384-1.644 0-.624.128-1.168.384-1.632.264-.472.62-.836 1.068-1.092a3.01 3.01 0 0 1 1.536-.396c.704 0 1.296.184 1.776.552.488.368.796.86.924 1.476h-1.032a1.301 1.301 0 0 0-.588-.852 1.922 1.922 0 0 0-1.092-.312 1.89 1.89 0 0 0-.948.252 1.88 1.88 0 0 0-.72.756c-.184.336-.276.752-.276 1.248s.092.912.276 1.248c.184.336.424.592.72.768.296.168.612.252.948.252.416 0 .78-.1 1.092-.3.312-.208.508-.5.588-.876h1.032c-.12.6-.424 1.088-.912 1.464-.488.376-1.084.564-1.788.564Zm6.087 0c-.496 0-.908-.084-1.236-.252a1.713 1.713 0 0 1-.972-1.584c0-.608.232-1.076.696-1.404.464-.328 1.096-.492 1.896-.492h1.608v-.072c0-.52-.136-.912-.408-1.176-.272-.272-.636-.408-1.092-.408-.392 0-.732.1-1.02.3-.28.192-.456.476-.528.852h-1.032c.04-.432.184-.796.432-1.092.256-.296.572-.52.948-.672.376-.16.776-.24 1.2-.24.832 0 1.456.224 1.872.672.424.44.636 1.028.636 1.764V98h-.9l-.06-1.068a2.39 2.39 0 0 1-.744.864c-.32.232-.752.348-1.296.348Zm.156-.852c.384 0 .712-.1.984-.3.28-.2.492-.46.636-.78a2.43 2.43 0 0 0 .216-1.008v-.012h-1.524c-.592 0-1.012.104-1.26.312-.24.2-.36.452-.36.756 0 .312.112.564.336.756.232.184.556.276.972.276Zm4.357.708v-5.952h.912l.06 1.068c.192-.376.468-.672.828-.888.36-.216.768-.324 1.224-.324.704 0 1.264.216 1.68.648.424.424.636 1.08.636 1.968V98h-1.008v-3.372c0-1.24-.512-1.86-1.536-1.86-.512 0-.94.188-1.284.564-.336.368-.504.896-.504 1.584V98h-1.008ZM200 98v-8.64h1.008v3.708c.2-.368.484-.652.852-.852a2.398 2.398 0 0 1 1.2-.312c.688 0 1.24.216 1.656.648.416.424.624 1.08.624 1.968V98h-.996v-3.372c0-1.24-.5-1.86-1.5-1.86-.52 0-.956.188-1.308.564-.352.368-.528.896-.528 1.584V98H200Zm9.544.144c-.568 0-1.072-.128-1.512-.384a2.856 2.856 0 0 1-1.044-1.092c-.248-.464-.372-1.012-.372-1.644 0-.624.124-1.168.372-1.632a2.667 2.667 0 0 1 1.032-1.092c.448-.264.964-.396 1.548-.396.576 0 1.072.132 1.488.396.424.256.748.596.972 1.02a2.885 2.885 0 0 1 .324 1.632v.3h-4.74c.024.456.128.836.312 1.14.192.296.428.52.708.672.288.152.592.228.912.228.416 0 .764-.096 1.044-.288.28-.192.484-.452.612-.78h.996a2.705 2.705 0 0 1-.924 1.38c-.448.36-1.024.54-1.728.54Zm0-5.388c-.48 0-.908.148-1.284.444-.368.288-.58.712-.636 1.272h3.744c-.024-.536-.208-.956-.552-1.26-.344-.304-.768-.456-1.272-.456ZM213.7 98v-8.64h1.008V98H213.7Zm2.66 2.64v-8.592h.912l.096.984c.192-.288.464-.548.816-.78.36-.232.816-.348 1.368-.348.592 0 1.108.136 1.548.408.44.272.78.644 1.02 1.116.248.472.372 1.008.372 1.608 0 .6-.124 1.136-.372 1.608-.24.464-.584.832-1.032 1.104-.44.264-.956.396-1.548.396-.488 0-.924-.1-1.308-.3-.376-.2-.664-.48-.864-.84v3.636h-1.008Zm3.072-3.372c.4 0 .752-.092 1.056-.276.304-.192.544-.456.72-.792.176-.336.264-.728.264-1.176 0-.448-.088-.84-.264-1.176a1.942 1.942 0 0 0-.72-.78 1.935 1.935 0 0 0-1.056-.288c-.4 0-.752.096-1.056.288a1.942 1.942 0 0 0-.72.78c-.176.336-.264.728-.264 1.176 0 .448.088.84.264 1.176.176.336.416.6.72.792.304.184.656.276 1.056.276Zm4.811.792a.707.707 0 0 1-.504-.192.692.692 0 0 1-.192-.492c0-.192.064-.352.192-.48a.685.685 0 0 1 .504-.204c.192 0 .352.068.48.204a.632.632 0 0 1 .204.48.67.67 0 0 1-.204.492.651.651 0 0 1-.48.192ZM51.068 114v-8.4h5.196v.828h-4.188v2.928h3.828v.816h-3.828v3h4.188V114h-5.196Zm9.414.144c-.592 0-1.112-.136-1.56-.408a2.835 2.835 0 0 1-1.032-1.116c-.24-.472-.36-1.008-.36-1.608 0-.6.124-1.132.372-1.596a2.75 2.75 0 0 1 1.032-1.104c.44-.272.96-.408 1.56-.408.488 0 .92.1 1.296.3.376.2.668.48.876.84v-3.684h1.008V114h-.912l-.096-.984c-.192.288-.468.548-.828.78-.36.232-.812.348-1.356.348Zm.108-.876c.4 0 .752-.092 1.056-.276.312-.192.552-.456.72-.792.176-.336.264-.728.264-1.176 0-.448-.088-.84-.264-1.176a1.837 1.837 0 0 0-.72-.78 1.935 1.935 0 0 0-1.056-.288c-.392 0-.744.096-1.056.288a1.942 1.942 0 0 0-.72.78c-.168.336-.252.728-.252 1.176 0 .448.084.84.252 1.176.176.336.416.6.72.792a2.04 2.04 0 0 0 1.056.276Zm6.899.876c-.704 0-1.264-.212-1.68-.636-.416-.432-.624-1.092-.624-1.98v-3.48h1.008v3.372c0 1.24.508 1.86 1.524 1.86.52 0 .948-.184 1.284-.552.344-.376.516-.908.516-1.596v-3.084h1.008V114h-.912l-.072-1.068c-.184.376-.46.672-.828.888-.36.216-.768.324-1.224.324Zm7.431 0c-.568 0-1.08-.128-1.536-.384a2.916 2.916 0 0 1-1.068-1.092c-.256-.472-.384-1.02-.384-1.644 0-.624.128-1.168.384-1.632.264-.472.62-.836 1.068-1.092a3.01 3.01 0 0 1 1.536-.396c.704 0 1.296.184 1.776.552.488.368.796.86.924 1.476h-1.032a1.301 1.301 0 0 0-.588-.852 1.922 1.922 0 0 0-1.092-.312 1.89 1.89 0 0 0-.948.252 1.88 1.88 0 0 0-.72.756c-.184.336-.276.752-.276 1.248s.092.912.276 1.248c.184.336.424.592.72.768.296.168.612.252.948.252.416 0 .78-.1 1.092-.3.312-.208.508-.5.588-.876h1.032c-.12.6-.424 1.088-.912 1.464-.488.376-1.084.564-1.788.564Zm6.088 0c-.496 0-.908-.084-1.236-.252a1.713 1.713 0 0 1-.972-1.584c0-.608.232-1.076.696-1.404.464-.328 1.096-.492 1.896-.492H83v-.072c0-.52-.136-.912-.408-1.176-.272-.272-.636-.408-1.092-.408-.392 0-.732.1-1.02.3-.28.192-.456.476-.528.852H78.92c.04-.432.184-.796.432-1.092.256-.296.572-.52.948-.672.376-.16.776-.24 1.2-.24.832 0 1.456.224 1.872.672.424.44.636 1.028.636 1.764V114h-.9l-.06-1.068a2.39 2.39 0 0 1-.744.864c-.32.232-.752.348-1.296.348Zm.156-.852c.384 0 .712-.1.984-.3.28-.2.492-.46.636-.78a2.43 2.43 0 0 0 .216-1.008v-.012h-1.524c-.592 0-1.012.104-1.26.312-.24.2-.36.452-.36.756 0 .312.112.564.336.756.232.184.556.276.972.276Zm6.544.708c-.544 0-.972-.132-1.284-.396-.312-.264-.468-.74-.468-1.428V108.9h-1.032v-.852h1.032l.132-1.428h.876v1.428h1.752v.852h-1.752v3.276c0 .376.076.632.228.768.152.128.42.192.804.192h.624V114h-.912Zm2.9-7.272a.707.707 0 0 1-.503-.192.707.707 0 0 1-.192-.504c0-.192.064-.352.192-.48a.707.707 0 0 1 .504-.192c.192 0 .356.064.492.192a.632.632 0 0 1 .204.48c0 .2-.068.368-.204.504a.692.692 0 0 1-.492.192ZM90.106 114v-5.952h1.008V114h-1.008Zm5.475.144c-.56 0-1.064-.128-1.512-.384A2.827 2.827 0 0 1 93 112.68c-.256-.472-.384-1.024-.384-1.656 0-.632.132-1.18.396-1.644.264-.472.62-.836 1.068-1.092a3.06 3.06 0 0 1 1.524-.384c.56 0 1.064.128 1.512.384.448.256.8.62 1.056 1.092.264.464.396 1.012.396 1.644 0 .632-.132 1.184-.396 1.656a2.802 2.802 0 0 1-1.08 1.08 2.993 2.993 0 0 1-1.512.384Zm0-.864c.344 0 .664-.084.96-.252a1.88 1.88 0 0 0 .72-.756c.184-.336.276-.752.276-1.248s-.092-.912-.276-1.248a1.803 1.803 0 0 0-.708-.756 1.89 1.89 0 0 0-.948-.252c-.344 0-.664.084-.96.252a1.88 1.88 0 0 0-.72.756c-.184.336-.276.752-.276 1.248s.092.912.276 1.248c.184.336.42.588.708.756.296.168.612.252.948.252Zm4.39.72v-5.952h.911l.06 1.068c.192-.376.468-.672.828-.888.36-.216.768-.324 1.224-.324.704 0 1.264.216 1.68.648.424.424.636 1.08.636 1.968V114h-1.008v-3.372c0-1.24-.512-1.86-1.536-1.86-.512 0-.94.188-1.284.564-.336.368-.504.896-.504 1.584V114h-1.008Zm12.022.144c-.496 0-.908-.084-1.236-.252a1.713 1.713 0 0 1-.972-1.584c0-.608.232-1.076.696-1.404.464-.328 1.096-.492 1.896-.492h1.608v-.072c0-.52-.136-.912-.408-1.176-.272-.272-.636-.408-1.092-.408-.392 0-.732.1-1.02.3-.28.192-.456.476-.528.852h-1.032c.04-.432.184-.796.432-1.092.256-.296.572-.52.948-.672.376-.16.776-.24 1.2-.24.832 0 1.456.224 1.872.672.424.44.636 1.028.636 1.764V114h-.9l-.06-1.068a2.39 2.39 0 0 1-.744.864c-.32.232-.752.348-1.296.348Zm.156-.852c.384 0 .712-.1.984-.3.28-.2.492-.46.636-.78a2.43 2.43 0 0 0 .216-1.008v-.012h-1.524c-.592 0-1.012.104-1.26.312-.24.2-.36.452-.36.756 0 .312.112.564.336.756.232.184.556.276.972.276Zm4.356.708v-5.952h.912l.06 1.068c.192-.376.468-.672.828-.888.36-.216.768-.324 1.224-.324.704 0 1.264.216 1.68.648.424.424.636 1.08.636 1.968V114h-1.008v-3.372c0-1.24-.512-1.86-1.536-1.86-.512 0-.94.188-1.284.564-.336.368-.504.896-.504 1.584V114h-1.008Zm9.568.144c-.592 0-1.112-.136-1.56-.408a2.835 2.835 0 0 1-1.032-1.116c-.24-.472-.36-1.008-.36-1.608 0-.6.124-1.132.372-1.596a2.75 2.75 0 0 1 1.032-1.104c.44-.272.96-.408 1.56-.408.488 0 .92.1 1.296.3.376.2.668.48.876.84v-3.684h1.008V114h-.912l-.096-.984c-.192.288-.468.548-.828.78-.36.232-.812.348-1.356.348Zm.108-.876c.4 0 .752-.092 1.056-.276.312-.192.552-.456.72-.792.176-.336.264-.728.264-1.176 0-.448-.088-.84-.264-1.176a1.837 1.837 0 0 0-.72-.78 1.935 1.935 0 0 0-1.056-.288c-.392 0-.744.096-1.056.288a1.942 1.942 0 0 0-.72.78c-.168.336-.252.728-.252 1.176 0 .448.084.84.252 1.176.176.336.416.6.72.792a2.04 2.04 0 0 0 1.056.276Zm10.183.876c-.712 0-1.304-.18-1.776-.54-.472-.36-.748-.848-.828-1.464h1.032c.064.312.228.584.492.816.272.224.636.336 1.092.336.424 0 .736-.088.936-.264.2-.184.3-.4.3-.648 0-.36-.132-.6-.396-.72-.256-.12-.62-.228-1.092-.324a6.189 6.189 0 0 1-.96-.276 2.221 2.221 0 0 1-.804-.504c-.216-.224-.324-.516-.324-.876 0-.52.192-.944.576-1.272.392-.336.92-.504 1.584-.504.632 0 1.148.16 1.548.48.408.312.644.76.708 1.344h-.996a1.008 1.008 0 0 0-.396-.708c-.216-.176-.508-.264-.876-.264-.36 0-.64.076-.84.228a.728.728 0 0 0-.288.6c0 .24.124.428.372.564.256.136.6.252 1.032.348.368.08.716.18 1.044.3.336.112.608.284.816.516.216.224.324.552.324.984.008.536-.196.98-.612 1.332-.408.344-.964.516-1.668.516Zm5.892 0c-.704 0-1.264-.212-1.68-.636-.416-.432-.624-1.092-.624-1.98v-3.48h1.008v3.372c0 1.24.508 1.86 1.524 1.86.52 0 .948-.184 1.284-.552.344-.376.516-.908.516-1.596v-3.084h1.008V114h-.912l-.072-1.068c-.184.376-.46.672-.828.888-.36.216-.768.324-1.224.324Zm4.695 2.496v-8.592h.912l.096.984c.192-.288.464-.548.816-.78.36-.232.816-.348 1.368-.348.592 0 1.108.136 1.548.408.44.272.78.644 1.02 1.116.248.472.372 1.008.372 1.608 0 .6-.124 1.136-.372 1.608-.24.464-.584.832-1.032 1.104-.44.264-.956.396-1.548.396-.488 0-.924-.1-1.308-.3-.376-.2-.664-.48-.864-.84v3.636h-1.008Zm3.072-3.372c.4 0 .752-.092 1.056-.276.304-.192.544-.456.72-.792.176-.336.264-.728.264-1.176 0-.448-.088-.84-.264-1.176a1.942 1.942 0 0 0-.72-.78 1.935 1.935 0 0 0-1.056-.288c-.4 0-.752.096-1.056.288a1.942 1.942 0 0 0-.72.78c-.176.336-.264.728-.264 1.176 0 .448.088.84.264 1.176.176.336.416.6.72.792.304.184.656.276 1.056.276Zm4.463 3.372v-8.592h.912l.096.984c.192-.288.464-.548.816-.78.36-.232.816-.348 1.368-.348.592 0 1.108.136 1.548.408.44.272.78.644 1.02 1.116.248.472.372 1.008.372 1.608 0 .6-.124 1.136-.372 1.608-.24.464-.584.832-1.032 1.104-.44.264-.956.396-1.548.396-.488 0-.924-.1-1.308-.3-.376-.2-.664-.48-.864-.84v3.636h-1.008Zm3.072-3.372c.4 0 .752-.092 1.056-.276.304-.192.544-.456.72-.792.176-.336.264-.728.264-1.176 0-.448-.088-.84-.264-1.176a1.942 1.942 0 0 0-.72-.78 1.935 1.935 0 0 0-1.056-.288c-.4 0-.752.096-1.056.288a1.942 1.942 0 0 0-.72.78c-.176.336-.264.728-.264 1.176 0 .448.088.84.264 1.176.176.336.416.6.72.792.304.184.656.276 1.056.276Zm7.175.876c-.56 0-1.064-.128-1.512-.384a2.827 2.827 0 0 1-1.068-1.08c-.256-.472-.384-1.024-.384-1.656 0-.632.132-1.18.396-1.644.264-.472.62-.836 1.068-1.092a3.06 3.06 0 0 1 1.524-.384c.56 0 1.064.128 1.512.384.448.256.8.62 1.056 1.092.264.464.396 1.012.396 1.644 0 .632-.132 1.184-.396 1.656a2.802 2.802 0 0 1-1.08 1.08 2.993 2.993 0 0 1-1.512.384Zm0-.864c.344 0 .664-.084.96-.252a1.88 1.88 0 0 0 .72-.756c.184-.336.276-.752.276-1.248s-.092-.912-.276-1.248a1.803 1.803 0 0 0-.708-.756 1.89 1.89 0 0 0-.948-.252c-.344 0-.664.084-.96.252a1.88 1.88 0 0 0-.72.756c-.184.336-.276.752-.276 1.248s.092.912.276 1.248c.184.336.42.588.708.756.296.168.612.252.948.252Zm4.39.72v-5.952h.912l.084 1.14c.184-.392.464-.704.84-.936.376-.232.84-.348 1.392-.348v1.056h-.276c-.352 0-.676.064-.972.192-.296.12-.532.328-.708.624-.176.296-.264.704-.264 1.224v3h-1.008Zm6.711 0c-.544 0-.972-.132-1.284-.396-.312-.264-.468-.74-.468-1.428V108.9h-1.032v-.852h1.032l.132-1.428h.876v1.428h1.752v.852h-1.752v3.276c0 .376.076.632.228.768.152.128.42.192.804.192h.624V114h-.912Zm6.076-7.272a.707.707 0 0 1-.504-.192.707.707 0 0 1-.192-.504c0-.192.064-.352.192-.48a.707.707 0 0 1 .504-.192c.192 0 .356.064.492.192a.632.632 0 0 1 .204.48c0 .2-.068.368-.204.504a.692.692 0 0 1-.492.192Zm-.504 7.272v-5.952h1.008V114h-1.008Zm5.043.144c-.712 0-1.304-.18-1.776-.54-.472-.36-.748-.848-.828-1.464h1.032c.064.312.228.584.492.816.272.224.636.336 1.092.336.424 0 .736-.088.936-.264.2-.184.3-.4.3-.648 0-.36-.132-.6-.396-.72-.256-.12-.62-.228-1.092-.324a6.189 6.189 0 0 1-.96-.276 2.221 2.221 0 0 1-.804-.504c-.216-.224-.324-.516-.324-.876 0-.52.192-.944.576-1.272.392-.336.92-.504 1.584-.504.632 0 1.148.16 1.548.48.408.312.644.76.708 1.344h-.996a1.008 1.008 0 0 0-.396-.708c-.216-.176-.508-.264-.876-.264-.36 0-.64.076-.84.228a.728.728 0 0 0-.288.6c0 .24.124.428.372.564.256.136.6.252 1.032.348.368.08.716.18 1.044.3.336.112.608.284.816.516.216.224.324.552.324.984.008.536-.196.98-.612 1.332-.408.344-.964.516-1.668.516Zm9.632 0c-.568 0-1.08-.128-1.536-.384a2.916 2.916 0 0 1-1.068-1.092c-.256-.472-.384-1.02-.384-1.644 0-.624.128-1.168.384-1.632.264-.472.62-.836 1.068-1.092a3.01 3.01 0 0 1 1.536-.396c.704 0 1.296.184 1.776.552.488.368.796.86.924 1.476h-1.032a1.301 1.301 0 0 0-.588-.852 1.922 1.922 0 0 0-1.092-.312 1.89 1.89 0 0 0-.948.252 1.88 1.88 0 0 0-.72.756c-.184.336-.276.752-.276 1.248s.092.912.276 1.248c.184.336.424.592.72.768.296.168.612.252.948.252.416 0 .78-.1 1.092-.3.312-.208.508-.5.588-.876h1.032c-.12.6-.424 1.088-.912 1.464-.488.376-1.084.564-1.788.564Zm4.108-.144v-5.952h.912l.084 1.14c.184-.392.464-.704.84-.936.376-.232.84-.348 1.392-.348v1.056h-.276c-.352 0-.676.064-.972.192-.296.12-.532.328-.708.624-.176.296-.264.704-.264 1.224v3h-1.008Zm4.971-7.272a.707.707 0 0 1-.504-.192.707.707 0 0 1-.192-.504c0-.192.064-.352.192-.48a.707.707 0 0 1 .504-.192c.192 0 .356.064.492.192a.632.632 0 0 1 .204.48c0 .2-.068.368-.204.504a.692.692 0 0 1-.492.192Zm-.504 7.272v-5.952h1.008V114h-1.008Zm5.115 0c-.544 0-.972-.132-1.284-.396-.312-.264-.468-.74-.468-1.428V108.9h-1.032v-.852h1.032l.132-1.428h.876v1.428h1.752v.852h-1.752v3.276c0 .376.076.632.228.768.152.128.42.192.804.192h.624V114h-.912Zm2.901-7.272a.707.707 0 0 1-.504-.192.707.707 0 0 1-.192-.504c0-.192.064-.352.192-.48a.707.707 0 0 1 .504-.192c.192 0 .356.064.492.192a.632.632 0 0 1 .204.48c0 .2-.068.368-.204.504a.692.692 0 0 1-.492.192Zm-.504 7.272v-5.952h1.008V114h-1.008Zm5.499.144c-.568 0-1.08-.128-1.536-.384a2.916 2.916 0 0 1-1.068-1.092c-.256-.472-.384-1.02-.384-1.644 0-.624.128-1.168.384-1.632.264-.472.62-.836 1.068-1.092a3.01 3.01 0 0 1 1.536-.396c.704 0 1.296.184 1.776.552.488.368.796.86.924 1.476h-1.032a1.301 1.301 0 0 0-.588-.852 1.922 1.922 0 0 0-1.092-.312 1.89 1.89 0 0 0-.948.252 1.88 1.88 0 0 0-.72.756c-.184.336-.276.752-.276 1.248s.092.912.276 1.248c.184.336.424.592.72.768.296.168.612.252.948.252.416 0 .78-.1 1.092-.3.312-.208.508-.5.588-.876h1.032c-.12.6-.424 1.088-.912 1.464-.488.376-1.084.564-1.788.564Zm6.088 0c-.496 0-.908-.084-1.236-.252a1.713 1.713 0 0 1-.972-1.584c0-.608.232-1.076.696-1.404.464-.328 1.096-.492 1.896-.492h1.608v-.072c0-.52-.136-.912-.408-1.176-.272-.272-.636-.408-1.092-.408-.392 0-.732.1-1.02.3-.28.192-.456.476-.528.852h-1.032c.04-.432.184-.796.432-1.092.256-.296.572-.52.948-.672.376-.16.776-.24 1.2-.24.832 0 1.456.224 1.872.672.424.44.636 1.028.636 1.764V114h-.9l-.06-1.068a2.39 2.39 0 0 1-.744.864c-.32.232-.752.348-1.296.348Zm.156-.852c.384 0 .712-.1.984-.3.28-.2.492-.46.636-.78a2.43 2.43 0 0 0 .216-1.008v-.012h-1.524c-.592 0-1.012.104-1.26.312-.24.2-.36.452-.36.756 0 .312.112.564.336.756.232.184.556.276.972.276Zm4.356.708v-8.64h1.008V114h-1.008ZM53.36 130c-.544 0-.972-.132-1.284-.396-.312-.264-.468-.74-.468-1.428V124.9h-1.032v-.852h1.032l.132-1.428h.876v1.428h1.752v.852h-1.752v3.276c0 .376.076.632.228.768.152.128.42.192.804.192h.624V130h-.912Zm4.837.144c-.56 0-1.064-.128-1.512-.384a2.827 2.827 0 0 1-1.068-1.08c-.256-.472-.384-1.024-.384-1.656 0-.632.132-1.18.396-1.644.264-.472.62-.836 1.068-1.092a3.06 3.06 0 0 1 1.524-.384c.56 0 1.064.128 1.512.384.448.256.8.62 1.056 1.092.264.464.396 1.012.396 1.644 0 .632-.132 1.184-.396 1.656a2.802 2.802 0 0 1-1.08 1.08 2.993 2.993 0 0 1-1.512.384Zm0-.864c.344 0 .664-.084.96-.252a1.88 1.88 0 0 0 .72-.756c.184-.336.276-.752.276-1.248s-.092-.912-.276-1.248a1.803 1.803 0 0 0-.708-.756 1.89 1.89 0 0 0-.948-.252c-.344 0-.664.084-.96.252a1.88 1.88 0 0 0-.72.756c-.184.336-.276.752-.276 1.248s.092.912.276 1.248c.184.336.42.588.708.756.296.168.612.252.948.252Zm9.917-1.152a3.07 3.07 0 0 1-.924-.132l-.6.564c.088.064.196.12.324.168.136.04.328.08.576.12.248.032.596.068 1.044.108.8.056 1.372.24 1.716.552.344.312.516.72.516 1.224 0 .344-.096.672-.288.984-.184.312-.472.568-.864.768-.384.2-.88.3-1.488.3a4.356 4.356 0 0 1-1.428-.216c-.416-.136-.74-.348-.972-.636-.232-.28-.348-.636-.348-1.068 0-.224.06-.468.18-.732.12-.256.344-.5.672-.732a3.022 3.022 0 0 1-.456-.228 2.898 2.898 0 0 1-.336-.288v-.276l1.02-1.008c-.472-.4-.708-.928-.708-1.584 0-.392.092-.748.276-1.068.184-.32.452-.572.804-.756.352-.192.78-.288 1.284-.288.344 0 .656.048.936.144h2.196v.756l-1.116.048c.232.336.348.724.348 1.164 0 .392-.096.748-.288 1.068-.184.32-.452.576-.804.768-.344.184-.768.276-1.272.276Zm0-.828c.424 0 .76-.108 1.008-.324.256-.224.384-.544.384-.96 0-.408-.128-.72-.384-.936-.248-.224-.584-.336-1.008-.336-.432 0-.776.112-1.032.336-.248.216-.372.528-.372.936 0 .416.124.736.372.96.256.216.6.324 1.032.324Zm-1.752 3.468c0 .4.168.696.504.888.336.2.756.3 1.26.3.496 0 .892-.108 1.188-.324a1.01 1.01 0 0 0 .456-.864.888.888 0 0 0-.312-.672c-.208-.184-.592-.292-1.152-.324-.44-.032-.82-.072-1.14-.12-.328.176-.544.364-.648.564-.104.208-.156.392-.156.552Zm8.463-.624c-.568 0-1.072-.128-1.512-.384a2.856 2.856 0 0 1-1.044-1.092c-.248-.464-.372-1.012-.372-1.644 0-.624.124-1.168.372-1.632A2.667 2.667 0 0 1 73.3 124.3c.448-.264.964-.396 1.548-.396.576 0 1.072.132 1.488.396.424.256.748.596.972 1.02a2.885 2.885 0 0 1 .324 1.632v.3h-4.74c.024.456.128.836.312 1.14.192.296.428.52.708.672.288.152.592.228.912.228.416 0 .764-.096 1.044-.288.28-.192.484-.452.612-.78h.996a2.705 2.705 0 0 1-.924 1.38c-.448.36-1.024.54-1.728.54Zm0-5.388c-.48 0-.908.148-1.284.444-.368.288-.58.712-.636 1.272h3.744c-.024-.536-.208-.956-.552-1.26-.344-.304-.768-.456-1.272-.456ZM81.134 130c-.544 0-.972-.132-1.284-.396-.312-.264-.468-.74-.468-1.428V124.9H78.35v-.852h1.032l.132-1.428h.876v1.428h1.752v.852H80.39v3.276c0 .376.076.632.228.768.152.128.42.192.804.192h.624V130h-.912Zm4.64 0c-.544 0-.972-.132-1.284-.396-.312-.264-.468-.74-.468-1.428V124.9H82.99v-.852h1.032l.132-1.428h.876v1.428h1.752v.852H85.03v3.276c0 .376.076.632.228.768.152.128.42.192.804.192h.624V130h-.912Zm2.901-7.272a.707.707 0 0 1-.504-.192.707.707 0 0 1-.192-.504c0-.192.064-.352.192-.48a.707.707 0 0 1 .504-.192c.192 0 .356.064.492.192a.632.632 0 0 1 .204.48c0 .2-.068.368-.204.504a.692.692 0 0 1-.492.192ZM88.171 130v-5.952h1.008V130h-1.008Zm2.763 0v-5.952h.912l.06 1.068c.192-.376.468-.672.828-.888.36-.216.768-.324 1.224-.324.704 0 1.264.216 1.68.648.424.424.636 1.08.636 1.968V130h-1.008v-3.372c0-1.24-.512-1.86-1.536-1.86-.512 0-.94.188-1.284.564-.336.368-.504.896-.504 1.584V130h-1.008Zm9.219-1.872a3.07 3.07 0 0 1-.924-.132l-.6.564c.088.064.196.12.324.168.136.04.328.08.576.12.248.032.596.068 1.044.108.8.056 1.372.24 1.716.552.344.312.516.72.516 1.224 0 .344-.096.672-.288.984-.184.312-.472.568-.864.768-.384.2-.88.3-1.488.3a4.355 4.355 0 0 1-1.428-.216c-.416-.136-.74-.348-.972-.636-.232-.28-.348-.636-.348-1.068 0-.224.06-.468.18-.732.12-.256.344-.5.672-.732a3.022 3.022 0 0 1-.456-.228 2.898 2.898 0 0 1-.336-.288v-.276l1.02-1.008c-.472-.4-.708-.928-.708-1.584 0-.392.092-.748.276-1.068.184-.32.452-.572.804-.756.352-.192.78-.288 1.284-.288.344 0 .656.048.936.144h2.196v.756l-1.116.048c.232.336.348.724.348 1.164 0 .392-.096.748-.288 1.068-.184.32-.452.576-.804.768-.344.184-.768.276-1.272.276Zm0-.828c.424 0 .76-.108 1.008-.324.256-.224.384-.544.384-.96 0-.408-.128-.72-.384-.936-.248-.224-.584-.336-1.008-.336-.432 0-.776.112-1.032.336-.248.216-.372.528-.372.936 0 .416.124.736.372.96.256.216.6.324 1.032.324Zm-1.752 3.468c0 .4.168.696.504.888.336.2.756.3 1.26.3.496 0 .892-.108 1.188-.324a1.01 1.01 0 0 0 .456-.864.888.888 0 0 0-.312-.672c-.208-.184-.592-.292-1.152-.324-.44-.032-.82-.072-1.14-.12-.328.176-.544.364-.648.564-.104.208-.156.392-.156.552Zm9.197 1.872v-8.592h.912l.096.984c.192-.288.464-.548.816-.78.36-.232.816-.348 1.368-.348.592 0 1.108.136 1.548.408.44.272.78.644 1.02 1.116.248.472.372 1.008.372 1.608 0 .6-.124 1.136-.372 1.608-.24.464-.584.832-1.032 1.104-.44.264-.956.396-1.548.396-.488 0-.924-.1-1.308-.3-.376-.2-.664-.48-.864-.84v3.636h-1.008Zm3.072-3.372c.4 0 .752-.092 1.056-.276.304-.192.544-.456.72-.792.176-.336.264-.728.264-1.176 0-.448-.088-.84-.264-1.176a1.942 1.942 0 0 0-.72-.78 1.935 1.935 0 0 0-1.056-.288c-.4 0-.752.096-1.056.288a1.942 1.942 0 0 0-.72.78c-.176.336-.264.728-.264 1.176 0 .448.088.84.264 1.176.176.336.416.6.72.792.304.184.656.276 1.056.276Zm7.139.876c-.568 0-1.072-.128-1.512-.384a2.856 2.856 0 0 1-1.044-1.092c-.248-.464-.372-1.012-.372-1.644 0-.624.124-1.168.372-1.632a2.667 2.667 0 0 1 1.032-1.092c.448-.264.964-.396 1.548-.396.576 0 1.072.132 1.488.396.424.256.748.596.972 1.02a2.885 2.885 0 0 1 .324 1.632v.3h-4.74c.024.456.128.836.312 1.14.192.296.428.52.708.672.288.152.592.228.912.228.416 0 .764-.096 1.044-.288.28-.192.484-.452.612-.78h.996a2.705 2.705 0 0 1-.924 1.38c-.448.36-1.024.54-1.728.54Zm0-5.388c-.48 0-.908.148-1.284.444-.368.288-.58.712-.636 1.272h3.744c-.024-.536-.208-.956-.552-1.26-.344-.304-.768-.456-1.272-.456Zm6.868 5.388c-.56 0-1.064-.128-1.512-.384a2.827 2.827 0 0 1-1.068-1.08c-.256-.472-.384-1.024-.384-1.656 0-.632.132-1.18.396-1.644.264-.472.62-.836 1.068-1.092a3.06 3.06 0 0 1 1.524-.384c.56 0 1.064.128 1.512.384.448.256.8.62 1.056 1.092.264.464.396 1.012.396 1.644 0 .632-.132 1.184-.396 1.656a2.802 2.802 0 0 1-1.08 1.08 2.993 2.993 0 0 1-1.512.384Zm0-.864c.344 0 .664-.084.96-.252a1.88 1.88 0 0 0 .72-.756c.184-.336.276-.752.276-1.248s-.092-.912-.276-1.248a1.803 1.803 0 0 0-.708-.756 1.89 1.89 0 0 0-.948-.252c-.344 0-.664.084-.96.252a1.88 1.88 0 0 0-.72.756c-.184.336-.276.752-.276 1.248s.092.912.276 1.248c.184.336.42.588.708.756.296.168.612.252.948.252Zm4.39 3.36v-8.592h.912l.096.984c.192-.288.464-.548.816-.78.36-.232.816-.348 1.368-.348.592 0 1.108.136 1.548.408.44.272.78.644 1.02 1.116.248.472.372 1.008.372 1.608 0 .6-.124 1.136-.372 1.608-.24.464-.584.832-1.032 1.104-.44.264-.956.396-1.548.396-.488 0-.924-.1-1.308-.3-.376-.2-.664-.48-.864-.84v3.636h-1.008Zm3.072-3.372c.4 0 .752-.092 1.056-.276.304-.192.544-.456.72-.792.176-.336.264-.728.264-1.176 0-.448-.088-.84-.264-1.176a1.942 1.942 0 0 0-.72-.78 1.935 1.935 0 0 0-1.056-.288c-.4 0-.752.096-1.056.288a1.942 1.942 0 0 0-.72.78c-.176.336-.264.728-.264 1.176 0 .448.088.84.264 1.176.176.336.416.6.72.792.304.184.656.276 1.056.276Zm4.463.732v-8.64h1.008V130h-1.008Zm5.336.144c-.568 0-1.072-.128-1.512-.384a2.856 2.856 0 0 1-1.044-1.092c-.248-.464-.372-1.012-.372-1.644 0-.624.124-1.168.372-1.632a2.667 2.667 0 0 1 1.032-1.092c.448-.264.964-.396 1.548-.396.576 0 1.072.132 1.488.396.424.256.748.596.972 1.02a2.885 2.885 0 0 1 .324 1.632v.3h-4.74c.024.456.128.836.312 1.14.192.296.428.52.708.672.288.152.592.228.912.228.416 0 .764-.096 1.044-.288.28-.192.484-.452.612-.78h.996a2.705 2.705 0 0 1-.924 1.38c-.448.36-1.024.54-1.728.54Zm0-5.388c-.48 0-.908.148-1.284.444-.368.288-.58.712-.636 1.272h3.744c-.024-.536-.208-.956-.552-1.26-.344-.304-.768-.456-1.272-.456Zm10.044 5.388c-.56 0-1.064-.128-1.512-.384a2.827 2.827 0 0 1-1.068-1.08c-.256-.472-.384-1.024-.384-1.656 0-.632.132-1.18.396-1.644.264-.472.62-.836 1.068-1.092a3.06 3.06 0 0 1 1.524-.384c.56 0 1.064.128 1.512.384.448.256.8.62 1.056 1.092.264.464.396 1.012.396 1.644 0 .632-.132 1.184-.396 1.656a2.802 2.802 0 0 1-1.08 1.08 2.993 2.993 0 0 1-1.512.384Zm0-.864c.344 0 .664-.084.96-.252a1.88 1.88 0 0 0 .72-.756c.184-.336.276-.752.276-1.248s-.092-.912-.276-1.248a1.803 1.803 0 0 0-.708-.756 1.89 1.89 0 0 0-.948-.252c-.344 0-.664.084-.96.252a1.88 1.88 0 0 0-.72.756c-.184.336-.276.752-.276 1.248s.092.912.276 1.248c.184.336.42.588.708.756.296.168.612.252.948.252Zm4.39.72v-5.952h.912l.06 1.068c.192-.376.468-.672.828-.888.36-.216.768-.324 1.224-.324.704 0 1.264.216 1.68.648.424.424.636 1.08.636 1.968V130h-1.008v-3.372c0-1.24-.512-1.86-1.536-1.86-.512 0-.94.188-1.284.564-.336.368-.504.896-.504 1.584V130h-1.008Zm12.023.144c-.496 0-.908-.084-1.236-.252a1.713 1.713 0 0 1-.972-1.584c0-.608.232-1.076.696-1.404.464-.328 1.096-.492 1.896-.492h1.608v-.072c0-.52-.136-.912-.408-1.176-.272-.272-.636-.408-1.092-.408-.392 0-.732.1-1.02.3-.28.192-.456.476-.528.852h-1.032c.04-.432.184-.796.432-1.092.256-.296.572-.52.948-.672.376-.16.776-.24 1.2-.24.832 0 1.456.224 1.872.672.424.44.636 1.028.636 1.764V130h-.9l-.06-1.068a2.39 2.39 0 0 1-.744.864c-.32.232-.752.348-1.296.348Zm.156-.852c.384 0 .712-.1.984-.3.28-.2.492-.46.636-.78a2.43 2.43 0 0 0 .216-1.008v-.012h-1.524c-.592 0-1.012.104-1.26.312-.24.2-.36.452-.36.756 0 .312.112.564.336.756.232.184.556.276.972.276Zm7.532 3.348v-8.592h.912l.096.984c.192-.288.464-.548.816-.78.36-.232.816-.348 1.368-.348.592 0 1.108.136 1.548.408.44.272.78.644 1.02 1.116.248.472.372 1.008.372 1.608 0 .6-.124 1.136-.372 1.608-.24.464-.584.832-1.032 1.104-.44.264-.956.396-1.548.396-.488 0-.924-.1-1.308-.3-.376-.2-.664-.48-.864-.84v3.636h-1.008Zm3.072-3.372c.4 0 .752-.092 1.056-.276.304-.192.544-.456.72-.792.176-.336.264-.728.264-1.176 0-.448-.088-.84-.264-1.176a1.942 1.942 0 0 0-.72-.78 1.935 1.935 0 0 0-1.056-.288c-.4 0-.752.096-1.056.288a1.942 1.942 0 0 0-.72.78c-.176.336-.264.728-.264 1.176 0 .448.088.84.264 1.176.176.336.416.6.72.792.304.184.656.276 1.056.276Zm6.443.876c-.496 0-.908-.084-1.236-.252a1.713 1.713 0 0 1-.972-1.584c0-.608.232-1.076.696-1.404.464-.328 1.096-.492 1.896-.492h1.608v-.072c0-.52-.136-.912-.408-1.176-.272-.272-.636-.408-1.092-.408-.392 0-.732.1-1.02.3-.28.192-.456.476-.528.852h-1.032c.04-.432.184-.796.432-1.092.256-.296.572-.52.948-.672.376-.16.776-.24 1.2-.24.832 0 1.456.224 1.872.672.424.44.636 1.028.636 1.764V130h-.9l-.06-1.068a2.39 2.39 0 0 1-.744.864c-.32.232-.752.348-1.296.348Zm.156-.852c.384 0 .712-.1.984-.3.28-.2.492-.46.636-.78a2.43 2.43 0 0 0 .216-1.008v-.012h-1.524c-.592 0-1.012.104-1.26.312-.24.2-.36.452-.36.756 0 .312.112.564.336.756.232.184.556.276.972.276Zm6.544.708c-.544 0-.972-.132-1.284-.396-.312-.264-.468-.74-.468-1.428V124.9h-1.032v-.852h1.032l.132-1.428h.876v1.428h1.752v.852h-1.752v3.276c0 .376.076.632.228.768.152.128.42.192.804.192h.624V130h-.912Zm2.288 0v-8.64h1.008v3.708c.2-.368.484-.652.852-.852a2.398 2.398 0 0 1 1.2-.312c.688 0 1.24.216 1.656.648.416.424.624 1.08.624 1.968V130h-.996v-3.372c0-1.24-.5-1.86-1.5-1.86-.52 0-.956.188-1.308.564-.352.368-.528.896-.528 1.584V130h-1.008Zm12.755.144c-.56 0-1.064-.128-1.512-.384a2.827 2.827 0 0 1-1.068-1.08c-.256-.472-.384-1.024-.384-1.656 0-.632.132-1.18.396-1.644.264-.472.62-.836 1.068-1.092a3.06 3.06 0 0 1 1.524-.384c.56 0 1.064.128 1.512.384.448.256.8.62 1.056 1.092.264.464.396 1.012.396 1.644 0 .632-.132 1.184-.396 1.656a2.802 2.802 0 0 1-1.08 1.08 2.993 2.993 0 0 1-1.512.384Zm0-.864c.344 0 .664-.084.96-.252a1.88 1.88 0 0 0 .72-.756c.184-.336.276-.752.276-1.248s-.092-.912-.276-1.248a1.803 1.803 0 0 0-.708-.756 1.89 1.89 0 0 0-.948-.252c-.344 0-.664.084-.96.252a1.88 1.88 0 0 0-.72.756c-.184.336-.276.752-.276 1.248s.092.912.276 1.248c.184.336.42.588.708.756.296.168.612.252.948.252Zm4.714.72v-5.1h-.9v-.852h.9v-1.032c0-.576.144-.996.432-1.26.288-.264.708-.396 1.26-.396h.6v.864h-.444c-.304 0-.52.064-.648.192-.128.12-.192.328-.192.624v1.008h1.464v.852h-1.464v5.1h-1.008ZM51.008 146v-5.952h.912l.084 1.14c.184-.392.464-.704.84-.936.376-.232.84-.348 1.392-.348v1.056h-.276c-.352 0-.676.064-.972.192-.296.12-.532.328-.708.624-.176.296-.264.704-.264 1.224v3h-1.008Zm6.813.144c-.568 0-1.072-.128-1.512-.384a2.856 2.856 0 0 1-1.044-1.092c-.248-.464-.372-1.012-.372-1.644 0-.624.124-1.168.372-1.632a2.667 2.667 0 0 1 1.032-1.092c.448-.264.964-.396 1.548-.396.576 0 1.072.132 1.488.396.424.256.748.596.972 1.02a2.885 2.885 0 0 1 .324 1.632v.3h-4.74c.024.456.128.836.312 1.14.192.296.428.52.708.672.288.152.592.228.912.228.416 0 .764-.096 1.044-.288.28-.192.484-.452.612-.78h.996a2.705 2.705 0 0 1-.924 1.38c-.448.36-1.024.54-1.728.54Zm0-5.388c-.48 0-.908.148-1.284.444-.368.288-.58.712-.636 1.272h3.744c-.024-.536-.208-.956-.552-1.26-.344-.304-.768-.456-1.272-.456Zm6.892 5.388c-.568 0-1.08-.128-1.536-.384a2.916 2.916 0 0 1-1.068-1.092c-.256-.472-.384-1.02-.384-1.644 0-.624.128-1.168.384-1.632.264-.472.62-.836 1.068-1.092a3.01 3.01 0 0 1 1.536-.396c.704 0 1.296.184 1.776.552.488.368.796.86.924 1.476h-1.032a1.301 1.301 0 0 0-.588-.852 1.922 1.922 0 0 0-1.092-.312 1.89 1.89 0 0 0-.948.252 1.88 1.88 0 0 0-.72.756c-.184.336-.276.752-.276 1.248s.092.912.276 1.248c.184.336.424.592.72.768.296.168.612.252.948.252.416 0 .78-.1 1.092-.3.312-.208.508-.5.588-.876h1.032c-.12.6-.424 1.088-.912 1.464-.488.376-1.084.564-1.788.564Zm6.82 0c-.56 0-1.064-.128-1.512-.384a2.827 2.827 0 0 1-1.068-1.08c-.256-.472-.384-1.024-.384-1.656 0-.632.132-1.18.396-1.644.264-.472.62-.836 1.068-1.092a3.06 3.06 0 0 1 1.524-.384c.56 0 1.064.128 1.512.384.448.256.8.62 1.056 1.092.264.464.396 1.012.396 1.644 0 .632-.132 1.184-.396 1.656a2.802 2.802 0 0 1-1.08 1.08 2.993 2.993 0 0 1-1.512.384Zm0-.864c.344 0 .664-.084.96-.252a1.88 1.88 0 0 0 .72-.756c.184-.336.276-.752.276-1.248s-.092-.912-.276-1.248a1.803 1.803 0 0 0-.708-.756 1.89 1.89 0 0 0-.948-.252c-.344 0-.664.084-.96.252a1.88 1.88 0 0 0-.72.756c-.184.336-.276.752-.276 1.248s.092.912.276 1.248c.184.336.42.588.708.756.296.168.612.252.948.252Zm5.8.72-2.255-5.952h1.056l1.788 4.98 1.8-4.98h1.032L78.498 146h-1.164Zm6.914.144c-.568 0-1.072-.128-1.512-.384a2.856 2.856 0 0 1-1.044-1.092c-.248-.464-.372-1.012-.372-1.644 0-.624.124-1.168.372-1.632a2.667 2.667 0 0 1 1.032-1.092c.448-.264.964-.396 1.548-.396.576 0 1.072.132 1.488.396.424.256.748.596.972 1.02a2.885 2.885 0 0 1 .324 1.632v.3h-4.74c.024.456.128.836.312 1.14.192.296.428.52.708.672.288.152.592.228.912.228.416 0 .764-.096 1.044-.288.28-.192.484-.452.612-.78h.996a2.705 2.705 0 0 1-.924 1.38c-.448.36-1.024.54-1.728.54Zm0-5.388c-.48 0-.908.148-1.284.444-.368.288-.58.712-.636 1.272h3.744c-.024-.536-.208-.956-.552-1.26-.344-.304-.768-.456-1.272-.456ZM88.403 146v-5.952h.912l.084 1.14c.184-.392.464-.704.84-.936.376-.232.84-.348 1.392-.348v1.056h-.276c-.352 0-.676.064-.972.192-.296.12-.532.328-.708.624-.176.296-.264.704-.264 1.224v3h-1.008Zm5.007 2.64 1.476-3.216h-.348l-2.364-5.376h1.092l1.968 4.632 2.088-4.632h1.044l-3.9 8.592H93.41Zm-42.522 10.3v-.852h4.752v.852h-4.752Zm8.98 3.06 3.096-8.4h1.068l3.084 8.4h-1.068l-.768-2.16h-3.576l-.78 2.16h-1.056Zm2.136-2.976h2.976l-1.488-4.152-1.488 4.152ZM68.305 162v-5.952h.912l.06 1.068c.192-.376.468-.672.828-.888.36-.216.768-.324 1.224-.324.704 0 1.264.216 1.68.648.424.424.636 1.08.636 1.968V162h-1.008v-3.372c0-1.24-.512-1.86-1.536-1.86-.512 0-.94.188-1.284.564-.336.368-.504.896-.504 1.584V162h-1.008Zm9.22-1.872a3.07 3.07 0 0 1-.925-.132l-.6.564c.088.064.196.12.324.168.136.04.328.08.576.12.248.032.596.068 1.044.108.8.056 1.372.24 1.716.552.344.312.516.72.516 1.224 0 .344-.096.672-.288.984-.184.312-.472.568-.864.768-.384.2-.88.3-1.488.3a4.356 4.356 0 0 1-1.428-.216c-.416-.136-.74-.348-.972-.636-.232-.28-.348-.636-.348-1.068 0-.224.06-.468.18-.732.12-.256.344-.5.672-.732a3.022 3.022 0 0 1-.456-.228 2.898 2.898 0 0 1-.336-.288v-.276l1.02-1.008c-.472-.4-.708-.928-.708-1.584 0-.392.092-.748.276-1.068.184-.32.452-.572.804-.756.352-.192.78-.288 1.284-.288.344 0 .656.048.936.144h2.196v.756l-1.116.048c.232.336.348.724.348 1.164 0 .392-.096.748-.288 1.068-.184.32-.452.576-.804.768-.344.184-.768.276-1.272.276Zm0-.828c.423 0 .76-.108 1.007-.324.256-.224.384-.544.384-.96 0-.408-.128-.72-.384-.936-.248-.224-.584-.336-1.008-.336-.432 0-.776.112-1.032.336-.248.216-.372.528-.372.936 0 .416.124.736.372.96.256.216.6.324 1.032.324Zm-1.753 3.468c0 .4.168.696.504.888.336.2.756.3 1.26.3.496 0 .892-.108 1.188-.324a1.01 1.01 0 0 0 .456-.864.888.888 0 0 0-.312-.672c-.208-.184-.592-.292-1.152-.324-.44-.032-.82-.072-1.14-.12-.328.176-.544.364-.648.564-.104.208-.156.392-.156.552Zm8.463-.624c-.568 0-1.072-.128-1.512-.384a2.856 2.856 0 0 1-1.044-1.092c-.248-.464-.372-1.012-.372-1.644 0-.624.124-1.168.372-1.632a2.667 2.667 0 0 1 1.032-1.092c.448-.264.964-.396 1.548-.396.576 0 1.072.132 1.488.396.424.256.748.596.972 1.02a2.885 2.885 0 0 1 .324 1.632v.3h-4.74c.024.456.128.836.312 1.14.192.296.428.52.708.672.288.152.592.228.912.228.416 0 .764-.096 1.044-.288.28-.192.484-.452.612-.78h.996a2.705 2.705 0 0 1-.924 1.38c-.448.36-1.024.54-1.728.54Zm0-5.388c-.48 0-.908.148-1.284.444-.368.288-.58.712-.636 1.272h3.744c-.024-.536-.208-.956-.552-1.26-.344-.304-.768-.456-1.272-.456ZM88.391 162v-8.64H89.4V162h-1.008Zm4.64.144c-.496 0-.908-.084-1.236-.252a1.713 1.713 0 0 1-.972-1.584c0-.608.232-1.076.696-1.404.464-.328 1.096-.492 1.896-.492h1.608v-.072c0-.52-.136-.912-.408-1.176-.272-.272-.636-.408-1.092-.408-.392 0-.732.1-1.02.3-.28.192-.456.476-.528.852h-1.032c.04-.432.184-.796.432-1.092.256-.296.572-.52.948-.672.376-.16.776-.24 1.2-.24.832 0 1.456.224 1.872.672.424.44.636 1.028.636 1.764V162h-.9l-.06-1.068a2.39 2.39 0 0 1-.744.864c-.32.232-.752.348-1.296.348Zm.156-.852c.384 0 .712-.1.984-.3.28-.2.492-.46.636-.78a2.43 2.43 0 0 0 .216-1.008v-.012H93.5c-.592 0-1.012.104-1.26.312-.24.2-.36.452-.36.756 0 .312.112.564.336.756.232.184.556.276.972.276Zm7.592.708v-8.4h1.008v3.804l3.504-3.804h1.272l-3.12 3.348 3.168 5.052h-1.224l-2.664-4.272-.936.996V162h-1.008Zm7.537-7.272a.707.707 0 0 1-.504-.192.707.707 0 0 1-.192-.504c0-.192.064-.352.192-.48a.707.707 0 0 1 .504-.192c.192 0 .356.064.492.192a.632.632 0 0 1 .204.48c0 .2-.068.368-.204.504a.692.692 0 0 1-.492.192Zm-.504 7.272v-5.952h1.008V162h-1.008Zm2.763 0v-5.952h.912l.072.864c.192-.32.448-.568.768-.744.32-.176.68-.264 1.08-.264.472 0 .876.096 1.212.288.344.192.608.484.792.876.208-.36.492-.644.852-.852a2.375 2.375 0 0 1 1.188-.312c.712 0 1.28.216 1.704.648.424.424.636 1.08.636 1.968V162h-.996v-3.372c0-.616-.124-1.08-.372-1.392-.248-.312-.604-.468-1.068-.468-.48 0-.88.188-1.2.564-.312.368-.468.896-.468 1.584V162h-1.008v-3.372c0-.616-.124-1.08-.372-1.392-.248-.312-.604-.468-1.068-.468-.472 0-.868.188-1.188.564-.312.368-.468.896-.468 1.584V162h-1.008Zm13.914.144c-.488 0-.924-.1-1.308-.3-.376-.2-.664-.48-.864-.84l-.096.996h-.912v-8.64h1.008v3.672c.192-.288.464-.548.816-.78.36-.232.816-.348 1.368-.348.592 0 1.108.136 1.548.408.44.272.78.644 1.02 1.116.248.472.372 1.008.372 1.608 0 .6-.124 1.136-.372 1.608-.24.464-.584.832-1.032 1.104-.44.264-.956.396-1.548.396Zm-.108-.876c.4 0 .752-.092 1.056-.276.304-.192.544-.456.72-.792.176-.336.264-.728.264-1.176 0-.448-.088-.84-.264-1.176a1.942 1.942 0 0 0-.72-.78 1.935 1.935 0 0 0-1.056-.288c-.4 0-.752.096-1.056.288a1.942 1.942 0 0 0-.72.78c-.176.336-.264.728-.264 1.176 0 .448.088.84.264 1.176.176.336.416.6.72.792.304.184.656.276 1.056.276Zm6.443.876c-.496 0-.908-.084-1.236-.252a1.713 1.713 0 0 1-.972-1.584c0-.608.232-1.076.696-1.404.464-.328 1.096-.492 1.896-.492h1.608v-.072c0-.52-.136-.912-.408-1.176-.272-.272-.636-.408-1.092-.408-.392 0-.732.1-1.02.3-.28.192-.456.476-.528.852h-1.032c.04-.432.184-.796.432-1.092.256-.296.572-.52.948-.672.376-.16.776-.24 1.2-.24.832 0 1.456.224 1.872.672.424.44.636 1.028.636 1.764V162h-.9l-.06-1.068a2.39 2.39 0 0 1-.744.864c-.32.232-.752.348-1.296.348Zm.156-.852c.384 0 .712-.1.984-.3.28-.2.492-.46.636-.78a2.43 2.43 0 0 0 .216-1.008v-.012h-1.524c-.592 0-1.012.104-1.26.312-.24.2-.36.452-.36.756 0 .312.112.564.336.756.232.184.556.276.972.276Zm4.356.708v-8.64h1.008V162h-1.008Zm2.661 0v-8.64h1.008V162h-1.008Z" fill="#382D72"/><defs><filter id="a" x="20.868" y="16.066" width="230.913" height="226.869" filterUnits="userSpaceOnUse" color-interpolation-filters="sRGB"><feFlood flood-opacity="0" result="BackgroundImageFix"/><feBlend in="SourceGraphic" in2="BackgroundImageFix" result="shape"/><feGaussianBlur stdDeviation="5.597" result="effect1_foregroundBlur_463_2347"/></filter></defs></svg>