<svg width="263" height="198" fill="none" xmlns="http://www.w3.org/2000/svg"><g filter="url(#a)"><path d="M231.621 19.998c7.439 0 13.428 4.714 13.428 10.561v96.303c0 5.848-5.989 10.562-13.428 10.562h-7.973c2.965 11.146 9.353 21.888 15.526 32.578-15.875-9.322-27.848-19.475-38.185-32.578H43.634c-7.438 0-13.427-4.714-13.427-10.562V30.559c0-5.847 5.989-10.56 13.428-10.56H231.62Z" fill="#96A6CE"/></g><path d="M233.596 7.72c7.439 0 13.428 4.714 13.428 10.562v96.303c0 5.847-5.989 10.561-13.428 10.561h-7.972c2.964 11.146 9.352 21.888 15.525 32.578-15.875-9.322-27.848-19.475-38.185-32.578H45.61c-7.439 0-13.428-4.714-13.428-10.561V18.282c0-5.848 5.99-10.562 13.428-10.562h187.987-.001Z" fill="#EFDEDE" stroke="#382D72" stroke-linecap="round" stroke-linejoin="round"/><path d="M43.982 30.348c-.121-1.785-.182-4.195-.182-7.228 0-3.05.043-5.027.13-5.928.087-.555.468-.919 1.144-1.092.676-.19 1.569-.286 2.678-.286 1.63 0 2.999.355 4.108 1.066 1.127.693 1.69 1.725 1.69 3.094 0 1.127-.156 2.071-.468 2.834-.312.745-.702 1.3-1.17 1.664-.763.59-1.89.884-3.38.884-.641 0-1.482-.087-2.522-.26.087 3.467.121 5.65.104 6.552-.017.901-.32 1.352-.91 1.352-.381 0-.624-.07-.728-.208a7.798 7.798 0 0 1-.208-.286 1.715 1.715 0 0 1-.104-.286 9.255 9.255 0 0 1-.078-.286 4.51 4.51 0 0 1-.052-.364c0-.156-.009-.277-.026-.364-.017-.26-.026-.546-.026-.858Zm7.41-10.296c0-.71-.381-1.265-1.144-1.664a5.026 5.026 0 0 0-2.444-.624c-.867 0-1.473.078-1.82.234a42.133 42.133 0 0 0-.104 2.834c0 .85.035 1.62.104 2.314.468.052.789.095.962.13.45.052.832.078 1.144.078h.65c.121-.017.338-.043.65-.078.33-.052.563-.13.702-.234.139-.104.312-.243.52-.416.208-.173.355-.373.442-.598a5.774 5.774 0 0 0 .338-1.976Zm7.968 9.152.026 2.678c0 .312-.148.598-.442.858-.278.26-.555.39-.832.39-.4 0-.65-.312-.754-.936-.018-.139-.087-1.404-.208-3.796-.122-2.41-.356-4.299-.702-5.668-.156-.659-.234-1.049-.234-1.17 0-.572.346-.858 1.04-.858a.84.84 0 0 1 .702.338c.173.225.277.46.312.702.052.225.095.537.13.936.034.399.06.65.078.754.364-.867.91-1.517 1.638-1.95a4.591 4.591 0 0 1 2.392-.65c1.42 0 2.132.364 2.132 1.092 0 .364-.13.659-.39.884a1.277 1.277 0 0 1-.858.312c-1.474 0-2.514.468-3.12 1.404-.607.936-.91 2.496-.91 4.68Zm10.394-8.242c.918 0 1.793.269 2.625.806.832.537 1.248 1.205 1.248 2.002 0 .78-.337 1.543-1.013 2.288-.677.728-1.578 1.17-2.705 1.326-.485.07-1.213.104-2.184.104.191 1.473.564 2.444 1.119 2.912.173.19.407.286.702.286 1.074 0 1.975-.338 2.703-1.014.729-.693 1.249-1.04 1.56-1.04.14 0 .347.13.624.39.278.26.416.503.416.728 0 .45-.546 1.1-1.638 1.95-.485.399-1.074.737-1.767 1.014-.677.26-1.31.39-1.898.39-1.509 0-2.618-.97-3.329-2.912-.45-1.196-.675-2.513-.675-3.952s.337-2.678 1.013-3.718c.676-1.04 1.742-1.56 3.198-1.56Zm.13 1.794c-.66 0-1.222.373-1.69 1.118-.174.26-.338.85-.495 1.768 2.427 0 3.64-.598 3.64-1.794 0-.728-.485-1.092-1.456-1.092Zm14.883-2.028c.243 0 .425.087.546.26.121.156.182.33.182.52l-.026.26c-.728 1.855-1.265 3.363-1.612 4.524a81.742 81.742 0 0 1-.52 1.82l-.546 2.106a80.863 80.863 0 0 1-.52 1.95c-.243.59-.668.884-1.274.884-.295 0-.503-.19-.624-.572-.555-1.733-1.37-3.692-2.444-5.876a1294.66 1294.66 0 0 0-1.846-3.744c-.139-.33-.208-.624-.208-.884s.112-.511.338-.754c.243-.243.511-.364.806-.364.294 0 .546.156.754.468.19.381.728 1.447 1.612 3.198.901 1.75 1.534 3.129 1.898 4.134.017-.104.078-.32.182-.65.884-3.068 1.603-5.26 2.158-6.578.294-.468.676-.702 1.144-.702Zm5.756.234c.919 0 1.794.269 2.626.806.832.537 1.248 1.205 1.248 2.002 0 .78-.338 1.543-1.014 2.288-.676.728-1.577 1.17-2.704 1.326-.485.07-1.213.104-2.184.104.19 1.473.563 2.444 1.118 2.912.173.19.407.286.702.286 1.075 0 1.976-.338 2.704-1.014.728-.693 1.248-1.04 1.56-1.04.139 0 .347.13.624.39s.416.503.416.728c0 .45-.546 1.1-1.638 1.95-.485.399-1.075.737-1.768 1.014-.676.26-1.309.39-1.898.39-1.508 0-2.617-.97-3.328-2.912-.45-1.196-.676-2.513-.676-3.952s.338-2.678 1.014-3.718c.676-1.04 1.742-1.56 3.198-1.56Zm.13 1.794c-.659 0-1.222.373-1.69 1.118-.173.26-.338.85-.494 1.768 2.427 0 3.64-.598 3.64-1.794 0-.728-.485-1.092-1.456-1.092Zm7.473 9.438-.286-10.556c0-.33.113-.598.338-.806.226-.208.451-.312.676-.312.555 0 .876.234.962.702.07.468.104.953.104 1.456.936-1.23 2.106-1.846 3.51-1.846 2.15 0 3.224 2.453 3.224 7.358v2.054c0 .901-.052 1.56-.156 1.976-.121.52-.494.78-1.118.78-.416 0-.624-.277-.624-.832l.026-1.456c0-2.01-.069-3.38-.208-4.108a16.737 16.737 0 0 0-.364-1.768c-.294-.936-.771-1.404-1.43-1.404-.866 0-1.473.312-1.82.936-.381.676-.606 1.473-.676 2.392a68.542 68.542 0 0 0-.182 5.122c0 .347-.13.624-.39.832-.26.208-.572.312-.936.312-.433 0-.65-.277-.65-.832Zm11.418-11.336 1.3.026c.295 0 .46-.009.494-.026v-5.33c.018-.295.165-.546.442-.754.278-.208.538-.312.78-.312.243 0 .434.078.572.234.156.156.226.399.208.728-.017.33-.026 2.132-.026 5.408l3.042-.104c.52 0 .78.303.78.91 0 .45-.138.789-.416 1.014-.26.225-.546.347-.858.364-.294.017-.589.026-.884.026l-1.586-.026c0 .71.07 2.115.208 4.212.156 2.097.278 3.458.364 4.082.087.607.104 1.005.052 1.196a.562.562 0 0 1-.286.364c-.225.104-.528.156-.91.156-.381 0-.606-.208-.676-.624-.346-2.27-.58-5.39-.702-9.36-.156.017-.754.026-1.794.026s-1.56-.303-1.56-.91c0-.867.486-1.3 1.456-1.3Zm10.004-4.29c.312 0 .606.147.884.442.277.295.416.607.416.936 0 .312-.156.633-.468.962-.295.33-.607.494-.936.494-.33 0-.633-.139-.91-.416-.26-.277-.39-.633-.39-1.066 0-.832.45-1.283 1.352-1.352h.052Zm1.092 13.624.026 1.82c0 .33-.13.607-.39.832a1.31 1.31 0 0 1-.832.312c-.434 0-.659-.217-.676-.65-.226-5.53-.338-8.589-.338-9.178 0-.59.026-1.309.078-2.158.034-.312.234-.468.598-.468.918 0 1.438.373 1.56 1.118.052.381.078.685.078.91l-.104 1.638v5.824Zm3.994 2.002-.286-10.556c0-.33.113-.598.338-.806.226-.208.451-.312.676-.312.555 0 .876.234.962.702.07.468.104.953.104 1.456.936-1.23 2.106-1.846 3.51-1.846 2.15 0 3.224 2.453 3.224 7.358v2.054c0 .901-.052 1.56-.156 1.976-.121.52-.494.78-1.118.78-.416 0-.624-.277-.624-.832l.026-1.456c0-2.01-.069-3.38-.208-4.108a16.737 16.737 0 0 0-.364-1.768c-.294-.936-.771-1.404-1.43-1.404-.866 0-1.473.312-1.82.936-.381.676-.606 1.473-.676 2.392a68.542 68.542 0 0 0-.182 5.122c0 .347-.13.624-.39.832-.26.208-.572.312-.936.312-.433 0-.65-.277-.65-.832Zm18.23-.26c-.624.728-1.413 1.092-2.366 1.092-.953 0-1.777-.295-2.47-.884-1.456-1.127-2.184-2.851-2.184-5.174 0-1.82.503-3.276 1.508-4.368 1.005-1.11 2.245-1.664 3.718-1.664 1.473 0 2.479.503 3.016 1.508.468.884.702 2.219.702 4.004l-.052 2.132c0 1.005.043 2.4.13 4.186.104 1.768.156 3.103.156 4.004 0 1.49-.373 2.583-1.118 3.276-.728.71-1.846 1.066-3.354 1.066-.901 0-1.82-.19-2.756-.572-.936-.381-1.404-.823-1.404-1.326 0-.364.095-.641.286-.832.208-.19.442-.286.702-.286.26 0 .841.19 1.742.572.919.381 1.577.572 1.976.572 1.248 0 1.872-1.023 1.872-3.068s-.035-3.458-.104-4.238Zm-.026-5.486c0-1.265-.191-2.15-.572-2.652-.364-.52-.945-.78-1.742-.78s-1.439.364-1.924 1.092c-.485.728-.728 1.655-.728 2.782 0 1.11.225 1.993.676 2.652.468.659 1.179.988 2.132.988.953 0 1.569-.407 1.846-1.222.208-.659.312-1.612.312-2.86Zm9.77.468c0-1.161.304-2.219.91-3.172.624-.953 1.413-1.664 2.366-2.132.954-.485 1.881-.728 2.782-.728.902 0 1.621.113 2.158.338.555.208.832.494.832.858 0 .347-.104.702-.312 1.066-.19.347-.45.52-.78.52-.121 0-.459-.095-1.014-.286-.537-.208-.884-.312-1.04-.312-1.005 0-1.863.373-2.574 1.118-.71.728-1.066 1.699-1.066 2.912 0 1.213.191 2.123.572 2.73.399.59 1.075.884 2.028.884.382 0 1.032-.217 1.95-.65.936-.45 1.517-.676 1.742-.676.226 0 .408.07.546.208a.704.704 0 0 1 .208.52c0 .416-.268.858-.806 1.326-.52.45-1.17.832-1.95 1.144-.78.295-1.482.442-2.106.442-1.386 0-2.478-.546-3.276-1.638-.78-1.092-1.17-2.583-1.17-4.472Zm17.698-6.058c.763 0 1.144.65 1.144 1.95v.442l-.052 1.82a56.913 56.913 0 0 0-.026 1.69l.39 5.876c0 .433-.442.65-1.326.65h-.39a.442.442 0 0 1-.416-.234c-.069-.156-.078-.347-.026-.572.07-.225.052-.477-.052-.754-.797.85-1.854 1.274-3.172 1.274-2.444 0-3.666-1.89-3.666-5.668 0-2.097.39-3.683 1.17-4.758.798-1.075 1.933-1.612 3.406-1.612.694 0 1.387.121 2.08.364.226-.312.538-.468.936-.468Zm-2.704 2.366c-.988 0-1.724.286-2.21.858-.485.572-.728 1.62-.728 3.146 0 2.565.694 3.848 2.08 3.848.364 0 .763-.165 1.196-.494.451-.33.763-.702.936-1.118.33-.936.494-1.959.494-3.068 0-1.11-.138-1.915-.416-2.418-.26-.503-.71-.754-1.352-.754Zm8.986 5.98.026 2.678c0 .312-.147.598-.442.858-.277.26-.555.39-.832.39-.399 0-.65-.312-.754-.936-.017-.139-.087-1.404-.208-3.796-.121-2.41-.355-4.299-.702-5.668-.156-.659-.234-1.049-.234-1.17 0-.572.347-.858 1.04-.858.295 0 .529.113.702.338a1.5 1.5 0 0 1 .312.702c.052.225.095.537.13.936s.061.65.078.754c.364-.867.91-1.517 1.638-1.95a4.59 4.59 0 0 1 2.392-.65c1.421 0 2.132.364 2.132 1.092 0 .364-.13.659-.39.884a1.278 1.278 0 0 1-.858.312c-1.473 0-2.513.468-3.12 1.404-.607.936-.91 2.496-.91 4.68Zm10.394-8.242c.919 0 1.794.269 2.626.806.832.537 1.248 1.205 1.248 2.002 0 .78-.338 1.543-1.014 2.288-.676.728-1.577 1.17-2.704 1.326-.485.07-1.213.104-2.184.104.191 1.473.563 2.444 1.118 2.912.173.19.407.286.702.286 1.075 0 1.976-.338 2.704-1.014.728-.693 1.248-1.04 1.56-1.04.139 0 .347.13.624.39s.416.503.416.728c0 .45-.546 1.1-1.638 1.95-.485.399-1.075.737-1.768 1.014-.676.26-1.309.39-1.898.39-1.508 0-2.617-.97-3.328-2.912-.451-1.196-.676-2.513-.676-3.952s.338-2.678 1.014-3.718c.676-1.04 1.742-1.56 3.198-1.56Zm.13 1.794c-.659 0-1.222.373-1.69 1.118-.173.26-.338.85-.494 1.768 2.427 0 3.64-.598 3.64-1.794 0-.728-.485-1.092-1.456-1.092ZM49.392 53v-7.572h-2.508V44.6h6.024v.828H50.4V53h-1.008Zm4.687 0v-8.64h1.008v3.708c.2-.368.484-.652.852-.852a2.398 2.398 0 0 1 1.2-.312c.688 0 1.24.216 1.656.648.416.424.624 1.08.624 1.968V53h-.996v-3.372c0-1.24-.5-1.86-1.5-1.86-.52 0-.956.188-1.308.564-.352.368-.528.896-.528 1.584V53H54.08Zm9.543.144c-.568 0-1.072-.128-1.512-.384a2.856 2.856 0 0 1-1.044-1.092c-.248-.464-.372-1.012-.372-1.644 0-.624.124-1.168.372-1.632a2.667 2.667 0 0 1 1.032-1.092c.448-.264.964-.396 1.548-.396.576 0 1.072.132 1.488.396.424.256.748.596.972 1.02a2.885 2.885 0 0 1 .324 1.632v.3h-4.74c.024.456.128.836.312 1.14.192.296.428.52.708.672.288.152.592.228.912.228.416 0 .764-.096 1.044-.288.28-.192.484-.452.612-.78h.996a2.705 2.705 0 0 1-.924 1.38c-.448.36-1.024.54-1.728.54Zm0-5.388c-.48 0-.908.148-1.284.444-.368.288-.58.712-.636 1.272h3.744c-.024-.536-.208-.956-.552-1.26-.344-.304-.768-.456-1.272-.456Zm9.612 5.388c-.712 0-1.304-.18-1.776-.54-.472-.36-.748-.848-.828-1.464h1.032c.064.312.228.584.492.816.272.224.636.336 1.092.336.424 0 .736-.088.936-.264.2-.184.3-.4.3-.648 0-.36-.132-.6-.396-.72-.256-.12-.62-.228-1.092-.324a6.189 6.189 0 0 1-.96-.276 2.221 2.221 0 0 1-.804-.504c-.216-.224-.324-.516-.324-.876 0-.52.192-.944.576-1.272.392-.336.92-.504 1.584-.504.632 0 1.148.16 1.548.48.408.312.644.76.708 1.344h-.996a1.008 1.008 0 0 0-.396-.708c-.216-.176-.508-.264-.876-.264-.36 0-.64.076-.84.228a.728.728 0 0 0-.288.6c0 .24.124.428.372.564.256.136.6.252 1.032.348.368.08.716.18 1.044.3.336.112.608.284.816.516.216.224.324.552.324.984.008.536-.196.98-.612 1.332-.408.344-.964.516-1.668.516ZM79.037 53c-.544 0-.972-.132-1.284-.396-.312-.264-.468-.74-.468-1.428V47.9h-1.032v-.852h1.032l.132-1.428h.876v1.428h1.752v.852h-1.752v3.276c0 .376.076.632.228.768.152.128.42.192.804.192h.624V53h-.912Zm2.9-7.272a.707.707 0 0 1-.504-.192.707.707 0 0 1-.192-.504c0-.192.064-.352.192-.48a.707.707 0 0 1 .504-.192c.192 0 .356.064.492.192a.632.632 0 0 1 .204.48c0 .2-.068.368-.204.504a.692.692 0 0 1-.492.192ZM81.433 53v-5.952h1.008V53h-1.008Zm5.115-1.872a3.07 3.07 0 0 1-.924-.132l-.6.564c.088.064.196.12.324.168.136.04.328.08.576.12.248.032.596.068 1.044.108.8.056 1.372.24 1.716.552.344.312.516.72.516 1.224 0 .344-.096.672-.288.984-.184.312-.472.568-.864.768-.384.2-.88.3-1.488.3a4.356 4.356 0 0 1-1.428-.216c-.416-.136-.74-.348-.972-.636-.232-.28-.348-.636-.348-1.068 0-.224.06-.468.18-.732.12-.256.344-.5.672-.732a3.022 3.022 0 0 1-.456-.228 2.898 2.898 0 0 1-.336-.288v-.276l1.02-1.008c-.472-.4-.708-.928-.708-1.584 0-.392.092-.748.276-1.068.184-.32.452-.572.804-.756.352-.192.78-.288 1.284-.288.344 0 .656.048.936.144h2.196v.756l-1.116.048c.232.336.348.724.348 1.164 0 .392-.096.748-.288 1.068-.184.32-.452.576-.804.768-.344.184-.768.276-1.272.276Zm0-.828c.424 0 .76-.108 1.008-.324.256-.224.384-.544.384-.96 0-.408-.128-.72-.384-.936-.248-.224-.584-.336-1.008-.336-.432 0-.776.112-1.032.336-.248.216-.372.528-.372.936 0 .416.124.736.372.96.256.216.6.324 1.032.324Zm-1.752 3.468c0 .4.168.696.504.888.336.2.756.3 1.26.3.496 0 .892-.108 1.188-.324a1.01 1.01 0 0 0 .456-.864.888.888 0 0 0-.312-.672c-.208-.184-.592-.292-1.152-.324-.44-.032-.82-.072-1.14-.12-.328.176-.544.364-.648.564-.104.208-.156.392-.156.552ZM90.817 53v-5.952h.913l.072.864c.191-.32.447-.568.767-.744.32-.176.68-.264 1.08-.264.472 0 .876.096 1.213.288.344.192.608.484.791.876.209-.36.492-.644.852-.852a2.375 2.375 0 0 1 1.189-.312c.712 0 1.28.216 1.703.648.424.424.637 1.08.637 1.968V53h-.997v-3.372c0-.616-.124-1.08-.372-1.392-.248-.312-.604-.468-1.068-.468-.48 0-.88.188-1.2.564-.312.368-.468.896-.468 1.584V53h-1.008v-3.372c0-.616-.124-1.08-.372-1.392-.248-.312-.604-.468-1.068-.468-.471 0-.867.188-1.188.564-.312.368-.468.896-.468 1.584V53h-1.008Zm12.715.144c-.496 0-.908-.084-1.236-.252a1.713 1.713 0 0 1-.972-1.584c0-.608.232-1.076.696-1.404.464-.328 1.096-.492 1.896-.492h1.608v-.072c0-.52-.136-.912-.408-1.176-.272-.272-.636-.408-1.092-.408-.392 0-.732.1-1.02.3-.28.192-.456.476-.528.852h-1.032c.04-.432.184-.796.432-1.092.256-.296.572-.52.948-.672.376-.16.776-.24 1.2-.24.832 0 1.456.224 1.872.672.424.44.636 1.028.636 1.764V53h-.9l-.06-1.068a2.39 2.39 0 0 1-.744.864c-.32.232-.752.348-1.296.348Zm.156-.852c.384 0 .712-.1.984-.3.28-.2.492-.46.636-.78a2.43 2.43 0 0 0 .216-1.008v-.012H104c-.592 0-1.012.104-1.26.312-.24.2-.36.452-.36.756 0 .312.112.564.336.756.232.184.556.276.972.276Zm10.244.852c-.56 0-1.064-.128-1.512-.384a2.827 2.827 0 0 1-1.068-1.08c-.256-.472-.384-1.024-.384-1.656 0-.632.132-1.18.396-1.644.264-.472.62-.836 1.068-1.092a3.06 3.06 0 0 1 1.524-.384c.56 0 1.064.128 1.512.384.448.256.8.62 1.056 1.092.264.464.396 1.012.396 1.644 0 .632-.132 1.184-.396 1.656a2.802 2.802 0 0 1-1.08 1.08 2.993 2.993 0 0 1-1.512.384Zm0-.864c.344 0 .664-.084.96-.252a1.88 1.88 0 0 0 .72-.756c.184-.336.276-.752.276-1.248s-.092-.912-.276-1.248a1.803 1.803 0 0 0-.708-.756 1.89 1.89 0 0 0-.948-.252c-.344 0-.664.084-.96.252a1.88 1.88 0 0 0-.72.756c-.184.336-.276.752-.276 1.248s.092.912.276 1.248c.184.336.42.588.708.756.296.168.612.252.948.252Zm4.713.72v-5.1h-.9v-.852h.9v-1.032c0-.576.144-.996.432-1.26.288-.264.708-.396 1.26-.396h.6v.864h-.444c-.304 0-.52.064-.648.192-.128.12-.192.328-.192.624v1.008h1.464v.852h-1.464V53h-1.008Zm6.848 0v-5.952h.912l.072.864c.192-.32.448-.568.768-.744.32-.176.68-.264 1.08-.264.472 0 .876.096 1.212.288.344.192.608.484.792.876.208-.36.492-.644.852-.852a2.375 2.375 0 0 1 1.188-.312c.712 0 1.28.216 1.704.648.424.424.636 1.08.636 1.968V53h-.996v-3.372c0-.616-.124-1.08-.372-1.392-.248-.312-.604-.468-1.068-.468-.48 0-.88.188-1.2.564-.312.368-.468.896-.468 1.584V53h-1.008v-3.372c0-.616-.124-1.08-.372-1.392-.248-.312-.604-.468-1.068-.468-.472 0-.868.188-1.188.564-.312.368-.468.896-.468 1.584V53h-1.008Zm13.411.144c-.568 0-1.072-.128-1.512-.384a2.856 2.856 0 0 1-1.044-1.092c-.248-.464-.372-1.012-.372-1.644 0-.624.124-1.168.372-1.632a2.667 2.667 0 0 1 1.032-1.092c.448-.264.964-.396 1.548-.396.576 0 1.072.132 1.488.396.424.256.748.596.972 1.02a2.885 2.885 0 0 1 .324 1.632v.3h-4.74c.024.456.128.836.312 1.14.192.296.428.52.708.672.288.152.592.228.912.228.416 0 .764-.096 1.044-.288.28-.192.484-.452.612-.78h.996a2.705 2.705 0 0 1-.924 1.38c-.448.36-1.024.54-1.728.54Zm0-5.388c-.48 0-.908.148-1.284.444-.368.288-.58.712-.636 1.272h3.744c-.024-.536-.208-.956-.552-1.26-.344-.304-.768-.456-1.272-.456ZM143.06 53v-5.952h.912l.06 1.068c.192-.376.468-.672.828-.888.36-.216.768-.324 1.224-.324.704 0 1.264.216 1.68.648.424.424.636 1.08.636 1.968V53h-1.008v-3.372c0-1.24-.512-1.86-1.536-1.86-.512 0-.94.188-1.284.564-.336.368-.504.896-.504 1.584V53h-1.008Zm9.219 0c-.544 0-.972-.132-1.284-.396-.312-.264-.468-.74-.468-1.428V47.9h-1.032v-.852h1.032l.132-1.428h.876v1.428h1.752v.852h-1.752v3.276c0 .376.076.632.228.768.152.128.42.192.804.192h.624V53h-.912Zm4.269.144c-.496 0-.908-.084-1.236-.252a1.713 1.713 0 0 1-.972-1.584c0-.608.232-1.076.696-1.404.464-.328 1.096-.492 1.896-.492h1.608v-.072c0-.52-.136-.912-.408-1.176-.272-.272-.636-.408-1.092-.408-.392 0-.732.1-1.02.3-.28.192-.456.476-.528.852h-1.032c.04-.432.184-.796.432-1.092.256-.296.572-.52.948-.672.376-.16.776-.24 1.2-.24.832 0 1.456.224 1.872.672.424.44.636 1.028.636 1.764V53h-.9l-.06-1.068a2.39 2.39 0 0 1-.744.864c-.32.232-.752.348-1.296.348Zm.156-.852c.384 0 .712-.1.984-.3.28-.2.492-.46.636-.78a2.43 2.43 0 0 0 .216-1.008v-.012h-1.524c-.592 0-1.012.104-1.26.312-.24.2-.36.452-.36.756 0 .312.112.564.336.756.232.184.556.276.972.276Zm4.356.708v-8.64h1.008V53h-1.008Zm6.448-7.272a.707.707 0 0 1-.504-.192.707.707 0 0 1-.192-.504c0-.192.064-.352.192-.48a.707.707 0 0 1 .504-.192c.192 0 .356.064.492.192a.632.632 0 0 1 .204.48c0 .2-.068.368-.204.504a.692.692 0 0 1-.492.192ZM167.004 53v-5.952h1.008V53h-1.008Zm2.763 0v-8.64h1.008V53h-1.008Zm2.66 0v-8.64h1.008V53h-1.008Zm2.66 0v-5.952h.912l.06 1.068c.192-.376.468-.672.828-.888.36-.216.768-.324 1.224-.324.704 0 1.264.216 1.68.648.424.424.636 1.08.636 1.968V53h-1.008v-3.372c0-1.24-.512-1.86-1.536-1.86-.512 0-.94.188-1.284.564-.336.368-.504.896-.504 1.584V53h-1.008Zm9.543.144c-.568 0-1.072-.128-1.512-.384a2.856 2.856 0 0 1-1.044-1.092c-.248-.464-.372-1.012-.372-1.644 0-.624.124-1.168.372-1.632a2.667 2.667 0 0 1 1.032-1.092c.448-.264.964-.396 1.548-.396.576 0 1.072.132 1.488.396.424.256.748.596.972 1.02a2.885 2.885 0 0 1 .324 1.632v.3h-4.74c.024.456.128.836.312 1.14.192.296.428.52.708.672.288.152.592.228.912.228.416 0 .764-.096 1.044-.288.28-.192.484-.452.612-.78h.996a2.705 2.705 0 0 1-.924 1.38c-.448.36-1.024.54-1.728.54Zm0-5.388c-.48 0-.908.148-1.284.444-.368.288-.58.712-.636 1.272h3.744c-.024-.536-.208-.956-.552-1.26-.344-.304-.768-.456-1.272-.456Zm6.436 5.388c-.712 0-1.304-.18-1.776-.54-.472-.36-.748-.848-.828-1.464h1.032c.064.312.228.584.492.816.272.224.636.336 1.092.336.424 0 .736-.088.936-.264.2-.184.3-.4.3-.648 0-.36-.132-.6-.396-.72-.256-.12-.62-.228-1.092-.324a6.189 6.189 0 0 1-.96-.276 2.221 2.221 0 0 1-.804-.504c-.216-.224-.324-.516-.324-.876 0-.52.192-.944.576-1.272.392-.336.92-.504 1.584-.504.632 0 1.148.16 1.548.48.408.312.644.76.708 1.344h-.996a1.008 1.008 0 0 0-.396-.708c-.216-.176-.508-.264-.876-.264-.36 0-.64.076-.84.228a.728.728 0 0 0-.288.6c0 .24.124.428.372.564.256.136.6.252 1.032.348.368.08.716.18 1.044.3.336.112.608.284.816.516.216.224.324.552.324.984.008.536-.196.98-.612 1.332-.408.344-.964.516-1.668.516Zm6 0c-.712 0-1.304-.18-1.776-.54-.472-.36-.748-.848-.828-1.464h1.032c.064.312.228.584.492.816.272.224.636.336 1.092.336.424 0 .736-.088.936-.264.2-.184.3-.4.3-.648 0-.36-.132-.6-.396-.72-.256-.12-.62-.228-1.092-.324a6.189 6.189 0 0 1-.96-.276 2.221 2.221 0 0 1-.804-.504c-.216-.224-.324-.516-.324-.876 0-.52.192-.944.576-1.272.392-.336.92-.504 1.584-.504.632 0 1.148.16 1.548.48.408.312.644.76.708 1.344h-.996a1.008 1.008 0 0 0-.396-.708c-.216-.176-.508-.264-.876-.264-.36 0-.64.076-.84.228a.728.728 0 0 0-.288.6c0 .24.124.428.372.564.256.136.6.252 1.032.348.368.08.716.18 1.044.3.336.112.608.284.816.516.216.224.324.552.324.984.008.536-.196.98-.612 1.332-.408.344-.964.516-1.668.516Zm7.508-7.416a.707.707 0 0 1-.504-.192.707.707 0 0 1-.192-.504c0-.192.064-.352.192-.48a.707.707 0 0 1 .504-.192c.192 0 .356.064.492.192a.632.632 0 0 1 .204.48c0 .2-.068.368-.204.504a.692.692 0 0 1-.492.192ZM204.07 53v-5.952h1.008V53h-1.008Zm5.043.144c-.712 0-1.304-.18-1.776-.54-.472-.36-.748-.848-.828-1.464h1.032c.064.312.228.584.492.816.272.224.636.336 1.092.336.424 0 .736-.088.936-.264.2-.184.3-.4.3-.648 0-.36-.132-.6-.396-.72-.256-.12-.62-.228-1.092-.324a6.189 6.189 0 0 1-.96-.276 2.221 2.221 0 0 1-.804-.504c-.216-.224-.324-.516-.324-.876 0-.52.192-.944.576-1.272.392-.336.92-.504 1.584-.504.632 0 1.148.16 1.548.48.408.312.644.76.708 1.344h-.996a1.008 1.008 0 0 0-.396-.708c-.216-.176-.508-.264-.876-.264-.36 0-.64.076-.84.228a.728.728 0 0 0-.288.6c0 .24.124.428.372.564.256.136.6.252 1.032.348.368.08.716.18 1.044.3.336.112.608.284.816.516.216.224.324.552.324.984.008.536-.196.98-.612 1.332-.408.344-.964.516-1.668.516Zm-159.037 16c-.56 0-1.064-.128-1.512-.384a2.827 2.827 0 0 1-1.068-1.08c-.256-.472-.384-1.024-.384-1.656 0-.632.132-1.18.396-1.644.264-.472.62-.836 1.068-1.092a3.06 3.06 0 0 1 1.524-.384c.56 0 1.064.128 1.512.384.448.256.8.62 1.056 1.092.264.464.396 1.012.396 1.644 0 .632-.132 1.184-.396 1.656a2.802 2.802 0 0 1-1.08 1.08 2.993 2.993 0 0 1-1.512.384Zm0-.864c.344 0 .664-.084.96-.252a1.88 1.88 0 0 0 .72-.756c.184-.336.276-.752.276-1.248s-.092-.912-.276-1.248a1.803 1.803 0 0 0-.708-.756 1.89 1.89 0 0 0-.948-.252c-.344 0-.664.084-.96.252a1.88 1.88 0 0 0-.72.756c-.184.336-.276.752-.276 1.248s.092.912.276 1.248c.184.336.42.588.708.756.296.168.612.252.948.252Zm4.39.72v-5.952h.912l.06 1.068c.192-.376.468-.672.828-.888.36-.216.768-.324 1.224-.324.704 0 1.264.216 1.68.648.424.424.636 1.08.636 1.968V69h-1.008v-3.372c0-1.24-.512-1.86-1.536-1.86-.512 0-.94.188-1.284.564-.336.368-.504.896-.504 1.584V69h-1.008Zm9.543.144c-.568 0-1.072-.128-1.512-.384a2.856 2.856 0 0 1-1.044-1.092c-.248-.464-.372-1.012-.372-1.644 0-.624.124-1.168.372-1.632a2.667 2.667 0 0 1 1.032-1.092c.448-.264.964-.396 1.548-.396.576 0 1.072.132 1.488.396.424.256.748.596.972 1.02a2.885 2.885 0 0 1 .324 1.632v.3h-4.74c.024.456.128.836.312 1.14.192.296.428.52.708.672.288.152.592.228.912.228.416 0 .764-.096 1.044-.288.28-.192.484-.452.612-.78h.996a2.705 2.705 0 0 1-.924 1.38c-.448.36-1.024.54-1.728.54Zm0-5.388c-.48 0-.908.148-1.284.444-.368.288-.58.712-.636 1.272h3.744c-.024-.536-.208-.956-.552-1.26-.344-.304-.768-.456-1.272-.456Zm10.044 5.388c-.56 0-1.064-.128-1.512-.384a2.827 2.827 0 0 1-1.068-1.08c-.256-.472-.384-1.024-.384-1.656 0-.632.132-1.18.396-1.644.264-.472.62-.836 1.068-1.092a3.06 3.06 0 0 1 1.524-.384c.56 0 1.064.128 1.512.384.448.256.8.62 1.056 1.092.264.464.396 1.012.396 1.644 0 .632-.132 1.184-.396 1.656a2.802 2.802 0 0 1-1.08 1.08 2.993 2.993 0 0 1-1.512.384Zm0-.864c.344 0 .664-.084.96-.252a1.88 1.88 0 0 0 .72-.756c.184-.336.276-.752.276-1.248s-.092-.912-.276-1.248a1.803 1.803 0 0 0-.708-.756 1.89 1.89 0 0 0-.948-.252c-.344 0-.664.084-.96.252a1.88 1.88 0 0 0-.72.756c-.184.336-.276.752-.276 1.248s.092.912.276 1.248c.184.336.42.588.708.756.296.168.612.252.948.252Zm4.713.72v-5.1h-.9v-.852h.9v-1.032c0-.576.144-.996.432-1.26.289-.264.709-.396 1.26-.396h.6v.864h-.444c-.303 0-.52.064-.648.192-.127.12-.191.328-.191.624v1.008h1.463v.852h-1.463V69h-1.009Zm9.2 0c-.544 0-.972-.132-1.284-.396-.312-.264-.468-.74-.468-1.428V63.9h-1.032v-.852h1.032l.132-1.428h.876v1.428h1.752v.852h-1.752v3.276c0 .376.076.632.228.768.152.128.42.192.804.192h.624V69h-.912Zm2.289 0v-8.64h1.008v3.708c.2-.368.484-.652.852-.852a2.398 2.398 0 0 1 1.2-.312c.688 0 1.24.216 1.656.648.416.424.624 1.08.624 1.968V69h-.996v-3.372c0-1.24-.5-1.86-1.5-1.86-.52 0-.956.188-1.308.564-.352.368-.528.896-.528 1.584V69h-1.008Zm9.543.144c-.568 0-1.072-.128-1.512-.384a2.856 2.856 0 0 1-1.044-1.092c-.248-.464-.372-1.012-.372-1.644 0-.624.124-1.168.372-1.632a2.667 2.667 0 0 1 1.032-1.092c.448-.264.964-.396 1.548-.396.576 0 1.072.132 1.488.396.424.256.748.596.972 1.02a2.885 2.885 0 0 1 .324 1.632v.3h-4.74c.024.456.128.836.312 1.14.192.296.428.52.708.672.288.152.592.228.912.228.416 0 .764-.096 1.044-.288.28-.192.484-.452.612-.78h.996a2.705 2.705 0 0 1-.924 1.38c-.448.36-1.024.54-1.728.54Zm0-5.388c-.48 0-.908.148-1.284.444-.368.288-.58.712-.636 1.272h3.744c-.024-.536-.208-.956-.552-1.26-.344-.304-.768-.456-1.272-.456ZM109.482 69c-.544 0-.972-.132-1.284-.396-.312-.264-.468-.74-.468-1.428V63.9h-1.032v-.852h1.032l.132-1.428h.876v1.428h1.752v.852h-1.752v3.276c0 .376.076.632.228.768.152.128.42.192.804.192h.624V69h-.912Zm4.837.144c-.56 0-1.064-.128-1.512-.384a2.827 2.827 0 0 1-1.068-1.08c-.256-.472-.384-1.024-.384-1.656 0-.632.132-1.18.396-1.644.264-.472.62-.836 1.068-1.092a3.06 3.06 0 0 1 1.524-.384c.56 0 1.064.128 1.512.384.448.256.8.62 1.056 1.092.264.464.396 1.012.396 1.644 0 .632-.132 1.184-.396 1.656a2.802 2.802 0 0 1-1.08 1.08 2.993 2.993 0 0 1-1.512.384Zm0-.864c.344 0 .664-.084.96-.252a1.88 1.88 0 0 0 .72-.756c.184-.336.276-.752.276-1.248s-.092-.912-.276-1.248a1.803 1.803 0 0 0-.708-.756 1.89 1.89 0 0 0-.948-.252c-.344 0-.664.084-.96.252a1.88 1.88 0 0 0-.72.756c-.184.336-.276.752-.276 1.248s.092.912.276 1.248c.184.336.42.588.708.756.296.168.612.252.948.252Zm4.389 3.36v-8.592h.912l.096.984c.192-.288.464-.548.816-.78.36-.232.816-.348 1.368-.348.592 0 1.108.136 1.548.408.44.272.78.644 1.02 1.116.248.472.372 1.008.372 1.608 0 .6-.124 1.136-.372 1.608-.24.464-.584.832-1.032 1.104-.44.264-.956.396-1.548.396-.488 0-.924-.1-1.308-.3-.376-.2-.664-.48-.864-.84v3.636h-1.008Zm3.072-3.372c.4 0 .752-.092 1.056-.276.304-.192.544-.456.72-.792.176-.336.264-.728.264-1.176 0-.448-.088-.84-.264-1.176a1.942 1.942 0 0 0-.72-.78 1.935 1.935 0 0 0-1.056-.288c-.4 0-.752.096-1.056.288a1.942 1.942 0 0 0-.72.78c-.176.336-.264.728-.264 1.176 0 .448.088.84.264 1.176.176.336.416.6.72.792.304.184.656.276 1.056.276Zm7.639.732v-5.952h.912l.084 1.14c.184-.392.464-.704.84-.936.376-.232.84-.348 1.392-.348v1.056h-.276c-.352 0-.676.064-.972.192-.296.12-.532.328-.708.624-.176.296-.264.704-.264 1.224v3h-1.008Zm6.813.144c-.568 0-1.072-.128-1.512-.384a2.856 2.856 0 0 1-1.044-1.092c-.248-.464-.372-1.012-.372-1.644 0-.624.124-1.168.372-1.632a2.667 2.667 0 0 1 1.032-1.092c.448-.264.964-.396 1.548-.396.576 0 1.072.132 1.488.396.424.256.748.596.972 1.02a2.885 2.885 0 0 1 .324 1.632v.3h-4.74c.024.456.128.836.312 1.14.192.296.428.52.708.672.288.152.592.228.912.228.416 0 .764-.096 1.044-.288.28-.192.484-.452.612-.78h.996a2.705 2.705 0 0 1-.924 1.38c-.448.36-1.024.54-1.728.54Zm0-5.388c-.48 0-.908.148-1.284.444-.368.288-.58.712-.636 1.272h3.744c-.024-.536-.208-.956-.552-1.26-.344-.304-.768-.456-1.272-.456Zm6.136 5.388c-.496 0-.908-.084-1.236-.252a1.713 1.713 0 0 1-.972-1.584c0-.608.232-1.076.696-1.404.464-.328 1.096-.492 1.896-.492h1.608v-.072c0-.52-.136-.912-.408-1.176-.272-.272-.636-.408-1.092-.408-.392 0-.732.1-1.02.3-.28.192-.456.476-.528.852h-1.032c.04-.432.184-.796.432-1.092.256-.296.572-.52.948-.672.376-.16.776-.24 1.2-.24.832 0 1.456.224 1.872.672.424.44.636 1.028.636 1.764V69h-.9l-.06-1.068a2.39 2.39 0 0 1-.744.864c-.32.232-.752.348-1.296.348Zm.156-.852c.384 0 .712-.1.984-.3.28-.2.492-.46.636-.78a2.43 2.43 0 0 0 .216-1.008v-.012h-1.524c-.592 0-1.012.104-1.26.312-.24.2-.36.452-.36.756 0 .312.112.564.336.756.232.184.556.276.972.276Zm6.636.852c-.712 0-1.304-.18-1.776-.54-.472-.36-.748-.848-.828-1.464h1.032c.064.312.228.584.492.816.272.224.636.336 1.092.336.424 0 .736-.088.936-.264.2-.184.3-.4.3-.648 0-.36-.132-.6-.396-.72-.256-.12-.62-.228-1.092-.324a6.189 6.189 0 0 1-.96-.276 2.221 2.221 0 0 1-.804-.504c-.216-.224-.324-.516-.324-.876 0-.52.192-.944.576-1.272.392-.336.92-.504 1.584-.504.632 0 1.148.16 1.548.48.408.312.644.76.708 1.344h-.996a1.008 1.008 0 0 0-.396-.708c-.216-.176-.508-.264-.876-.264-.36 0-.64.076-.84.228a.728.728 0 0 0-.288.6c0 .24.124.428.372.564.256.136.6.252 1.032.348.368.08.716.18 1.044.3.336.112.608.284.816.516.216.224.324.552.324.984.008.536-.196.98-.612 1.332-.408.344-.964.516-1.668.516Zm6.432 0c-.56 0-1.064-.128-1.512-.384a2.827 2.827 0 0 1-1.068-1.08c-.256-.472-.384-1.024-.384-1.656 0-.632.132-1.18.396-1.644.264-.472.62-.836 1.068-1.092a3.06 3.06 0 0 1 1.524-.384c.56 0 1.064.128 1.512.384.448.256.8.62 1.056 1.092.264.464.396 1.012.396 1.644 0 .632-.132 1.184-.396 1.656a2.802 2.802 0 0 1-1.08 1.08 2.993 2.993 0 0 1-1.512.384Zm0-.864c.344 0 .664-.084.96-.252a1.88 1.88 0 0 0 .72-.756c.184-.336.276-.752.276-1.248s-.092-.912-.276-1.248a1.803 1.803 0 0 0-.708-.756 1.89 1.89 0 0 0-.948-.252c-.344 0-.664.084-.96.252a1.88 1.88 0 0 0-.72.756c-.184.336-.276.752-.276 1.248s.092.912.276 1.248c.184.336.42.588.708.756.296.168.612.252.948.252Zm4.39.72v-5.952h.912l.06 1.068c.192-.376.468-.672.828-.888.36-.216.768-.324 1.224-.324.704 0 1.264.216 1.68.648.424.424.636 1.08.636 1.968V69h-1.008v-3.372c0-1.24-.512-1.86-1.536-1.86-.512 0-.94.188-1.284.564-.336.368-.504.896-.504 1.584V69h-1.008Zm9.147.144c-.712 0-1.304-.18-1.776-.54-.472-.36-.748-.848-.828-1.464h1.032c.064.312.228.584.492.816.272.224.636.336 1.092.336.424 0 .736-.088.936-.264.2-.184.3-.4.3-.648 0-.36-.132-.6-.396-.72-.256-.12-.62-.228-1.092-.324a6.189 6.189 0 0 1-.96-.276 2.221 2.221 0 0 1-.804-.504c-.216-.224-.324-.516-.324-.876 0-.52.192-.944.576-1.272.392-.336.92-.504 1.584-.504.632 0 1.148.16 1.548.48.408.312.644.76.708 1.344h-.996a1.008 1.008 0 0 0-.396-.708c-.216-.176-.508-.264-.876-.264-.36 0-.64.076-.84.228a.728.728 0 0 0-.288.6c0 .24.124.428.372.564.256.136.6.252 1.032.348.368.08.716.18 1.044.3.336.112.608.284.816.516.216.224.324.552.324.984.008.536-.196.98-.612 1.332-.408.344-.964.516-1.668.516Zm9.248-.144c-.544 0-.972-.132-1.284-.396-.312-.264-.468-.74-.468-1.428V63.9h-1.032v-.852h1.032l.132-1.428h.876v1.428h1.752v.852h-1.752v3.276c0 .376.076.632.228.768.152.128.42.192.804.192h.624V69h-.912Zm2.288 0v-8.64h1.008v3.708c.2-.368.484-.652.852-.852a2.398 2.398 0 0 1 1.2-.312c.688 0 1.24.216 1.656.648.416.424.624 1.08.624 1.968V69h-.996v-3.372c0-1.24-.5-1.86-1.5-1.86-.52 0-.956.188-1.308.564-.352.368-.528.896-.528 1.584V69h-1.008Zm8.847.144c-.496 0-.908-.084-1.236-.252a1.713 1.713 0 0 1-.972-1.584c0-.608.232-1.076.696-1.404.464-.328 1.096-.492 1.896-.492h1.608v-.072c0-.52-.136-.912-.408-1.176-.272-.272-.636-.408-1.092-.408-.392 0-.732.1-1.02.3-.28.192-.456.476-.528.852h-1.032c.04-.432.184-.796.432-1.092.256-.296.572-.52.948-.672.376-.16.776-.24 1.2-.24.832 0 1.456.224 1.872.672.424.44.636 1.028.636 1.764V69h-.9l-.06-1.068a2.39 2.39 0 0 1-.744.864c-.32.232-.752.348-1.296.348Zm.156-.852c.384 0 .712-.1.984-.3.28-.2.492-.46.636-.78a2.43 2.43 0 0 0 .216-1.008v-.012h-1.524c-.592 0-1.012.104-1.26.312-.24.2-.36.452-.36.756 0 .312.112.564.336.756.232.184.556.276.972.276Zm6.544.708c-.544 0-.972-.132-1.284-.396-.312-.264-.468-.74-.468-1.428V63.9h-1.032v-.852h1.032l.132-1.428h.876v1.428h1.752v.852h-1.752v3.276c0 .376.076.632.228.768.152.128.42.192.804.192h.624V69h-.912ZM47.364 87.64v-8.592h.912l.096.984c.192-.288.464-.548.816-.78.36-.232.816-.348 1.368-.348.592 0 1.108.136 1.548.408.44.272.78.644 1.02 1.116.248.472.372 1.008.372 1.608 0 .6-.124 1.136-.372 1.608-.24.464-.584.832-1.032 1.104-.44.264-.956.396-1.548.396-.488 0-.924-.1-1.308-.3-.376-.2-.664-.48-.864-.84v3.636h-1.008Zm3.072-3.372c.4 0 .752-.092 1.056-.276.304-.192.544-.456.72-.792.176-.336.264-.728.264-1.176 0-.448-.088-.84-.264-1.176a1.942 1.942 0 0 0-.72-.78 1.935 1.935 0 0 0-1.056-.288c-.4 0-.752.096-1.056.288a1.942 1.942 0 0 0-.72.78c-.176.336-.264.728-.264 1.176 0 .448.088.84.264 1.176.176.336.416.6.72.792.304.184.656.276 1.056.276Zm7.14.876c-.569 0-1.072-.128-1.513-.384a2.856 2.856 0 0 1-1.044-1.092c-.247-.464-.371-1.012-.371-1.644 0-.624.123-1.168.371-1.632a2.667 2.667 0 0 1 1.032-1.092c.448-.264.965-.396 1.548-.396.577 0 1.073.132 1.489.396.423.256.748.596.971 1.02a2.885 2.885 0 0 1 .325 1.632v.3h-4.74c.023.456.128.836.312 1.14.191.296.427.52.707.672.289.152.593.228.913.228.416 0 .764-.096 1.044-.288.28-.192.483-.452.611-.78h.996a2.705 2.705 0 0 1-.923 1.38c-.449.36-1.025.54-1.729.54Zm0-5.388c-.48 0-.909.148-1.285.444-.367.288-.58.712-.635 1.272H59.4c-.024-.536-.209-.956-.553-1.26-.343-.304-.767-.456-1.272-.456Zm6.868 5.388c-.56 0-1.064-.128-1.512-.384a2.827 2.827 0 0 1-1.068-1.08c-.256-.472-.384-1.024-.384-1.656 0-.632.132-1.18.396-1.644.264-.472.62-.836 1.068-1.092a3.06 3.06 0 0 1 1.524-.384c.56 0 1.064.128 1.512.384.448.256.8.62 1.056 1.092.264.464.396 1.012.396 1.644 0 .632-.132 1.184-.396 1.656a2.802 2.802 0 0 1-1.08 1.08 2.993 2.993 0 0 1-1.512.384Zm0-.864c.344 0 .664-.084.96-.252a1.88 1.88 0 0 0 .72-.756c.184-.336.276-.752.276-1.248s-.092-.912-.276-1.248a1.803 1.803 0 0 0-.708-.756 1.89 1.89 0 0 0-.948-.252c-.344 0-.664.084-.96.252a1.88 1.88 0 0 0-.72.756c-.184.336-.276.752-.276 1.248s.092.912.276 1.248c.184.336.42.588.708.756.296.168.612.252.948.252Zm4.39 3.36v-8.592h.911l.096.984c.192-.288.464-.548.816-.78.36-.232.816-.348 1.368-.348.592 0 1.108.136 1.548.408.44.272.78.644 1.02 1.116.248.472.372 1.008.372 1.608 0 .6-.124 1.136-.372 1.608-.24.464-.584.832-1.032 1.104-.44.264-.956.396-1.548.396-.488 0-.924-.1-1.308-.3-.376-.2-.664-.48-.864-.84v3.636h-1.008Zm3.071-3.372c.4 0 .752-.092 1.056-.276.304-.192.544-.456.72-.792.176-.336.264-.728.264-1.176 0-.448-.088-.84-.264-1.176a1.942 1.942 0 0 0-.72-.78 1.935 1.935 0 0 0-1.056-.288c-.4 0-.752.096-1.056.288a1.942 1.942 0 0 0-.72.78c-.176.336-.264.728-.264 1.176 0 .448.088.84.264 1.176.176.336.416.6.72.792.304.184.656.276 1.056.276Zm4.463.732v-8.64h1.008V85h-1.008Zm5.336.144c-.568 0-1.072-.128-1.512-.384a2.856 2.856 0 0 1-1.044-1.092c-.248-.464-.372-1.012-.372-1.644 0-.624.124-1.168.372-1.632A2.667 2.667 0 0 1 80.18 79.3c.448-.264.964-.396 1.548-.396.576 0 1.072.132 1.488.396.424.256.748.596.972 1.02a2.885 2.885 0 0 1 .324 1.632v.3h-4.74c.024.456.128.836.312 1.14.192.296.428.52.708.672.288.152.592.228.912.228.416 0 .764-.096 1.044-.288.28-.192.484-.452.612-.78h.996a2.705 2.705 0 0 1-.924 1.38c-.448.36-1.024.54-1.728.54Zm0-5.388c-.48 0-.908.148-1.284.444-.368.288-.58.712-.636 1.272h3.744c-.024-.536-.208-.956-.552-1.26-.344-.304-.768-.456-1.272-.456Zm10.032 5.388c-.592 0-1.112-.136-1.56-.408a2.835 2.835 0 0 1-1.032-1.116c-.24-.472-.36-1.008-.36-1.608 0-.6.124-1.132.372-1.596a2.75 2.75 0 0 1 1.032-1.104c.44-.272.96-.408 1.56-.408.488 0 .92.1 1.296.3.376.2.668.48.876.84V76.36h1.008V85h-.912l-.096-.984c-.192.288-.468.548-.828.78-.36.232-.812.348-1.356.348Zm.108-.876c.4 0 .752-.092 1.056-.276.312-.192.552-.456.72-.792.176-.336.264-.728.264-1.176 0-.448-.088-.84-.264-1.176a1.837 1.837 0 0 0-.72-.78 1.935 1.935 0 0 0-1.056-.288c-.392 0-.744.096-1.056.288a1.942 1.942 0 0 0-.72.78c-.168.336-.252.728-.252 1.176 0 .448.084.84.252 1.176.176.336.416.6.72.792a2.04 2.04 0 0 0 1.056.276Zm7.44.876c-.56 0-1.065-.128-1.513-.384a2.827 2.827 0 0 1-1.068-1.08c-.256-.472-.384-1.024-.384-1.656 0-.632.132-1.18.396-1.644.264-.472.62-.836 1.068-1.092a3.06 3.06 0 0 1 1.524-.384c.56 0 1.064.128 1.512.384.448.256.8.62 1.056 1.092.264.464.396 1.012.396 1.644 0 .632-.132 1.184-.396 1.656a2.802 2.802 0 0 1-1.08 1.08 2.991 2.991 0 0 1-1.512.384Zm0-.864c.343 0 .663-.084.959-.252a1.88 1.88 0 0 0 .72-.756c.184-.336.276-.752.276-1.248s-.092-.912-.276-1.248a1.803 1.803 0 0 0-.708-.756 1.888 1.888 0 0 0-.948-.252c-.344 0-.664.084-.96.252a1.88 1.88 0 0 0-.72.756c-.184.336-.276.752-.276 1.248s.092.912.276 1.248c.184.336.42.588.708.756.296.168.612.252.948.252Zm4.389.72v-5.952h.912l.06 1.068c.192-.376.468-.672.828-.888.36-.216.768-.324 1.224-.324.704 0 1.264.216 1.68.648.424.424.636 1.08.636 1.968V85h-1.008v-3.372c0-1.24-.512-1.86-1.536-1.86-.512 0-.94.188-1.284.564-.336.368-.504.896-.504 1.584V85h-1.008Zm6.435-5.724.696-2.676h1.128l-1.104 2.676h-.72ZM115.447 85c-.544 0-.972-.132-1.284-.396-.312-.264-.468-.74-.468-1.428V79.9h-1.032v-.852h1.032l.132-1.428h.876v1.428h1.752v.852h-1.752v3.276c0 .376.076.632.228.768.152.128.42.192.804.192h.624V85h-.912Zm5.464 0v-5.952h.912l.084 1.14c.184-.392.464-.704.84-.936.376-.232.84-.348 1.392-.348v1.056h-.276c-.352 0-.676.064-.972.192-.296.12-.532.328-.708.624-.176.296-.264.704-.264 1.224v3h-1.008Zm6.813.144c-.568 0-1.072-.128-1.512-.384a2.856 2.856 0 0 1-1.044-1.092c-.248-.464-.372-1.012-.372-1.644 0-.624.124-1.168.372-1.632A2.667 2.667 0 0 1 126.2 79.3c.448-.264.964-.396 1.548-.396.576 0 1.072.132 1.488.396.424.256.748.596.972 1.02a2.885 2.885 0 0 1 .324 1.632v.3h-4.74c.024.456.128.836.312 1.14.192.296.428.52.708.672.288.152.592.228.912.228.416 0 .764-.096 1.044-.288.28-.192.484-.452.612-.78h.996a2.705 2.705 0 0 1-.924 1.38c-.448.36-1.024.54-1.728.54Zm0-5.388c-.48 0-.908.148-1.284.444-.368.288-.58.712-.636 1.272h3.744c-.024-.536-.208-.956-.552-1.26-.344-.304-.768-.456-1.272-.456Zm6.892 5.388c-.568 0-1.08-.128-1.536-.384a2.916 2.916 0 0 1-1.068-1.092c-.256-.472-.384-1.02-.384-1.644 0-.624.128-1.168.384-1.632.264-.472.62-.836 1.068-1.092a3.01 3.01 0 0 1 1.536-.396c.704 0 1.296.184 1.776.552.488.368.796.86.924 1.476h-1.032a1.301 1.301 0 0 0-.588-.852 1.922 1.922 0 0 0-1.092-.312 1.89 1.89 0 0 0-.948.252 1.88 1.88 0 0 0-.72.756c-.184.336-.276.752-.276 1.248s.092.912.276 1.248c.184.336.424.592.72.768.296.168.612.252.948.252.416 0 .78-.1 1.092-.3.312-.208.508-.5.588-.876h1.032c-.12.6-.424 1.088-.912 1.464-.488.376-1.084.564-1.788.564Zm6.784 0c-.568 0-1.072-.128-1.512-.384a2.856 2.856 0 0 1-1.044-1.092c-.248-.464-.372-1.012-.372-1.644 0-.624.124-1.168.372-1.632a2.667 2.667 0 0 1 1.032-1.092c.448-.264.964-.396 1.548-.396.576 0 1.072.132 1.488.396.424.256.748.596.972 1.02a2.885 2.885 0 0 1 .324 1.632v.3h-4.74c.024.456.128.836.312 1.14.192.296.428.52.708.672.288.152.592.228.912.228.416 0 .764-.096 1.044-.288.28-.192.484-.452.612-.78h.996a2.705 2.705 0 0 1-.924 1.38c-.448.36-1.024.54-1.728.54Zm0-5.388c-.48 0-.908.148-1.284.444-.368.288-.58.712-.636 1.272h3.744c-.024-.536-.208-.956-.552-1.26-.344-.304-.768-.456-1.272-.456Zm4.768-2.028a.707.707 0 0 1-.504-.192.707.707 0 0 1-.192-.504c0-.192.064-.352.192-.48a.707.707 0 0 1 .504-.192c.192 0 .356.064.492.192a.632.632 0 0 1 .204.48c0 .2-.068.368-.204.504a.692.692 0 0 1-.492.192ZM145.664 85v-5.952h1.008V85h-1.008Zm4.479 0-2.256-5.952h1.056l1.788 4.98 1.8-4.98h1.032L151.307 85h-1.164Zm6.913.144c-.568 0-1.072-.128-1.512-.384a2.856 2.856 0 0 1-1.044-1.092c-.248-.464-.372-1.012-.372-1.644 0-.624.124-1.168.372-1.632a2.667 2.667 0 0 1 1.032-1.092c.448-.264.964-.396 1.548-.396.576 0 1.072.132 1.488.396.424.256.748.596.972 1.02a2.885 2.885 0 0 1 .324 1.632v.3h-4.74c.024.456.128.836.312 1.14.192.296.428.52.708.672.288.152.592.228.912.228.416 0 .764-.096 1.044-.288.28-.192.484-.452.612-.78h.996a2.705 2.705 0 0 1-.924 1.38c-.448.36-1.024.54-1.728.54Zm0-5.388c-.48 0-.908.148-1.284.444-.368.288-.58.712-.636 1.272h3.744c-.024-.536-.208-.956-.552-1.26-.344-.304-.768-.456-1.272-.456Zm10.068 5.388c-.568 0-1.08-.128-1.536-.384a2.916 2.916 0 0 1-1.068-1.092c-.256-.472-.384-1.02-.384-1.644 0-.624.128-1.168.384-1.632.264-.472.62-.836 1.068-1.092a3.01 3.01 0 0 1 1.536-.396c.704 0 1.296.184 1.776.552.488.368.796.86.924 1.476h-1.032a1.301 1.301 0 0 0-.588-.852 1.922 1.922 0 0 0-1.092-.312 1.89 1.89 0 0 0-.948.252 1.88 1.88 0 0 0-.72.756c-.184.336-.276.752-.276 1.248s.092.912.276 1.248c.184.336.424.592.72.768.296.168.612.252.948.252.416 0 .78-.1 1.092-.3.312-.208.508-.5.588-.876h1.032c-.12.6-.424 1.088-.912 1.464-.488.376-1.084.564-1.788.564Zm6.088 0c-.496 0-.908-.084-1.236-.252a1.713 1.713 0 0 1-.972-1.584c0-.608.232-1.076.696-1.404.464-.328 1.096-.492 1.896-.492h1.608v-.072c0-.52-.136-.912-.408-1.176-.272-.272-.636-.408-1.092-.408-.392 0-.732.1-1.02.3-.28.192-.456.476-.528.852h-1.032c.04-.432.184-.796.432-1.092.256-.296.572-.52.948-.672.376-.16.776-.24 1.2-.24.832 0 1.456.224 1.872.672.424.44.636 1.028.636 1.764V85h-.9l-.06-1.068a2.39 2.39 0 0 1-.744.864c-.32.232-.752.348-1.296.348Zm.156-.852c.384 0 .712-.1.984-.3.28-.2.492-.46.636-.78a2.43 2.43 0 0 0 .216-1.008v-.012h-1.524c-.592 0-1.012.104-1.26.312-.24.2-.36.452-.36.756 0 .312.112.564.336.756.232.184.556.276.972.276Zm4.356.708v-5.952h.912l.084 1.14c.184-.392.464-.704.84-.936.376-.232.84-.348 1.392-.348v1.056h-.276c-.352 0-.676.064-.972.192-.296.12-.532.328-.708.624-.176.296-.264.704-.264 1.224v3h-1.008Zm6.812.144c-.568 0-1.072-.128-1.512-.384a2.856 2.856 0 0 1-1.044-1.092c-.248-.464-.372-1.012-.372-1.644 0-.624.124-1.168.372-1.632a2.667 2.667 0 0 1 1.032-1.092c.448-.264.964-.396 1.548-.396.576 0 1.072.132 1.488.396.424.256.748.596.972 1.02a2.885 2.885 0 0 1 .324 1.632v.3h-4.74c.024.456.128.836.312 1.14.192.296.428.52.708.672.288.152.592.228.912.228.416 0 .764-.096 1.044-.288.28-.192.484-.452.612-.78h.996a2.705 2.705 0 0 1-.924 1.38c-.448.36-1.024.54-1.728.54Zm0-5.388c-.48 0-.908.148-1.284.444-.368.288-.58.712-.636 1.272h3.744c-.024-.536-.208-.956-.552-1.26-.344-.304-.768-.456-1.272-.456ZM47.244 97.94v-.852h4.752v.852h-4.752Zm9.508 3.06v-8.4h1.008v3.708h4.357V92.6h1.008v8.4h-1.008v-3.864H57.76V101h-1.009Zm10.761.144c-.568 0-1.072-.128-1.512-.384a2.856 2.856 0 0 1-1.044-1.092c-.248-.464-.372-1.012-.372-1.644 0-.624.124-1.168.372-1.632a2.667 2.667 0 0 1 1.032-1.092c.448-.264.964-.396 1.548-.396.576 0 1.072.132 1.488.396.424.256.748.596.972 1.02a2.885 2.885 0 0 1 .324 1.632v.3h-4.74c.024.456.128.836.312 1.14.192.296.428.52.708.672.288.152.592.228.912.228.416 0 .764-.096 1.044-.288.28-.192.484-.452.612-.78h.996a2.705 2.705 0 0 1-.924 1.38c-.448.36-1.024.54-1.728.54Zm0-5.388c-.48 0-.908.148-1.284.444-.368.288-.58.712-.636 1.272h3.744c-.024-.536-.208-.956-.552-1.26-.344-.304-.768-.456-1.272-.456Zm6.136 5.388c-.496 0-.908-.084-1.236-.252a1.713 1.713 0 0 1-.972-1.584c0-.608.232-1.076.696-1.404.464-.328 1.096-.492 1.896-.492h1.608v-.072c0-.52-.136-.912-.408-1.176-.272-.272-.636-.408-1.092-.408-.392 0-.732.1-1.02.3-.28.192-.456.476-.528.852h-1.032c.04-.432.184-.796.432-1.092.256-.296.572-.52.948-.672.376-.16.776-.24 1.2-.24.832 0 1.456.224 1.872.672.424.44.636 1.028.636 1.764V101h-.9l-.06-1.068a2.39 2.39 0 0 1-.744.864c-.32.232-.752.348-1.296.348Zm.156-.852c.384 0 .712-.1.984-.3.28-.2.492-.46.636-.78a2.43 2.43 0 0 0 .216-1.008v-.012h-1.524c-.592 0-1.012.104-1.26.312-.24.2-.36.452-.36.756 0 .312.112.564.336.756.232.184.556.276.972.276Zm4.356.708v-8.64h1.008V101h-1.008Zm5.012 0c-.544 0-.972-.132-1.284-.396-.312-.264-.468-.74-.468-1.428V95.9H80.39v-.852h1.032l.132-1.428h.876v1.428h1.752v.852H82.43v3.276c0 .376.076.632.228.768.152.128.42.192.804.192h.624V101h-.912Zm2.289 0v-8.64h1.008v3.708c.2-.368.484-.652.852-.852a2.398 2.398 0 0 1 1.2-.312c.688 0 1.24.216 1.656.648.416.424.624 1.08.624 1.968V101h-.996v-3.372c0-1.24-.5-1.86-1.5-1.86-.52 0-.956.188-1.308.564-.352.368-.528.896-.528 1.584V101h-1.008Zm6.867 0v-8.64h1.008V101H92.33Zm3.272-7.272a.707.707 0 0 1-.504-.192.707.707 0 0 1-.192-.504c0-.192.064-.352.192-.48a.707.707 0 0 1 .504-.192c.192 0 .356.064.492.192a.632.632 0 0 1 .204.48c0 .2-.068.368-.204.504a.692.692 0 0 1-.492.192ZM95.097 101v-5.952h1.008V101h-1.008Zm2.764 0v-5.952h.911l.06 1.068c.193-.376.469-.672.829-.888a2.33 2.33 0 0 1 1.223-.324c.704 0 1.264.216 1.68.648.424.424.636 1.08.636 1.968V101h-1.008v-3.372c0-1.24-.512-1.86-1.536-1.86-.512 0-.94.188-1.284.564-.335.368-.504.896-.504 1.584V101h-1.007Zm9.543.144c-.568 0-1.072-.128-1.512-.384a2.856 2.856 0 0 1-1.044-1.092c-.248-.464-.372-1.012-.372-1.644 0-.624.124-1.168.372-1.632a2.667 2.667 0 0 1 1.032-1.092c.448-.264.964-.396 1.548-.396.576 0 1.072.132 1.488.396.424.256.748.596.972 1.02a2.885 2.885 0 0 1 .324 1.632v.3h-4.74c.024.456.128.836.312 1.14.192.296.428.52.708.672.288.152.592.228.912.228.416 0 .764-.096 1.044-.288.28-.192.484-.452.612-.78h.996a2.705 2.705 0 0 1-.924 1.38c-.448.36-1.024.54-1.728.54Zm0-5.388c-.48 0-.908.148-1.284.444-.368.288-.58.712-.636 1.272h3.744c-.024-.536-.208-.956-.552-1.26-.344-.304-.768-.456-1.272-.456Z" fill="#382D72"/><defs><filter id="a" x="19.012" y="8.803" width="237.232" height="172.394" filterUnits="userSpaceOnUse" color-interpolation-filters="sRGB"><feFlood flood-opacity="0" result="BackgroundImageFix"/><feBlend in="SourceGraphic" in2="BackgroundImageFix" result="shape"/><feGaussianBlur stdDeviation="5.597" result="effect1_foregroundBlur_463_2409"/></filter></defs></svg>