<svg width="97" height="114" fill="none" xmlns="http://www.w3.org/2000/svg"><ellipse cx="48.446" cy="49.949" rx="47.629" ry="49.949" fill="#AC97C0"/><path d="M66.272 90.662H43.158a2.173 2.173 0 0 1-1.44-.55 2.383 2.383 0 0 1-.766-1.397c-.817-4.908-1.828-8.45-2.64-9.245-1.371-1.34-4.591-.984-7.177-.697-.872.098-1.696.189-2.43.22-6.348.339-6.72-3.96-7.083-8.12a26.42 26.42 0 0 0-.72-4.791 5.893 5.893 0 0 0-1.006-2.077 5.57 5.57 0 0 0-1.704-1.49c-1.06-.733-2.26-1.566-2.155-3.672.05-1.02.813-1.908 1.78-3.033 1.49-1.734 3.53-4.108 3.54-7.865.003-.973-.092-2.274-.186-3.531-.075-1.015-.146-1.974-.17-2.798a23.6 23.6 0 0 1 .022-1.89.883.883 0 0 1 .272-.597.798.798 0 0 1 .594-.22.807.807 0 0 1 .567.287c.145.17.22.395.208.624-.03.579-.036 1.165-.02 1.742.024.784.093 1.726.167 2.718.095 1.292.194 2.628.19 3.67-.01 4.42-2.39 7.186-3.963 9.017-.657.766-1.34 1.559-1.36 1.966-.053 1.076.37 1.414 1.42 2.14.82.483 1.54 1.131 2.12 1.907a7.64 7.64 0 0 1 1.26 2.616 28.13 28.13 0 0 1 .778 5.12c.371 4.248.591 6.81 5.373 6.553.693-.03 1.491-.118 2.336-.212 3.07-.34 6.549-.725 8.466 1.15 1.423 1.39 2.496 6.32 3.14 10.211a.637.637 0 0 0 .205.373.58.58 0 0 0 .386.147h23.114a.576.576 0 0 0 .27-.067.63.63 0 0 0 .308-.74c-.777-2.817-2.123-8.205-2.39-12.641-.166-2.74.59-6.775 2.364-9.19 6.61-9.017 8.813-16.122 7.605-24.523a35.271 35.271 0 0 0-.311-1.832.907.907 0 0 1 .107-.661.844.844 0 0 1 .226-.247.8.8 0 0 1 .625-.136.8.8 0 0 1 .3.131c.09.065.169.148.229.244.06.097.1.205.12.318.124.63.231 1.258.328 1.925 1.267 8.8-1.104 16.526-7.927 25.835-1.506 2.054-2.167 5.67-2.026 8.027.258 4.27 1.57 9.52 2.33 12.268.097.352.115.723.052 1.083s-.205.7-.415.993c-.21.293-.482.53-.794.692a2.152 2.152 0 0 1-1.005.245Z" fill="#000"/><path d="M26.713 67.48h-4.83a.801.801 0 0 1-.58-.252.886.886 0 0 1-.24-.61c0-.23.086-.449.24-.61a.8.8 0 0 1 .58-.254h4.83a.8.8 0 0 1 .58.253c.155.162.241.382.241.61a.886.886 0 0 1-.24.61.801.801 0 0 1-.58.254ZM26.11 50.751c.779 0 1.411-.664 1.411-1.484s-.632-1.485-1.412-1.485c-.78 0-1.412.665-1.412 1.485 0 .82.633 1.484 1.412 1.484ZM49.799 41.148a9.1 9.1 0 0 1-3.73-.718 9.482 9.482 0 0 1-3.165-2.193c-1.718-1.842-2.678-4.32-2.676-6.9.003-2.58.97-5.056 2.692-6.894 1.425-1.496 3.356-2.335 5.37-2.335 2.013 0 3.944.84 5.37 2.335 1.168 1.231 1.824 2.9 1.824 4.639 0 1.74-.656 3.408-1.824 4.64a5.035 5.035 0 0 1-3.645 1.584 5.036 5.036 0 0 1-3.644-1.585 4.635 4.635 0 0 1-1.255-3.188c0-1.196.452-2.343 1.255-3.189a3.512 3.512 0 0 1 2.542-1.106c.953 0 1.868.398 2.542 1.106.57.6.89 1.413.89 2.26 0 .848-.32 1.66-.89 2.26a.82.82 0 0 1-.266.187.785.785 0 0 1-.894-.187.902.902 0 0 1 0-1.22c.262-.276.409-.65.409-1.04s-.147-.763-.409-1.04a1.908 1.908 0 0 0-1.382-.6c-.518 0-1.014.216-1.381.6a2.86 2.86 0 0 0-.774 1.969c0 .737.278 1.445.774 1.967a3.433 3.433 0 0 0 2.485 1.08c.931 0 1.825-.388 2.484-1.08a4.97 4.97 0 0 0 1.345-3.417 4.97 4.97 0 0 0-1.344-3.418c-1.118-1.172-2.632-1.83-4.21-1.83-1.578 0-3.092.658-4.209 1.83-1.417 1.521-2.21 3.567-2.207 5.697.003 2.13.801 4.173 2.223 5.69 2.369 2.639 6.758 3.164 9.986 1.194a.786.786 0 0 1 .91.06.853.853 0 0 1 .212.253.895.895 0 0 1-.298 1.18 9.816 9.816 0 0 1-5.11 1.409ZM56.717 37.728a.792.792 0 0 1-.449-.142.854.854 0 0 1-.301-.377.904.904 0 0 1 .15-.931c.34-.37.633-.783.873-1.231a.855.855 0 0 1 .208-.263.807.807 0 0 1 .612-.184c.11.014.214.05.31.108a.835.835 0 0 1 .244.225.883.883 0 0 1 .16.648.892.892 0 0 1-.11.322 7.765 7.765 0 0 1-1.099 1.555.817.817 0 0 1-.272.2.783.783 0 0 1-.326.07ZM68.994 38.641a5.47 5.47 0 0 1-3.418-1.213 5.018 5.018 0 0 1-1.828-3.275 5.153 5.153 0 0 1 .909-3.675 3.907 3.907 0 0 1 2.6-1.603 3.798 3.798 0 0 1 2.916.797c.347.276.64.622.86 1.016a3.661 3.661 0 0 1 .35 2.642c-.11.444-.302.86-.565 1.224a2.794 2.794 0 0 1-1.859 1.147 2.716 2.716 0 0 1-2.085-.57.848.848 0 0 1-.22-.25.892.892 0 0 1-.095-.662.883.883 0 0 1 .14-.308.836.836 0 0 1 .244-.226.794.794 0 0 1 .63-.085c.106.03.205.083.29.154.249.198.562.283.87.238.309-.045.588-.217.776-.478.132-.184.23-.395.284-.618a1.848 1.848 0 0 0-.177-1.335c-.112-.199-.26-.373-.436-.512a2.215 2.215 0 0 0-1.7-.465 2.278 2.278 0 0 0-1.517.935 3.305 3.305 0 0 0-.524 1.137 3.396 3.396 0 0 0 .323 2.453c.205.367.477.688.8.944a3.906 3.906 0 0 0 3 .82 4.018 4.018 0 0 0 2.673-1.649 5.822 5.822 0 0 0 .99-4.111c-.195-1.454-.926-2.77-2.034-3.663a5.372 5.372 0 0 0-2.317-1.043 5.248 5.248 0 0 0-2.516.151 5.005 5.005 0 0 0-2.098 1.075 5.342 5.342 0 0 0-1.423 1.943.871.871 0 0 1-.173.29.788.788 0 0 1-1.173.02.901.901 0 0 1-.179-.952 6.975 6.975 0 0 1 1.855-2.604 6.528 6.528 0 0 1 2.774-1.44 6.808 6.808 0 0 1 3.274-.172c1.089.21 2.117.684 3.002 1.384 1.444 1.173 2.392 2.895 2.64 4.796a7.603 7.603 0 0 1-1.312 5.368 5.76 5.76 0 0 1-1.658 1.555 5.474 5.474 0 0 1-2.893.82ZM61.848 23.707a3.753 3.753 0 0 1-2.437-.918 4.107 4.107 0 0 1-1.34-2.327 3.573 3.573 0 0 1 .471-2.572 3.26 3.26 0 0 1 2.061-1.47 2.659 2.659 0 0 1 2.081.42 2.92 2.92 0 0 1 1.19 1.844c.062.322.064.653.006.976-.06.323-.178.63-.35.904s-.393.51-.652.695a2.32 2.32 0 0 1-.855.379.782.782 0 0 1-.632-.111.843.843 0 0 1-.236-.239.888.888 0 0 1-.128-.66.89.89 0 0 1 .127-.317.841.841 0 0 1 .235-.24.797.797 0 0 1 .306-.123.737.737 0 0 0 .466-.333.808.808 0 0 0 .107-.583 1.19 1.19 0 0 0-.484-.75 1.082 1.082 0 0 0-.847-.172 1.615 1.615 0 0 0-1.021.729 1.77 1.77 0 0 0-.234 1.274c.059.3.173.586.337.84.164.255.374.473.618.642.244.169.517.285.804.343.287.058.582.056.868-.007a2.988 2.988 0 0 0 1.889-1.348c.435-.694.59-1.542.432-2.357a4.194 4.194 0 0 0-1.71-2.612 3.82 3.82 0 0 0-2.96-.602 4.035 4.035 0 0 0-1.7.857c-.496.42-.892.956-1.158 1.564a4.177 4.177 0 0 0-.131 3.558.905.905 0 0 1 .036.65.852.852 0 0 1-.406.493.785.785 0 0 1-.618.053.832.832 0 0 1-.477-.415 5.9 5.9 0 0 1-.518-2.57 5.88 5.88 0 0 1 .644-2.54c.381-.849.944-1.594 1.646-2.175a5.64 5.64 0 0 1 2.395-1.175 5.39 5.39 0 0 1 4.172.87c1.229.855 2.089 2.182 2.395 3.696a5.077 5.077 0 0 1-.67 3.655c-.674 1.076-1.728 1.828-2.928 2.09a3.682 3.682 0 0 1-.794.084ZM59.689 33.757a.791.791 0 0 1-.428-.128.848.848 0 0 1-.302-.344.9.9 0 0 1 .068-.898c.578-.828.77-1.067.802-1.105a.796.796 0 0 1 1.159-.08.892.892 0 0 1 .077 1.218c-.005.004-.175.216-.713.988a.83.83 0 0 1-.292.258.787.787 0 0 1-.371.091ZM40.35 38.1a.788.788 0 0 1-.429-.127 7.447 7.447 0 0 1-1.45-1.194.902.902 0 0 1-.012-1.231.787.787 0 0 1 1.17.009c.344.365.73.682 1.15.945.152.098.27.246.336.421a.905.905 0 0 1 .025.55.865.865 0 0 1-.295.453.795.795 0 0 1-.495.175ZM27.359 39.332a5.475 5.475 0 0 1-2.895-.822 5.762 5.762 0 0 1-1.658-1.555 7.603 7.603 0 0 1-1.314-5.365c.248-1.9 1.195-3.622 2.638-4.796a6.98 6.98 0 0 1 3.003-1.383 6.813 6.813 0 0 1 3.273.17 6.53 6.53 0 0 1 2.774 1.441 6.974 6.974 0 0 1 1.854 2.603.901.901 0 0 1-.179.952.786.786 0 0 1-1.173-.02.87.87 0 0 1-.172-.29 5.343 5.343 0 0 0-1.423-1.943 5.005 5.005 0 0 0-2.098-1.075 5.244 5.244 0 0 0-2.516-.151 5.368 5.368 0 0 0-2.317 1.043c-1.108.894-1.838 2.209-2.034 3.663a5.824 5.824 0 0 0 .99 4.112c.32.446.722.822 1.181 1.105.46.283.967.468 1.494.545a3.86 3.86 0 0 0 1.579-.098 3.973 3.973 0 0 0 1.422-.725c.323-.256.594-.576.799-.942a3.398 3.398 0 0 0 .325-2.452 3.307 3.307 0 0 0-.524-1.137 2.279 2.279 0 0 0-1.516-.935 2.215 2.215 0 0 0-1.702.465 1.73 1.73 0 0 0-.435.512 1.845 1.845 0 0 0-.178 1.334c.056.224.152.434.285.618a1.133 1.133 0 0 0 1.646.241.805.805 0 0 1 .613-.178.795.795 0 0 1 .307.109.838.838 0 0 1 .243.226.884.884 0 0 1 .157.649.892.892 0 0 1-.11.32.848.848 0 0 1-.22.251 2.715 2.715 0 0 1-2.087.57 2.793 2.793 0 0 1-1.858-1.147 3.562 3.562 0 0 1-.564-1.224 3.66 3.66 0 0 1 .35-2.642c.22-.395.512-.74.86-1.016a3.798 3.798 0 0 1 2.916-.797 3.907 3.907 0 0 1 2.6 1.603 5.153 5.153 0 0 1 .906 3.674 5.017 5.017 0 0 1-1.828 3.273 5.473 5.473 0 0 1-3.414 1.214ZM36.946 34.773a.796.796 0 0 1-.561-.234c-.421-.41-.78-.883-1.066-1.406a.893.893 0 0 1-.09-.675.88.88 0 0 1 .15-.31.833.833 0 0 1 .254-.224.79.79 0 0 1 .933.115c.083.078.15.173.198.28.203.354.452.678.74.96.121.118.205.272.241.441a.905.905 0 0 1-.037.507.857.857 0 0 1-.302.396.794.794 0 0 1-.462.15h.002ZM57.034 26.783a.791.791 0 0 1-.405-.112.834.834 0 0 1-.243-.22.88.88 0 0 1-.168-.636 6.512 6.512 0 0 0-.128-1.409.906.906 0 0 1 .123-.659.842.842 0 0 1 .232-.24.8.8 0 0 1 .628-.12.803.803 0 0 1 .297.14c.09.067.165.152.222.25a.891.891 0 0 1 .113.321c.133.632.18 1.281.142 1.927a.877.877 0 0 1-.27.541.797.797 0 0 1-.543.217ZM34.502 24.398a3.68 3.68 0 0 1-.788-.085c-1.2-.262-2.254-1.013-2.929-2.09a5.077 5.077 0 0 1-.67-3.654c.307-1.514 1.167-2.841 2.396-3.695a5.393 5.393 0 0 1 4.171-.871 5.64 5.64 0 0 1 2.396 1.174 6.019 6.019 0 0 1 1.645 2.176c.401.781.622 1.651.644 2.539a5.9 5.9 0 0 1-.517 2.57.834.834 0 0 1-.477.423.786.786 0 0 1-.621-.051.852.852 0 0 1-.408-.495.905.905 0 0 1 .039-.654 4.177 4.177 0 0 0-.132-3.558 4.307 4.307 0 0 0-1.158-1.564 4.036 4.036 0 0 0-1.7-.857 3.82 3.82 0 0 0-2.96.602 4.194 4.194 0 0 0-1.71 2.612 3.275 3.275 0 0 0 .433 2.357 2.989 2.989 0 0 0 1.889 1.348c.286.063.58.065.868.007.287-.058.56-.174.804-.343.244-.17.454-.387.617-.641.164-.255.279-.54.337-.841.086-.44.002-.899-.234-1.274a1.616 1.616 0 0 0-1.02-.729c-.293-.062-.598 0-.847.173-.25.173-.423.442-.484.75a.808.808 0 0 0 .106.582.738.738 0 0 0 .467.333c.108.02.212.062.305.124a.84.84 0 0 1 .235.24.887.887 0 0 1 .127.66.889.889 0 0 1-.128.317.842.842 0 0 1-.235.238.797.797 0 0 1-.633.112 2.317 2.317 0 0 1-.855-.38 2.445 2.445 0 0 1-.652-.694 2.574 2.574 0 0 1-.35-.905 2.626 2.626 0 0 1 .007-.976 2.925 2.925 0 0 1 1.19-1.842 2.664 2.664 0 0 1 2.08-.423 3.261 3.261 0 0 1 2.061 1.472c.475.758.645 1.683.472 2.572a4.107 4.107 0 0 1-1.34 2.327 3.754 3.754 0 0 1-2.437.918l-.004-.004ZM38.894 27.025a.798.798 0 0 1-.577-.248.882.882 0 0 1-.243-.603 7.65 7.65 0 0 1 .345-1.995.88.88 0 0 1 .15-.298.832.832 0 0 1 .246-.214.793.793 0 0 1 .625-.067c.103.032.2.086.283.157a.893.893 0 0 1 .268.916 6.346 6.346 0 0 0-.276 1.492.889.889 0 0 1-.242.607.804.804 0 0 1-.578.253ZM46.766 18a.791.791 0 0 1-.436-.132.849.849 0 0 1-.303-.356 6.162 6.162 0 0 0-1.675-2.131 6.35 6.35 0 0 1-1.641-2.168c-.39-.84-.6-1.76-.615-2.694a5.692 5.692 0 0 1 .438-2.383 5.435 5.435 0 0 1 1.378-1.946 5.446 5.446 0 0 1 4.021-1.452c1.47.089 2.847.78 3.836 1.927.405.476.717 1.031.919 1.634a5.094 5.094 0 0 1-.197 3.717 4.85 4.85 0 0 1-1.085 1.517c-.378.356-.82.63-1.298.806a3.69 3.69 0 0 1-2.953-.173 3.889 3.889 0 0 1-1.206-.952 3.464 3.464 0 0 1-.646-1.15 3.583 3.583 0 0 1 .139-2.616c.185-.405.445-.768.764-1.068a2.74 2.74 0 0 1 .93-.578 2.642 2.642 0 0 1 2.115.124c.328.166.621.398.864.683.42.495.636 1.145.6 1.807a2.559 2.559 0 0 1-.787 1.726.798.798 0 0 1-.593.22.807.807 0 0 1-.568-.287.892.892 0 0 1-.208-.624.882.882 0 0 1 .272-.597.806.806 0 0 0 .058-1.095 1.133 1.133 0 0 0-.35-.278 1.082 1.082 0 0 0-1.24.185 1.692 1.692 0 0 0-.379.53 1.765 1.765 0 0 0 .252 1.867c.195.228.43.415.693.548a2.137 2.137 0 0 0 1.7.1c.275-.102.528-.26.746-.465.292-.274.53-.607.7-.978a3.267 3.267 0 0 0 .126-2.398 3.174 3.174 0 0 0-.593-1.054 3.905 3.905 0 0 0-2.726-1.353 3.863 3.863 0 0 0-2.847 1.044 3.743 3.743 0 0 0-.942 1.345 3.917 3.917 0 0 0-.293 1.641c.01.68.163 1.35.446 1.96.282.612.69 1.15 1.192 1.578a7.866 7.866 0 0 1 2.13 2.732.896.896 0 0 1-.128.95.826.826 0 0 1-.256.201.777.777 0 0 1-.354.087ZM48.11 21.43a.797.797 0 0 1-.514-.19.87.87 0 0 1-.287-.486c-.09-.355-.207-.701-.349-1.036a.905.905 0 0 1-.007-.661.845.845 0 0 1 .44-.473c.2-.09.425-.093.628-.008a.842.842 0 0 1 .45.462c.183.434.33.884.441 1.344a.9.9 0 0 1-.11.65.823.823 0 0 1-.514.379.801.801 0 0 1-.179.02ZM39.124 31.325a.79.79 0 0 1-.43-.128.847.847 0 0 1-.303-.348 5.785 5.785 0 0 1-.545-2.168.902.902 0 0 1 .236-.611.787.787 0 0 1 .579-.257h.005c.217 0 .425.09.579.25.154.162.24.38.242.607.038.488.163.964.37 1.403a.903.903 0 0 1-.035.84.842.842 0 0 1-.298.302.792.792 0 0 1-.4.11ZM56.428 31.054a.79.79 0 0 1-.393-.106.84.84 0 0 1-.297-.29.896.896 0 0 1-.056-.826c.171-.43.278-.887.316-1.353a.89.89 0 0 1 .08-.327.85.85 0 0 1 .194-.269.774.774 0 0 1 .597-.21.79.79 0 0 1 .31.087c.097.05.183.12.254.204a.874.874 0 0 1 .203.626 6.403 6.403 0 0 1-.46 1.954.853.853 0 0 1-.302.37.793.793 0 0 1-.446.14Z" fill="#000"/></svg>